<svg height="568.78308" viewBox="0 0 568.92798 568.78308" width="568.92798" xmlns="http://www.w3.org/2000/svg"><g stroke-width=".32" transform="translate(-35.52774 -35.57443)"><path d="m306.08 604.90582c-23.20056-1.43299-41.11149-4.25276-60.55877-9.53401-19.03876-5.17034-35.16637-11.35002-53.20123-20.38538-27.93082-13.99318-51.8208-31.25923-74.08-53.54003-45.072637-45.11632-73.570026-103.52902-81.261597-166.5664-2.397926-19.65254-2.741917-41.30848-.965769-60.8 6.058284-66.48385 35.055801-128.27271 82.458896-175.70614 28.85271-28.871166 63.57199-51.239102 101.68847-65.512906 25.60805-9.589668 51.87347-15.265946 80.48-17.392724 8.55842-.636281 32.39866-.545622 40.8.155156 45.74342 3.815574 86.29882 16.656691 124.5735 39.443907 53.725 31.985697 96.02471 81.633617 119.10215 139.792217 10.77373 27.15138 17.03485 54.64541 19.42515 85.30049.55254 7.08629.55475 32.67667.004 39.68-1.43546 18.23437-3.9025 33.59184-8.05261 50.128-15.06675 60.03338-49.6991 113.75939-98.57161 152.91651-46.17572 36.99642-102.3929 58.4745-162.03549 61.90659-5.08672.29271-25.64175.37184-29.80451.11472zm173.63578-160.18918c2.71324-.83629 4.70316-1.77194 7.02921-3.30515 1.9865-1.30938 5.09501-4.26871 5.09501-4.85047 0-.14652-5.724-5.95702-12.72-12.91222-20.73123-20.6103-95.50112-94.19866-95.84304-94.32851-.17341-.0659-7.89366 7.44841-17.15613 16.69837-22.71465 22.68396-23.44902 23.20876-36.84083 26.32841-4.44141 1.03463-5.41168 1.15367-9.28 1.13843-3.98552-.0157-4.78468-.12844-10.3216-1.4566-7.20229-1.72762-9.73242-2.84397-15.1184-6.6706-3.35625-2.38454-5.94057-4.82889-20.51442-19.40326-9.17092-9.17126-16.80276-16.67504-16.95964-16.67504-.42706 0-107.96594 107.62016-107.96594 108.04752 0 .60986 3.43409 3.55357 5.70901 4.89379 2.50409 1.4752 5.5077 2.53242 8.20132 2.88666 1.06132.13958 72.34567.23315 158.40967.20797 147.3449-.0432 156.58483-.0781 158.27578-.5993zm-285.87616-78.71626c27.32421-27.32377 49.68038-49.85717 49.68038-50.0742 0-.50295-98.96356-99.60618-99.4658-99.60618-.2848 0-.3742 23.81477-.3742 99.68 0 54.824.10783 99.68.23962 99.68.13178 0 22.59578-22.35584 49.92-49.67962zm302.80038-50.64038c0-54.648-.11536-99.36-.25635-99.36-.36963 0-99.90365 99.68675-99.90365 100.05696 0 .17024 1.26 1.52127 2.8 3.00231 1.54 1.48105 16.768 16.52742 33.84 33.43638 41.20211 40.80864 62.9801 62.22435 63.27696 62.22435.13366 0 .24304-44.712.24304-99.36zm-169.44 39.6849c3.01126-.82887 6.93686-2.86669 9.49581-4.92932 1.28931-1.03926 35.82419-35.38908 76.74419-76.33293l74.4-74.44336-.8-.63277c-1.57446-1.24531-5.77734-3.14661-8.06819-3.64988-2.12349-.4665-16.39693-.50442-159.77181-.42445l-157.44.0878-2.4.88779c-2.55363.94462-6.44612 3.05846-6.61791 3.59391-.0568.17693 33.91703 34.32356 75.49734 75.88139 81.04627 81.00248 76.67275 76.79201 82.02516 78.96689 3.44883 1.40138 5.96212 1.78916 10.69541 1.65021 2.64432-.0776 5.06474-.33181 6.24-.65529z" fill="#a3d0e5"/><path d="m304.64 604.15408c-28.04116-1.77776-51.82504-6.38675-76.8-14.88278-30.72785-10.45306-60.03983-26.60644-85.92-47.34912-15.3571-12.30855-31.43926-28.38967-43.723869-43.721-40.870761-51.00713-62.704985-113.14979-62.668345-178.36118.029132-51.84921 13.691142-101.24429 40.387376-146.02079 17.039926-28.58037 39.966458-54.81061 66.484838-76.06528 41.7756-33.483437 92.08774-54.374733 145.6-60.458026 17.99058-2.045174 39.53606-2.282512 57.6-.634502 42.80531 3.905219 82.85565 16.87086 119.84 38.79624 38.53203 22.84288 72.372 56.005868 96.22742 94.302358 20.821 33.42509 34.61677 71.45381 40.05463 110.4124 2.96598 21.24906 3.53389 44.0708 1.62813 65.4276-4.68992 52.55757-23.94138 102.77373-55.52317 144.82861-8.79034 11.70534-16.40576 20.45561-26.99831 31.02147-42.28649 42.17994-95.7838 69.65731-154.4287 79.31786-6.44512 1.06172-16.52192 2.28259-24.16 2.9272-7.06144.5959-30.85788.88636-37.6.45894zm175.33222-159.0479c2.75904-.76455 5.60202-2.11684 7.67386-3.65008 2.1536-1.59376 4.91306-4.50544 4.78483-5.04877-.10899-.46176-108.56195-107.49507-109.15382-107.72496-.16656-.0647-8.02803 7.5727-17.46995 16.97197-22.10442 22.00454-23.17972 22.80067-34.81959 25.7798-5.52813 1.41492-5.86345 1.46157-10.66755 1.48503-4.88608.024-5.0502.003-11.01274-1.4905-7.11522-1.78064-9.23192-2.71897-14.28319-6.33165-3.09641-2.21456-6.29793-5.24777-20.66491-19.57852-9.35046-9.32685-17.15926-16.90407-17.3529-16.83821-.19364.0658-24.69805 24.45485-54.45426 54.19776-46.34035 46.31968-54.07632 54.18118-53.9218 54.79686.24305.96835 4.24746 4.22768 6.80709 5.54051 1.13905.58423 3.17163 1.38804 4.51685 1.78624l2.44586.72404 157.60643.0173 157.60643.0173 2.35936-.65383zm-285.7543-78.52512 50.37515-50.37894-4.19631-4.42106c-2.30798-2.43158-24.92667-25.14213-50.26377-50.46787-33.62382-33.60876-46.20596-45.99366-46.58022-45.85004-.46885.17991-.51277 8.77448-.51277 100.34064 0 55.07912.0874 100.37163.19424 100.65003.10683.2784.28745.50618.40139.50618.11393 0 22.87596-22.67053 50.58229-50.37894zm302.86784 48.59276c.10685-.2784.19424-45.28291.19424-100.01003 0-90.9811-.0439-99.52073-.5128-99.70065-.66326-.25452-100.98877 99.94893-100.85514 100.73242.0484.28356 15.49594 15.69058 34.32794 34.23778 18.832 18.54724 41.43965 40.81524 50.23923 49.48445 8.79955 8.66922 16.09216 15.76221 16.20576 15.76221s.29395-.22778.40077-.50618zm-171.73222-59.19916c1.3456-.27796 3.39152-.86007 4.54649-1.29364 5.36701-2.01459.71072 2.45549 82.41827-79.12274 41.71104-41.64505 75.88196-75.94657 75.93533-76.2256.17443-.91161-3.94512-3.24671-7.94169-4.50162l-2.39194-.75106h-157.6c-133.12365 0-157.87334.0687-159.36.44269-3.67109.92337-9.07662 3.84084-8.89587 4.80126.0534.28383 34.22484 34.58918 75.93649 76.23412 82.15169 82.0203 77.14718 77.22267 82.65343 79.23636 4.60418 1.68378 10.11827 2.1265 14.69949 1.18023z" fill="#5abbe8"/><path d="m312.32 603.96368c-39.38293-1.21162-75.931-9.64755-111.04-25.62995-9.72377-4.42647-22.60251-11.24071-23.92399-12.65837-.70894-.76054-1.34149-3.8097-10.969-52.87536-2.31379-11.792-4.61537-23.168-5.11462-25.28s-2.1428-10.248-3.65233-18.08c-3.27825-17.0088-2.95266-15.52688-3.54054-16.11475-.26374-.26375-.4828-.66983-.48681-.9024-.004-.23258-.23799.0452-.51996.61715-.28198.572-.7107 1.04-.95272 1.04-.25603 0-.44003.33453-.44003.8 0 .64-.16.8-.8.8-.44 0-.8-.15546-.8-.34544 0-.40832-1.97596-.0572-2.26981.40333-.10718.16797-.90827.20217-1.84.0786-1.14163-.15143-1.65019-.10759-1.65019.14233 0 .19866.144.36122.32.36122s.32.36.32.8c0 .64-.16.8-.8.8-.49778 0-.8.18134-.8.48s-.30222.48-.8.48c-.64 0-.8-.16-.8-.8s.16-.8.8-.8c.44 0 .8-.144.8-.32s-.204-.32-.45333-.32c-.24934 0-.52597-.18-.61474-.4-.0964-.23894-.17157-.17453-.18667.16-.017.37725-.28631.56-.82526.56-.44 0-.8-.144-.8-.32s-.684-.30864-1.52-.29475c-1.40027.0234-1.45068.0506-.64.34669.64345.235.88.53904.88 1.13104 0 .7176-.10916.79363-.96.66876-.528-.0775-.96-.005-.96.16 0 .1754-.60178.21069-1.44238.0846-1.14934-.17238-1.48136-.11475-1.63424.28365-.11277.29386-.57348.49997-1.11762.49997-.50916 0-.92576.144-.92576.32s-.36.32-.8.32-.8.144-.8.32-.34972.32-.77714.32c-.42743 0-1.00889.23174-1.29213.51498-.30766.30768-.83218.45436-1.30286.36438-.65725-.12563-.78787-.0253-.78787.60502 0 .59268-.17253.75562-.8.75562-.49778 0-.8-.18134-.8-.48 0-.264-.216-.48-.48-.48-.26667 0-.48.28445-.48.64 0 .42666-.21333.64-.64.64s-.64.21334-.64.64c0 .46934-.21333.64-.8.64-.64 0-.8-.16-.8-.8 0-.5361.18474-.81082.56-.83277.308-.0179.0576-.15085-.55643-.2952-.61404-.14435-1.19004-.14902-1.28-.0102-.09.13863-.48757.35319-.88357.47677-.48777.15222-.72.47578-.72 1.00314 0 .42812-.15428.77843-.34286.77843-.18857 0-.55886.216-.82286.48s-.82971.48-1.25714.48c-1.05666 0-1.11533-1.44954-.0721-1.78064.38779-.12311.92779-.44685 1.2-.71943.44672-.44739.41701-.47488-.30508-.28217-.44.11744-1.052.21545-1.36.21785-.308.003-.56.22039-.56.48439s-.216.48-.48.48c-.35475 0-.48-.37152-.48-1.42378 0-.7831 5.82296-45.5311 12.9399-99.44 7.11695-53.90905 13.4013-102.55235 13.96524-108.09635.90706-8.91726 1.04935-11.64877 1.23357-23.68.12621-8.24283.33963-13.9049.54181-14.37403.59131-1.37205.75948 23.75328.75948 113.46654 0 68.89578.0805 86.18749.40139 86.18749.22076 0 23.07814-22.67846 50.79416-50.39658l50.39277-50.39655-2.07416-2.15838c-1.14079-1.1871-23.32254-23.47265-49.29279-49.52343-25.97021-26.05082-47.54401-47.8331-47.94175-48.4051l-.72316-1.04h.83207c1.41201 0 2.81778.8132 4.64058 2.68444.96199.98756 1.93755 1.79556 2.16792 1.79556.65009 0 1.06028-1.40923 1.72315-5.92.80402-5.47131.6159-7.37724-.90821-9.20147-1.19191-1.42662-1.69193-2.44898-1.69193-3.45936 0-.93548.42103-.77074 2.62339 1.02646 1.10913.9051 35.28061 34.87335 75.93661 75.48501 68.36918 68.29461 74.11118 73.94981 76.46592 75.31003 4.74929 2.74346 9.67197 3.91811 15.19037 3.62474 5.34899-.28439 10.5583-2.09149 14.44269-5.01018 2.44931-1.84038 152.60262-152.01199 152.43174-152.45035-.22611-.58008-3.80518-2.77241-5.92182-3.62736-4.516-1.8241 7.17993-1.7084-163.71764-1.61944l-157.37126.08192-2.52398.85998c-1.38819.47299-2.39619.74017-2.24.59373.69991-.65621 5.20956-1.95981 7.79156-2.2523 3.91183-.44314 310.14413-.43856 314.01274.005 4.50064.51567 9.49632 2.57847 11.69779 4.8302 1.96989 2.01482 1.74963 4.23587-.68413 6.89877l-1.65398 1.80972-.11386 2.50694c-.1232 2.7125.42224 8.28829.97383 9.95515.188.56821.56029 1.20822.82723 1.42224.42448.34031.37072.54098-.42861 1.6-.50269.66598-21.69152 22.03051-47.0863 47.47673-25.39475 25.44621-46.17229 46.48636-46.17229 46.75589s1.26 1.69438 2.8 3.16634c6.32141 6.04212 88.59744 87.10609 92.93002 91.56097 3.34211 3.43651 4.83654 4.7662 5.2 4.62672.46512-.17847.50998-8.87616.50998-98.88107 0-54.27696.0916-99.35348.20349-100.17005.22288-1.62606.59299-1.81623 1.88595-.96905 1.71501 1.12372 1.75037 1.67114 1.75274 27.14247.003 32.04416-.48535 26.64971 10.39664 114.84995 4.31264 34.95479 7.84118 64.35015 7.84118 65.32304v1.76863h-1.44685c-1.22813 0-1.50131-.11949-1.80704-.79046-.25616-.56228-.73923-.8697-1.67312-1.0649-1.44934-.30294-1.6375-.26973-1.32614.23408.116.18771.56243.34128.99203.34128.61987 0 .78112.16515.78112.8 0 .67162-.15072.8-.93917.8-1.6792 0-2.58086-.52832-2.58064-1.51206.00019-.86701-.0375-.88532-1.6-.77706-1.10749.0767-1.60019.24918-1.60019.56 0 .48685-1.4735.63962-1.65334.17142-.0587-.15273-.43066-.37843-.82666-.50156-.55168-.17152-.72-.097-.72.31891 0 .46537-.22528.51293-1.57939.33328-.86867-.11523-1.98467-.42-2.48-.67725-.53514-.27792-.94391-.33949-1.00727-.15171-.17539.51958-1.65334.37302-1.65334-.16397 0-.264-.216-.48-.48-.48s-.48.216-.48.48c0 .29866-.30221.48-.8.48-.44 0-.8.144-.8.32s-.36.32-.8.32-.8-.144-.8-.32-.216-.32-.48-.32c-.26666 0-.48-.28445-.48-.64 0-.352-.14125-.64-.31389-.64-.35277 0-.51629.59082-.92998 3.36l-.28682 1.92 3.28832 3.2c3.00794 2.92714 3.32234 3.34691 3.68759 4.92307.4742 2.04647.23776 5.35885-.48189 6.75053-1.0944 2.11629-7.10279 7.10355-9.45895 7.85136-.34342.10899-.62438.30557-.62438.43683 0 .81565-4.28035 27.95351-4.80093 30.43821-.35027 1.672-1.86048 10.888-3.35597 20.48-1.49548 9.592-3.06896 19.6-3.4966 22.24-.42762 2.64-1.72592 10.704-2.88512 17.92-3.39469 21.13194-3.03991 19.38925-4.16055 20.43728-2.58614 2.41853-22.59206 13.05635-34.26233 18.2184-27.06682 11.97232-55.99178 19.58074-85.9185 22.60006-11.05408 1.11524-26.93466 1.73146-36.8 1.42794zm167.62736-158.85059c1.28397-.35581 3.25219-1.09437 4.37379-1.64125 3.38487-1.6504 8.36304-6.00874 8.10407-7.09504-.0579-.24272-24.29722-24.27866-53.86522-53.41318-29.568-29.13453-53.94122-53.276-54.16272-53.64775-.22147-.37171-.64918-.67587-.95046-.67587s-8.18404 7.60758-17.51728 16.90576c-22.10192 22.01888-23.3433 22.93523-35.09591 25.90691-5.70083 1.44147-6.01485 1.48506-10.67363 1.48179-4.64878-.003-4.99089-.051-10.85919-1.51507-7.12123-1.77664-9.2211-2.70656-14.27674-6.32237-3.09573-2.21408-6.29495-5.2448-20.62518-19.53878-9.32861-9.30502-17.17921-16.91824-17.44578-16.91824s-24.31407 23.84339-53.43889 52.98531-53.49422 53.41802-54.15422 53.94688c-.66.52887-1.2 1.22199-1.2 1.54023 0 .8151 3.44453 3.90838 6.04038 5.42444 1.87348 1.09418 5.34488 2.47031 7.55962 2.99677.352.0837 71.56289.16883 158.24643.18925 157.24266.037 157.61181.0356 159.94093-.60979zm28.53264-21.27309c0-.64.16-.8.8-.8s.8.16.8.8-.16.8-.8.8-.8-.16-.8-.8z" fill="#56b2dc"/><path d="m187.12 543.1248c-.836-.0659-1.52-.25766-1.52-.42611 0-.17808-.53574-.22058-1.28-.10157-1.00929.16138-1.28.10445-1.28-.26925 0-.37718-.33352-.44189-1.63394-.31693-.90472.087-1.7259.0166-1.84-.15776-.11333-.17312-.89006-.40614-1.72606-.51785-1.22048-.16307-1.52-.1097-1.52.27078 0 .29216-.30682.47389-.8.47389-.64 0-.8-.16-.8-.8 0-.49779-.18133-.8-.48-.8-.264 0-.48.2448-.48.544 0 .98464-.53104-.0122-1.05687-1.984-.28161-1.056-.94843-4.152-1.48182-6.88s-1.69698-8.488-2.58576-12.8c-2.31047-11.20938-8.13885-40.33405-11.36673-56.8-1.51809-7.744-3.03644-14.86653-3.37412-15.82787-.48389-1.37754-1.04977-2.14119-2.67096-3.60435-1.29282-1.16685-2.19641-2.27895-2.43226-2.9936-.2064-.62538-.32235-1.18999-.25768-1.25466.0647-.0647 1.01596.58054 2.11397 1.43379 2.60158 2.02167 6.41358 3.9673 9.5575 4.87815l2.51473.72854h157.44c150.58864 0 157.52816-.025 159.46579-.57546 4.38307-1.24502 7.93488-3.28812 11.17421-6.42764 1.1-1.06615 2-2.1856 2-2.48775 0-.30214-.96272-1.3863-2.13939-2.40925-1.17667-1.02294-11.65267-11.25974-23.28-22.74841-72.59847-71.73277-83.82909-82.79149-84.07847-82.79149-.15225 0-7.79753 7.50016-16.9895 16.66698-14.70579 14.66563-17.1799 16.99769-20.60406 19.42099-5.88298 4.16339-7.97636 5.07741-15.92416 6.95286-8.07284 1.90496-11.6185 1.85235-20.66442-.30665-11.28998-2.69463-12.93551-3.91716-35.28038-26.21092l-16.88039-16.84176-52.55998 52.55924c-28.90799 28.90761-52.73981 52.55926-52.95961 52.55926-.22893 0-.39964-.40202-.39964-.94112 0-.5176-.144-1.03011-.32-1.13888s-.32-.94557-.32-1.85952c0-2.01405-1.07046-7.8568-1.78841-9.76147-.40717-1.08019-.63504-1.32973-1.04608-1.14557-1.07042.47955-3.08194.49136-3.71405.0218-.60446-.44902-.55575-.5448 1.2719-2.50109 1.04524-1.11878 23.82808-23.99481 50.62853-50.83558 26.80046-26.84074 48.72811-48.93619 48.72811-49.10097 0-.16477-19.90949-20.25213-44.24332-44.63857-41.83357-41.92407-52.53093-52.81903-51.86101-52.81903.15861 0 .99756.72 1.86433 1.6 1.0642 1.08045 1.838 1.6 2.38296 1.6.59902 0 1.74585.92787 4.44954 3.6l3.64252 3.6-.19121-2.4c-.23756-2.98188-2.55133-15.27507-3.28248-17.44-.29719-.88-.95007-2.07301-1.45084-2.65114-.50077-.57812-.91049-1.32234-.91049-1.65382s-.0984-.85906-.21861-1.17239c-.18456-.48096-.0475-.45301.88.17944.60423.41203 33.93061 33.53816 74.05861 73.61361 40.128 40.07546 73.68 73.37358 74.56 73.99585 4.46365 3.15626 9.06245 4.70279 14.74103 4.95728 6.05324.27127 11.01855-1.0167 15.8894-4.12157 1.47335-.93916 21.35005-20.60342 74.48957-73.69333 39.864-39.82679 74.11936-73.8839 76.12298-75.68246 2.71763-2.43948 3.71212-3.16107 3.9151-2.84079.48496.76512.30246 1.44762-.82544 3.08731-.60902.8854-1.20848 2.01756-1.33206 2.51591-.12362.49836-1.13831 1.85467-2.25492 3.01404-1.879 1.95103-2.07686 2.29643-2.6576 4.64-.72128 2.91064-2.17798 12.49591-2.36432 15.55753-.0694 1.13935-.30332 2.41872-.5199 2.84304s-19.20474 19.59947-42.1959 42.61144l-41.80212 41.83995 2.07709 2.03679c28.63831 28.08267 73.05581 71.8971 84.26269 83.11857 8.06608 8.07661 14.87008 14.68474 15.12 14.68474.39152 0 .45456-13.12144.45558-94.8 0-52.14.0955-96.86118.21069-99.38041l.20954-4.5804.66931.66883c.65824.6578.67258.96579.86819 18.66041.12554 11.35557.39466 20.82426.72963 25.67157.47466 6.86866.52125 15.37083.44109 80.48-.0721 58.58669-.16992 72.94058-.50089 73.52-1.16183 2.03405-3.39834 2.10858-5.52839.18419l-1.26147-1.13968-.48352 1.15722c-.62589 1.49795-2.06784 10.66675-2.0721 13.17549-.003 1.81228.0716 2.00838 1.15648 3.04 2.14276 2.03753 3.00026 3.46851 3.00026 5.00668 0 .77434-.2047 1.79674-.45488 2.272-.50525.95972-2.90755 3.33837-4.72758 4.681-1.8449 1.36099-1.78234 1.10252-4.57594 18.9031-3.33734 21.26509-8.20854 51.1145-8.82544 54.08-.18304.88-.39981 1.92592-.48166 2.32429-.12538.61011-.28599.68989-1.0185.50605-.95098-.23869-1.676-.83024-1.676-1.36749 0-.18858-.20432-.34285-.45408-.34285-.7392 0-2.4217-1.08378-2.4239-1.56134-.003-.35012-.39888-.39642-1.92202-.2241-1.26518.14314-1.92.10266-1.92-.11866 0-.18476-.36-.3359-.8-.3359s-.8.144-.8.32-.36.32-.8.32c-.54858 0-.8-.176-.8-.56 0-.49136-.32365-.55504-2.64-.51958-1.452.0224-3.288.19872-4.08.39219-2.00067.4887-2.49066.45321-2.65942-.19261-.11012-.42141-.15552-.38182-.18346.16-.0282.54477-.23181.72-.83712.72-.44 0-.8.144-.8.32s-.42173.32-.93715.32c-.51543 0-1.15312.216-1.41712.48-.53946.53942-1.80573.65165-1.80573.16 0-.176-.2863-.32-.63622-.32-.49482 0-.6817.28451-.8409 1.28-.12346.772-.37894 1.28-.64378 1.28-.2415 0-.4391.144-.4391.32s-.36.32-.8.32c-.63357 0-.8-.16157-.8-.77654 0-.47047.2207-.83421.56-.92288.42141-.11012.38182-.15552-.16-.18346-.46701-.024-.72.14592-.72.48378 0 .42851-.22707.4846-1.28.31622-1.20794-.19315-1.28-.15942-1.28.5991 0 .67975-.14813.80378-.96.80378-.528 0-.96-.144-.96-.32s-.288-.32-.64-.32-.64.13373-.64.29715c0 .56554-1.00896 1.30285-1.78285 1.30285-.61561 0-.77715.16627-.77715.8 0 .64-.16.8-.8.8-.44 0-.8-.144-.8-.32s-.216-.32-.48-.32-.48-.144-.48-.32-.288-.32-.64-.32c-.42666 0-.64.21334-.64.64 0 .47146-.21334.64-.81005.64-.4455 0-.89293-.216-.99424-.48-.23721-.61824-.75571-.6224-.75571-.006 0 .54237-1.27146.95027-2.1369.68554-.55164-.16874-3.00044.13721-5.02502.6278-.68742.1666-.99699.0892-1.21709-.30403-.22528-.40256-.43766-.45117-.89702-.20531-.33104.17715-.88909.32211-1.24007.32211-.351 0-.85417.216-1.11817.48-.70384.70384-1.80573.61773-1.80573-.14112 0-.3416-.13101-.70208-.29114-.80102-.49494-.30592-1.30886.18048-1.30886.78214 0 .31434-.22778.65895-.50618.76576-.81836.31405-3.01382.22243-3.01382-.12576 0-.176-.564-.32-1.25334-.32-.68932 0-1.30685-.16061-1.37229-.35693-.0683-.2047-.86429-.35632-1.86669-.35555-.96122 0-1.84675-.15667-1.96787-.34989-.12823-.20454-1.16407-.34262-2.48-.33059-1.99539.0182-2.25981-.0488-2.25981-.57318 0-.32663-.144-.59386-.32-.59386s-.32.19907-.32.4424c0 .61207-4.77027 1.08346-5.12678.50663-.16199-.26212-.62224-.32228-1.37901-.18032-1.46503.27484-2.77421-.059-2.77421-.7074 0-.39612-.0853-.42396-.384-.12531-.2112.2112-.6264.384-.92269.384-.29625 0-.61398.288-.70601.64-.20368.77885-1.8273.92103-1.8273.16 0-.264-.144-.48-.32-.48s-.32.144-.32.32-.72.32-1.6.32-1.6-.144-1.6-.32-.432-.32-.96-.32-.96-.144-.96-.32-.144-.32-.32-.32-.32.36-.32.8-.144.8-.32.8-.32.216-.32.48c0 .29866-.30221.48-.8.48-.69834 0-.8-.13993-.8-1.10112 0-1.24006-.29267-1.56819-.97526-1.09341-.35316.24564-.36871.36221-.0647.48557.22.0892.4.51031.4.93562 0 .68502-.14192.77334-1.24269.77334-1.30547 0-1.62237-.41917-1.63293-2.16-.003-.396-.14838-.72-.32438-.72s-.32.432-.32.96c0 .81066-.12445.96-.8.96-.71949 0-.8-.12832-.8-1.2751v-1.27507l-1.87968.19644c-1.03386.10807-2.97786.0936-4.32-.0322-2.30355-.21587-2.44032-.272-2.44032-1.00137 0-.47351-.18586-.77271-.48-.77271-.264 0-.48.23485-.48.52186 0 .4175-.22352.4856-1.11763.34051-.74912-.12157-1.26919-.0298-1.57715.27814-.51853.51853-5.30522.67072-5.30522.16864 0-.15993-.756-.28406-1.68-.2758-.924.008-2.544-.15712-3.6-.36749-1.056-.2104-2.928-.42954-4.16-.48701-1.232-.0574-2.852-.21216-3.6-.34378-1.14211-.20099-1.36-.15568-1.36.28279 0 .34361-.27354.52214-.8.52214-.64 0-.8-.16-.8-.8 0-.44-.144-.8-.32-.8s-.32.23485-.32.52186c0 .41491-.22326.48566-1.08925.34512-.9087-.14746-1.1176-.0683-1.26032.47741-.15366.58771-.32752.63072-1.71075.42332-.84682-.12697-1.78221-.36067-2.07866-.51929-.29641-.15863-.90841-.28842-1.36-.28842-.60768 0-.82102-.1663-.82102-.64 0-.35555-.21334-.64-.48-.64-.264 0-.48-.144-.48-.32s-.144-.32-.32-.32-.32.36-.32.8c0 1.09987-1.50259 1.17239-1.65773.08-.0649-.45667-.35942-.75657-.80541-.82003-.63904-.0909-.68627.004-.51814 1.04.1728 1.0647.12938 1.14003-.65686 1.14003-.62 0-.84186-.16368-.84186-.62112 0-.95174-.49821-1.05587-1.66077-.34707-1.21927.74339-2.49923.85069-2.49923.20954 0-.49872-3.72105-1.05837-6-.90237-1.07912.0738-1.36-.0141-1.36-.42579 0-.47501-.71033-1.43319-1.06245-1.43319-.0815 0-.23852.36-.34895.8-.11044.44-.41405.8-.6747.8-.26064 0-.4739.144-.4739.32 0 .35597-.95366.42515-1.73383.12576-.27839-.10681-.50617-.46323-.50617-.792 0-.50265-.16548-.5655-1.04-.39504-.572.11149-1.088.32391-1.14667.472-.0587.1481-.45466.26928-.88.26928-.60592 0-.77333-.16857-.77333-.77875 0-.5976.20468-.81578.88-.93792.484-.0876-.524-.10867-2.24-.0469-1.716.0618-3.12-.005-3.12-.14803 0-.3514-2.69173.26697-2.82667.64934-.14135.40058-1.22105.38486-1.99437-.0291-.53629-.28701-.61896-.22291-.61896.48 0 .652-.15704.81126-.8.81126-.49778 0-.8-.18134-.8-.48 0-.264-.144-.48-.32-.48s-.32.216-.32.48-.144.48-.32.48-.32.288-.32.64c0 .46935-.21333.64-.8.64-.63264 0-.8-.16179-.8-.77334 0-.42531.16949-.82982.37666-.89888.20716-.0691.27066-.29706.14111-.50666-.33954-.5494-.83777-.46867-.83777.13575 0 .43984-.26233.48409-1.76.29699-1.17552-.14688-1.76-.10598-1.76.1231 0 .18868-.396.35975-.88.38016-.54141.0227-.66453.0934-.32.18346.33928.0887.56.45242.56.92288 0 .61498-.16644.77654-.8.77654-.44 0-.8-.144-.8-.32s-.216-.32-.48-.32c-.26667 0-.48-.28444-.48-.64 0-.79142-1.06395-.84425-3.30565-.16412-1.03171.31302-2.17029.40368-3.42424.2726-1.42548-.14899-2.15745-.064-3.03473.35226-.70065.33248-1.62087.49456-2.33576.41142-.64879-.0755-.92762-.0766-.61962-.003.85852.20663.73246 1.61255-.16 1.78445-.61733.11888-.59451.1449.16.18224.71371.0354.88.19475.88.84359 0 .64-.16.8-.8.8-.49778 0-.8-.18135-.8-.48 0-.32-.32-.48-.96-.48-.528 0-.96.144-.96.32s.36.32.8.32c.64 0 .8.16.8.8s-.16.8-.8.8c-.58667 0-.8-.17066-.8-.64 0-.46935-.21333-.64-.8-.64-.44 0-.8.144-.8.32s-.37634.32-.83632.32c-.74722 0-.82131-.10228-.69542-.96.11268-.76775.0238-.96-.44368-.96-.37125 0-.58458.23356-.58458.64 0 .42665-.21333.64-.64.64-.352 0-.64.144-.64.32s-.792.32-1.76.32c-1.41387 0-1.76.10262-1.76.52185 0 .4113-.22041.48487-1.04.34723-.572-.0961-1.292-.2743-1.6-.39609-.39289-.15539-.56-.068-.56.29277 0 .35542-.28984.51424-.93844.51424-.67529 0-.99885.19033-1.15389.67884-.18826.59316-.38572.65552-1.56409.49402-1.34458-.18432-1.34821-.18202-1.20978.76112.12279.83667.0447.94602-.67592.94602-.53371 0-.88482-.22077-1.01788-.64-.26053-.82087-.8-.83066-.8-.0144 0 .4615-.29365.68057-1.12.83561-.8105.15203-1.12.37712-1.12.8145 0 .43133-.22905.60438-.8.60438-.64 0-.8-.16-.8-.8 0-.44.144-.8.32-.8s.29843-.468.27205-1.04c-.0446-.96797-.0572-.97907-.18125-.16-.0925.61063-.32271.88-.75205.88-.44667 0-.61875.2225-.61875.8 0 .44-.144.8-.32.8s-.32.288-.32.64c0 .39485-.21451.64135-.56.64352-.308.003-1.1.0928-1.76.20186-1.12494.18595-1.2.14729-1.2-.61808 0-.64698.19927-.86023.96-1.0273 1.06925-.23485 1.32215-1.12.32-1.12-.352 0-.64.14125-.64.31389 0 .17267-.34238.39984-.76084.50486-.50376.12644-.85861.53399-1.05018 1.20612-.22126.77625-.49404 1.03897-1.15917 1.11638-.47839.0557-.86972-.0163-.86961-.16.00011-.14368-.71989-.21136-1.6-.15037-1.44566.10019-1.6002.18519-1.6002.88 0 .60707-.16857.76912-.8.76912-.64 0-.8-.16-.8-.8 0-.58665.17067-.8.64-.8.39849 0 .64-.21334.64-.56534 0-.47811-.29852-.56531-1.93497-.56531-1.36208 0-2.02383-.14055-2.2351-.47469-.22947-.36291-.30128-.26746-.30503.40534-.004.7176-.14862.88-.78365.88-.60321 0-.80942-.19837-.91485-.88-.13284-.85891-.14199-.86243-.38188-.14736-.21185.63152-.43908.72263-1.64611.66016-.99434-.0515-1.51603.0816-1.79937.45882-.21947.29222-1.33444.76857-2.47771 1.05853-1.14327.28995-2.42269.79776-2.84316 1.12851-.42046.33075-1.03306.60134-1.36133.60134-.32826 0-.59684.144-.59684.32s-.27622.32-.61383.32c-.93484 0-1.62617.34189-1.62617.80423 0 .25619-.61396.50016-1.6.63577-1.0571.14538-1.6.37274-1.6.67002 0 .28665-.34847.44998-.96.44998-.528 0-.96.12096-.96.26877 0 .14784-.576.45888-1.28.69123s-1.28.52704-1.28.65488-.648.32963-1.44.44839c-.792.11878-1.44.35113-1.44.51635 0 .16521-.3503.30038-.77844.30038-.49739 0-.85177.23107-.98156.64-.14229.44832-.48417.64-1.14156.64-.60446 0-.93844.16439-.93844.46186 0 .34176-.3953.45427-1.52.43273-1.95368-.0375-4.24.35808-4.24.73354 0 .16054-.324.26592-.72.23421-.396-.0317-1.404-.11162-2.24-.17754zm44-13.41674c-.22-.0888-.4-.4374-.4-.77472 0-.89187-.53892-.75184-.71832.18666-.13236.69242-.0406.79661.68269.77475.4596-.0138.65563-.0979.43563-.18669zm9.2-1.68188c0-.1616-.089-.52586-.19785-.80941-.17775-.46323-.24171-.45776-.62982.0538-.60133.79264-.55541 1.04941.18767 1.04941.352 0 .64-.13222.64-.29382zm26.24-7.38618c0-.176-.216-.32-.48-.32s-.48.144-.48.32.216.32.48.32.48-.144.48-.32zm96.87334-.51334c-.10633-.10634-.38233-.1177-.61334-.0253-.25526.10214-.17946.17798.19334.19334.33732.0138.52634-.0618.42-.1681zm83.60666.35334c0-.64.16-.8.8-.8s.8.16.8.8-.16.8-.8.8-.8-.16-.8-.8zm-304.48232-191.36c.00001-47.696.037-67.16039.0823-43.2542.0453 23.90618.0453 62.9302 0 86.71999-.0453 23.78983-.0823 4.23021-.0823-43.46579z" fill="#53abd4"/><path d="m234.24 455.2c0-.64.16-.8.8-.8.92046 0 1.14594 1.07878.29383 1.40576-.87762.33677-1.09383.21702-1.09383-.60576zm-9.49788-1.52c.10116-.748.10756-1.18.0142-.96-.20088.47354-1.71635.54419-1.71635.08 0-.176-.216-.32-.48-.32-.26667 0-.48.28445-.48.64 0 .46934-.21333.64-.8.64s-.8-.17066-.8-.64c0-.6352-.21333-.64-28.45185-.64-30.08693 0-30.80873-.0314-34.74505-1.50131-1.59096-.59421-1.60059-.6065-2.59346-3.30755-1.5203-4.13597-1.62513-4.34832-2.58653-5.23978-1.27011-1.17773-.66375-1.03654 2.4627.57344 1.4992.772 3.7312 1.74374 4.96 2.15942l2.23418.75578 157.28.0843c171.14794.0918 159.23856.21037 163.77043-1.63107 2.84083-1.15434 6.78314-3.81318 8.81981-5.94842l1.80976-1.89734v1.17622c0 1.53072-.82282 2.83367-2.87882 4.5673-1.86281 1.57075-2.45734 2.57603-3.55926 6.01824-.67331 2.10336-.88083 2.42042-1.8487 2.8248-3.373 1.40934.15376 1.36592-110.9402 1.36592-104.8785 0-105.09184 0-105.09184.64 0 .46934-.21333.64-.8.64-.59827 0-.8-.16874-.8-.66912 0-.64342-.12961-.66493-3.37215-.56-2.08139.0674-3.45937.24979-3.6.47664-.12531.20214-1.04048.4688-2.0337.59261-1.56264.19475-1.85224.14528-2.15027-.36752-.3066-.52755-.34548-.496-.35414.28739-.008.72275-.1527.88-.80974.88-.64 0-.8-.16-.8-.8 0-.44-.144-.8-.32-.8s-.32.288-.32.64c0 .46934-.21333.64-.8.64-.44 0-.8-.144-.8-.32s-.648-.32-1.44-.32c-1.06666 0-1.44-.12445-1.44-.48 0-.39299-.55111-.48-3.04-.48-2.82666 0-3.04.0449-3.04.64 0 .46877-.21333.64-.79729.64-.45072 0-.97102-.27821-1.19697-.64-.57262-.9169-1.09576-.78986-1.31774.32-.1525.7625-.35822.96-1 .96-.4444 0-.808-.144-.808-.32s-.276-.32-.61333-.32-.66133-.12496-.72-.2777c-.16705-.43491-1.54667-.77731-1.54667-.38387 0 .18787-.216.34157-.48.34157s-.48.216-.48.48c0 .29866-.30222.48-.8.48-.65039 0-.80694-.16458-.83712-.88-.0204-.484-.0996-.64525-.17608-.35834-.0854.32064-.62602.59956-1.40288.72378-.69515.11117-1.26392.34442-1.26392.51834s-.648.31622-1.44.31622c-1.22666 0-1.44-.0948-1.44-.64 0-.352-.144-.64-.32-.64s-.32.36-.32.8c0 .65037-.15727.8-.8409.8-.8048 0-.833-.0584-.65697-1.36zm-73.38212-21.66112c0-.5176-.144-1.03011-.32-1.13888s-.32-1.12474-.32-2.2577c0-2.5439-1.35833-9.1128-2.16849-10.48688-.55591-.94284-.70564-1.0078-2.0951-.90902-1.00052.0711-1.49641-.0195-1.49641-.27309 0-.99171 7.43778-8.59229 51.81865-52.95289 26.23574-26.22378 47.70135-47.82401 47.70135-48.00049s-18.29199-18.60866-40.64886-40.9604c-22.35688-22.35174-41.29092-41.45287-42.07565-42.44696-1.1816-1.49684-1.33704-1.84188-.90453-2.00785.44827-.17201.49345-.57329.31892-2.83256-.48029-6.21721-2.99051-17.80375-4.85126-22.39216-.14959-.3689-.0797-.56.2048-.56.23754 0 33.33694 32.88531 73.55423 73.07846s73.80719 73.53664 74.64423 74.09668c4.57804 3.06291 9.49185 4.55609 15.11812 4.59398 5.95168.0401 10.76378-1.37392 15.5639-4.57338 1.40148-.93414 24.97648-24.26752 75.6361-74.86087 40.48-40.42705 74.356-74.11814 75.28-74.86909 1.72624-1.40294 2.28301-1.19868 1.04.38154-.352.44749-.64 1.15693-.64 1.57653 0 .48517-.53357 1.28225-1.46566 2.18952-1.81892 1.77046-2.28077 2.63851-3.22791 6.06663-.88912 3.21824-2.66643 14.89503-2.66643 17.51841v1.83585l-41.92 41.92452c-23.056 23.05849-41.92 42.11298-41.92 42.3433 0 .44767 4.60694 5.02032 60.64 60.18845 19.888 19.58102 36.72093 36.34608 37.4065 37.25565.68556.9096.93308 1.37545.55004 1.0352-.60304-.53562-.75552-.55709-1.13683-.16-1.22605 1.27686-2.80473 9.94118-2.78019 15.25862.009 1.97277-.11178 3.28-.3033 3.28-.31443 0-76.79113-75.16173-96.26233-94.60717-5.52538-5.51805-10.20109-10.03283-10.39047-10.03283-.1894 0-7.98064 7.60518-17.31388 16.90042-15.01332 14.95219-17.40756 17.2064-20.76919 19.55462-5.10345 3.5649-7.464 4.62083-14.19126 6.34806-5.50621 1.41373-5.84851 1.46157-10.64909 1.48877-4.79844.0272-5.14763-.017-10.72-1.35907-6.9051-1.66298-9.85533-2.98272-15.2-6.79955-3.13248-2.23703-6.17279-5.12051-20.43463-19.38064-9.21505-9.21392-16.91922-16.75261-17.12037-16.75261s-23.9094 23.544-52.685 52.32-52.42743 52.32-52.55963 52.32-.24037-.42349-.24037-.94112zm346.2768-114.01888c.0202-53.9.15594-97.424.30157-96.72.1456.704.27443 5.96.28624 11.68.0118 5.72.23392 13.568.49357 17.44.39542 5.89681.47289 19.76058.47696 85.3759.004 69.59834-.0496 78.44119-.48336 79.28-.26852.51924-.62852.9441-.8.9441-.20176 0-.29879-34.5768-.27498-98zm-339.2368-89.04c-.2191-.264-.32636-.48-.23836-.48s.33926.216.55836.48.32636.48.23836.48-.33926-.216-.55836-.48zm-2.56-2.56c-.2191-.264-.32636-.48-.23836-.48s.33926.216.55836.48.32636.48.23836.48-.33926-.216-.55836-.48zm-2.24-2.24c-.2191-.264-.32636-.48-.23836-.48s.33926.216.55836.48.32636.48.23836.48-.33926-.216-.55836-.48z" fill="#50a6ce"/><path d="m164.92926 448.96237c-2.82218-.30861-5.41316-1.03747-8.1927-2.30464-1.86848-.85184-2.22999-1.16135-2.81817-2.41264-.3711-.78947-.63055-1.47933-.57656-1.53303.054-.0537 1.10617.39325 2.33817.99316 1.232.59993 3.32 1.37174 4.64 1.71516 2.36378.61495 4.77437.62464 159.7088.64199 154.38544.0173 157.3537.006 159.72342-.59991 2.68336-.6863 8.46477-3.52582 10.30887-5.06313.37005-.30851.28765-.13066-.18791.40566-.46576.52525-1.17392 1.74701-1.57369 2.71501-.39978.968-.93117 2.00109-1.18083 2.29574-.573.67623-3.76589 2.01748-6.47866 2.72148-1.93571.50236-12.87856.54444-157.76.60662-85.624.0367-156.70183-.0449-157.95074-.18147zm303.5102-36.85987c-11.25962-11.11965-20.57271-20.37757-20.69575-20.57319-.12304-.19561-14.20873-14.13405-31.30153-30.9743-17.0928-16.84023-31.31613-30.98231-31.60736-31.42682-.51312-.7831-.50682-.80819.20278-.80819.40282 0 1.18493.252 1.73802.56.97708.5441 69.48953 67.94189 91.56508 90.07536 9.15517 9.17914 11.0249 11.20528 11.24631 12.18707.21277.9433.17197 1.17757-.20499 1.17757-.25882 0-9.68298-9.09789-20.94256-20.2175zm-320.12755 4.26268c-.48233-.72886-1.00552-1.32518-1.16265-1.32518s-.0752-.396.18208-.88c.25727-.484 22.29297-22.69581 48.96822-49.35962 26.67524-26.66377 48.50044-48.62245 48.50044-48.79707 0-.17461-18.55922-18.89479-41.24271-41.60039-22.68349-22.70561-41.37744-41.54248-41.54212-41.85971-.31345-.60385-.17367-2.46321.18518-2.46321.11425 0 19.09978 18.9 42.19008 42 29.71538 29.72786 42.12659 42.34763 42.47596 43.18972.65783 1.58554.62213 2.66429-.13994 4.22925-.43176.88663-16.06634 16.73162-49.08557 49.74621l-48.45201 48.44516zm341.26595-4.05987c-6.80624-6.48592-92.43152-90.95683-93.17786-91.92166-.83482-1.07923-1.21002-2.94365-.59242-2.94365.15818 0 1.41818 1.04165 2.8 2.31478 6.7426 6.2122 94.19242 92.82736 94.19242 93.29341 0 .14823-.19955.5424-.44346.87597-.41817.57187-.5767.47949-2.77868-1.61885zm-172.61786-39.85645c-1.584-.1374-3.384-.40547-4-.59568-.616-.1902-2.992-.78051-5.28-1.3118-4.94385-1.14804-8.14438-2.60506-12.18027-5.54506-1.57285-1.14579-3.37909-2.46278-4.01387-2.92666-1.67901-1.227-33.24586-32.90528-33.24586-33.3632 0-.21254.22062-.38646.49028-.38646 1.67569 0 3.48569 1.62758 19.33157 17.38333 21.6326 21.5095 22.37472 22.04125 34.73815 24.88976 5.42677 1.2503 9.6361 1.49606 13.44.78464 4.19136-.78391 10.09171-2.30832 11.84758-3.06096.83764-.35907 1.57901-.59687 1.64746-.52842.58938.58938-11.59171 4.05107-15.92714 4.52631-3.36691.36905-3.99845.3814-6.8479.1342zm-.6907-12.58048c-4.43637-.84726-8.39947-2.53699-12.2693-5.23123-1.33147-.92701-27.89937-27.24953-73.82668-73.14487l-71.74667-71.69673-.77949-2.09778c-.42872-1.15377-.71709-2.1634-.64082-2.24361.0763-.0802 32.85704 32.5592 72.84617 72.53202 78.50243 78.47043 74.55357 74.68646 80.22218 76.87251 5.17501 1.99568 11.48208 2.41766 16.64531 1.11369 2.44042-.61635 6.66512-2.51574 8.85546-3.98137.8495-.56842 34.30454-33.75135 74.34454-73.73983 40.04-39.98847 73.20848-72.95741 73.70778-73.26432 1.14771-.7055 1.48918-.40757.61248.5344-.36791.39531-1.19328 2.2416-1.83418 4.10288l-1.16528 3.38414-70.14038 70.09028c-44.70653 44.67456-70.90298 70.62438-72.24333 71.56323-2.82013 1.97527-6.93466 3.90538-10.05709 4.71773-3.30259.85923-9.355 1.09536-12.5307.48886z" fill="#4c9dc2"/><path d="m186.88 447.36736c-24.06156-.16842-24.16847-.17206-26.24-.89376-1.144-.39856-2.44-.94416-2.88-1.21248l-.8-.48781.8.22189c.44.12202 1.52.4505 2.4.72989 1.45081.46067 16.25054.51651 158.72.59888 143.0199.0827 157.34928.0449 159.67491-.42147 2.55271-.51191 6.39133-2.07946 8.13837-3.32346.50902-.36246 1.07581-.65904 1.25949-.65904.54589 0-.24778 1.86608-1.02583 2.41197-1.26278.88598-5.56275 2.3695-7.77708 2.68313-2.40874.34119-251.03486.64084-292.26986.35226zm-38.70874-32.62634c-.18219-.34041-.33126-.80998-.33126-1.04348 0-.23351 21.84324-22.23898 48.54052-48.90106 50.71922-50.6523 49.37752-49.3786 48.58658-46.12393-.13606.55987-16.45959 17.10889-48.10298 48.76745-26.34337 26.356-48.00156 47.92-48.12932 47.92-.12775 0-.38135-.27853-.56354-.61898zm167.66874-56.968c-4.1886-.89612-8.60784-2.88412-11.04-4.96636-.95461-.81725-.95102-.81684.64.0775 2.41716 1.35872 5.24857 2.55462 7.5412 3.18525 2.92791.80531 11.12654.79363 14.0588-.0202 3.29494-.91434 7.63363-3.13578 10.24-5.24298 1.32-1.0672 34.58387-34.1392 73.91974-73.49335 39.33584-39.35407 71.6184-71.55292 71.73901-71.55292s-.0614.83122-.40451 1.84716c-.61056 1.80793-2.14742 3.36992-72.37901 73.56131-62.06217 62.02663-72.05853 71.89121-74.00038 73.02484-6.48035 3.78314-13.54522 5.02807-20.31485 3.57971z" fill="#4b97bb"/></g></svg>