<?xml version="1.0" encoding="UTF-8" standalone="no"?>
<!-- Created with Inkscape (http://www.inkscape.org/) -->

<svg
   xmlns:dc="http://purl.org/dc/elements/1.1/"
   xmlns:cc="http://creativecommons.org/ns#"
   xmlns:rdf="http://www.w3.org/1999/02/22-rdf-syntax-ns#"
   xmlns:svg="http://www.w3.org/2000/svg"
   xmlns="http://www.w3.org/2000/svg"
   xmlns:sodipodi="http://sodipodi.sourceforge.net/DTD/sodipodi-0.dtd"
   xmlns:inkscape="http://www.inkscape.org/namespaces/inkscape"
   version="1.1"
   id="svg24"
   width="568.92798"
   height="568.78308"
   viewBox="0 0 568.92798 568.78308"
   sodipodi:docname="correo.svg"
   inkscape:version="0.92.1 r15371">
  <metadata
     id="metadata30">
    <rdf:RDF>
      <cc:Work
         rdf:about="">
        <dc:format>image/svg+xml</dc:format>
        <dc:type
           rdf:resource="http://purl.org/dc/dcmitype/StillImage" />
        <dc:title></dc:title>
      </cc:Work>
    </rdf:RDF>
  </metadata>
  <defs
     id="defs28" />
  <sodipodi:namedview
     pagecolor="#ffffff"
     bordercolor="#666666"
     borderopacity="1"
     objecttolerance="10"
     gridtolerance="10"
     guidetolerance="10"
     inkscape:pageopacity="0"
     inkscape:pageshadow="2"
     inkscape:window-width="1366"
     inkscape:window-height="705"
     id="namedview26"
     showgrid="false"
     inkscape:zoom="0.36875"
     inkscape:cx="308.87904"
     inkscape:cy="284.35752"
     inkscape:window-x="-8"
     inkscape:window-y="-8"
     inkscape:window-maximized="1"
     inkscape:current-layer="g36"
     inkscape:pagecheckerboard="false"
     fit-margin-top="0"
     fit-margin-left="0"
     fit-margin-right="0"
     fit-margin-bottom="0" />
  <g
     id="g36"
     transform="translate(-35.52774,-35.57443)">
    <path
       style="fill:#a3d0e5;stroke-width:0.31999999"
       d="m 306.08,604.90582 c -23.20056,-1.43299 -41.11149,-4.25276 -60.55877,-9.53401 C 226.48247,590.20147 210.35486,584.02179 192.32,574.98643 164.38918,560.99325 140.4992,543.7272 118.24,521.4464 73.167363,476.33008 44.669974,417.91738 36.978403,354.88 34.580477,335.22746 34.236486,313.57152 36.012634,294.08 42.070918,227.59615 71.068435,165.80729 118.47153,118.37386 147.32424,89.502694 182.04352,67.134758 220.16,52.860954 c 25.60805,-9.589668 51.87347,-15.265946 80.48,-17.392724 8.55842,-0.636281 32.39866,-0.545622 40.8,0.155156 45.74342,3.815574 86.29882,16.656691 124.5735,39.443907 53.725,31.985697 96.02471,81.633617 119.10215,139.792217 10.77373,27.15138 17.03485,54.64541 19.42515,85.30049 0.55254,7.08629 0.55475,32.67667 0.004,39.68 -1.43546,18.23437 -3.9025,33.59184 -8.05261,50.128 -15.06675,60.03338 -49.6991,113.75939 -98.57161,152.91651 -46.17572,36.99642 -102.3929,58.4745 -162.03549,61.90659 -5.08672,0.29271 -25.64175,0.37184 -29.80451,0.11472 z M 479.71578,444.71664 c 2.71324,-0.83629 4.70316,-1.77194 7.02921,-3.30515 1.9865,-1.30938 5.09501,-4.26871 5.09501,-4.85047 0,-0.14652 -5.724,-5.95702 -12.72,-12.91222 -20.73123,-20.6103 -95.50112,-94.19866 -95.84304,-94.32851 -0.17341,-0.0659 -7.89366,7.44841 -17.15613,16.69837 -22.71465,22.68396 -23.44902,23.20876 -36.84083,26.32841 -4.44141,1.03463 -5.41168,1.15367 -9.28,1.13843 -3.98552,-0.0157 -4.78468,-0.12844 -10.3216,-1.4566 -7.20229,-1.72762 -9.73242,-2.84397 -15.1184,-6.6706 -3.35625,-2.38454 -5.94057,-4.82889 -20.51442,-19.40326 C 264.87466,336.78378 257.24282,329.28 257.08594,329.28 256.65888,329.28 149.12,436.90016 149.12,437.32752 c 0,0.60986 3.43409,3.55357 5.70901,4.89379 2.50409,1.4752 5.5077,2.53242 8.20132,2.88666 1.06132,0.13958 72.34567,0.23315 158.40967,0.20797 147.3449,-0.0432 156.58483,-0.0781 158.27578,-0.5993 z M 193.83962,366.00038 c 27.32421,-27.32377 49.68038,-49.85717 49.68038,-50.0742 0,-0.50295 -98.96356,-99.60618 -99.4658,-99.60618 -0.2848,0 -0.3742,23.81477 -0.3742,99.68 0,54.824 0.10783,99.68 0.23962,99.68 0.13178,0 22.59578,-22.35584 49.92,-49.67962 z M 496.64,315.36 c 0,-54.648 -0.11536,-99.36 -0.25635,-99.36 -0.36963,0 -99.90365,99.68675 -99.90365,100.05696 0,0.17024 1.26,1.52127 2.8,3.00231 1.54,1.48105 16.768,16.52742 33.84,33.43638 41.20211,40.80864 62.9801,62.22435 63.27696,62.22435 0.13366,0 0.24304,-44.712 0.24304,-99.36 z M 327.2,355.0449 c 3.01126,-0.82887 6.93686,-2.86669 9.49581,-4.92932 1.28931,-1.03926 35.82419,-35.38908 76.74419,-76.33293 l 74.4,-74.44336 -0.8,-0.63277 c -1.57446,-1.24531 -5.77734,-3.14661 -8.06819,-3.64988 -2.12349,-0.4665 -16.39693,-0.50442 -159.77181,-0.42445 l -157.44,0.0878 -2.4,0.88779 c -2.55363,0.94462 -6.44612,3.05846 -6.61791,3.59391 -0.0568,0.17693 33.91703,34.32356 75.49734,75.88139 81.04627,81.00248 76.67275,76.79201 82.02516,78.96689 3.44883,1.40138 5.96212,1.78916 10.69541,1.65021 2.64432,-0.0776 5.06474,-0.33181 6.24,-0.65529 z"
       id="path50"
       inkscape:connector-curvature="0" />
    <path
       style="fill:#5abbe8;stroke-width:0.31999999"
       d="m 304.64,604.15408 c -28.04116,-1.77776 -51.82504,-6.38675 -76.8,-14.88278 -30.72785,-10.45306 -60.03983,-26.60644 -85.92,-47.34912 -15.3571,-12.30855 -31.43926,-28.38967 -43.723869,-43.721 C 57.32537,447.19405 35.491146,385.05139 35.527786,319.84 35.556918,267.99079 49.218928,218.59571 75.915162,173.81921 92.955088,145.23884 115.88162,119.0086 142.4,97.75393 184.1756,64.270493 234.48774,43.379197 288,37.295904 c 17.99058,-2.045174 39.53606,-2.282512 57.6,-0.634502 42.80531,3.905219 82.85565,16.87086 119.84,38.79624 38.53203,22.84288 72.372,56.005868 96.22742,94.302358 20.821,33.42509 34.61677,71.45381 40.05463,110.4124 2.96598,21.24906 3.53389,44.0708 1.62813,65.4276 -4.68992,52.55757 -23.94138,102.77373 -55.52317,144.82861 -8.79034,11.70534 -16.40576,20.45561 -26.99831,31.02147 -42.28649,42.17994 -95.7838,69.65731 -154.4287,79.31786 -6.44512,1.06172 -16.52192,2.28259 -24.16,2.9272 -7.06144,0.5959 -30.85788,0.88636 -37.6,0.45894 z m 175.33222,-159.0479 c 2.75904,-0.76455 5.60202,-2.11684 7.67386,-3.65008 2.1536,-1.59376 4.91306,-4.50544 4.78483,-5.04877 -0.10899,-0.46176 -108.56195,-107.49507 -109.15382,-107.72496 -0.16656,-0.0647 -8.02803,7.5727 -17.46995,16.97197 -22.10442,22.00454 -23.17972,22.80067 -34.81959,25.7798 -5.52813,1.41492 -5.86345,1.46157 -10.66755,1.48503 -4.88608,0.024 -5.0502,0.003 -11.01274,-1.4905 -7.11522,-1.78064 -9.23192,-2.71897 -14.28319,-6.33165 -3.09641,-2.21456 -6.29793,-5.24777 -20.66491,-19.57852 -9.35046,-9.32685 -17.15926,-16.90407 -17.3529,-16.83821 -0.19364,0.0658 -24.69805,24.45485 -54.45426,54.19776 -46.34035,46.31968 -54.07632,54.18118 -53.9218,54.79686 0.24305,0.96835 4.24746,4.22768 6.80709,5.54051 1.13905,0.58423 3.17163,1.38804 4.51685,1.78624 l 2.44586,0.72404 157.60643,0.0173 157.60643,0.0173 2.35936,-0.65383 z m -285.7543,-78.52512 50.37515,-50.37894 -4.19631,-4.42106 c -2.30798,-2.43158 -24.92667,-25.14213 -50.26377,-50.46787 -33.62382,-33.60876 -46.20596,-45.99366 -46.58022,-45.85004 -0.46885,0.17991 -0.51277,8.77448 -0.51277,100.34064 0,55.07912 0.0874,100.37163 0.19424,100.65003 0.10683,0.2784 0.28745,0.50618 0.40139,0.50618 0.11393,0 22.87596,-22.67053 50.58229,-50.37894 z m 302.86784,48.59276 c 0.10685,-0.2784 0.19424,-45.28291 0.19424,-100.01003 0,-90.9811 -0.0439,-99.52073 -0.5128,-99.70065 -0.66326,-0.25452 -100.98877,99.94893 -100.85514,100.73242 0.0484,0.28356 15.49594,15.69058 34.32794,34.23778 18.832,18.54724 41.43965,40.81524 50.23923,49.48445 8.79955,8.66922 16.09216,15.76221 16.20576,15.76221 0.1136,0 0.29395,-0.22778 0.40077,-0.50618 z M 325.35354,355.97466 c 1.3456,-0.27796 3.39152,-0.86007 4.54649,-1.29364 5.36701,-2.01459 0.71072,2.45549 82.41827,-79.12274 41.71104,-41.64505 75.88196,-75.94657 75.93533,-76.2256 0.17443,-0.91161 -3.94512,-3.24671 -7.94169,-4.50162 L 477.92,194.08 h -157.6 c -133.12365,0 -157.87334,0.0687 -159.36,0.44269 -3.67109,0.92337 -9.07662,3.84084 -8.89587,4.80126 0.0534,0.28383 34.22484,34.58918 75.93649,76.23412 82.15169,82.0203 77.14718,77.22267 82.65343,79.23636 4.60418,1.68378 10.11827,2.1265 14.69949,1.18023 z"
       id="path48"
       inkscape:connector-curvature="0" />
    <path
       style="fill:#56b2dc;stroke-width:0.31999999"
       d="m 312.32,603.96368 c -39.38293,-1.21162 -75.931,-9.64755 -111.04,-25.62995 -9.72377,-4.42647 -22.60251,-11.24071 -23.92399,-12.65837 -0.70894,-0.76054 -1.34149,-3.8097 -10.969,-52.87536 -2.31379,-11.792 -4.61537,-23.168 -5.11462,-25.28 -0.49925,-2.112 -2.1428,-10.248 -3.65233,-18.08 -3.27825,-17.0088 -2.95266,-15.52688 -3.54054,-16.11475 -0.26374,-0.26375 -0.4828,-0.66983 -0.48681,-0.9024 -0.004,-0.23258 -0.23799,0.0452 -0.51996,0.61715 -0.28198,0.572 -0.7107,1.04 -0.95272,1.04 -0.25603,0 -0.44003,0.33453 -0.44003,0.8 0,0.64 -0.16,0.8 -0.8,0.8 -0.44,0 -0.8,-0.15546 -0.8,-0.34544 0,-0.40832 -1.97596,-0.0572 -2.26981,0.40333 -0.10718,0.16797 -0.90827,0.20217 -1.84,0.0786 -1.14163,-0.15143 -1.65019,-0.10759 -1.65019,0.14233 0,0.19866 0.144,0.36122 0.32,0.36122 0.176,0 0.32,0.36 0.32,0.8 0,0.64 -0.16,0.8 -0.8,0.8 -0.49778,0 -0.8,0.18134 -0.8,0.48 0,0.29866 -0.30222,0.48 -0.8,0.48 -0.64,0 -0.8,-0.16 -0.8,-0.8 0,-0.64 0.16,-0.8 0.8,-0.8 0.44,0 0.8,-0.144 0.8,-0.32 0,-0.176 -0.204,-0.32 -0.45333,-0.32 -0.24934,0 -0.52597,-0.18 -0.61474,-0.4 -0.0964,-0.23894 -0.17157,-0.17453 -0.18667,0.16 -0.017,0.37725 -0.28631,0.56 -0.82526,0.56 -0.44,0 -0.8,-0.144 -0.8,-0.32 0,-0.176 -0.684,-0.30864 -1.52,-0.29475 -1.40027,0.0234 -1.45068,0.0506 -0.64,0.34669 0.64345,0.235 0.88,0.53904 0.88,1.13104 0,0.7176 -0.10916,0.79363 -0.96,0.66876 -0.528,-0.0775 -0.96,-0.005 -0.96,0.16 0,0.1754 -0.60178,0.21069 -1.44238,0.0846 -1.14934,-0.17238 -1.48136,-0.11475 -1.63424,0.28365 -0.11277,0.29386 -0.57348,0.49997 -1.11762,0.49997 -0.50916,0 -0.92576,0.144 -0.92576,0.32 0,0.176 -0.36,0.32 -0.8,0.32 -0.44,0 -0.8,0.144 -0.8,0.32 0,0.176 -0.34972,0.32 -0.77714,0.32 -0.42743,0 -1.00889,0.23174 -1.29213,0.51498 -0.30766,0.30768 -0.83218,0.45436 -1.30286,0.36438 -0.65725,-0.12563 -0.78787,-0.0253 -0.78787,0.60502 0,0.59268 -0.17253,0.75562 -0.8,0.75562 -0.49778,0 -0.8,-0.18134 -0.8,-0.48 0,-0.264 -0.216,-0.48 -0.48,-0.48 -0.26667,0 -0.48,0.28445 -0.48,0.64 0,0.42666 -0.21333,0.64 -0.64,0.64 -0.42667,0 -0.64,0.21334 -0.64,0.64 0,0.46934 -0.21333,0.64 -0.8,0.64 -0.64,0 -0.8,-0.16 -0.8,-0.8 0,-0.5361 0.18474,-0.81082 0.56,-0.83277 0.308,-0.0179 0.0576,-0.15085 -0.55643,-0.2952 -0.61404,-0.14435 -1.19004,-0.14902 -1.28,-0.0102 -0.09,0.13863 -0.48757,0.35319 -0.88357,0.47677 -0.48777,0.15222 -0.72,0.47578 -0.72,1.00314 0,0.42812 -0.15428,0.77843 -0.34286,0.77843 -0.18857,0 -0.55886,0.216 -0.82286,0.48 -0.264,0.264 -0.82971,0.48 -1.25714,0.48 -1.05666,0 -1.11533,-1.44954 -0.0721,-1.78064 0.38779,-0.12311 0.92779,-0.44685 1.2,-0.71943 0.44672,-0.44739 0.41701,-0.47488 -0.30508,-0.28217 -0.44,0.11744 -1.052,0.21545 -1.36,0.21785 -0.308,0.003 -0.56,0.22039 -0.56,0.48439 0,0.264 -0.216,0.48 -0.48,0.48 -0.35475,0 -0.48,-0.37152 -0.48,-1.42378 0,-0.7831 5.82296,-45.5311 12.9399,-99.44 7.11695,-53.90905 13.4013,-102.55235 13.96524,-108.09635 0.90706,-8.91726 1.04935,-11.64877 1.23357,-23.68 0.12621,-8.24283 0.33963,-13.9049 0.54181,-14.37403 0.59131,-1.37205 0.75948,23.75328 0.75948,113.46654 0,68.89578 0.0805,86.18749 0.40139,86.18749 0.22076,0 23.07814,-22.67846 50.79416,-50.39658 l 50.39277,-50.39655 -2.07416,-2.15838 C 241.41333,312.82143 219.23158,290.53588 193.26133,264.4851 167.29112,238.43428 145.71732,216.652 145.31958,216.08 l -0.72316,-1.04 h 0.83207 c 1.41201,0 2.81778,0.8132 4.64058,2.68444 0.96199,0.98756 1.93755,1.79556 2.16792,1.79556 0.65009,0 1.06028,-1.40923 1.72315,-5.92 0.80402,-5.47131 0.6159,-7.37724 -0.90821,-9.20147 -1.19191,-1.42662 -1.69193,-2.44898 -1.69193,-3.45936 0,-0.93548 0.42103,-0.77074 2.62339,1.02646 1.10913,0.9051 35.28061,34.87335 75.93661,75.48501 68.36918,68.29461 74.11118,73.94981 76.46592,75.31003 4.74929,2.74346 9.67197,3.91811 15.19037,3.62474 5.34899,-0.28439 10.5583,-2.09149 14.44269,-5.01018 2.44931,-1.84038 152.60262,-152.01199 152.43174,-152.45035 -0.22611,-0.58008 -3.80518,-2.77241 -5.92182,-3.62736 -4.516,-1.8241 7.17993,-1.7084 -163.71764,-1.61944 L 161.44,193.76 l -2.52398,0.85998 c -1.38819,0.47299 -2.39619,0.74017 -2.24,0.59373 0.69991,-0.65621 5.20956,-1.95981 7.79156,-2.2523 3.91183,-0.44314 310.14413,-0.43856 314.01274,0.005 4.50064,0.51567 9.49632,2.57847 11.69779,4.8302 1.96989,2.01482 1.74963,4.23587 -0.68413,6.89877 l -1.65398,1.80972 -0.11386,2.50694 c -0.1232,2.7125 0.42224,8.28829 0.97383,9.95515 0.188,0.56821 0.56029,1.20822 0.82723,1.42224 0.42448,0.34031 0.37072,0.54098 -0.42861,1.6 -0.50269,0.66598 -21.69152,22.03051 -47.0863,47.47673 -25.39475,25.44621 -46.17229,46.48636 -46.17229,46.75589 0,0.26953 1.26,1.69438 2.8,3.16634 6.32141,6.04212 88.59744,87.10609 92.93002,91.56097 3.34211,3.43651 4.83654,4.7662 5.2,4.62672 0.46512,-0.17847 0.50998,-8.87616 0.50998,-98.88107 0,-54.27696 0.0916,-99.35348 0.20349,-100.17005 0.22288,-1.62606 0.59299,-1.81623 1.88595,-0.96905 1.71501,1.12372 1.75037,1.67114 1.75274,27.14247 0.003,32.04416 -0.48535,26.64971 10.39664,114.84995 4.31264,34.95479 7.84118,64.35015 7.84118,65.32304 V 424.64 h -1.44685 c -1.22813,0 -1.50131,-0.11949 -1.80704,-0.79046 -0.25616,-0.56228 -0.73923,-0.8697 -1.67312,-1.0649 -1.44934,-0.30294 -1.6375,-0.26973 -1.32614,0.23408 0.116,0.18771 0.56243,0.34128 0.99203,0.34128 0.61987,0 0.78112,0.16515 0.78112,0.8 0,0.67162 -0.15072,0.8 -0.93917,0.8 -1.6792,0 -2.58086,-0.52832 -2.58064,-1.51206 1.9e-4,-0.86701 -0.0375,-0.88532 -1.6,-0.77706 -1.10749,0.0767 -1.60019,0.24918 -1.60019,0.56 0,0.48685 -1.4735,0.63962 -1.65334,0.17142 -0.0587,-0.15273 -0.43066,-0.37843 -0.82666,-0.50156 -0.55168,-0.17152 -0.72,-0.097 -0.72,0.31891 0,0.46537 -0.22528,0.51293 -1.57939,0.33328 -0.86867,-0.11523 -1.98467,-0.42 -2.48,-0.67725 -0.53514,-0.27792 -0.94391,-0.33949 -1.00727,-0.15171 -0.17539,0.51958 -1.65334,0.37302 -1.65334,-0.16397 0,-0.264 -0.216,-0.48 -0.48,-0.48 -0.264,0 -0.48,0.216 -0.48,0.48 0,0.29866 -0.30221,0.48 -0.8,0.48 -0.44,0 -0.8,0.144 -0.8,0.32 0,0.176 -0.36,0.32 -0.8,0.32 -0.44,0 -0.8,-0.144 -0.8,-0.32 0,-0.176 -0.216,-0.32 -0.48,-0.32 -0.26666,0 -0.48,-0.28445 -0.48,-0.64 0,-0.352 -0.14125,-0.64 -0.31389,-0.64 -0.35277,0 -0.51629,0.59082 -0.92998,3.36 l -0.28682,1.92 3.28832,3.2 c 3.00794,2.92714 3.32234,3.34691 3.68759,4.92307 0.4742,2.04647 0.23776,5.35885 -0.48189,6.75053 -1.0944,2.11629 -7.10279,7.10355 -9.45895,7.85136 -0.34342,0.10899 -0.62438,0.30557 -0.62438,0.43683 0,0.81565 -4.28035,27.95351 -4.80093,30.43821 -0.35027,1.672 -1.86048,10.888 -3.35597,20.48 -1.49548,9.592 -3.06896,19.6 -3.4966,22.24 -0.42762,2.64 -1.72592,10.704 -2.88512,17.92 -3.39469,21.13194 -3.03991,19.38925 -4.16055,20.43728 -2.58614,2.41853 -22.59206,13.05635 -34.26233,18.2184 -27.06682,11.97232 -55.99178,19.58074 -85.9185,22.60006 -11.05408,1.11524 -26.93466,1.73146 -36.8,1.42794 z M 479.94736,445.11309 c 1.28397,-0.35581 3.25219,-1.09437 4.37379,-1.64125 3.38487,-1.6504 8.36304,-6.00874 8.10407,-7.09504 -0.0579,-0.24272 -24.29722,-24.27866 -53.86522,-53.41318 -29.568,-29.13453 -53.94122,-53.276 -54.16272,-53.64775 -0.22147,-0.37171 -0.64918,-0.67587 -0.95046,-0.67587 -0.30128,0 -8.18404,7.60758 -17.51728,16.90576 -22.10192,22.01888 -23.3433,22.93523 -35.09591,25.90691 -5.70083,1.44147 -6.01485,1.48506 -10.67363,1.48179 -4.64878,-0.003 -4.99089,-0.051 -10.85919,-1.51507 -7.12123,-1.77664 -9.2211,-2.70656 -14.27674,-6.32237 -3.09573,-2.21408 -6.29495,-5.2448 -20.62518,-19.53878 -9.32861,-9.30502 -17.17921,-16.91824 -17.44578,-16.91824 -0.26657,0 -24.31407,23.84339 -53.43889,52.98531 -29.12482,29.14192 -53.49422,53.41802 -54.15422,53.94688 -0.66,0.52887 -1.2,1.22199 -1.2,1.54023 0,0.8151 3.44453,3.90838 6.04038,5.42444 1.87348,1.09418 5.34488,2.47031 7.55962,2.99677 0.352,0.0837 71.56289,0.16883 158.24643,0.18925 157.24266,0.037 157.61181,0.0356 159.94093,-0.60979 z M 508.48,423.84 c 0,-0.64 0.16,-0.8 0.8,-0.8 0.64,0 0.8,0.16 0.8,0.8 0,0.64 -0.16,0.8 -0.8,0.8 -0.64,0 -0.8,-0.16 -0.8,-0.8 z"
       id="path46"
       inkscape:connector-curvature="0" />
    <path
       style="fill:#53abd4;stroke-width:0.31999999"
       d="m 187.12,543.1248 c -0.836,-0.0659 -1.52,-0.25766 -1.52,-0.42611 0,-0.17808 -0.53574,-0.22058 -1.28,-0.10157 -1.00929,0.16138 -1.28,0.10445 -1.28,-0.26925 0,-0.37718 -0.33352,-0.44189 -1.63394,-0.31693 -0.90472,0.087 -1.7259,0.0166 -1.84,-0.15776 -0.11333,-0.17312 -0.89006,-0.40614 -1.72606,-0.51785 -1.22048,-0.16307 -1.52,-0.1097 -1.52,0.27078 0,0.29216 -0.30682,0.47389 -0.8,0.47389 -0.64,0 -0.8,-0.16 -0.8,-0.8 0,-0.49779 -0.18133,-0.8 -0.48,-0.8 -0.264,0 -0.48,0.2448 -0.48,0.544 0,0.98464 -0.53104,-0.0122 -1.05687,-1.984 -0.28161,-1.056 -0.94843,-4.152 -1.48182,-6.88 -0.53339,-2.728 -1.69698,-8.488 -2.58576,-12.8 -2.31047,-11.20938 -8.13885,-40.33405 -11.36673,-56.8 -1.51809,-7.744 -3.03644,-14.86653 -3.37412,-15.82787 -0.48389,-1.37754 -1.04977,-2.14119 -2.67096,-3.60435 -1.29282,-1.16685 -2.19641,-2.27895 -2.43226,-2.9936 -0.2064,-0.62538 -0.32235,-1.18999 -0.25768,-1.25466 0.0647,-0.0647 1.01596,0.58054 2.11397,1.43379 2.60158,2.02167 6.41358,3.9673 9.5575,4.87815 L 162.72,445.92 h 157.44 c 150.58864,0 157.52816,-0.025 159.46579,-0.57546 4.38307,-1.24502 7.93488,-3.28812 11.17421,-6.42764 1.1,-1.06615 2,-2.1856 2,-2.48775 0,-0.30214 -0.96272,-1.3863 -2.13939,-2.40925 -1.17667,-1.02294 -11.65267,-11.25974 -23.28,-22.74841 C 394.78214,339.53872 383.55152,328.48 383.30214,328.48 c -0.15225,0 -7.79753,7.50016 -16.9895,16.66698 -14.70579,14.66563 -17.1799,16.99769 -20.60406,19.42099 -5.88298,4.16339 -7.97636,5.07741 -15.92416,6.95286 -8.07284,1.90496 -11.6185,1.85235 -20.66442,-0.30665 -11.28998,-2.69463 -12.93551,-3.91716 -35.28038,-26.21092 L 256.95923,328.1615 204.39925,380.72074 C 175.49126,409.62835 151.65944,433.28 151.43964,433.28 c -0.22893,0 -0.39964,-0.40202 -0.39964,-0.94112 0,-0.5176 -0.144,-1.03011 -0.32,-1.13888 -0.176,-0.10877 -0.32,-0.94557 -0.32,-1.85952 0,-2.01405 -1.07046,-7.8568 -1.78841,-9.76147 -0.40717,-1.08019 -0.63504,-1.32973 -1.04608,-1.14557 -1.07042,0.47955 -3.08194,0.49136 -3.71405,0.0218 -0.60446,-0.44902 -0.55575,-0.5448 1.2719,-2.50109 1.04524,-1.11878 23.82808,-23.99481 50.62853,-50.83558 26.80046,-26.84074 48.72811,-48.93619 48.72811,-49.10097 0,-0.16477 -19.90949,-20.25213 -44.24332,-44.63857 C 158.40311,229.45496 147.70575,218.56 148.37567,218.56 c 0.15861,0 0.99756,0.72 1.86433,1.6 1.0642,1.08045 1.838,1.6 2.38296,1.6 0.59902,0 1.74585,0.92787 4.44954,3.6 l 3.64252,3.6 -0.19121,-2.4 c -0.23756,-2.98188 -2.55133,-15.27507 -3.28248,-17.44 -0.29719,-0.88 -0.95007,-2.07301 -1.45084,-2.65114 -0.50077,-0.57812 -0.91049,-1.32234 -0.91049,-1.65382 0,-0.33148 -0.0984,-0.85906 -0.21861,-1.17239 -0.18456,-0.48096 -0.0475,-0.45301 0.88,0.17944 0.60423,0.41203 33.93061,33.53816 74.05861,73.61361 40.128,40.07546 73.68,73.37358 74.56,73.99585 4.46365,3.15626 9.06245,4.70279 14.74103,4.95728 6.05324,0.27127 11.01855,-1.0167 15.8894,-4.12157 1.47335,-0.93916 21.35005,-20.60342 74.48957,-73.69333 39.864,-39.82679 74.11936,-73.8839 76.12298,-75.68246 2.71763,-2.43948 3.71212,-3.16107 3.9151,-2.84079 0.48496,0.76512 0.30246,1.44762 -0.82544,3.08731 -0.60902,0.8854 -1.20848,2.01756 -1.33206,2.51591 -0.12362,0.49836 -1.13831,1.85467 -2.25492,3.01404 -1.879,1.95103 -2.07686,2.29643 -2.6576,4.64 -0.72128,2.91064 -2.17798,12.49591 -2.36432,15.55753 -0.0694,1.13935 -0.30332,2.41872 -0.5199,2.84304 -0.21658,0.42432 -19.20474,19.59947 -42.1959,42.61144 l -41.80212,41.83995 2.07709,2.03679 c 28.63831,28.08267 73.05581,71.8971 84.26269,83.11857 8.06608,8.07661 14.87008,14.68474 15.12,14.68474 0.39152,0 0.45456,-13.12144 0.45558,-94.8 0,-52.14 0.0955,-96.86118 0.21069,-99.38041 l 0.20954,-4.5804 0.66931,0.66883 c 0.65824,0.6578 0.67258,0.96579 0.86819,18.66041 0.12554,11.35557 0.39466,20.82426 0.72963,25.67157 0.47466,6.86866 0.52125,15.37083 0.44109,80.48 -0.0721,58.58669 -0.16992,72.94058 -0.50089,73.52 -1.16183,2.03405 -3.39834,2.10858 -5.52839,0.18419 l -1.26147,-1.13968 -0.48352,1.15722 c -0.62589,1.49795 -2.06784,10.66675 -2.0721,13.17549 -0.003,1.81228 0.0716,2.00838 1.15648,3.04 2.14276,2.03753 3.00026,3.46851 3.00026,5.00668 0,0.77434 -0.2047,1.79674 -0.45488,2.272 -0.50525,0.95972 -2.90755,3.33837 -4.72758,4.681 -1.8449,1.36099 -1.78234,1.10252 -4.57594,18.9031 -3.33734,21.26509 -8.20854,51.1145 -8.82544,54.08 -0.18304,0.88 -0.39981,1.92592 -0.48166,2.32429 -0.12538,0.61011 -0.28599,0.68989 -1.0185,0.50605 -0.95098,-0.23869 -1.676,-0.83024 -1.676,-1.36749 0,-0.18858 -0.20432,-0.34285 -0.45408,-0.34285 -0.7392,0 -2.4217,-1.08378 -2.4239,-1.56134 -0.003,-0.35012 -0.39888,-0.39642 -1.92202,-0.2241 -1.26518,0.14314 -1.92,0.10266 -1.92,-0.11866 0,-0.18476 -0.36,-0.3359 -0.8,-0.3359 -0.44,0 -0.8,0.144 -0.8,0.32 0,0.176 -0.36,0.32 -0.8,0.32 -0.54858,0 -0.8,-0.176 -0.8,-0.56 0,-0.49136 -0.32365,-0.55504 -2.64,-0.51958 -1.452,0.0224 -3.288,0.19872 -4.08,0.39219 -2.00067,0.4887 -2.49066,0.45321 -2.65942,-0.19261 -0.11012,-0.42141 -0.15552,-0.38182 -0.18346,0.16 -0.0282,0.54477 -0.23181,0.72 -0.83712,0.72 -0.44,0 -0.8,0.144 -0.8,0.32 0,0.176 -0.42173,0.32 -0.93715,0.32 -0.51543,0 -1.15312,0.216 -1.41712,0.48 -0.53946,0.53942 -1.80573,0.65165 -1.80573,0.16 0,-0.176 -0.2863,-0.32 -0.63622,-0.32 -0.49482,0 -0.6817,0.28451 -0.8409,1.28 -0.12346,0.772 -0.37894,1.28 -0.64378,1.28 -0.2415,0 -0.4391,0.144 -0.4391,0.32 0,0.176 -0.36,0.32 -0.8,0.32 -0.63357,0 -0.8,-0.16157 -0.8,-0.77654 0,-0.47047 0.2207,-0.83421 0.56,-0.92288 0.42141,-0.11012 0.38182,-0.15552 -0.16,-0.18346 -0.46701,-0.024 -0.72,0.14592 -0.72,0.48378 0,0.42851 -0.22707,0.4846 -1.28,0.31622 -1.20794,-0.19315 -1.28,-0.15942 -1.28,0.5991 0,0.67975 -0.14813,0.80378 -0.96,0.80378 -0.528,0 -0.96,-0.144 -0.96,-0.32 0,-0.176 -0.288,-0.32 -0.64,-0.32 -0.352,0 -0.64,0.13373 -0.64,0.29715 0,0.56554 -1.00896,1.30285 -1.78285,1.30285 -0.61561,0 -0.77715,0.16627 -0.77715,0.8 0,0.64 -0.16,0.8 -0.8,0.8 -0.44,0 -0.8,-0.144 -0.8,-0.32 0,-0.176 -0.216,-0.32 -0.48,-0.32 -0.264,0 -0.48,-0.144 -0.48,-0.32 0,-0.176 -0.288,-0.32 -0.64,-0.32 -0.42666,0 -0.64,0.21334 -0.64,0.64 0,0.47146 -0.21334,0.64 -0.81005,0.64 -0.4455,0 -0.89293,-0.216 -0.99424,-0.48 -0.23721,-0.61824 -0.75571,-0.6224 -0.75571,-0.006 0,0.54237 -1.27146,0.95027 -2.1369,0.68554 -0.55164,-0.16874 -3.00044,0.13721 -5.02502,0.6278 -0.68742,0.1666 -0.99699,0.0892 -1.21709,-0.30403 -0.22528,-0.40256 -0.43766,-0.45117 -0.89702,-0.20531 -0.33104,0.17715 -0.88909,0.32211 -1.24007,0.32211 -0.351,0 -0.85417,0.216 -1.11817,0.48 -0.70384,0.70384 -1.80573,0.61773 -1.80573,-0.14112 0,-0.3416 -0.13101,-0.70208 -0.29114,-0.80102 -0.49494,-0.30592 -1.30886,0.18048 -1.30886,0.78214 0,0.31434 -0.22778,0.65895 -0.50618,0.76576 -0.81836,0.31405 -3.01382,0.22243 -3.01382,-0.12576 0,-0.176 -0.564,-0.32 -1.25334,-0.32 -0.68932,0 -1.30685,-0.16061 -1.37229,-0.35693 -0.0683,-0.2047 -0.86429,-0.35632 -1.86669,-0.35555 -0.96122,0 -1.84675,-0.15667 -1.96787,-0.34989 -0.12823,-0.20454 -1.16407,-0.34262 -2.48,-0.33059 -1.99539,0.0182 -2.25981,-0.0488 -2.25981,-0.57318 0,-0.32663 -0.144,-0.59386 -0.32,-0.59386 -0.176,0 -0.32,0.19907 -0.32,0.4424 0,0.61207 -4.77027,1.08346 -5.12678,0.50663 -0.16199,-0.26212 -0.62224,-0.32228 -1.37901,-0.18032 -1.46503,0.27484 -2.77421,-0.059 -2.77421,-0.7074 0,-0.39612 -0.0853,-0.42396 -0.384,-0.12531 -0.2112,0.2112 -0.6264,0.384 -0.92269,0.384 -0.29625,0 -0.61398,0.288 -0.70601,0.64 -0.20368,0.77885 -1.8273,0.92103 -1.8273,0.16 0,-0.264 -0.144,-0.48 -0.32,-0.48 -0.176,0 -0.32,0.144 -0.32,0.32 0,0.176 -0.72,0.32 -1.6,0.32 -0.88,0 -1.6,-0.144 -1.6,-0.32 0,-0.176 -0.432,-0.32 -0.96,-0.32 -0.528,0 -0.96,-0.144 -0.96,-0.32 0,-0.176 -0.144,-0.32 -0.32,-0.32 -0.176,0 -0.32,0.36 -0.32,0.8 0,0.44 -0.144,0.8 -0.32,0.8 -0.176,0 -0.32,0.216 -0.32,0.48 0,0.29866 -0.30221,0.48 -0.8,0.48 -0.69834,0 -0.8,-0.13993 -0.8,-1.10112 0,-1.24006 -0.29267,-1.56819 -0.97526,-1.09341 -0.35316,0.24564 -0.36871,0.36221 -0.0647,0.48557 0.22,0.0892 0.4,0.51031 0.4,0.93562 0,0.68502 -0.14192,0.77334 -1.24269,0.77334 -1.30547,0 -1.62237,-0.41917 -1.63293,-2.16 -0.003,-0.396 -0.14838,-0.72 -0.32438,-0.72 -0.176,0 -0.32,0.432 -0.32,0.96 0,0.81066 -0.12445,0.96 -0.8,0.96 -0.71949,0 -0.8,-0.12832 -0.8,-1.2751 v -1.27507 l -1.87968,0.19644 c -1.03386,0.10807 -2.97786,0.0936 -4.32,-0.0322 -2.30355,-0.21587 -2.44032,-0.272 -2.44032,-1.00137 0,-0.47351 -0.18586,-0.77271 -0.48,-0.77271 -0.264,0 -0.48,0.23485 -0.48,0.52186 0,0.4175 -0.22352,0.4856 -1.11763,0.34051 -0.74912,-0.12157 -1.26919,-0.0298 -1.57715,0.27814 -0.51853,0.51853 -5.30522,0.67072 -5.30522,0.16864 0,-0.15993 -0.756,-0.28406 -1.68,-0.2758 -0.924,0.008 -2.544,-0.15712 -3.6,-0.36749 -1.056,-0.2104 -2.928,-0.42954 -4.16,-0.48701 -1.232,-0.0574 -2.852,-0.21216 -3.6,-0.34378 -1.14211,-0.20099 -1.36,-0.15568 -1.36,0.28279 0,0.34361 -0.27354,0.52214 -0.8,0.52214 -0.64,0 -0.8,-0.16 -0.8,-0.8 0,-0.44 -0.144,-0.8 -0.32,-0.8 -0.176,0 -0.32,0.23485 -0.32,0.52186 0,0.41491 -0.22326,0.48566 -1.08925,0.34512 -0.9087,-0.14746 -1.1176,-0.0683 -1.26032,0.47741 -0.15366,0.58771 -0.32752,0.63072 -1.71075,0.42332 -0.84682,-0.12697 -1.78221,-0.36067 -2.07866,-0.51929 -0.29641,-0.15863 -0.90841,-0.28842 -1.36,-0.28842 -0.60768,0 -0.82102,-0.1663 -0.82102,-0.64 0,-0.35555 -0.21334,-0.64 -0.48,-0.64 -0.264,0 -0.48,-0.144 -0.48,-0.32 0,-0.176 -0.144,-0.32 -0.32,-0.32 -0.176,0 -0.32,0.36 -0.32,0.8 0,1.09987 -1.50259,1.17239 -1.65773,0.08 -0.0649,-0.45667 -0.35942,-0.75657 -0.80541,-0.82003 -0.63904,-0.0909 -0.68627,0.004 -0.51814,1.04 0.1728,1.0647 0.12938,1.14003 -0.65686,1.14003 -0.62,0 -0.84186,-0.16368 -0.84186,-0.62112 0,-0.95174 -0.49821,-1.05587 -1.66077,-0.34707 -1.21927,0.74339 -2.49923,0.85069 -2.49923,0.20954 0,-0.49872 -3.72105,-1.05837 -6,-0.90237 -1.07912,0.0738 -1.36,-0.0141 -1.36,-0.42579 0,-0.47501 -0.71033,-1.43319 -1.06245,-1.43319 -0.0815,0 -0.23852,0.36 -0.34895,0.8 -0.11044,0.44 -0.41405,0.8 -0.6747,0.8 -0.26064,0 -0.4739,0.144 -0.4739,0.32 0,0.35597 -0.95366,0.42515 -1.73383,0.12576 -0.27839,-0.10681 -0.50617,-0.46323 -0.50617,-0.792 0,-0.50265 -0.16548,-0.5655 -1.04,-0.39504 -0.572,0.11149 -1.088,0.32391 -1.14667,0.472 -0.0587,0.1481 -0.45466,0.26928 -0.88,0.26928 -0.60592,0 -0.77333,-0.16857 -0.77333,-0.77875 0,-0.5976 0.20468,-0.81578 0.88,-0.93792 0.484,-0.0876 -0.524,-0.10867 -2.24,-0.0469 -1.716,0.0618 -3.12,-0.005 -3.12,-0.14803 0,-0.3514 -2.69173,0.26697 -2.82667,0.64934 -0.14135,0.40058 -1.22105,0.38486 -1.99437,-0.0291 -0.53629,-0.28701 -0.61896,-0.22291 -0.61896,0.48 0,0.652 -0.15704,0.81126 -0.8,0.81126 -0.49778,0 -0.8,-0.18134 -0.8,-0.48 0,-0.264 -0.144,-0.48 -0.32,-0.48 -0.176,0 -0.32,0.216 -0.32,0.48 0,0.264 -0.144,0.48 -0.32,0.48 -0.176,0 -0.32,0.288 -0.32,0.64 0,0.46935 -0.21333,0.64 -0.8,0.64 -0.63264,0 -0.8,-0.16179 -0.8,-0.77334 0,-0.42531 0.16949,-0.82982 0.37666,-0.89888 0.20716,-0.0691 0.27066,-0.29706 0.14111,-0.50666 -0.33954,-0.5494 -0.83777,-0.46867 -0.83777,0.13575 0,0.43984 -0.26233,0.48409 -1.76,0.29699 -1.17552,-0.14688 -1.76,-0.10598 -1.76,0.1231 0,0.18868 -0.396,0.35975 -0.88,0.38016 -0.54141,0.0227 -0.66453,0.0934 -0.32,0.18346 0.33928,0.0887 0.56,0.45242 0.56,0.92288 0,0.61498 -0.16644,0.77654 -0.8,0.77654 -0.44,0 -0.8,-0.144 -0.8,-0.32 0,-0.176 -0.216,-0.32 -0.48,-0.32 -0.26667,0 -0.48,-0.28444 -0.48,-0.64 0,-0.79142 -1.06395,-0.84425 -3.30565,-0.16412 -1.03171,0.31302 -2.17029,0.40368 -3.42424,0.2726 -1.42548,-0.14899 -2.15745,-0.064 -3.03473,0.35226 -0.70065,0.33248 -1.62087,0.49456 -2.33576,0.41142 -0.64879,-0.0755 -0.92762,-0.0766 -0.61962,-0.003 0.85852,0.20663 0.73246,1.61255 -0.16,1.78445 -0.61733,0.11888 -0.59451,0.1449 0.16,0.18224 0.71371,0.0354 0.88,0.19475 0.88,0.84359 0,0.64 -0.16,0.8 -0.8,0.8 -0.49778,0 -0.8,-0.18135 -0.8,-0.48 0,-0.32 -0.32,-0.48 -0.96,-0.48 -0.528,0 -0.96,0.144 -0.96,0.32 0,0.176 0.36,0.32 0.8,0.32 0.64,0 0.8,0.16 0.8,0.8 0,0.64 -0.16,0.8 -0.8,0.8 -0.58667,0 -0.8,-0.17066 -0.8,-0.64 0,-0.46935 -0.21333,-0.64 -0.8,-0.64 -0.44,0 -0.8,0.144 -0.8,0.32 0,0.176 -0.37634,0.32 -0.83632,0.32 -0.74722,0 -0.82131,-0.10228 -0.69542,-0.96 0.11268,-0.76775 0.0238,-0.96 -0.44368,-0.96 -0.37125,0 -0.58458,0.23356 -0.58458,0.64 0,0.42665 -0.21333,0.64 -0.64,0.64 -0.352,0 -0.64,0.144 -0.64,0.32 0,0.176 -0.792,0.32 -1.76,0.32 -1.41387,0 -1.76,0.10262 -1.76,0.52185 0,0.4113 -0.22041,0.48487 -1.04,0.34723 -0.572,-0.0961 -1.292,-0.2743 -1.6,-0.39609 -0.39289,-0.15539 -0.56,-0.068 -0.56,0.29277 0,0.35542 -0.28984,0.51424 -0.93844,0.51424 -0.67529,0 -0.99885,0.19033 -1.15389,0.67884 -0.18826,0.59316 -0.38572,0.65552 -1.56409,0.49402 -1.34458,-0.18432 -1.34821,-0.18202 -1.20978,0.76112 0.12279,0.83667 0.0447,0.94602 -0.67592,0.94602 -0.53371,0 -0.88482,-0.22077 -1.01788,-0.64 -0.26053,-0.82087 -0.8,-0.83066 -0.8,-0.0144 0,0.4615 -0.29365,0.68057 -1.12,0.83561 -0.8105,0.15203 -1.12,0.37712 -1.12,0.8145 0,0.43133 -0.22905,0.60438 -0.8,0.60438 -0.64,0 -0.8,-0.16 -0.8,-0.8 0,-0.44 0.144,-0.8 0.32,-0.8 0.176,0 0.29843,-0.468 0.27205,-1.04 -0.0446,-0.96797 -0.0572,-0.97907 -0.18125,-0.16 -0.0925,0.61063 -0.32271,0.88 -0.75205,0.88 -0.44667,0 -0.61875,0.2225 -0.61875,0.8 0,0.44 -0.144,0.8 -0.32,0.8 -0.176,0 -0.32,0.288 -0.32,0.64 0,0.39485 -0.21451,0.64135 -0.56,0.64352 -0.308,0.003 -1.1,0.0928 -1.76,0.20186 -1.12494,0.18595 -1.2,0.14729 -1.2,-0.61808 0,-0.64698 0.19927,-0.86023 0.96,-1.0273 1.06925,-0.23485 1.32215,-1.12 0.32,-1.12 -0.352,0 -0.64,0.14125 -0.64,0.31389 0,0.17267 -0.34238,0.39984 -0.76084,0.50486 -0.50376,0.12644 -0.85861,0.53399 -1.05018,1.20612 -0.22126,0.77625 -0.49404,1.03897 -1.15917,1.11638 -0.47839,0.0557 -0.86972,-0.0163 -0.86961,-0.16 1.1e-4,-0.14368 -0.71989,-0.21136 -1.6,-0.15037 -1.44566,0.10019 -1.6002,0.18519 -1.6002,0.88 0,0.60707 -0.16857,0.76912 -0.8,0.76912 -0.64,0 -0.8,-0.16 -0.8,-0.8 0,-0.58665 0.17067,-0.8 0.64,-0.8 0.39849,0 0.64,-0.21334 0.64,-0.56534 0,-0.47811 -0.29852,-0.56531 -1.93497,-0.56531 -1.36208,0 -2.02383,-0.14055 -2.2351,-0.47469 -0.22947,-0.36291 -0.30128,-0.26746 -0.30503,0.40534 -0.004,0.7176 -0.14862,0.88 -0.78365,0.88 -0.60321,0 -0.80942,-0.19837 -0.91485,-0.88 -0.13284,-0.85891 -0.14199,-0.86243 -0.38188,-0.14736 -0.21185,0.63152 -0.43908,0.72263 -1.64611,0.66016 -0.99434,-0.0515 -1.51603,0.0816 -1.79937,0.45882 -0.21947,0.29222 -1.33444,0.76857 -2.47771,1.05853 -1.14327,0.28995 -2.42269,0.79776 -2.84316,1.12851 -0.42046,0.33075 -1.03306,0.60134 -1.36133,0.60134 -0.32826,0 -0.59684,0.144 -0.59684,0.32 0,0.176 -0.27622,0.32 -0.61383,0.32 -0.93484,0 -1.62617,0.34189 -1.62617,0.80423 0,0.25619 -0.61396,0.50016 -1.6,0.63577 -1.0571,0.14538 -1.6,0.37274 -1.6,0.67002 0,0.28665 -0.34847,0.44998 -0.96,0.44998 -0.528,0 -0.96,0.12096 -0.96,0.26877 0,0.14784 -0.576,0.45888 -1.28,0.69123 -0.704,0.23235 -1.28,0.52704 -1.28,0.65488 0,0.12784 -0.648,0.32963 -1.44,0.44839 -0.792,0.11878 -1.44,0.35113 -1.44,0.51635 0,0.16521 -0.3503,0.30038 -0.77844,0.30038 -0.49739,0 -0.85177,0.23107 -0.98156,0.64 -0.14229,0.44832 -0.48417,0.64 -1.14156,0.64 -0.60446,0 -0.93844,0.16439 -0.93844,0.46186 0,0.34176 -0.3953,0.45427 -1.52,0.43273 -1.95368,-0.0375 -4.24,0.35808 -4.24,0.73354 0,0.16054 -0.324,0.26592 -0.72,0.23421 -0.396,-0.0317 -1.404,-0.11162 -2.24,-0.17754 z m 44,-13.41674 c -0.22,-0.0888 -0.4,-0.4374 -0.4,-0.77472 0,-0.89187 -0.53892,-0.75184 -0.71832,0.18666 -0.13236,0.69242 -0.0406,0.79661 0.68269,0.77475 0.4596,-0.0138 0.65563,-0.0979 0.43563,-0.18669 z m 9.2,-1.68188 c 0,-0.1616 -0.089,-0.52586 -0.19785,-0.80941 -0.17775,-0.46323 -0.24171,-0.45776 -0.62982,0.0538 -0.60133,0.79264 -0.55541,1.04941 0.18767,1.04941 0.352,0 0.64,-0.13222 0.64,-0.29382 z M 266.56,520.64 c 0,-0.176 -0.216,-0.32 -0.48,-0.32 -0.264,0 -0.48,0.144 -0.48,0.32 0,0.176 0.216,0.32 0.48,0.32 0.264,0 0.48,-0.144 0.48,-0.32 z m 96.87334,-0.51334 c -0.10633,-0.10634 -0.38233,-0.1177 -0.61334,-0.0253 -0.25526,0.10214 -0.17946,0.17798 0.19334,0.19334 0.33732,0.0138 0.52634,-0.0618 0.42,-0.1681 z M 447.04,520.48 c 0,-0.64 0.16,-0.8 0.8,-0.8 0.64,0 0.8,0.16 0.8,0.8 0,0.64 -0.16,0.8 -0.8,0.8 -0.64,0 -0.8,-0.16 -0.8,-0.8 z M 142.55768,329.12 c 1e-5,-47.696 0.037,-67.16039 0.0823,-43.2542 0.0453,23.90618 0.0453,62.9302 0,86.71999 -0.0453,23.78983 -0.0823,4.23021 -0.0823,-43.46579 z"
       id="path44"
       inkscape:connector-curvature="0" />
    <path
       style="fill:#50a6ce;stroke-width:0.31999999"
       d="m 234.24,455.2 c 0,-0.64 0.16,-0.8 0.8,-0.8 0.92046,0 1.14594,1.07878 0.29383,1.40576 -0.87762,0.33677 -1.09383,0.21702 -1.09383,-0.60576 z m -9.49788,-1.52 c 0.10116,-0.748 0.10756,-1.18 0.0142,-0.96 -0.20088,0.47354 -1.71635,0.54419 -1.71635,0.08 0,-0.176 -0.216,-0.32 -0.48,-0.32 -0.26667,0 -0.48,0.28445 -0.48,0.64 0,0.46934 -0.21333,0.64 -0.8,0.64 -0.58667,0 -0.8,-0.17066 -0.8,-0.64 0,-0.6352 -0.21333,-0.64 -28.45185,-0.64 -30.08693,0 -30.80873,-0.0314 -34.74505,-1.50131 -1.59096,-0.59421 -1.60059,-0.6065 -2.59346,-3.30755 -1.5203,-4.13597 -1.62513,-4.34832 -2.58653,-5.23978 -1.27011,-1.17773 -0.66375,-1.03654 2.4627,0.57344 1.4992,0.772 3.7312,1.74374 4.96,2.15942 l 2.23418,0.75578 157.28,0.0843 c 171.14794,0.0918 159.23856,0.21037 163.77043,-1.63107 2.84083,-1.15434 6.78314,-3.81318 8.81981,-5.94842 l 1.80976,-1.89734 v 1.17622 c 0,1.53072 -0.82282,2.83367 -2.87882,4.5673 -1.86281,1.57075 -2.45734,2.57603 -3.55926,6.01824 -0.67331,2.10336 -0.88083,2.42042 -1.8487,2.8248 -3.373,1.40934 0.15376,1.36592 -110.9402,1.36592 -104.8785,0 -105.09184,0 -105.09184,0.64 0,0.46934 -0.21333,0.64 -0.8,0.64 -0.59827,0 -0.8,-0.16874 -0.8,-0.66912 0,-0.64342 -0.12961,-0.66493 -3.37215,-0.56 -2.08139,0.0674 -3.45937,0.24979 -3.6,0.47664 -0.12531,0.20214 -1.04048,0.4688 -2.0337,0.59261 -1.56264,0.19475 -1.85224,0.14528 -2.15027,-0.36752 -0.3066,-0.52755 -0.34548,-0.496 -0.35414,0.28739 -0.008,0.72275 -0.1527,0.88 -0.80974,0.88 -0.64,0 -0.8,-0.16 -0.8,-0.8 0,-0.44 -0.144,-0.8 -0.32,-0.8 -0.176,0 -0.32,0.288 -0.32,0.64 0,0.46934 -0.21333,0.64 -0.8,0.64 -0.44,0 -0.8,-0.144 -0.8,-0.32 0,-0.176 -0.648,-0.32 -1.44,-0.32 -1.06666,0 -1.44,-0.12445 -1.44,-0.48 0,-0.39299 -0.55111,-0.48 -3.04,-0.48 -2.82666,0 -3.04,0.0449 -3.04,0.64 0,0.46877 -0.21333,0.64 -0.79729,0.64 -0.45072,0 -0.97102,-0.27821 -1.19697,-0.64 -0.57262,-0.9169 -1.09576,-0.78986 -1.31774,0.32 -0.1525,0.7625 -0.35822,0.96 -1,0.96 -0.4444,0 -0.808,-0.144 -0.808,-0.32 0,-0.176 -0.276,-0.32 -0.61333,-0.32 -0.33733,0 -0.66133,-0.12496 -0.72,-0.2777 -0.16705,-0.43491 -1.54667,-0.77731 -1.54667,-0.38387 0,0.18787 -0.216,0.34157 -0.48,0.34157 -0.264,0 -0.48,0.216 -0.48,0.48 0,0.29866 -0.30222,0.48 -0.8,0.48 -0.65039,0 -0.80694,-0.16458 -0.83712,-0.88 -0.0204,-0.484 -0.0996,-0.64525 -0.17608,-0.35834 -0.0854,0.32064 -0.62602,0.59956 -1.40288,0.72378 -0.69515,0.11117 -1.26392,0.34442 -1.26392,0.51834 0,0.17392 -0.648,0.31622 -1.44,0.31622 -1.22666,0 -1.44,-0.0948 -1.44,-0.64 0,-0.352 -0.144,-0.64 -0.32,-0.64 -0.176,0 -0.32,0.36 -0.32,0.8 0,0.65037 -0.15727,0.8 -0.8409,0.8 -0.8048,0 -0.833,-0.0584 -0.65697,-1.36 z M 151.36,432.01888 c 0,-0.5176 -0.144,-1.03011 -0.32,-1.13888 -0.176,-0.10877 -0.32,-1.12474 -0.32,-2.2577 0,-2.5439 -1.35833,-9.1128 -2.16849,-10.48688 -0.55591,-0.94284 -0.70564,-1.0078 -2.0951,-0.90902 -1.00052,0.0711 -1.49641,-0.0195 -1.49641,-0.27309 0,-0.99171 7.43778,-8.59229 51.81865,-52.95289 26.23574,-26.22378 47.70135,-47.82401 47.70135,-48.00049 0,-0.17648 -18.29199,-18.60866 -40.64886,-40.9604 -22.35688,-22.35174 -41.29092,-41.45287 -42.07565,-42.44696 -1.1816,-1.49684 -1.33704,-1.84188 -0.90453,-2.00785 0.44827,-0.17201 0.49345,-0.57329 0.31892,-2.83256 -0.48029,-6.21721 -2.99051,-17.80375 -4.85126,-22.39216 -0.14959,-0.3689 -0.0797,-0.56 0.2048,-0.56 0.23754,0 33.33694,32.88531 73.55423,73.07846 40.21729,40.19315 73.80719,73.53664 74.64423,74.09668 4.57804,3.06291 9.49185,4.55609 15.11812,4.59398 5.95168,0.0401 10.76378,-1.37392 15.5639,-4.57338 1.40148,-0.93414 24.97648,-24.26752 75.6361,-74.86087 40.48,-40.42705 74.356,-74.11814 75.28,-74.86909 1.72624,-1.40294 2.28301,-1.19868 1.04,0.38154 -0.352,0.44749 -0.64,1.15693 -0.64,1.57653 0,0.48517 -0.53357,1.28225 -1.46566,2.18952 -1.81892,1.77046 -2.28077,2.63851 -3.22791,6.06663 -0.88912,3.21824 -2.66643,14.89503 -2.66643,17.51841 v 1.83585 l -41.92,41.92452 c -23.056,23.05849 -41.92,42.11298 -41.92,42.3433 0,0.44767 4.60694,5.02032 60.64,60.18845 19.888,19.58102 36.72093,36.34608 37.4065,37.25565 0.68556,0.9096 0.93308,1.37545 0.55004,1.0352 -0.60304,-0.53562 -0.75552,-0.55709 -1.13683,-0.16 -1.22605,1.27686 -2.80473,9.94118 -2.78019,15.25862 0.009,1.97277 -0.11178,3.28 -0.3033,3.28 -0.31443,0 -76.79113,-75.16173 -96.26233,-94.60717 C 388.10851,332.83478 383.4328,328.32 383.24342,328.32 c -0.1894,0 -7.98064,7.60518 -17.31388,16.90042 -15.01332,14.95219 -17.40756,17.2064 -20.76919,19.55462 -5.10345,3.5649 -7.464,4.62083 -14.19126,6.34806 -5.50621,1.41373 -5.84851,1.46157 -10.64909,1.48877 -4.79844,0.0272 -5.14763,-0.017 -10.72,-1.35907 -6.9051,-1.66298 -9.85533,-2.98272 -15.2,-6.79955 -3.13248,-2.23703 -6.17279,-5.12051 -20.43463,-19.38064 C 264.75032,335.85869 257.04615,328.32 256.845,328.32 c -0.20115,0 -23.9094,23.544 -52.685,52.32 -28.7756,28.776 -52.42743,52.32 -52.55963,52.32 -0.1322,0 -0.24037,-0.42349 -0.24037,-0.94112 z M 497.6368,318 c 0.0202,-53.9 0.15594,-97.424 0.30157,-96.72 0.1456,0.704 0.27443,5.96 0.28624,11.68 0.0118,5.72 0.23392,13.568 0.49357,17.44 0.39542,5.89681 0.47289,19.76058 0.47696,85.3759 0.004,69.59834 -0.0496,78.44119 -0.48336,79.28 -0.26852,0.51924 -0.62852,0.9441 -0.8,0.9441 -0.20176,0 -0.29879,-34.5768 -0.27498,-98 z M 158.4,228.96 c -0.2191,-0.264 -0.32636,-0.48 -0.23836,-0.48 0.088,0 0.33926,0.216 0.55836,0.48 0.2191,0.264 0.32636,0.48 0.23836,0.48 -0.088,0 -0.33926,-0.216 -0.55836,-0.48 z m -2.56,-2.56 c -0.2191,-0.264 -0.32636,-0.48 -0.23836,-0.48 0.088,0 0.33926,0.216 0.55836,0.48 0.2191,0.264 0.32636,0.48 0.23836,0.48 -0.088,0 -0.33926,-0.216 -0.55836,-0.48 z m -2.24,-2.24 c -0.2191,-0.264 -0.32636,-0.48 -0.23836,-0.48 0.088,0 0.33926,0.216 0.55836,0.48 0.2191,0.264 0.32636,0.48 0.23836,0.48 -0.088,0 -0.33926,-0.216 -0.55836,-0.48 z"
       id="path42"
       inkscape:connector-curvature="0" />
    <path
       style="fill:#4c9dc2;stroke-width:0.31999999"
       d="m 164.92926,448.96237 c -2.82218,-0.30861 -5.41316,-1.03747 -8.1927,-2.30464 -1.86848,-0.85184 -2.22999,-1.16135 -2.81817,-2.41264 -0.3711,-0.78947 -0.63055,-1.47933 -0.57656,-1.53303 0.054,-0.0537 1.10617,0.39325 2.33817,0.99316 1.232,0.59993 3.32,1.37174 4.64,1.71516 2.36378,0.61495 4.77437,0.62464 159.7088,0.64199 154.38544,0.0173 157.3537,0.006 159.72342,-0.59991 2.68336,-0.6863 8.46477,-3.52582 10.30887,-5.06313 0.37005,-0.30851 0.28765,-0.13066 -0.18791,0.40566 -0.46576,0.52525 -1.17392,1.74701 -1.57369,2.71501 -0.39978,0.968 -0.93117,2.00109 -1.18083,2.29574 -0.573,0.67623 -3.76589,2.01748 -6.47866,2.72148 -1.93571,0.50236 -12.87856,0.54444 -157.76,0.60662 -85.624,0.0367 -156.70183,-0.0449 -157.95074,-0.18147 z m 303.5102,-36.85987 c -11.25962,-11.11965 -20.57271,-20.37757 -20.69575,-20.57319 -0.12304,-0.19561 -14.20873,-14.13405 -31.30153,-30.9743 -17.0928,-16.84023 -31.31613,-30.98231 -31.60736,-31.42682 -0.51312,-0.7831 -0.50682,-0.80819 0.20278,-0.80819 0.40282,0 1.18493,0.252 1.73802,0.56 0.97708,0.5441 69.48953,67.94189 91.56508,90.07536 9.15517,9.17914 11.0249,11.20528 11.24631,12.18707 0.21277,0.9433 0.17197,1.17757 -0.20499,1.17757 -0.25882,0 -9.68298,-9.09789 -20.94256,-20.2175 z m -320.12755,4.26268 c -0.48233,-0.72886 -1.00552,-1.32518 -1.16265,-1.32518 -0.15713,0 -0.0752,-0.396 0.18208,-0.88 0.25727,-0.484 22.29297,-22.69581 48.96822,-49.35962 C 222.9748,338.13661 244.8,316.17793 244.8,316.00331 c 0,-0.17461 -18.55922,-18.89479 -41.24271,-41.60039 -22.68349,-22.70561 -41.37744,-41.54248 -41.54212,-41.85971 -0.31345,-0.60385 -0.17367,-2.46321 0.18518,-2.46321 0.11425,0 19.09978,18.9 42.19008,42 29.71538,29.72786 42.12659,42.34763 42.47596,43.18972 0.65783,1.58554 0.62213,2.66429 -0.13994,4.22925 -0.43176,0.88663 -16.06634,16.73162 -49.08557,49.74621 l -48.45201,48.44516 z m 341.26595,-4.05987 c -6.80624,-6.48592 -92.43152,-90.95683 -93.17786,-91.92166 -0.83482,-1.07923 -1.21002,-2.94365 -0.59242,-2.94365 0.15818,0 1.41818,1.04165 2.8,2.31478 6.7426,6.2122 94.19242,92.82736 94.19242,93.29341 0,0.14823 -0.19955,0.5424 -0.44346,0.87597 -0.41817,0.57187 -0.5767,0.47949 -2.77868,-1.61885 z M 316.96,372.44886 c -1.584,-0.1374 -3.384,-0.40547 -4,-0.59568 -0.616,-0.1902 -2.992,-0.78051 -5.28,-1.3118 -4.94385,-1.14804 -8.14438,-2.60506 -12.18027,-5.54506 -1.57285,-1.14579 -3.37909,-2.46278 -4.01387,-2.92666 -1.67901,-1.227 -33.24586,-32.90528 -33.24586,-33.3632 0,-0.21254 0.22062,-0.38646 0.49028,-0.38646 1.67569,0 3.48569,1.62758 19.33157,17.38333 21.6326,21.5095 22.37472,22.04125 34.73815,24.88976 5.42677,1.2503 9.6361,1.49606 13.44,0.78464 4.19136,-0.78391 10.09171,-2.30832 11.84758,-3.06096 0.83764,-0.35907 1.57901,-0.59687 1.64746,-0.52842 0.58938,0.58938 -11.59171,4.05107 -15.92714,4.52631 -3.36691,0.36905 -3.99845,0.3814 -6.8479,0.1342 z m -0.6907,-12.58048 c -4.43637,-0.84726 -8.39947,-2.53699 -12.2693,-5.23123 -1.33147,-0.92701 -27.89937,-27.24953 -73.82668,-73.14487 l -71.74667,-71.69673 -0.77949,-2.09778 c -0.42872,-1.15377 -0.71709,-2.1634 -0.64082,-2.24361 0.0763,-0.0802 32.85704,32.5592 72.84617,72.53202 78.50243,78.47043 74.55357,74.68646 80.22218,76.87251 5.17501,1.99568 11.48208,2.41766 16.64531,1.11369 2.44042,-0.61635 6.66512,-2.51574 8.85546,-3.98137 0.8495,-0.56842 34.30454,-33.75135 74.34454,-73.73983 40.04,-39.98847 73.20848,-72.95741 73.70778,-73.26432 1.14771,-0.7055 1.48918,-0.40757 0.61248,0.5344 -0.36791,0.39531 -1.19328,2.2416 -1.83418,4.10288 l -1.16528,3.38414 -70.14038,70.09028 c -44.70653,44.67456 -70.90298,70.62438 -72.24333,71.56323 -2.82013,1.97527 -6.93466,3.90538 -10.05709,4.71773 -3.30259,0.85923 -9.355,1.09536 -12.5307,0.48886 z"
       id="path40"
       inkscape:connector-curvature="0" />
    <path
       style="fill:#4b97bb;stroke-width:0.31999999"
       d="m 186.88,447.36736 c -24.06156,-0.16842 -24.16847,-0.17206 -26.24,-0.89376 -1.144,-0.39856 -2.44,-0.94416 -2.88,-1.21248 l -0.8,-0.48781 0.8,0.22189 c 0.44,0.12202 1.52,0.4505 2.4,0.72989 1.45081,0.46067 16.25054,0.51651 158.72,0.59888 143.0199,0.0827 157.34928,0.0449 159.67491,-0.42147 2.55271,-0.51191 6.39133,-2.07946 8.13837,-3.32346 0.50902,-0.36246 1.07581,-0.65904 1.25949,-0.65904 0.54589,0 -0.24778,1.86608 -1.02583,2.41197 -1.26278,0.88598 -5.56275,2.3695 -7.77708,2.68313 -2.40874,0.34119 -251.03486,0.64084 -292.26986,0.35226 z m -38.70874,-32.62634 c -0.18219,-0.34041 -0.33126,-0.80998 -0.33126,-1.04348 0,-0.23351 21.84324,-22.23898 48.54052,-48.90106 50.71922,-50.6523 49.37752,-49.3786 48.58658,-46.12393 -0.13606,0.55987 -16.45959,17.10889 -48.10298,48.76745 -26.34337,26.356 -48.00156,47.92 -48.12932,47.92 -0.12775,0 -0.38135,-0.27853 -0.56354,-0.61898 z M 315.84,357.77302 c -4.1886,-0.89612 -8.60784,-2.88412 -11.04,-4.96636 -0.95461,-0.81725 -0.95102,-0.81684 0.64,0.0775 2.41716,1.35872 5.24857,2.55462 7.5412,3.18525 2.92791,0.80531 11.12654,0.79363 14.0588,-0.0202 3.29494,-0.91434 7.63363,-3.13578 10.24,-5.24298 1.32,-1.0672 34.58387,-34.1392 73.91974,-73.49335 39.33584,-39.35407 71.6184,-71.55292 71.73901,-71.55292 0.12061,0 -0.0614,0.83122 -0.40451,1.84716 -0.61056,1.80793 -2.14742,3.36992 -72.37901,73.56131 -62.06217,62.02663 -72.05853,71.89121 -74.00038,73.02484 -6.48035,3.78314 -13.54522,5.02807 -20.31485,3.57971 z"
       id="path38"
       inkscape:connector-curvature="0" />
  </g>
</svg>
