<?xml version="1.0" encoding="UTF-8" standalone="no"?>
<!-- Created with Inkscape (http://www.inkscape.org/) -->

<svg
   xmlns:dc="http://purl.org/dc/elements/1.1/"
   xmlns:cc="http://creativecommons.org/ns#"
   xmlns:rdf="http://www.w3.org/1999/02/22-rdf-syntax-ns#"
   xmlns:svg="http://www.w3.org/2000/svg"
   xmlns="http://www.w3.org/2000/svg"
   xmlns:sodipodi="http://sodipodi.sourceforge.net/DTD/sodipodi-0.dtd"
   xmlns:inkscape="http://www.inkscape.org/namespaces/inkscape"
   width="210mm"
   height="297mm"
   viewBox="0 0 744.09448819 1052.3622047"
   id="svg2"
   version="1.1"
   inkscape:version="0.91 r13725"
   sodipodi:docname="email.svg">
  <defs
     id="defs4" />
  <sodipodi:namedview
     id="base"
     pagecolor="#ffffff"
     bordercolor="#666666"
     borderopacity="1.0"
     inkscape:pageopacity="0.0"
     inkscape:pageshadow="2"
     inkscape:zoom="0.35"
     inkscape:cx="375"
     inkscape:cy="520"
     inkscape:document-units="px"
     inkscape:current-layer="layer1"
     showgrid="false"
     inkscape:window-width="1366"
     inkscape:window-height="705"
     inkscape:window-x="-8"
     inkscape:window-y="-8"
     inkscape:window-maximized="1" />
  <metadata
     id="metadata7">
    <rdf:RDF>
      <cc:Work
         rdf:about="">
        <dc:format>image/svg+xml</dc:format>
        <dc:type
           rdf:resource="http://purl.org/dc/dcmitype/StillImage" />
        <dc:title></dc:title>
      </cc:Work>
    </rdf:RDF>
  </metadata>
  <g
     inkscape:label="Capa 1"
     inkscape:groupmode="layer"
     id="layer1">
    <g
       id="g3434"
       transform="translate(-65.714286,-68.571428)">
      <path
         style="fill:#fdfefd"
         d="m 252.85715,560.93365 0,-150 150,0 150,0 0,150 0,150 -150,0 -150,0 0,-150 z"
         id="path3450"
         inkscape:connector-curvature="0" />
      <path
         style="fill:#d0e7f0"
         d="m 389.05715,691.71354 c -40.40842,-3.48098 -76.7777,-24.67771 -99.25713,-57.84902 -8.64763,-12.7607 -14.26877,-24.62255 -18.14069,-38.28087 -3.7335,-13.17002 -5.11203,-23.25383 -5.10603,-37.35 0.004,-9.50089 0.38037,-14.31787 1.76954,-22.65 5.36975,-32.2073 23.34233,-62.33145 49.26013,-82.56575 6.9432,-5.42063 15.35558,-10.73838 23.17418,-14.64919 14.08293,-7.04417 29.21811,-11.4058 45.9,-13.22739 6.43241,-0.70238 20.59796,-0.70649 27,-0.008 16.27253,1.77586 30.41959,5.73931 44.55,12.48116 14.18115,6.76605 29.50846,18.02412 39.83817,29.26153 21.21027,23.07409 33.31358,50.74035 35.63563,81.45747 0.45041,5.95815 0.20099,19.75445 -0.45557,25.2 -3.08994,25.62787 -12.37841,48.03839 -28.28754,68.25 -6.88362,8.74523 -18.46654,19.75121 -26.67887,25.35 -10.40652,7.09469 -16.38553,10.46001 -25.51356,14.36046 -11.59289,4.9537 -23.82163,8.17189 -37.28826,9.81302 -4.74154,0.57783 -21.42813,0.83471 -26.4,0.40641 z m 87,-75.7988 c 1.8877,-0.76527 3.9,-2.30611 3.9,-2.98628 0,-0.51314 -3.62097,-4.15016 -31.13521,-31.27329 l -18.9852,-18.71534 -8.1648,8.10364 c -7.51145,7.45519 -10.25652,9.80998 -12.64159,10.84429 -1.69528,0.73517 -6.94278,1.84511 -8.7232,1.84511 -1.78042,0 -7.02792,-1.10994 -8.7232,-1.84511 -2.38652,-1.03494 -5.13106,-3.39002 -12.66653,-10.86912 l -8.18972,-8.12846 -25.08371,25.1196 -25.0837,25.1196 0.57306,0.63323 c 0.93105,1.02878 3.1375,2.18029 4.91547,2.56529 1.26579,0.27409 19.0208,0.34685 75.00833,0.30742 l 73.35,-0.0517 1.65,-0.66891 z m -113.1862,-60.5051 c -1.09537,-1.4352 -44.35422,-44.87599 -44.68803,-44.87599 -0.12417,0 -0.22577,20.68842 -0.22577,45.97427 l 0,45.97426 22.92475,-22.92328 22.92474,-22.92328 -0.93569,-1.22598 z m 119.7862,0.49981 0,-45.8242 -21.17169,21.1492 c -11.64443,11.63206 -21.96213,22.11453 -22.92822,23.29438 l -1.75653,2.14517 22.85322,22.51703 c 12.56927,12.38436 22.88697,22.52279 22.92822,22.52983 0.0412,0.007 0.075,-20.6081 0.075,-45.81141 z m -79.81268,18.50135 c 3.38152,-0.77925 2.62485,-0.0716 39.68768,-37.11741 19.42875,-19.41983 35.325,-35.39742 35.325,-35.50576 0,-0.10833 -0.64125,-0.58105 -1.425,-1.05047 l -1.425,-0.85351 -74.55,0 -74.55,0 -1.73055,0.90733 -1.73055,0.90734 35.41022,35.39267 c 25.22497,25.21245 35.81267,35.60408 36.80937,36.1277 2.68937,1.41287 5.4652,1.81746 8.17883,1.19211 z"
         id="path3448"
         inkscape:connector-curvature="0" />
      <path
         style="fill:#a1d2e7"
         d="m 389.05715,691.41354 c -11.8195,-1.01819 -24.68168,-3.86279 -35.32022,-7.81142 -31.33248,-11.62946 -57.83548,-35.41347 -72.81604,-65.34571 -7.56827,-15.12194 -11.64702,-29.11537 -13.56027,-46.52276 -0.70263,-6.39273 -0.70043,-20.54706 0.004,-27 1.79823,-16.46794 5.86047,-30.68576 12.8143,-44.85 6.71783,-13.68351 13.98914,-23.97108 24.5649,-34.75484 11.56405,-11.7915 22.51174,-19.72928 37.06313,-26.87319 14.16424,-6.95383 28.38206,-11.01607 44.85,-12.8143 6.43241,-0.70238 20.59796,-0.70649 27,-0.008 12.97177,1.41564 24.884,4.3052 35.7,8.65979 15.38092,6.19245 28.95847,14.73311 41.25,25.94742 17.21532,15.70657 30.33832,36.48516 37.38411,59.19295 2.15668,6.95074 3.8937,15.34693 4.96578,24.00299 0.7694,6.21228 0.7779,23.76069 0.0145,29.99701 -2.35724,19.25708 -7.5167,34.96807 -16.94535,51.6 -8.65344,15.26449 -21.81786,30.03214 -36.51906,40.96654 -18.72877,13.93001 -39.90701,22.26473 -64.05,25.20694 -4.74154,0.57783 -21.42813,0.83471 -26.4,0.40641 z m 86.41105,-74.857 c 1.70282,-0.47779 4.29691,-2.18366 4.91166,-3.22991 0.28747,-0.48925 -1.62522,-2.48983 -15.72271,-16.44508 -8.8275,-8.73844 -20.27684,-20.02124 -25.44299,-25.07288 l -9.39298,-9.18482 -7.85702,7.81741 c -10.19306,10.14169 -11.27983,10.93145 -16.85523,12.24884 -3.94862,0.933 -5.65494,0.933 -9.60356,0 -5.61305,-1.32628 -6.47402,-1.95057 -16.72659,-12.12847 l -8.02837,-7.9699 -25.19663,25.19529 c -13.85815,13.85741 -25.19663,25.33908 -25.19663,25.51483 0,0.8585 3.17542,2.96195 5.199,3.44389 0.52305,0.12457 34.08464,0.24031 74.58132,0.2572 66.4559,0.0277 73.796,-0.0158 75.33073,-0.4464 z M 364.45715,556.43892 c 0,-0.24418 -46.32783,-46.50527 -46.57237,-46.50527 -0.12519,0 -0.22763,21.02593 -0.22763,46.72428 l 0,46.72428 23.4,-23.39856 c 12.87,-12.86921 23.4,-23.46434 23.4,-23.54473 z M 482.8878,510.09151 c -0.25453,-0.30359 -46.79423,46.00141 -46.65484,46.41957 0.0419,0.12568 10.53823,10.57478 23.32518,23.22023 l 23.24901,22.99171 0.16279,-46.16968 c 0.0895,-25.39333 0.0526,-46.30115 -0.0821,-46.46183 z m -77.15699,63.77118 c 1.95903,-0.94716 4.08062,-3.0058 37.55239,-36.43831 19.51182,-19.48895 35.43108,-35.57086 35.37612,-35.73759 -0.0549,-0.16673 -0.88963,-0.70814 -1.85483,-1.20314 l -1.75492,-0.9 -74.72121,0 -74.72121,0 -1.35,0.64521 c -0.7425,0.35486 -1.62,0.85486 -1.95,1.1111 -0.57528,0.44671 0.84001,1.90685 34.35,35.43871 19.2225,19.23504 35.65391,35.4604 36.51425,36.05635 2.5081,1.73736 4.2654,2.22742 7.60941,2.12208 2.54339,-0.0801 3.11229,-0.20591 4.95,-1.09441 z"
         id="path3446"
         inkscape:connector-curvature="0" />
      <path
         style="fill:#6ec3e9"
         d="m 389.05715,691.11354 c -15.20027,-1.30942 -30.20533,-5.18149 -43.8,-11.30263 -15.62955,-7.03736 -32.01834,-18.95014 -43.23585,-31.42753 -14.15784,-15.74796 -24.40129,-33.92763 -29.76942,-52.83361 -3.72199,-13.10846 -5.10458,-23.22752 -5.09858,-37.31612 0.008,-17.92799 2.74443,-32.69353 9.00803,-48.6 9.80431,-24.89811 27.13951,-46.58028 49.14582,-61.4696 5.68961,-3.84956 9.50926,-6.08114 15.75,-9.20178 14.50642,-7.25383 28.73609,-11.37949 45.6,-13.22095 6.43241,-0.70238 20.59796,-0.70649 27,-0.008 29.40719,3.20927 54.53482,14.48241 76.7018,34.41112 18.94232,17.02966 33.73519,42.2259 39.53516,67.33904 2.66073,11.52064 3.30025,17.46968 3.30562,30.75 0.005,12.66437 -0.57719,18.56459 -2.87199,29.1 -6.66043,30.57798 -25.11273,59.01565 -50.52059,77.85954 -19.46915,14.43941 -39.87938,22.5318 -64.35,25.51394 -4.74154,0.57783 -21.42813,0.83471 -26.4,0.40641 z m 87.636,-74.72044 c 1.75036,-0.82073 4.16619,-2.77692 4.16104,-3.36936 -0.003,-0.29811 -29.04776,-29.21375 -45.2375,-45.03577 l -5.79046,-5.65894 -8.15954,8.11116 c -9.95119,9.89218 -11.05209,10.69295 -16.60952,12.08138 -3.38224,0.84499 -6.29698,0.79282 -10.18874,-0.18236 -4.85236,-1.21589 -6.24171,-2.25346 -15.92741,-11.89468 -4.49137,-4.47075 -8.23033,-8.06839 -8.30881,-7.99475 -0.0785,0.0736 -11.55751,11.53491 -25.50896,25.4695 l -25.36627,25.33563 0.97509,1.01616 c 1.15518,1.20384 3.39819,2.40696 5.1316,2.75252 0.68391,0.13634 34.52098,0.22813 75.19348,0.20398 l 73.95,-0.0439 1.686,-0.79055 z M 341.13287,580.20793 c 12.82835,-12.82914 23.32428,-23.52821 23.32428,-23.77572 0,-0.44159 -46.43621,-47.09856 -46.87572,-47.09856 -0.12335,0 -0.22428,21.195 -0.22428,47.1 0,25.905 0.10157,47.1 0.22572,47.1 0.12415,0 10.72165,-10.49657 23.55,-23.32572 z m 142.12428,-24.07428 c 0,-25.74 -0.10242,-46.8 -0.2276,-46.8 -0.12518,0 -10.82265,10.59825 -23.77215,23.55166 l -23.54455,23.55166 4.64715,4.6139 c 22.26768,22.10834 42.38952,41.88278 42.61859,41.88278 0.17022,0 0.27856,-18.20146 0.27856,-46.8 z m -79.10484,18.59512 c 1.17915,-0.3642 2.65397,-1.13309 3.7066,-1.93242 0.96153,-0.73015 17.4014,-16.98884 36.53305,-36.13042 33.92608,-33.94369 34.77169,-34.81736 34.25361,-35.38983 -0.29216,-0.32283 -1.23033,-0.9032 -2.08481,-1.28971 l -1.55361,-0.70274 -74.7063,0 -74.7063,0 -2.0187,0.9938 c -1.11029,0.54659 -2.0187,1.15542 -2.0187,1.35296 0,0.53742 70.76532,71.10515 72.10091,71.89961 3.03193,1.80348 7.05025,2.26249 10.49425,1.19875 z"
         id="path3444"
         inkscape:connector-curvature="0" />
      <path
         style="fill:#83b8d1"
         d="m 389.80715,691.1038 c -15.06725,-1.29079 -30.71045,-5.3615 -44.55,-11.59289 -4.19124,-1.88715 -11.06989,-5.45413 -12,-6.22271 -0.2475,-0.20451 -2.07,-1.39194 -4.05,-2.63871 -3.16101,-1.99044 -10.00561,-6.8463 -12.15,-8.61975 -0.4125,-0.34114 -1.12057,-0.91857 -1.5735,-1.28317 -9.46369,-7.61829 -19.08004,-18.44554 -26.70072,-30.06292 -11.66694,-17.78571 -18.36384,-36.84282 -20.82119,-59.25 -0.69782,-6.36311 -0.69564,-19.97612 0.004,-26.4 2.99056,-27.4492 12.93937,-51.02017 30.42969,-72.09479 2.92828,-3.52837 10.46349,-11.22098 14.23731,-14.5347 20.93796,-18.38525 45.93332,-29.26854 74.32418,-32.36169 6.40347,-0.69765 20.0279,-0.7017 26.4,-0.008 16.25584,1.77008 30.41795,5.73739 44.55,12.48002 16.59353,7.91704 32.79255,20.63758 44.77031,35.15661 17.77422,21.5453 27.98591,46.97369 30.10385,74.96239 0.44551,5.88753 0.19916,19.1404 -0.45728,24.6 -3.26128,27.12388 -13.72053,51.18362 -31.03901,71.4 -2.33239,2.72267 -10.87749,11.40545 -13.18279,13.39518 -0.60229,0.51986 -1.56758,1.36538 -2.14508,1.87894 -4.0123,3.56809 -14.88511,11.23819 -20.20812,14.25559 -15.40015,8.72973 -32.61495,14.29193 -51.19188,16.54041 -4.81268,0.58251 -19.7936,0.82464 -24.75,0.40003 z m 86.886,-74.7107 c 1.75036,-0.82073 4.16619,-2.77692 4.16104,-3.36936 -0.003,-0.29811 -29.04776,-29.21375 -45.2375,-45.03577 l -5.79046,-5.65894 -8.15954,8.11116 c -9.95119,9.89218 -11.05209,10.69295 -16.60952,12.08138 -3.38224,0.84499 -6.29698,0.79282 -10.18874,-0.18236 -4.85344,-1.21616 -6.24066,-2.25241 -15.93958,-11.90682 l -8.1783,-8.14078 -24.68454,24.68318 c -13.57649,13.57575 -24.76321,24.60451 -24.85937,24.50835 -0.0962,-0.0962 -0.52507,0.2414 -0.95314,0.75013 l -0.7783,0.92496 0.83043,0.81271 c 0.73099,0.7154 0.73889,0.74087 0.066,0.21271 l -0.76445,-0.6 0.71482,0.81172 c 0.39315,0.44646 0.79816,0.7907 0.9,0.76499 0.10185,-0.0257 0.90811,0.32723 1.79169,0.7843 0.88359,0.45707 2.16609,0.94259 2.85001,1.07893 0.68391,0.13634 34.52098,0.22813 75.19348,0.20398 l 73.95,-0.0439 1.686,-0.79055 z m -158.5906,-12.86689 c -0.0608,-0.0984 10.34411,-10.63287 23.12203,-23.40999 12.77791,-12.77711 23.23257,-23.43429 23.23257,-23.68262 0,-0.24833 -9.78205,-10.23285 -21.73789,-22.18784 -11.95584,-11.95498 -21.67236,-21.80187 -21.59226,-21.88196 0.0801,-0.0801 -0.562,-0.86214 -1.42687,-1.73789 -1.53711,-1.55645 -2.45552,-1.97034 -2.70105,-1.21726 -0.0673,0.20625 -0.0137,3.21 0.11894,6.675 0.13266,3.465 0.20699,24.59733 0.16517,46.96073 -0.0708,37.87643 -0.0416,40.66073 0.42693,40.66071 0.27664,-1e-5 0.45323,-0.0805 0.39243,-0.17888 z m 1.63845,-92.31756 -1.03385,-1.125 1.125,1.03385 c 1.04713,0.96228 1.26294,1.21615 1.03385,1.21615 -0.0501,0 -0.55638,-0.50625 -1.125,-1.125 z m 163.66615,44.8607 c 0,-41.81659 -0.0504,-47.03572 -0.4545,-47.03571 -0.24998,1e-5 -2.13795,1.68751 -4.1955,3.75001 -2.05755,2.0625 -3.6094,3.75 -3.44856,3.75 0.16084,0 -8.68222,8.97843 -19.65125,19.95206 l -19.94368,19.95207 4.64675,4.61209 c 2.5557,2.53665 12.94924,12.824 23.09674,22.86078 10.1475,10.03678 18.45207,18.32166 18.45459,18.41084 0.0119,0.4193 0.45279,0.78359 0.94838,0.78358 0.52705,-10e-6 0.54703,-1.71834 0.54703,-47.03572 z m -79.25551,18.65963 c 1.09086,-0.33693 2.66566,-1.13579 3.5566,-1.80417 1.60225,-1.20201 71.64891,-71.04973 71.64891,-71.44542 0,-0.11568 -0.15586,-0.30666 -0.34635,-0.42439 -0.22845,-0.14119 -0.27065,-0.0706 -0.12397,0.2073 0.12231,0.23174 -0.0256,0.13217 -0.32865,-0.22126 -0.77604,-0.90501 -2.07047,-1.49428 -4.15486,-1.89142 -1.32267,-0.25201 -21.1741,-0.31899 -75.30332,-0.2541 l -73.50714,0.0881 -2.09286,1.05 c -2.32143,1.16468 -2.72404,1.88397 -1.60449,2.86655 0.41935,0.36805 0.57592,0.41731 0.4241,0.13345 -0.13237,-0.2475 15.60567,15.35889 34.97343,34.68086 19.36776,19.32198 35.73202,35.43895 36.36502,35.81549 3.03161,1.80334 7.05027,2.26251 10.49358,1.19898 z"
         id="path3442"
         inkscape:connector-curvature="0" />
      <path
         style="fill:#57bae6"
         d="m 389.80715,691.1038 c -15.06725,-1.29079 -30.71045,-5.3615 -44.55,-11.59289 -4.19124,-1.88715 -11.06989,-5.45413 -12,-6.22271 -0.2475,-0.20451 -2.07,-1.39194 -4.05,-2.63871 -3.16101,-1.99044 -10.00561,-6.8463 -12.15,-8.61975 -0.4125,-0.34114 -1.12057,-0.91857 -1.5735,-1.28317 -9.46369,-7.61829 -19.08004,-18.44554 -26.70072,-30.06292 -11.66694,-17.78571 -18.36384,-36.84282 -20.82119,-59.25 -0.69782,-6.36311 -0.69564,-19.97612 0.004,-26.4 2.99056,-27.4492 12.93937,-51.02017 30.42969,-72.09479 2.92828,-3.52837 10.46349,-11.22098 14.23731,-14.5347 20.93796,-18.38525 45.93332,-29.26854 74.32418,-32.36169 6.40347,-0.69765 20.0279,-0.7017 26.4,-0.008 16.25584,1.77008 30.41795,5.73739 44.55,12.48002 16.59353,7.91704 32.79255,20.63758 44.77031,35.15661 17.77422,21.5453 27.98591,46.97369 30.10385,74.96239 0.44551,5.88753 0.19916,19.1404 -0.45728,24.6 -3.26128,27.12388 -13.72053,51.18362 -31.03901,71.4 -2.33239,2.72267 -10.87749,11.40545 -13.18279,13.39518 -0.60229,0.51986 -1.56758,1.36538 -2.14508,1.87894 -4.0123,3.56809 -14.88511,11.23819 -20.20812,14.25559 -15.40015,8.72973 -32.61495,14.29193 -51.19188,16.54041 -4.81268,0.58251 -19.7936,0.82464 -24.75,0.40003 z m 87.03523,-74.46827 c 1.93744,-0.89536 4.44336,-3.15118 4.2684,-3.84241 -0.057,-0.22521 -9.62113,-9.78141 -21.25363,-21.236 -11.6325,-11.45459 -23.14163,-22.79328 -25.57583,-25.19709 l -4.42584,-4.37054 -8.02416,7.98206 c -7.05613,7.01912 -10.23905,9.80861 -12.57255,11.01853 -1.42132,0.73696 -6.91429,1.90737 -8.95162,1.90737 -2.04963,0 -7.55471,-1.1765 -8.95162,-1.91306 -2.48148,-1.30845 -5.23951,-3.71829 -12.38608,-10.82241 -7.05906,-7.01713 -8.21223,-8.04823 -8.7,-7.779 -0.30927,0.1707 -11.88171,11.64371 -25.71655,25.49558 -22.95202,22.98026 -25.12508,25.23973 -24.82097,25.80796 0.65156,1.21746 3.7417,3.10006 5.94556,3.62221 0.64894,0.15376 32.66261,0.24792 75.22966,0.22129 l 74.1,-0.0464 1.83523,-0.84812 z M 341.21547,580.42917 c 14.73915,-14.74721 23.39168,-23.61752 23.39168,-23.98043 0,-0.645 -46.46152,-47.41509 -47.10227,-47.41509 -0.21094,0 -0.43173,0.16875 -0.49063,0.375 -0.0589,0.20625 -0.0725,21.53625 -0.0302,47.4 0.0618,37.80435 0.15166,47.025 0.45832,47.025 0.2098,0 10.90771,-10.53201 23.77314,-23.40448 z m 142.34168,-24.31638 c 0,-45.15827 -0.0224,-47.11688 -0.53837,-47.02501 -0.29609,0.0527 -11.10675,10.72008 -24.02366,23.70522 -16.96165,17.05123 -23.41623,23.72282 -23.23664,24.01786 0.13677,0.22469 10.36663,10.37812 22.73302,22.56318 12.3664,12.18506 22.80715,22.53827 23.20167,23.00713 0.39453,0.46886 0.97532,0.85248 1.29065,0.85248 0.56201,0 0.57333,-0.9306 0.57333,-47.12086 z m -79.77945,19.04522 c 0.8962,-0.2616 2.23695,-0.81737 2.97945,-1.23505 1.48163,-0.83345 72.6,-71.66434 72.6,-72.30652 0,-0.65135 -3.03589,-2.13535 -5.08142,-2.48389 -1.42459,-0.24275 -22.23967,-0.30966 -75.32573,-0.24217 l -73.35715,0.0933 -2.09285,1.05 c -1.15107,0.5775 -2.13021,1.25361 -2.17588,1.50247 -0.0933,0.50862 69.87616,70.60459 71.78847,71.91823 2.89616,1.98949 7.28445,2.69048 10.66511,1.70366 z"
         id="path3440"
         inkscape:connector-curvature="0" />
      <path
         style="fill:#4faad2"
         d="m 331.63227,664.38491 c -0.0694,-0.22069 -0.89857,-4.38376 -1.84258,-9.25126 -0.944,-4.8675 -2.18066,-11.01 -2.74813,-13.65 -0.56747,-2.64 -1.77577,-8.5125 -2.68511,-13.05 -2.12504,-10.60364 -2.25438,-11.05578 -3.54217,-12.38177 -1.0198,-1.05005 -1.33231,-1.71823 -0.80363,-1.71823 0.13943,0 0.4818,0.25226 0.76082,0.56057 0.27902,0.30832 1.48119,1.01707 2.67149,1.575 l 2.16419,1.01443 74.7,0 74.7,0 1.83523,-0.84812 c 1.93744,-0.89536 4.44336,-3.15118 4.2684,-3.84241 -0.057,-0.22521 -9.62113,-9.78141 -21.25363,-21.236 -11.6325,-11.45459 -23.14163,-22.79328 -25.57583,-25.19709 l -4.42584,-4.37054 -8.02416,7.98206 c -7.05613,7.01912 -10.23905,9.80861 -12.57255,11.01853 -1.42132,0.73696 -6.91429,1.90737 -8.95162,1.90737 -2.04963,0 -7.55471,-1.1765 -8.95162,-1.91306 -2.48148,-1.30845 -5.23951,-3.71829 -12.38608,-10.82241 -7.06128,-7.01934 -8.21208,-8.04825 -8.7,-7.77852 -0.30927,0.17097 -11.49684,11.25782 -24.86127,24.63744 -26.48035,26.51045 -25.01692,25.23055 -25.07517,21.93041 -0.0133,-0.75221 -0.18203,-1.97516 -0.375,-2.71766 -0.31451,-1.21012 -0.44126,-1.35 -1.22337,-1.35 -0.47988,0 -0.93417,-0.18161 -1.00953,-0.40358 -0.0807,-0.23775 9.55397,-10.10199 23.44751,-24.00617 12.97149,-12.98142 23.58453,-23.80274 23.58453,-24.04738 0,-0.24465 -7.83866,-8.27437 -17.41924,-17.84384 -19.11623,-19.09405 -25.96945,-26.16034 -25.66592,-26.46387 0.10944,-0.10944 0.86777,0.45974 1.68516,1.26484 0.81739,0.8051 1.57854,1.37146 1.69143,1.25857 0.45616,-0.45616 -1.34917,-8.70732 -2.18387,-9.98124 -0.3771,-0.57552 -0.392,-0.72733 -0.0714,-0.72733 0.22285,0 15.99962,15.57649 35.0595,34.61441 21.9477,21.92243 35.14932,34.89306 36.00432,35.37436 4.18683,2.35688 9.62496,2.20811 13.48209,-0.36883 0.73265,-0.48948 17.29829,-16.85239 36.81252,-36.36201 26.86168,-26.85533 35.52699,-35.35072 35.67208,-34.9726 0.2071,0.53968 -0.66928,2.14117 -2.00287,3.66004 -0.91685,1.04424 -1.53275,3.18438 -2.07335,7.20463 -0.19969,1.485 -0.49577,2.97 -0.65796,3.3 -0.16218,0.33 -9.13962,9.45916 -19.94986,20.28701 -14.75176,14.77581 -19.58983,19.79385 -19.39382,20.11525 0.14364,0.23552 10.11617,10.12382 22.16117,21.97398 12.045,11.85016 22.5845,22.29501 23.42111,23.21076 0.93216,1.02034 1.65814,1.58033 1.875,1.4463 0.2689,-0.16618 0.35389,-9.53317 0.35389,-39.00234 0,-38.58029 0.18491,-54.4191 0.63004,-53.96756 0.3502,0.35524 0.54682,15.19515 0.73972,55.83072 0.16083,33.88129 0.13596,36.75246 -0.32445,37.45514 -0.50485,0.7705 -0.97642,0.81534 -2.71525,0.25819 -0.57261,-0.18347 -0.6472,-0.0196 -0.97698,2.14696 -0.53732,3.52994 -0.45958,4.29246 0.55911,5.48426 1.35108,1.58065 1.21141,2.56515 -0.6198,4.36883 -0.91296,0.89923 -1.61447,1.90059 -1.77851,2.53872 -0.14899,0.57958 -0.69256,3.88878 -1.20792,7.35378 -0.51537,3.465 -1.06528,6.6375 -1.22202,7.05 -0.15674,0.4125 -0.95029,4.98629 -1.76344,10.16398 -0.81316,5.17769 -1.58917,9.50389 -1.72448,9.61376 -0.69143,0.56146 -2.6326,0.96175 -3.64645,0.75193 -1.29745,-0.2685 -2.15389,-0.19061 -2.68395,0.24412 -0.27867,0.22855 -0.48492,0.17838 -0.75,-0.18245 -0.31037,-0.42248 -0.52429,-0.4458 -1.41562,-0.1543 -0.5775,0.18886 -1.28442,0.46029 -1.57093,0.60317 -0.92717,0.46238 -2.62907,0.3172 -2.62907,-0.22427 0,-0.40725 -0.22612,-0.4504 -1.425,-0.27193 -0.78375,0.11668 -1.56434,0.32663 -1.73465,0.46656 -0.3519,0.28914 -6.12426,0.93479 -6.46647,0.72329 -0.12294,-0.076 -0.57767,-0.004 -1.0105,0.16105 -0.43283,0.16457 -3.11041,0.36198 -5.95017,0.43872 -2.83977,0.0767 -5.77071,0.20955 -6.51321,0.29517 -0.7425,0.0856 -2.74346,0.16648 -4.44657,0.17969 -1.70312,0.0132 -3.39996,0.16226 -3.77077,0.33121 -0.71188,0.32436 -2.0219,0.13231 -5.43266,-0.79643 -0.99,-0.26957 -2.1375,-0.55726 -2.55,-0.6393 -0.4125,-0.082 -1.02,-0.26074 -1.35,-0.39712 -0.88184,-0.36442 -5.49203,-1.44972 -7.02348,-1.65341 -1.2425,-0.16526 -3.83032,0.0431 -9.47652,0.763 -1.32,0.1683 -3.21,0.35734 -4.2,0.42009 -0.99,0.0628 -3.825,0.39532 -6.3,0.73903 -2.475,0.34372 -5.5125,0.68853 -6.75,0.76624 -2.39984,0.1507 -4.92703,0.46369 -9.75,1.20752 -1.65,0.25447 -3.6075,0.53597 -4.35,0.62555 -0.7425,0.0896 -2.295,0.31271 -3.45,0.49583 -3.06842,0.48649 -13.64996,0.48982 -13.64999,0.004 -2e-5,-0.53241 -0.59895,-0.466 -2.02917,0.225 -0.68302,0.33 -1.36893,0.6 -1.52425,0.6 -0.15532,0 -0.3601,0.2025 -0.45508,0.45 -0.095,0.2475 -0.35406,0.45 -0.57575,0.45 -0.22168,0 -1.00217,0.29316 -1.73441,0.65148 -0.73224,0.35831 -1.57234,0.63634 -1.86689,0.61785 -0.29454,-0.0185 -1.50954,0.38447 -2.7,0.89548 -1.19045,0.51101 -2.63696,1.03352 -3.21446,1.16114 -0.5775,0.12761 -2.06027,0.4561 -3.29505,0.72998 -1.23478,0.27387 -2.44978,0.60514 -2.7,0.73617 -0.25022,0.13102 -1.0284,0.33322 -1.72929,0.44932 -0.94552,0.15663 -1.3069,0.10756 -1.40054,-0.19016 z"
         id="path3438"
         inkscape:connector-curvature="0" />
      <path
         style="fill:#4b9bc1"
         d="m 365.54156,619.21812 c -0.036,-0.036 -8.87938,-0.0789 -19.65195,-0.0953 l -19.58649,-0.0298 -1.75253,-0.76005 c -1.53459,-0.66553 -2.36835,-1.42445 -1.98552,-1.80729 0.0671,-0.0671 0.94669,0.15576 1.95459,0.4953 l 1.83255,0.61734 74.47747,-0.0774 74.47747,-0.0774 1.66369,-0.78033 c 0.91503,-0.42919 2.16378,-1.21942 2.775,-1.75608 1.24892,-1.09657 1.54384,-0.82161 0.33156,0.30912 -0.42887,0.40001 -1.00262,1.19479 -1.275,1.76618 -0.41398,0.86841 -0.77311,1.12329 -2.1884,1.55316 -1.56726,0.47603 -5.7568,0.52146 -56.35006,0.61111 -30.06131,0.0533 -54.68638,0.0673 -54.72238,0.0313 z m 93.56559,-28.60999 c -11.22,-11.09476 -22.39078,-22.13075 -24.82396,-24.52443 -2.43318,-2.39367 -4.35924,-4.41685 -4.28013,-4.49596 0.66895,-0.66895 3.25436,1.69346 21.5946,19.73197 10.81272,10.63484 19.65949,19.44308 19.65949,19.57387 0,0.1308 1.90122,2.18897 4.22493,4.57373 2.60541,2.67386 4.18662,4.52321 4.125,4.82452 -0.0662,0.32378 -6.98153,-6.31618 -20.49993,-19.68369 z m -112.95,-4.92448 c 12.95171,-12.9525 23.61607,-23.55 23.69857,-23.55 0.0825,0 -10.44686,10.5975 -23.39857,23.55 -12.95171,12.9525 -23.61607,23.55 -23.69857,23.55 -0.0825,0 10.44686,-10.5975 23.39857,-23.55 z m -26.54908,17.95931 -0.51808,-0.7907 22.98358,-22.98503 c 12.64097,-12.64177 22.98358,-23.1876 22.98358,-23.43517 0,-0.24758 -8.775,-9.22436 -19.5,-19.94841 -14.25975,-14.25849 -19.5,-19.67989 -19.5,-20.17414 0,-0.37172 0.10163,-0.67586 0.22585,-0.67586 0.48268,0 39.96434,39.79748 40.25301,40.575 0.20837,0.56125 0.20838,1.08875 3e-5,1.65 -0.2751,0.7411 -45.75833,46.575 -46.21865,46.575 -0.10518,0 -0.42437,-0.35581 -0.70932,-0.79069 z m 138.46175,-22.62914 c -12.21354,-12.05591 -22.41033,-22.21094 -22.65955,-22.56675 -0.37774,-0.5393 -0.64903,-2.01342 -0.37054,-2.01342 0.0454,0 3.04918,2.94134 6.675,6.5363 3.62583,3.59497 13.97945,13.85493 23.00804,22.79992 15.40801,15.26534 17.15691,17.16378 15.81183,17.16378 -0.1421,0 -10.25125,-9.86393 -22.46478,-21.91983 z m -62.78325,1.05156 c -1.60632,-0.39146 -3.36132,-0.938 -3.9,-1.21452 -2.4115,-1.2379 -5.09603,-3.60219 -12.37726,-10.90078 -4.93835,-4.95013 -8.01865,-7.81977 -8.4,-7.82555 -0.56838,-0.009 -0.57149,-0.027 -0.0554,-0.32707 0.3007,-0.17487 0.90733,-0.22744 1.34805,-0.11683 0.49658,0.12463 3.99668,3.35806 9.20327,8.50207 5.61846,5.55092 8.9771,8.63831 10.13803,9.31928 2.26335,1.32762 6.61041,2.46253 9.51392,2.48386 3.45208,0.0254 7.60591,-1.10649 10.33719,-2.81673 0.83205,-0.52099 5.19156,-4.59537 9.68781,-9.05417 4.49625,-4.4588 8.175,-7.97642 8.175,-7.81694 0,0.54829 -15.45138,15.65653 -17.41829,17.03147 -2.28751,1.59906 -2.76445,1.79997 -6.58171,2.77256 -3.5402,0.902 -5.85497,0.89323 -9.67058,-0.0367 z m 2.23232,-4.79872 c -4.24472,-1.14252 -2.42354,0.53763 -38.98349,-35.96475 -29.23802,-29.19198 -33.99812,-34.06457 -34.16103,-34.96826 -0.16614,-0.92161 3.98781,3.11843 33.97175,33.04018 32.58473,32.51716 34.25793,34.1361 36.26103,35.0851 1.82041,0.86244 2.48557,1.01136 4.99604,1.11854 3.16387,0.13507 4.93888,-0.26136 7.45396,-1.66478 0.86549,-0.48295 13.7551,-13.14354 35.91464,-35.27653 19.01056,-18.98777 34.63764,-34.45023 34.72684,-34.36103 0.0892,0.0892 -0.10714,0.40594 -0.43632,0.70385 -0.32919,0.29791 -0.81509,1.31349 -1.07978,2.25683 -0.48077,1.71345 -0.51472,1.74858 -33.67832,34.84954 -28.85382,28.79933 -33.41964,33.23964 -34.89835,33.93897 -3.54887,1.67839 -6.92301,2.09396 -10.08697,1.24234 z m 38.03826,-21.58475 c 0,-0.165 8.7075,-9.00672 19.35,-19.64826 10.6425,-10.64154 19.35,-19.21326 19.35,-19.04826 0,0.165 -8.7075,9.00672 -19.35,19.64826 -10.6425,10.64154 -19.35,19.21326 -19.35,19.04826 z"
         id="path3436"
         inkscape:connector-curvature="0" />
    </g>
  </g>
</svg>
