<svg height="297mm" viewBox="0 0 744.09448819 1052.3622047" width="210mm" xmlns="http://www.w3.org/2000/svg"><g transform="translate(-65.714286 -68.571428)"><path d="m252.85715 560.93365v-150h150 150v150 150h-150-150z" fill="#fdfefd"/><path d="m389.05715 691.71354c-40.40842-3.48098-76.7777-24.67771-99.25713-57.84902-8.64763-12.7607-14.26877-24.62255-18.14069-38.28087-3.7335-13.17002-5.11203-23.25383-5.10603-37.35.004-9.50089.38037-14.31787 1.76954-22.65 5.36975-32.2073 23.34233-62.33145 49.26013-82.56575 6.9432-5.42063 15.35558-10.73838 23.17418-14.64919 14.08293-7.04417 29.21811-11.4058 45.9-13.22739 6.43241-.70238 20.59796-.70649 27-.008 16.27253 1.77586 30.41959 5.73931 44.55 12.48116 14.18115 6.76605 29.50846 18.02412 39.83817 29.26153 21.21027 23.07409 33.31358 50.74035 35.63563 81.45747.45041 5.95815.20099 19.75445-.45557 25.2-3.08994 25.62787-12.37841 48.03839-28.28754 68.25-6.88362 8.74523-18.46654 19.75121-26.67887 25.35-10.40652 7.09469-16.38553 10.46001-25.51356 14.36046-11.59289 4.9537-23.82163 8.17189-37.28826 9.81302-4.74154.57783-21.42813.83471-26.4.40641zm87-75.7988c1.8877-.76527 3.9-2.30611 3.9-2.98628 0-.51314-3.62097-4.15016-31.13521-31.27329l-18.9852-18.71534-8.1648 8.10364c-7.51145 7.45519-10.25652 9.80998-12.64159 10.84429-1.69528.73517-6.94278 1.84511-8.7232 1.84511s-7.02792-1.10994-8.7232-1.84511c-2.38652-1.03494-5.13106-3.39002-12.66653-10.86912l-8.18972-8.12846-25.08371 25.1196-25.0837 25.1196.57306.63323c.93105 1.02878 3.1375 2.18029 4.91547 2.56529 1.26579.27409 19.0208.34685 75.00833.30742l73.35-.0517 1.65-.66891zm-113.1862-60.5051c-1.09537-1.4352-44.35422-44.87599-44.68803-44.87599-.12417 0-.22577 20.68842-.22577 45.97427v45.97426l22.92475-22.92328 22.92474-22.92328zm119.7862.49981v-45.8242l-21.17169 21.1492c-11.64443 11.63206-21.96213 22.11453-22.92822 23.29438l-1.75653 2.14517 22.85322 22.51703c12.56927 12.38436 22.88697 22.52279 22.92822 22.52983.0412.007.075-20.6081.075-45.81141zm-79.81268 18.50135c3.38152-.77925 2.62485-.0716 39.68768-37.11741 19.42875-19.41983 35.325-35.39742 35.325-35.50576 0-.10833-.64125-.58105-1.425-1.05047l-1.425-.85351h-74.55-74.55l-1.73055.90733-1.73055.90734 35.41022 35.39267c25.22497 25.21245 35.81267 35.60408 36.80937 36.1277 2.68937 1.41287 5.4652 1.81746 8.17883 1.19211z" fill="#d0e7f0"/><path d="m389.05715 691.41354c-11.8195-1.01819-24.68168-3.86279-35.32022-7.81142-31.33248-11.62946-57.83548-35.41347-72.81604-65.34571-7.56827-15.12194-11.64702-29.11537-13.56027-46.52276-.70263-6.39273-.70043-20.54706.004-27 1.79823-16.46794 5.86047-30.68576 12.8143-44.85 6.71783-13.68351 13.98914-23.97108 24.5649-34.75484 11.56405-11.7915 22.51174-19.72928 37.06313-26.87319 14.16424-6.95383 28.38206-11.01607 44.85-12.8143 6.43241-.70238 20.59796-.70649 27-.008 12.97177 1.41564 24.884 4.3052 35.7 8.65979 15.38092 6.19245 28.95847 14.73311 41.25 25.94742 17.21532 15.70657 30.33832 36.48516 37.38411 59.19295 2.15668 6.95074 3.8937 15.34693 4.96578 24.00299.7694 6.21228.7779 23.76069.0145 29.99701-2.35724 19.25708-7.5167 34.96807-16.94535 51.6-8.65344 15.26449-21.81786 30.03214-36.51906 40.96654-18.72877 13.93001-39.90701 22.26473-64.05 25.20694-4.74154.57783-21.42813.83471-26.4.40641zm86.41105-74.857c1.70282-.47779 4.29691-2.18366 4.91166-3.22991.28747-.48925-1.62522-2.48983-15.72271-16.44508-8.8275-8.73844-20.27684-20.02124-25.44299-25.07288l-9.39298-9.18482-7.85702 7.81741c-10.19306 10.14169-11.27983 10.93145-16.85523 12.24884-3.94862.933-5.65494.933-9.60356 0-5.61305-1.32628-6.47402-1.95057-16.72659-12.12847l-8.02837-7.9699-25.19663 25.19529c-13.85815 13.85741-25.19663 25.33908-25.19663 25.51483 0 .8585 3.17542 2.96195 5.199 3.44389.52305.12457 34.08464.24031 74.58132.2572 66.4559.0277 73.796-.0158 75.33073-.4464zm-111.01105-60.11762c0-.24418-46.32783-46.50527-46.57237-46.50527-.12519 0-.22763 21.02593-.22763 46.72428v46.72428l23.4-23.39856c12.87-12.86921 23.4-23.46434 23.4-23.54473zm118.43065-46.34741c-.25453-.30359-46.79423 46.00141-46.65484 46.41957.0419.12568 10.53823 10.57478 23.32518 23.22023l23.24901 22.99171.16279-46.16968c.0895-25.39333.0526-46.30115-.0821-46.46183zm-77.15699 63.77118c1.95903-.94716 4.08062-3.0058 37.55239-36.43831 19.51182-19.48895 35.43108-35.57086 35.37612-35.73759-.0549-.16673-.88963-.70814-1.85483-1.20314l-1.75492-.9h-74.72121-74.72121l-1.35.64521c-.7425.35486-1.62.85486-1.95 1.1111-.57528.44671.84001 1.90685 34.35 35.43871 19.2225 19.23504 35.65391 35.4604 36.51425 36.05635 2.5081 1.73736 4.2654 2.22742 7.60941 2.12208 2.54339-.0801 3.11229-.20591 4.95-1.09441z" fill="#a1d2e7"/><path d="m389.05715 691.11354c-15.20027-1.30942-30.20533-5.18149-43.8-11.30263-15.62955-7.03736-32.01834-18.95014-43.23585-31.42753-14.15784-15.74796-24.40129-33.92763-29.76942-52.83361-3.72199-13.10846-5.10458-23.22752-5.09858-37.31612.008-17.92799 2.74443-32.69353 9.00803-48.6 9.80431-24.89811 27.13951-46.58028 49.14582-61.4696 5.68961-3.84956 9.50926-6.08114 15.75-9.20178 14.50642-7.25383 28.73609-11.37949 45.6-13.22095 6.43241-.70238 20.59796-.70649 27-.008 29.40719 3.20927 54.53482 14.48241 76.7018 34.41112 18.94232 17.02966 33.73519 42.2259 39.53516 67.33904 2.66073 11.52064 3.30025 17.46968 3.30562 30.75.005 12.66437-.57719 18.56459-2.87199 29.1-6.66043 30.57798-25.11273 59.01565-50.52059 77.85954-19.46915 14.43941-39.87938 22.5318-64.35 25.51394-4.74154.57783-21.42813.83471-26.4.40641zm87.636-74.72044c1.75036-.82073 4.16619-2.77692 4.16104-3.36936-.003-.29811-29.04776-29.21375-45.2375-45.03577l-5.79046-5.65894-8.15954 8.11116c-9.95119 9.89218-11.05209 10.69295-16.60952 12.08138-3.38224.84499-6.29698.79282-10.18874-.18236-4.85236-1.21589-6.24171-2.25346-15.92741-11.89468-4.49137-4.47075-8.23033-8.06839-8.30881-7.99475-.0785.0736-11.55751 11.53491-25.50896 25.4695l-25.36627 25.33563.97509 1.01616c1.15518 1.20384 3.39819 2.40696 5.1316 2.75252.68391.13634 34.52098.22813 75.19348.20398l73.95-.0439 1.686-.79055zm-135.56028-36.18517c12.82835-12.82914 23.32428-23.52821 23.32428-23.77572 0-.44159-46.43621-47.09856-46.87572-47.09856-.12335 0-.22428 21.195-.22428 47.1s.10157 47.1.22572 47.1 10.72165-10.49657 23.55-23.32572zm142.12428-24.07428c0-25.74-.10242-46.8-.2276-46.8s-10.82265 10.59825-23.77215 23.55166l-23.54455 23.55166 4.64715 4.6139c22.26768 22.10834 42.38952 41.88278 42.61859 41.88278.17022 0 .27856-18.20146.27856-46.8zm-79.10484 18.59512c1.17915-.3642 2.65397-1.13309 3.7066-1.93242.96153-.73015 17.4014-16.98884 36.53305-36.13042 33.92608-33.94369 34.77169-34.81736 34.25361-35.38983-.29216-.32283-1.23033-.9032-2.08481-1.28971l-1.55361-.70274h-74.7063-74.7063l-2.0187.9938c-1.11029.54659-2.0187 1.15542-2.0187 1.35296 0 .53742 70.76532 71.10515 72.10091 71.89961 3.03193 1.80348 7.05025 2.26249 10.49425 1.19875z" fill="#6ec3e9"/><path d="m389.80715 691.1038c-15.06725-1.29079-30.71045-5.3615-44.55-11.59289-4.19124-1.88715-11.06989-5.45413-12-6.22271-.2475-.20451-2.07-1.39194-4.05-2.63871-3.16101-1.99044-10.00561-6.8463-12.15-8.61975-.4125-.34114-1.12057-.91857-1.5735-1.28317-9.46369-7.61829-19.08004-18.44554-26.70072-30.06292-11.66694-17.78571-18.36384-36.84282-20.82119-59.25-.69782-6.36311-.69564-19.97612.004-26.4 2.99056-27.4492 12.93937-51.02017 30.42969-72.09479 2.92828-3.52837 10.46349-11.22098 14.23731-14.5347 20.93796-18.38525 45.93332-29.26854 74.32418-32.36169 6.40347-.69765 20.0279-.7017 26.4-.008 16.25584 1.77008 30.41795 5.73739 44.55 12.48002 16.59353 7.91704 32.79255 20.63758 44.77031 35.15661 17.77422 21.5453 27.98591 46.97369 30.10385 74.96239.44551 5.88753.19916 19.1404-.45728 24.6-3.26128 27.12388-13.72053 51.18362-31.03901 71.4-2.33239 2.72267-10.87749 11.40545-13.18279 13.39518-.60229.51986-1.56758 1.36538-2.14508 1.87894-4.0123 3.56809-14.88511 11.23819-20.20812 14.25559-15.40015 8.72973-32.61495 14.29193-51.19188 16.54041-4.81268.58251-19.7936.82464-24.75.40003zm86.886-74.7107c1.75036-.82073 4.16619-2.77692 4.16104-3.36936-.003-.29811-29.04776-29.21375-45.2375-45.03577l-5.79046-5.65894-8.15954 8.11116c-9.95119 9.89218-11.05209 10.69295-16.60952 12.08138-3.38224.84499-6.29698.79282-10.18874-.18236-4.85344-1.21616-6.24066-2.25241-15.93958-11.90682l-8.1783-8.14078-24.68454 24.68318c-13.57649 13.57575-24.76321 24.60451-24.85937 24.50835-.0962-.0962-.52507.2414-.95314.75013l-.7783.92496.83043.81271c.73099.7154.73889.74087.066.21271l-.76445-.6.71482.81172c.39315.44646.79816.7907.9.76499.10185-.0257.90811.32723 1.79169.7843.88359.45707 2.16609.94259 2.85001 1.07893.68391.13634 34.52098.22813 75.19348.20398l73.95-.0439 1.686-.79055zm-158.5906-12.86689c-.0608-.0984 10.34411-10.63287 23.12203-23.40999 12.77791-12.77711 23.23257-23.43429 23.23257-23.68262s-9.78205-10.23285-21.73789-22.18784c-11.95584-11.95498-21.67236-21.80187-21.59226-21.88196.0801-.0801-.562-.86214-1.42687-1.73789-1.53711-1.55645-2.45552-1.97034-2.70105-1.21726-.0673.20625-.0137 3.21.11894 6.675.13266 3.465.20699 24.59733.16517 46.96073-.0708 37.87643-.0416 40.66073.42693 40.66071.27664-.00001.45323-.0805.39243-.17888zm1.63845-92.31756-1.03385-1.125 1.125 1.03385c1.04713.96228 1.26294 1.21615 1.03385 1.21615-.0501 0-.55638-.50625-1.125-1.125zm163.66615 44.8607c0-41.81659-.0504-47.03572-.4545-47.03571-.24998.00001-2.13795 1.68751-4.1955 3.75001s-3.6094 3.75-3.44856 3.75-8.68222 8.97843-19.65125 19.95206l-19.94368 19.95207 4.64675 4.61209c2.5557 2.53665 12.94924 12.824 23.09674 22.86078s18.45207 18.32166 18.45459 18.41084c.0119.4193.45279.78359.94838.78358.52705-.00001.54703-1.71834.54703-47.03572zm-79.25551 18.65963c1.09086-.33693 2.66566-1.13579 3.5566-1.80417 1.60225-1.20201 71.64891-71.04973 71.64891-71.44542 0-.11568-.15586-.30666-.34635-.42439-.22845-.14119-.27065-.0706-.12397.2073.12231.23174-.0256.13217-.32865-.22126-.77604-.90501-2.07047-1.49428-4.15486-1.89142-1.32267-.25201-21.1741-.31899-75.30332-.2541l-73.50714.0881-2.09286 1.05c-2.32143 1.16468-2.72404 1.88397-1.60449 2.86655.41935.36805.57592.41731.4241.13345-.13237-.2475 15.60567 15.35889 34.97343 34.68086 19.36776 19.32198 35.73202 35.43895 36.36502 35.81549 3.03161 1.80334 7.05027 2.26251 10.49358 1.19898z" fill="#83b8d1"/><path d="m389.80715 691.1038c-15.06725-1.29079-30.71045-5.3615-44.55-11.59289-4.19124-1.88715-11.06989-5.45413-12-6.22271-.2475-.20451-2.07-1.39194-4.05-2.63871-3.16101-1.99044-10.00561-6.8463-12.15-8.61975-.4125-.34114-1.12057-.91857-1.5735-1.28317-9.46369-7.61829-19.08004-18.44554-26.70072-30.06292-11.66694-17.78571-18.36384-36.84282-20.82119-59.25-.69782-6.36311-.69564-19.97612.004-26.4 2.99056-27.4492 12.93937-51.02017 30.42969-72.09479 2.92828-3.52837 10.46349-11.22098 14.23731-14.5347 20.93796-18.38525 45.93332-29.26854 74.32418-32.36169 6.40347-.69765 20.0279-.7017 26.4-.008 16.25584 1.77008 30.41795 5.73739 44.55 12.48002 16.59353 7.91704 32.79255 20.63758 44.77031 35.15661 17.77422 21.5453 27.98591 46.97369 30.10385 74.96239.44551 5.88753.19916 19.1404-.45728 24.6-3.26128 27.12388-13.72053 51.18362-31.03901 71.4-2.33239 2.72267-10.87749 11.40545-13.18279 13.39518-.60229.51986-1.56758 1.36538-2.14508 1.87894-4.0123 3.56809-14.88511 11.23819-20.20812 14.25559-15.40015 8.72973-32.61495 14.29193-51.19188 16.54041-4.81268.58251-19.7936.82464-24.75.40003zm87.03523-74.46827c1.93744-.89536 4.44336-3.15118 4.2684-3.84241-.057-.22521-9.62113-9.78141-21.25363-21.236s-23.14163-22.79328-25.57583-25.19709l-4.42584-4.37054-8.02416 7.98206c-7.05613 7.01912-10.23905 9.80861-12.57255 11.01853-1.42132.73696-6.91429 1.90737-8.95162 1.90737-2.04963 0-7.55471-1.1765-8.95162-1.91306-2.48148-1.30845-5.23951-3.71829-12.38608-10.82241-7.05906-7.01713-8.21223-8.04823-8.7-7.779-.30927.1707-11.88171 11.64371-25.71655 25.49558-22.95202 22.98026-25.12508 25.23973-24.82097 25.80796.65156 1.21746 3.7417 3.10006 5.94556 3.62221.64894.15376 32.66261.24792 75.22966.22129l74.1-.0464 1.83523-.84812zm-135.62691-36.20636c14.73915-14.74721 23.39168-23.61752 23.39168-23.98043 0-.645-46.46152-47.41509-47.10227-47.41509-.21094 0-.43173.16875-.49063.375s-.0725 21.53625-.0302 47.4c.0618 37.80435.15166 47.025.45832 47.025.2098 0 10.90771-10.53201 23.77314-23.40448zm142.34168-24.31638c0-45.15827-.0224-47.11688-.53837-47.02501-.29609.0527-11.10675 10.72008-24.02366 23.70522-16.96165 17.05123-23.41623 23.72282-23.23664 24.01786.13677.22469 10.36663 10.37812 22.73302 22.56318 12.3664 12.18506 22.80715 22.53827 23.20167 23.00713.39453.46886.97532.85248 1.29065.85248.56201 0 .57333-.9306.57333-47.12086zm-79.77945 19.04522c.8962-.2616 2.23695-.81737 2.97945-1.23505 1.48163-.83345 72.6-71.66434 72.6-72.30652 0-.65135-3.03589-2.13535-5.08142-2.48389-1.42459-.24275-22.23967-.30966-75.32573-.24217l-73.35715.0933-2.09285 1.05c-1.15107.5775-2.13021 1.25361-2.17588 1.50247-.0933.50862 69.87616 70.60459 71.78847 71.91823 2.89616 1.98949 7.28445 2.69048 10.66511 1.70366z" fill="#57bae6"/><path d="m331.63227 664.38491c-.0694-.22069-.89857-4.38376-1.84258-9.25126-.944-4.8675-2.18066-11.01-2.74813-13.65s-1.77577-8.5125-2.68511-13.05c-2.12504-10.60364-2.25438-11.05578-3.54217-12.38177-1.0198-1.05005-1.33231-1.71823-.80363-1.71823.13943 0 .4818.25226.76082.56057.27902.30832 1.48119 1.01707 2.67149 1.575l2.16419 1.01443h74.7 74.7l1.83523-.84812c1.93744-.89536 4.44336-3.15118 4.2684-3.84241-.057-.22521-9.62113-9.78141-21.25363-21.236s-23.14163-22.79328-25.57583-25.19709l-4.42584-4.37054-8.02416 7.98206c-7.05613 7.01912-10.23905 9.80861-12.57255 11.01853-1.42132.73696-6.91429 1.90737-8.95162 1.90737-2.04963 0-7.55471-1.1765-8.95162-1.91306-2.48148-1.30845-5.23951-3.71829-12.38608-10.82241-7.06128-7.01934-8.21208-8.04825-8.7-7.77852-.30927.17097-11.49684 11.25782-24.86127 24.63744-26.48035 26.51045-25.01692 25.23055-25.07517 21.93041-.0133-.75221-.18203-1.97516-.375-2.71766-.31451-1.21012-.44126-1.35-1.22337-1.35-.47988 0-.93417-.18161-1.00953-.40358-.0807-.23775 9.55397-10.10199 23.44751-24.00617 12.97149-12.98142 23.58453-23.80274 23.58453-24.04738 0-.24465-7.83866-8.27437-17.41924-17.84384-19.11623-19.09405-25.96945-26.16034-25.66592-26.46387.10944-.10944.86777.45974 1.68516 1.26484s1.57854 1.37146 1.69143 1.25857c.45616-.45616-1.34917-8.70732-2.18387-9.98124-.3771-.57552-.392-.72733-.0714-.72733.22285 0 15.99962 15.57649 35.0595 34.61441 21.9477 21.92243 35.14932 34.89306 36.00432 35.37436 4.18683 2.35688 9.62496 2.20811 13.48209-.36883.73265-.48948 17.29829-16.85239 36.81252-36.36201 26.86168-26.85533 35.52699-35.35072 35.67208-34.9726.2071.53968-.66928 2.14117-2.00287 3.66004-.91685 1.04424-1.53275 3.18438-2.07335 7.20463-.19969 1.485-.49577 2.97-.65796 3.3-.16218.33-9.13962 9.45916-19.94986 20.28701-14.75176 14.77581-19.58983 19.79385-19.39382 20.11525.14364.23552 10.11617 10.12382 22.16117 21.97398s22.5845 22.29501 23.42111 23.21076c.93216 1.02034 1.65814 1.58033 1.875 1.4463.2689-.16618.35389-9.53317.35389-39.00234 0-38.58029.18491-54.4191.63004-53.96756.3502.35524.54682 15.19515.73972 55.83072.16083 33.88129.13596 36.75246-.32445 37.45514-.50485.7705-.97642.81534-2.71525.25819-.57261-.18347-.6472-.0196-.97698 2.14696-.53732 3.52994-.45958 4.29246.55911 5.48426 1.35108 1.58065 1.21141 2.56515-.6198 4.36883-.91296.89923-1.61447 1.90059-1.77851 2.53872-.14899.57958-.69256 3.88878-1.20792 7.35378-.51537 3.465-1.06528 6.6375-1.22202 7.05s-.95029 4.98629-1.76344 10.16398c-.81316 5.17769-1.58917 9.50389-1.72448 9.61376-.69143.56146-2.6326.96175-3.64645.75193-1.29745-.2685-2.15389-.19061-2.68395.24412-.27867.22855-.48492.17838-.75-.18245-.31037-.42248-.52429-.4458-1.41562-.1543-.5775.18886-1.28442.46029-1.57093.60317-.92717.46238-2.62907.3172-2.62907-.22427 0-.40725-.22612-.4504-1.425-.27193-.78375.11668-1.56434.32663-1.73465.46656-.3519.28914-6.12426.93479-6.46647.72329-.12294-.076-.57767-.004-1.0105.16105-.43283.16457-3.11041.36198-5.95017.43872-2.83977.0767-5.77071.20955-6.51321.29517-.7425.0856-2.74346.16648-4.44657.17969-1.70312.0132-3.39996.16226-3.77077.33121-.71188.32436-2.0219.13231-5.43266-.79643-.99-.26957-2.1375-.55726-2.55-.6393-.4125-.082-1.02-.26074-1.35-.39712-.88184-.36442-5.49203-1.44972-7.02348-1.65341-1.2425-.16526-3.83032.0431-9.47652.763-1.32.1683-3.21.35734-4.2.42009-.99.0628-3.825.39532-6.3.73903-2.475.34372-5.5125.68853-6.75.76624-2.39984.1507-4.92703.46369-9.75 1.20752-1.65.25447-3.6075.53597-4.35.62555-.7425.0896-2.295.31271-3.45.49583-3.06842.48649-13.64996.48982-13.64999.004-.00002-.53241-.59895-.466-2.02917.225-.68302.33-1.36893.6-1.52425.6s-.3601.2025-.45508.45c-.095.2475-.35406.45-.57575.45-.22168 0-1.00217.29316-1.73441.65148-.73224.35831-1.57234.63634-1.86689.61785-.29454-.0185-1.50954.38447-2.7.89548-1.19045.51101-2.63696 1.03352-3.21446 1.16114-.5775.12761-2.06027.4561-3.29505.72998-1.23478.27387-2.44978.60514-2.7.73617-.25022.13102-1.0284.33322-1.72929.44932-.94552.15663-1.3069.10756-1.40054-.19016z" fill="#4faad2"/><path d="m365.54156 619.21812c-.036-.036-8.87938-.0789-19.65195-.0953l-19.58649-.0298-1.75253-.76005c-1.53459-.66553-2.36835-1.42445-1.98552-1.80729.0671-.0671.94669.15576 1.95459.4953l1.83255.61734 74.47747-.0774 74.47747-.0774 1.66369-.78033c.91503-.42919 2.16378-1.21942 2.775-1.75608 1.24892-1.09657 1.54384-.82161.33156.30912-.42887.40001-1.00262 1.19479-1.275 1.76618-.41398.86841-.77311 1.12329-2.1884 1.55316-1.56726.47603-5.7568.52146-56.35006.61111-30.06131.0533-54.68638.0673-54.72238.0313zm93.56559-28.60999c-11.22-11.09476-22.39078-22.13075-24.82396-24.52443-2.43318-2.39367-4.35924-4.41685-4.28013-4.49596.66895-.66895 3.25436 1.69346 21.5946 19.73197 10.81272 10.63484 19.65949 19.44308 19.65949 19.57387 0 .1308 1.90122 2.18897 4.22493 4.57373 2.60541 2.67386 4.18662 4.52321 4.125 4.82452-.0662.32378-6.98153-6.31618-20.49993-19.68369zm-112.95-4.92448c12.95171-12.9525 23.61607-23.55 23.69857-23.55s-10.44686 10.5975-23.39857 23.55-23.61607 23.55-23.69857 23.55 10.44686-10.5975 23.39857-23.55zm-26.54908 17.95931-.51808-.7907 22.98358-22.98503c12.64097-12.64177 22.98358-23.1876 22.98358-23.43517 0-.24758-8.775-9.22436-19.5-19.94841-14.25975-14.25849-19.5-19.67989-19.5-20.17414 0-.37172.10163-.67586.22585-.67586.48268 0 39.96434 39.79748 40.25301 40.575.20837.56125.20838 1.08875.00003 1.65-.2751.7411-45.75833 46.575-46.21865 46.575-.10518 0-.42437-.35581-.70932-.79069zm138.46175-22.62914c-12.21354-12.05591-22.41033-22.21094-22.65955-22.56675-.37774-.5393-.64903-2.01342-.37054-2.01342.0454 0 3.04918 2.94134 6.675 6.5363 3.62583 3.59497 13.97945 13.85493 23.00804 22.79992 15.40801 15.26534 17.15691 17.16378 15.81183 17.16378-.1421 0-10.25125-9.86393-22.46478-21.91983zm-62.78325 1.05156c-1.60632-.39146-3.36132-.938-3.9-1.21452-2.4115-1.2379-5.09603-3.60219-12.37726-10.90078-4.93835-4.95013-8.01865-7.81977-8.4-7.82555-.56838-.009-.57149-.027-.0554-.32707.3007-.17487.90733-.22744 1.34805-.11683.49658.12463 3.99668 3.35806 9.20327 8.50207 5.61846 5.55092 8.9771 8.63831 10.13803 9.31928 2.26335 1.32762 6.61041 2.46253 9.51392 2.48386 3.45208.0254 7.60591-1.10649 10.33719-2.81673.83205-.52099 5.19156-4.59537 9.68781-9.05417s8.175-7.97642 8.175-7.81694c0 .54829-15.45138 15.65653-17.41829 17.03147-2.28751 1.59906-2.76445 1.79997-6.58171 2.77256-3.5402.902-5.85497.89323-9.67058-.0367zm2.23232-4.79872c-4.24472-1.14252-2.42354.53763-38.98349-35.96475-29.23802-29.19198-33.99812-34.06457-34.16103-34.96826-.16614-.92161 3.98781 3.11843 33.97175 33.04018 32.58473 32.51716 34.25793 34.1361 36.26103 35.0851 1.82041.86244 2.48557 1.01136 4.99604 1.11854 3.16387.13507 4.93888-.26136 7.45396-1.66478.86549-.48295 13.7551-13.14354 35.91464-35.27653 19.01056-18.98777 34.63764-34.45023 34.72684-34.36103s-.10714.40594-.43632.70385c-.32919.29791-.81509 1.31349-1.07978 2.25683-.48077 1.71345-.51472 1.74858-33.67832 34.84954-28.85382 28.79933-33.41964 33.23964-34.89835 33.93897-3.54887 1.67839-6.92301 2.09396-10.08697 1.24234zm38.03826-21.58475c0-.165 8.7075-9.00672 19.35-19.64826s19.35-19.21326 19.35-19.04826-8.7075 9.00672-19.35 19.64826-19.35 19.21326-19.35 19.04826z" fill="#4b9bc1"/></g></svg>