<svg height="1848.864" viewBox="0 0 1919.92 1848.864" width="1919.92" xmlns="http://www.w3.org/2000/svg"><g transform="translate(-.051999 -.034484)"><path d="m1415 1848.0212c-3.575-.4331-9.4993-.84-13.1652-.9043-8.2745-.1451-30.3795-5.043-45.7472-10.1364-13.51-4.4776-48.9587-18.5134-92.0876-36.4618-103.4937-43.0695-147.7878-56.8067-203.5-63.1131-18.2923-2.0706-51.566-2.0907-70.5-.043-7.975.8627-19.9 2.0612-26.5 2.6633s-18.75 2.2172-27 3.589c-42.73496 7.1062-74.39443 16.5326-151.5 45.1083-84.77962 31.4198-106.56892 38.6021-141.5 46.6419-35.84132 8.2493-62.0731 11.077-96 10.3487-20.6843-.4441-25.58877-.863-35.5-3.0323-50.16361-10.9794-91.97277-40.5222-121.25755-85.6819-30.48638-47.0127-40.23191-105.0412-26.16157-155.776 1.3307-4.7982 4.22851-16.599 6.43958-26.224 7.47684-32.5473 14.61745-57.786 25.32167-89.5 35.94229-106.4882 97.88293-218.259 179.55292-324 66.50645-86.1083 169.49167-154.3345 279.13258-184.9214 42.00612-11.71859 84.30041-17.57169 126.97237-17.57169 46.6159 0 86.0962 6.13191 127.5 19.80276 34.3034 11.32641 56.6269 22.18493 92.5 44.99363 44.0594 28.0136 81.7794 58.7346 123.5256 100.6054 66.7049 66.9038 121.6067 139.5926 208.1713 275.6144 20.8681 32.7908 25.621 41.554 45.5463 83.9769 40.615 86.4731 55.8915 144.719 52.7002 200.9333-1.3311 23.4477-3.7014 36.9354-9.8709 56.1692-8.6243 26.8862-33.9615 57.8248-62.7055 76.5678-23.3797 15.245-56.5072 27.1677-81.867 29.4641-14.5439 1.317-54.2939 1.881-62.5.8868zm-1110.28544-625.0812c-9.09481-1.2582-29.04298-6.1918-41.81887-10.3426-43.90129-14.2634-84.03633-37.2257-120.69617-69.0534-69.18024-60.0615-119.131707-148.86205-136.7154695-243.044-6.19836465-33.19961-7.1235616-101.89412-1.8451546-137 2.1271692-14.14748 8.7388461-40.66502 13.3901921-53.70423 23.649061-66.29587 85.322012-111.46101 159.431932-116.75727 33.3301-2.38193 63.3849 3.76176 95.03898 19.42753 43.88303 21.71794 75.84912 44.7824 109.04015 78.67563 16.88489 17.2421 26.19357 28.04341 38.65942 44.85834 74.83477 100.94312 103.26652 232.38172 74.34775 343.7061-9.84022 37.8805-28.17076 69.5025-55.62001 95.9502-24.61209 23.7141-52.32928 38.8655-82.95689 45.348-11.90613 2.5199-38.60043 3.5481-50.25586 1.9357zm1279.28544-29.6077c-55.1407-8.7195-99.4916-39.9715-131.0322-92.3323-19.1921-31.8608-32.5029-72.989-37.057-114.5-1.7529-15.97868-1.513-50.58111.4438-64 .8822-6.05 2.7425-18.76302 4.134-28.25115 7.4906-51.0755 21.4358-96.15077 43.2057-139.65452 58.5322-116.96722 154.7565-190.43722 262.6399-200.53313 29.0698-2.72039 66.4383 8.4027 96.7562 28.80037 45.0875 30.33463 79.3921 85.63172 92.5207 149.13843 5.2627 25.45758 5.3921 91.13034.254 128.96557-5.9547 43.84856-20.8233 90.91483-42.3865 134.17384-9.9273 19.91569-14.8873 28.47409-28.0273 48.36059-51.9541 78.6293-124.5622 131.0787-202.1316 146.0125-19.2835 3.7124-48.2166 5.5756-59.3197 3.8198zm-914.5-485.03189c-15.45069-1.40364-31.70104-6.36285-55.46295-16.92594-105.30244-46.811-183.24214-151.04845-213.00435-284.87447-7.91921-35.60876-11.05254-63.01743-11.74231-102.71516-1.25381-72.15892 8.49124-123.45347 32.40033-170.54406 29.78439-58.66242 76.17942-102.057303 127.49349-119.249096 17.84445-5.9784378 27.32617-7.4061979 49.31579-7.4259854 22.28089-.0200496 29.19879.9676789 49.37648 7.0499024 60.60521 18.268423 114.87965 57.137995 156.22665 111.884399 57.10815 75.61529 90.64039 176.2808 93.70703 281.31335 1.26764 43.41674-1.75887 74.03385-10.93261 110.5978-21.55745 85.92195-69.82434 149.69534-133.87755 176.88782-26.83248 11.39118-56.84196 16.42323-83.5 14.00144zm545.245-1.34969c-17.5146-2.03908-40.1832-9.12808-60.245-18.84-71.7819-34.74963-123.6159-111.38925-141.4287-209.11072-5.1094-28.03028-6.3959-42.64948-6.3797-72.5.016-29.3392 2.5788-58.64365 7.8714-90 20.7884-123.16268 83.9231-228.478915 168.437-280.973071 26.3874-16.39001 62.7743-31.0690456 83.5-33.6851675 22.2511-2.80866429 54.0852-1.75976687 71.5 2.3558402 33.443 7.9035263 70.4245 30.2867323 97.4758 58.9975453 35.4972 37.674843 61.681 88.713193 72.554 141.424833 1.8794 9.11137 3.1949 18.87464 7.6641 56.88002 2.3639 20.10248 2.3586 74.24503-.01 95.5-7.1463 64.14581-22.1231 116.05397-48.6163 168.5-20.0059 39.60356-41.925 70.34918-70.5754 98.99486-33.406 33.40057-72.7515 58.74163-115.6537 74.48849-19.8798 7.2967-45.4151 10.37487-66.0942 7.96737z" fill="#d0d0d0"/><path d="m1409.1654 1847.4405c-30.9972-2.8148-51.9666-9.2922-117.1654-36.1922-65.8289-27.1599-79.6764-32.7982-94.7974-38.5984-47.9053-18.376-90.5996-30.0158-129.2026-35.2246-18.5872-2.508-57.1259-3.0537-75.14749-1.0641-7.89388.8715-19.97751 2.0708-26.85251 2.6652-25.54619 2.2085-56.27035 8.1035-86.30176 16.5586-24.55559 6.9133-50.5921 15.8479-101.69824 34.8984-86.52966 32.255-121.43754 42.8998-163.70708 49.9205-38.65859 6.421-74.74304 6.9858-101.40254 1.5871-56.8159-11.5056-106.10533-50.861-133.37147-106.491-14.85312-30.3042-21.44689-60.8166-20.20551-93.5.65381-17.2136 2.24552-27.521 6.69925-43.3821 1.64678-5.8647 4.36107-16.8405 6.03176-24.3905 30.15386-136.2693 100.25027-277.5091 204.8339-412.7274 33.53641-43.3599 78.65076-84.2549 128.12169-116.139 73.48088-47.3585 152.51654-75.52607 235.5-83.92994 19.16796-1.94117 60.3586-2.2071 78.5-.50679 55.4148 5.19374 107.8569 20.75772 152.2346 45.18083 15.3486 8.447 44.3088 26.9764 61.2654 39.1988 66.5294 47.9549 128.9358 111.55 193.0194 196.6961 41.0338 54.5205 118.382 171.9188 134.7353 204.5 49.8493 99.3159 69.1054 158.365 71.3711 218.8609 1.2833 34.264-5.7945 70.9316-17.8998 92.7324-24.786 44.6383-67.0936 74.5078-122.4757 86.4689-19.0253 4.109-54.7406 5.3614-82.0849 2.8783zm-1105.6654-625.4408c-10.52661-1.5308-27.52629-5.9595-44-11.4627-111.42715-37.2235-202.514535-136.266-241.450016-262.537-9.4197126-30.54892-14.2982808-55.88721-16.5582171-86-5.8559644-78.0285 6.6647696-146.76876 34.3344381-188.5 16.937428-25.54493 39.607669-45.43599 68.183675-59.82491 45.14173-22.73028 93.8408-26.67448 141.49012-11.45946 12.284 3.92243 45.37421 20.46707 63.23034 31.61428 44.85832 28.00411 86.55234 68.36202 118.4664 114.67009 51.41601 74.60586 79.1621 165.84262 76.48388 251.5-1.54447 49.3969-10.81597 91.0948-27.42562 123.3447-9.84639 19.1181-22.30929 35.6496-39.11967 51.8905-23.9621 23.1504-51.49406 38.1593-83.13533 45.321-8.63354 1.954-40.688 2.8703-50.5 1.4435zm1283.5-29.0529c-40.8136-5.4861-75.0358-23.1559-104.1973-53.7996-30.8254-32.3922-52.7694-77.1846-62.29-127.1472-6.5763-34.51125-7.04-66.59667-1.4916-103.20171 1.1086-7.31406 2.7178-18.02329 3.576-23.79829 2.244-15.10118 6.8494-35.73309 11.8915-53.27293 21.4796-74.72111 62.8218-144.22739 114.9941-193.33313 51.7125-48.67296 110.9676-76.84856 175.5173-83.45793 31.2105-3.1957 70.5056 8.9073 102 31.41625 9.9865 7.13732 28.7042 25.03529 37.1927 35.56381 30.6636 38.03321 50.4577 89.00245 54.7903 141.08393 2.6586 31.95756-.4761 83.99108-7.0786 117.5-22.7104 115.2601-91.2165 219.8402-178.7839 272.9281-27.9988 16.9743-61.4698 30.0514-90.7582 35.4592-20.3358 3.7548-44.466 5.5241-55.3623 4.0595zm-927.5-486.87096c-28.55258-5.41331-69.43394-24.63513-102-47.95892-16.08474-11.51988-23.68875-18.15432-43.02809-37.54163-31.96331-32.0426-53.55466-62.51339-74.45548-105.07529-46.38095-94.44899-62.02967-208.55049-42.46867-309.65711 10.77463-55.69176 38.06294-106.23823 78.34134-145.112648 27.29239-26.341065 57.1557-43.081018 90.6109-50.792174 13.24941-3.0538824 41.20296-3.7843479 56-1.4633585 50.33957 7.8960105 107.11695 38.8321215 149.5 81.4575905 74.07037 74.49403 118.55919 184.99041 125.04293 310.5677 2.53542 49.10588-2.97696 93.91511-16.9766 138-28.86565 90.89804-87.27689 150.35935-163.56633 166.50679-14.76688 3.12556-43.32753 3.66123-57 1.06905zm551-.55292c-31.0964-4.97232-63.628-19.14945-91.5-39.8753-11.3549-8.44357-33.9825-30.81317-43.1396-42.64762-35.4303-45.78949-57.9256-103.56291-65.9983-169.5-2.8988-23.6769-3.5337-59.60694-1.4313-81 6.4142-65.26886 14.4634-102.73038 32.1224-149.5 42.8537-113.49761 117.0506-189.810914 211.0761-217.0969397 13.7653-3.9946771 19.5209-4.8607124 36.9153-5.554592 16.2746-.64920605 38.6377 1.4272375 50.4554 4.6848336 63.4455 17.4890611 117.2717 67.7936861 148.8377 139.1000681 13.3658 30.19285 19.9632 55.88191 24.6201 95.86663 3.6655 31.47186 4.5422 44.77973 4.5422 68.94532 0 95.8472-27.093 187.80174-77.063 261.55468-40.9691 60.4682-95.1545 103.9138-159.437 127.83593-20.342 7.57008-49.1236 10.52512-70 7.18699z" fill="#b0b0b0"/><path d="m1422 1848.3457c-1.925-.1839-8.45-.8125-14.5-1.397-13.3792-1.2926-30.6408-4.854-45.7348-9.436-11.7925-3.5798-54.4499-20.2735-95.2652-37.2815-59.2014-24.6696-87.9292-35.6578-116.5-44.5605-61.6844-19.2209-110.1675-24.9313-163-19.1981-6.875.746-16.325 1.6429-21 1.9929-12.92473.9678-39.74244 5.2715-56.52909 9.0717-32.48437 7.3541-67.48547 18.4846-119.72459 38.0731-107.28529 40.2296-140.33233 49.8945-196.74632 57.5403-13.13769 1.7806-62.05075 1.787-72 .01-40.80215-7.2898-73.20861-24.1552-102.01884-53.0942-51.19635-51.425-71.52549-125.751-52.42362-191.6676 1.35153-4.6638 3.82017-14.6489 5.48588-22.1889 30.56287-138.3482 101.99403-282.1019 207.31115-417.2099 27.09931-34.7648 61.97255-67.923 101.71135-96.709 62.4817-45.2607 133.36963-76.97937 205.93408-92.1449 31.15828-6.5119 53.45513-9.02807 87-9.81783 45.0873-1.06151 86.3562 4.50121 127.5 17.186 38.6878 11.9276 65.4487 24.84903 105.5 50.94053 76.0639 49.5519 146.2438 118.2869 217.9818 213.494 40.2803 53.4581 118.9692 173.006 135.1867 205.3822 36.6394 73.1455 55.3736 121.489 64.921 167.5283 7.1431 34.4448 7.816 73.1855 1.7916 103.1407-4.2266 21.0154-9.4233 34.2489-19.6348 50-25.4658 39.2803-67.9831 66.7365-118.4973 76.5212-18.1935 3.5241-50.5074 5.3756-66.749 3.8245zm-1117.5-626.7759c-48.16747-7.1306-105.58945-33.5881-149.5-68.8828-88.888843-71.4477-146.4389427-183.75718-154.07934551-300.687-3.11166949-47.62144 2.18359741-95.05107 15.12846751-135.50549 17.501165-54.69343 59.694627-96.18198 115.812858-113.87801 21.23605-6.69647 30.72843-8.05166 56.63802-8.08601 20.08054-.0266 24.43174.25966 34.27953 2.25536 22.65051 4.59023 44.0502 13.33654 72.90095 29.79549 90.2188 51.46858 160.5343 143.03011 191.23995 249.02368 11.30215 39.01413 16.05816 72.59881 16.05816 113.39498 0 60.2274-10.88658 107.8248-33.10563 144.7417-27.37576 45.4847-69.19791 76.483-116.37296 86.2547-12.88409 2.6687-36.48231 3.4265-49 1.5734zm1276-30.1531c-57.5303-8.8823-106.6476-48.4351-136.4961-109.9167-14.5548-29.9799-23.7469-63.181-27.0472-97.69243-1.7259-18.04813-.7558-54.72619 1.8596-70.30757 1.1079-6.6 2.5231-16.05 3.1451-21 .6219-4.95 2.4733-15.75 4.1141-24 22.9865-115.57224 91.0696-218.8794 179.943-273.04005 37.884-23.08699 85.1746-38.32521 124.4815-40.11099 36.1252-1.64123 76.7893 13.88206 109.107 41.65104 48.334 41.53099 80.3887 116.91629 80.365 189 0 15.30614-2.6862 57.73847-4.4548 70.5-12.3145 88.85998-54.5254 178.253-113.0906 239.5-30.8322 32.2441-58.6078 52.9785-93.9266 70.116-42.3374 20.5431-93.4185 30.6399-128 25.3007zm-907-483.97924c-1.65-.22305-6.825-.91376-11.5-1.53492-15.32528-2.03624-40.73477-11.42478-64.59787-23.86824-31.45392-16.4017-56.34295-34.81711-82.41036-60.97546-43.84391-43.99687-77.4871-100.29886-99.36461-166.28702-26.08472-78.67818-32.60861-167.66224-18.0719-246.49592 14.79883-80.2552 66.3529-152.826385 130.94474-184.327171 51.37767-25.0563708 101.6419-22.24977 164.5 9.185177 42.92037 21.464213 79.38953 52.465303 111.32134 94.630184 60.42466 79.78872 95.03497 194.35825 92.35976 305.73591-.75148 31.28676-3.88096 55.27693-10.82719 83-26.27199 104.85401-90.65777 174.41982-174.85391 188.92146-9.35329 1.61097-31.63495 2.80884-37.5 2.016zm544.2461-1.49393c-10.6056-.94209-30.823-5.86216-43.7461-10.64598-95.3299-35.28882-159.1804-139.26685-165.9733-270.28118-2.0175-38.90939 4.0022-97.5451 14.5797-142.01637 23.5358-98.95255 74.5983-183.038199 141.514-233.034051 32.407-24.212797 69.678-41.0678087 106.2013-48.027243 22.783-4.3412564 57.0825-1.07042546 82.6783 7.8842764 68.7526 24.0531056 127.4 93.7946676 149.8334 178.1770176 5.1273 19.28607 7.2684 33.17533 11.639 75.5 5.1162 49.54628 1.3111 106.05842-10.5714 157-25.0988 107.60143-83.1353 195.82612-162.5129 247.04513-24.7887 15.99513-57.8276 30.85945-78.4453 35.29284-8.7293 1.87706-29.7952 4.33526-34.4428 4.01918-1.1-.0748-5.9392-.48594-10.7539-.91362z" fill="#8f8f8f"/><path d="m1417.5 1847.9137c-19.1812-1.5375-43.3464-6.5366-62.2407-12.8758-11.0072-3.693-55.5509-21.3586-85.4028-33.8699-107.7758-45.1701-153.324-59.2986-211.5633-65.6248-15.6473-1.6997-49.6543-2.0194-60.7932-.5716-3.85.5004-15.1 1.6289-25 2.5076-41.60626 3.6933-79.08331 11.8571-126.5 27.556-10.175 3.3688-40.1 14.1405-66.5 23.937-65.56054 24.3283-85.66035 31.2469-113 38.8959-46.72994 13.0739-95.44827 19.0987-131 16.2002-25.42328-2.0728-43.06652-6.8339-65-17.5405-21.27541-10.3855-36.51527-21.5317-53.53502-39.1548-50.0433-51.8172-68.96722-124.7906-49.49843-190.873 1.2963-4.4 3.7952-14.525 5.55311-22.5 29.66099-134.5612 99.90633-276.3985 203.30127-410.5 13.48928-17.4954 18.66364-23.4224 35.67832-40.8681 80.54409-82.5846 187.82758-138.73266 299.17732-156.57804 34.48665-5.52697 80.64416-7.03306 112.82343-3.68135 54.9975 5.7284 105.4624 21.3094 150 46.31239 80.0556 44.9424 158.365 115.5462 231.6049 208.8151 36.1781 46.0717 75.2157 102.5297 126.1015 182.3739 21.8513 34.2866 36.4452 62.1214 58.0016 110.6261 36.566 82.278 48.3761 148.8041 36.7479 207-4.9475 24.7604-11.7809 40.4621-25.8086 59.3022-8.5808 11.5245-26.7102 29.0234-38.1564 36.8293-39.2618 26.7752-89.7418 38.7109-144.9909 34.2822zm-1112-626.5363c-39.10297-5.6934-90.12625-26.5942-127.5-52.2281-96.45133-66.154-161.230702-177.04875-175.6248489-300.6493-2.16241423-18.56835-2.46565552-64.49214-.5348545-81 4.4602216-38.13377 13.0234074-71.76365 24.1898804-95 20.688307-43.05037 61.638761-76.77654 110.471313-90.9825 28.59403-8.31833 61.50659-9.58719 89.99851-3.46967 25.59377 5.49526 57.55627 20.39282 90.31239 42.09412 115.99994 76.8513 189.67613 219.08763 185.88285 358.85805-1.34126 49.421-10.08432 89.9287-26.42944 122.4511-9.35335 18.6106-20.88607 34.3102-37.19368 50.6319-24.74227 24.7637-51.72323 39.825-85.07212 47.4888-7.27302 1.6714-40.83916 2.921-48.5 1.8056zm1284-29.0308c-8.7795-.8917-25.5522-4.6445-35.3517-7.9098-73.4929-24.4889-126.0709-101.1295-136.6193-199.14361-2.5478-23.67297-1.9085-47.71368 1.9222-72.29319.8143-5.225 2.1918-14.675 3.0611-21 17.9577-130.66634 98.5083-253.17114 200.9886-305.67176 25.9832-13.3112 47.5003-20.92349 74.4535-26.34007 30.2956-6.08824 46.3347-6.08178 70.6989.0285 82.0621 20.58027 141.4339 103.21894 150.4291 209.37993 1.9662 23.20451-.9424 70.74256-6.1552 100.60342-4.7682 27.31343-11.4438 52.24306-20.7837 77.61574-47.0021 127.68464-140.7701 218.54684-247.511 239.84054-18.2805 3.6468-44.4877 5.9714-55.1325 4.8903zm-931-487.27354c-15.64279-2.95428-39.35457-12.14559-62.5-24.22664-48.35383-25.23889-93.64752-66.6734-126.76331-115.96263-65.251-97.11899-92.7242-230.81138-72.23105-351.49689 7.86853-46.3383 27.50939-90.53461 56.6108-127.3869 9.50811-12.040497 31.2776-33.442392 42.42203-41.705689 26.33144-19.524056 52.65509-30.999032 80.96153-35.2926559 10.47849-1.5894159 35.13808-1.3568113 46.21763.4359534 23.5666 3.8132755 55.43539 15.4314685 80.02492 29.1741555 86.05412 48.094239 150.19918 141.584846 178.65558 260.388236 13.42664 56.05525 18.15188 119.38005 12.49871 167.5-8.81709 75.05122-35.79149 137.85797-77.89512 181.36965-28.49317 29.44606-58.94195 46.7276-98.11854 55.68823-16.19995 3.70533-44.49558 4.42127-59.88318 1.51518zm555.5.26831c-14.067-1.91842-37.4359-8.86429-52.5-15.6044-74.6569-33.40371-128.5372-110.87502-146.9124-211.23697-4.8789-26.64714-5.9822-39.80633-6.0367-72-.045-26.73969.2548-32.60825 2.7622-54 3.2777-27.96455 7.2852-51.39553 12.2467-71.60459 16.4463-66.98809 44.7596-126.51287 83.0459-174.59211 9.6861-12.163711 38.0087-40.675682 49.3943-49.724545 33.2843-26.453212 74.5751-46.146357 113.5037-54.1341825 11.8839-2.43847601 14.323-2.61827004 28.4963-2.10063096 17.3357.63313512 28.4701 2.30641766 44.1134 6.62937096 73.3256 20.2631735 136.8365 92.1548105 160.3654 181.5266875 8.0509 30.58008 13.4771 78.81402 13.5054 120.05011.037 54.61897-7.6835 103.31308-24.4129 153.96583-13.2672 40.16999-30.0962 74.70133-52.6265 107.98406-35.2464 52.06731-84.4493 94.48684-136.8791 118.00815-28.4049 12.74313-43.0874 16.39899-68.0657 16.94793-9.075.19944-18.075.14782-20-.11471z" fill="#6f6f6f"/><path d="m1420.5 1847.9825c-17.2788-1.3323-39.3023-5.5283-57.6942-10.9922-11.3718-3.3783-38.8211-13.9407-73.3058-28.208-54.8565-22.6956-88.413-36.2034-105.0498-42.2866-48.5149-17.7392-86.5984-27.1811-127.4502-31.5982-15.3128-1.6556-50.8908-1.4206-68 .4493-7.975.8716-19.9 2.0893-26.5 2.7059-49.09774 4.5874-92.11915 16.5353-186.78137 51.8729-85.65386 31.9748-120.814 42.6059-163.71863 49.5025-21.54017 3.4624-35.41805 4.5645-57.52623 4.5685-27.66838.01-41.95119-2.0704-62.91404-9.1416-47.29707-15.9544-87.75511-52.2981-110.60249-99.355-7.17729-14.7825-10.21711-22.8268-13.98175-37-5.02398-18.9144-6.33442-29.1887-6.31353-49.5.0198-19.2497 1.3164-30.2383 5.30975-45 1.1159-4.125 3.82649-15.15 6.02352-24.5 6.527-27.7772 11.85534-47.8518 18.04902-68 33.50329-108.9872 88.88003-215.2615 168.82791-324 30.64612-41.6823 48.138-61.6833 75.12784-85.9044 41.8063-37.5177 82.08727-64.7024 131.21597-88.5547 111.81785-54.28813 230.87489-66.65995 335.78403-34.89298 25.6894 7.77888 54.5109 20.17561 76.5 32.90428 93.5229 54.137 179.4777 137.1463 264.5118 255.4478 41.3698 57.5546 103.4013 153.3776 117.5176 181.535 51.5661 102.8577 70.7819 163.915 70.5939 224.3088-.094 30.141-5.4373 59.8619-14.0773 78.2991-17.0285 36.3378-50.3728 66.5018-90.9604 82.2847-32.5969 12.6756-68.471 17.8396-104.5856 15.0549zm-1114.8157-627.0445c-17.65572-2.4439-51.35548-12.4247-70.67686-20.9323-41.85697-18.4304-76.09697-41.8538-109.33882-74.7981-27.889307-27.6397-50.072519-56.9004-70.010305-92.3469-26.152997-46.49633-45.526293-104.5926-51.6411977-154.8607-.6355995-5.225-1.5548346-12.425-2.0427448-16-.4879101-3.575-1.17114279-15.05-1.51829484-25.5-1.17727664-35.43848 3.41216014-73.54936 13.08730634-108.67755 9.376354-34.04334 21.856063-56.22358 44.420128-78.94807 13.91961-14.01858 22.418545-20.63596 38.120383-29.68104 45.260095-26.07217 100.559735-31.68707 149.997325-15.23012 11.98638 3.99007 35.3773 15.17494 51.91878 24.82607 59.24189 34.56472 110.52353 87.00625 147.07089 150.39734 19.83994 34.41222 35.88733 74.42478 45.41277 113.23223 6.94544 28.29627 9.83469 47.63733 11.63983 77.91856 2.7187 45.60608-4.87292 99.47508-19.01398 134.92038-23.51078 58.9309-74.15477 103.0591-131.10951 114.2411-10.05452 1.974-36.51241 2.7961-46.3157 1.4391zm1274.3157-30.4145c-26.6431-4.5169-52.6854-15.778-74.1229-32.0521-9.099-6.9075-25.9027-23.5285-33.839-33.4714-27.2733-34.1686-46.8101-82.0753-53.015-130-2.0757-16.03142-3.0398-42.93523-2.0217-56.41219 1.0891-14.41589 7.0241-56.63131 9.9844-71.01866 14.7021-71.45351 46.0276-138.31815 90.447-193.06041 10.4982-12.93799 37.4094-40.17687 49.6773-50.28221 47.8111-39.38326 101.7005-62.48149 158.8899-68.10389 28.346-2.78675 65.59 8.07597 95 27.70803 59.3697 39.63105 98.0496 119.95069 98.3229 204.16933.091 28.06041-2.9116 61.47412-7.9078 88-19.9529 105.9337-78.0554 203.2423-155.6009 260.5966-40.8597 30.2206-85.5867 48.3268-133.3142 53.9677-14.4566 1.7087-32.2815 1.6915-42.5-.041zm-908.5-484.10201c-1.65-.22919-6.375-.8944-10.5-1.47825-18.50627-2.61935-53.7246-17.14657-80.5-33.20548-56.80092-34.06713-104.80496-87.60614-138.21102-154.14704-22.31079-44.44046-38.54935-96.86078-46.18472-149.09072-4.1245-28.21371-5.37173-49.70933-4.81588-83 .96417-57.74532 8.63151-99.1207 25.3877-137 29.3113-66.261562 80.49717-116.510839 135.82392-133.33862 18.55174-5.6425616 25.29721-6.6147356 46-6.6296349 22.52881-.016213 33.20003 1.7865859 56.61249 9.5641319 126.91068 42.159321 217.05325 173.393093 237.93997 346.404123 3.03894 25.17245 3.79956 74.26099 1.49525 96.5-6.98257 67.38932-29.56467 127.3934-64.54277 171.5-15.07529 19.0096-39.06841 39.68074-58.6467 50.52673-18.63434 10.32307-39.94432 18.0167-59.35824 21.43037-9.13939 1.60703-34.29018 2.82693-40.5 1.96439zm543.5904-1.54003c-33.1304-3.84116-74.1439-22.29811-102.9286-46.32007-62.013-51.75241-99.6437-139.04412-103.7039-240.56139-1.351-33.77959 4.8824-91.58516 14.1802-131.5 27.8666-119.62988 93.925-215.154174 179.3619-259.367988 20.706-10.715378 38.5532-17.3762434 62.5-23.3259364 12.2713-3.04886296 13.9809-3.22524378 30.5-3.1466304 20.3487.0968383 34.9124 2.5708537 55.5 9.4280758 69.6303 23.192117 128.0008 91.623149 151.3298 177.412479 8.8695 32.61664 14.9339 91.06219 13.8002 133-1.0904 40.33592-5.822 74.29812-15.622 112.13164-33.2071 128.19794-114.3179 226.08418-218.7282 263.96563-21.4159 7.77-45.0794 10.73169-66.1894 8.28419z" fill="#4f4f4f"/><path d="m1423 1848.0114c-18.2701-1.6303-40.8418-5.8967-59-11.1519-10.9813-3.1781-55.5692-20.5627-96.5-37.6248-76.7613-31.9982-107.632-43.1743-147.3014-53.3274-22.818-5.8401-41.9674-9.2958-63.0887-11.385-17.4617-1.7272-45.2451-1.9648-58.6099-.5011-4.95.542-16.875 1.6758-26.5 2.5193-40.0849 3.5133-77.15611 11.5374-123 26.6235-19.49294 6.4147-33.54156 11.4829-90.60015 32.6853-92.54445 34.3885-138.3327 45.6655-193.88601 47.7512-49.77033 1.8687-86.78075-8.8997-123.44733-35.9176-37.11757-27.3502-65.30648-71.0049-75.42044-116.7997-4.00442-18.1316-4.98984-29.2021-4.34042-48.7621.61841-18.6264 1.60467-24.5337 8.95221-53.6211 1.94504-7.7 4.92022-19.85 6.61151-27 23.12923-97.7796 68.51037-201.0975 131.99105-300.5 24.52296-38.3998 60.08517-87.9974 81.97486-114.3279 21.1405-25.4294 58.45894-59.8545 88.66472-81.7904 78.95988-57.3418 166.98242-91.76724 259.5-101.48975 19.19698-2.01738 63.2233-2.28742 81.5-.4999 56.791 5.55438 110.3228 22.00252 155.0201 47.63135 80.9313 46.405 154.9964 113.3115 228.5682 206.4766 35.796 45.329 74.9054 101.8249 126.6823 183 20.3214 31.8595 28.1065 46.3288 48.9871 91.0464 21.6734 46.4154 35.0767 83.4032 42.7712 118.0317 12.2716 55.2272 8.8429 109.8566-9.1379 145.5936-11.4435 22.7438-31.1863 44.7188-53.9745 60.0767-20.6092 13.8895-50.654 25.3366-77.9165 29.6864-5.5.8776-12.7 2.0274-16 2.5553-8.4304 1.3485-32.3826 1.9241-42.5 1.0213zm-1109.27635-627.1173c-14.38711-.9184-34.06519-5.3122-54.22365-12.1073-88.79374-29.931-164.35449-98.4746-211.97221-192.2868-27.255058-53.69551-42.664957-111.59023-46.66504185-175.31972-2.94887825-46.98164 8.49693955-112.317 26.00918885-148.46643 29.737588-61.38542 97.307313-100.29224 169.128063-97.38436 30.24657 1.22462 50.07663 6.87651 82.46865 23.5049 53.35988 27.3922 97.01601 64.08221 134.6517 113.16561 47.12324 61.4568 76.89698 134.73614 86.5429 213 2.23636 18.14509 2.53984 67.6123.51841 84.5-3.15391 26.3488-9.15584 53.4895-15.70604 71.0225-21.43705 57.3809-68.83474 102.3593-122.39053 116.1434-8.52125 2.1931-30.10877 5.4598-34.08509 5.1578-.825-.063-7.24936-.481-14.27635-.9296zm1271.77635-30.0375c-51.9422-6.607-98.4259-38.6091-129.0661-88.8566-20.4252-33.4957-33.1235-72.6336-37.9906-117.09212-2.0129-18.38653-1.5156-50.55136 1.0267-66.40788.8818-5.5 2.2885-15.175 3.1259-21.5 14.9974-113.27466 74.3997-219.54253 158.0794-282.79642 27.1419-20.51669 62.8566-38.66158 93.9334-47.72297 31.8202-9.27815 61.2206-12.15637 82.8913-8.1148 89.7267 16.73393 153.8327 103.72772 161.4809 219.13419.8947 13.50113.7466 17.44216-1.9539 52-9.7178 124.35359-73.5268 243.6759-165.6889 309.8367-42.0711 30.2017-88.9672 47.6532-138.8381 51.6661-13.7558 1.1068-17.3001 1.0876-27-.1462zm-927.5-486.86971c-30.77037-5.91034-75.90919-28.72281-112-56.6031-14.16679-10.94389-43.54925-40.09357-55.32209-54.88379-45.2058-56.79206-76.2729-126.55398-90.6247-203.5-11.68464-62.64624-11.71138-128.40221-.07562-186 12.61878-62.46387 49.30664-122.450017 96.63947-158.009502 42.22987-31.725807 88.29332-42.9429718 135.38294-32.967849 20.14022 4.266357 51.48813 16.380691 71.05225 27.457989 26.66176 15.09602 45.17496 29.430671 68.94775 53.385803 23.99922 24.183289 41.97023 48.001369 60.08446 79.633559 52.07891 90.94345 75.50277 219.99447 57.81046 318.5-16.28918 90.69332-60.61996 160.61203-122.89492 193.83045-18.19442 9.70518-39.16283 16.73576-58.69384 19.67967-13.67782 2.06167-38.1752 1.80687-50.30616-.52323zm550.5-.53923c-11.5593-1.94888-30.7623-7.74609-43.2112-13.04506-76.9972-32.77453-131.8449-111.0935-150.1485-214.4026-4.7849-27.00665-5.6426-37.85252-5.6144-71 .023-26.90167.3498-33.2135 2.7708-53.5 8.3502-69.96831 23.5859-122.0127 52.2552-178.5 22.2559-43.85111 56.9213-87.573614 91.4481-115.340862 30.3121-24.377693 68.2709-43.425617 103-51.6859149 7.425-1.7660329 14.5636-3.7108544 15.8635-4.3218257 3.1955-1.50191024 34.2963-1.43155492 40.1365.090796 2.475.6451514 8.2023 1.8787096 12.7273 2.7412405 26.754 5.0996945 53.7482 17.3390911 77.9381 35.3377751 11.2187 8.34741 35.9127 32.945014 44.8538 44.678791 27.7605 36.43129 46.6584 78.24207 55.3682 122.5 2.1119 10.73161 6.3013 44.36865 8.0954 65 1.3022 14.97341 1.2975 56.9232-.01 74.05011-6.5595 86.04269-36.2506 170.25318-82.3103 233.44989-23.5132 32.26156-54.8805 62.8273-85.6643 83.47515-24.4485 16.39855-58.7474 32.85977-78.2376 37.54897-18.2858 4.39942-43.2144 5.6292-59.2624 2.92354z" fill="#2e2e2e"/><path d="m1426 1848.0554c-4.675-.3062-7.6-.8417-6.5-1.19 1.3277-.4205.63-.6724-2.0759-.7494-11.7212-.3336-36.6194-5.0558-54.4241-10.3222-10.0913-2.9848-59.8931-22.3801-88-34.2715-106.7287-45.1546-158.5138-61.3735-216-67.6507-16.8138-1.8359-53.3127-1.6046-72.5.4595-8.8.9467-20.725 2.181-26.5 2.743-13.67537 1.3309-36.42324 5.1638-53.16262 8.9578-32.96117 7.4707-61.71854 16.8011-129.33738 41.9636-88.6314 32.9818-120.94544 42.802-164.40142 49.9612-24.83154 4.0909-43.855 5.4252-67.57899 4.7399-22.75504-.6573-36.48994-2.9842-54.58909-9.2483-80.01867-27.6946-135.24922-112.3224-128.86036-197.4483 1.01746-13.5568 2.65378-22.1482 9.33254-49 1.98359-7.975 5.22709-21.25 7.20777-29.5 26.42383-110.0615 82.73962-229.5181 160.41997-340.2813 30.91735-44.0846 51.53728-70.305 71.9109-91.4421 61.333-63.6317 138.91278-111.9608 224.05868-139.57957 47.7568-15.49088 89.28122-22.64312 138.5-23.85549 58.9917-1.45309 117.2119 9.65463 168.0594 32.0637 56.1151 24.73056 122.357 72.78916 180.8517 131.20816 54.3908 54.3204 103.4191 116.4265 164.1116 207.8866 44.3776 66.8743 61.4203 94.4021 73.8993 119.3639 49.9476 99.9099 68.4955 159.3366 68.5607 219.666.037 34.6421-6.5592 65.3183-18.5734 86.371-8.0763 14.1522-14.3196 22.1779-27.3281 35.1299-21.4346 21.3413-46.885 35.6571-79.6452 44.8001-11.8588 3.3097-33.1938 7.1598-39.8113 7.1844-3.0315.011-3.7271.2722-2.6247.9847 1.0122.6541-2.6196.9744-11.1682.9847-6.9675.01-13.2675.153-14 .3214-.7325.1683-5.1568.055-9.8318-.2507zm-1120.5-628.5256c-35.73181-4.9941-80.06762-22.2304-117.26252-45.5878-57.30969-35.9889-107.600392-92.7368-140.604639-158.658-24.000196-47.93685-40.8061645-106.71014-44.2860948-154.87585-.4794816-6.63651-.9521986-9.08266-1.4316205-7.40815-.3936711 1.375-.7289933-10.55-.7451604-26.5-.0172594-17.02763.3254123-28.17432.8300347-27 .6541947 1.52239.8762138.91631.9297147-2.53801.0882836-5.70007 2.4046922-24.48734 4.5572926-36.96199 10.8451217-62.84913 34.9311277-104.02413 77.5129927-132.50837 30.35668-20.30646 60.70171-30.01435 97.53477-31.20302 25.09212-.80977 43.84694 1.92491 65.57365 9.56147 23.59252 8.29235 60.4221 29.0681 86.71977 48.91906 81.26422 61.34279 140.28928 157.95245 159.60276 261.23086 4.5373 24.2631 5.78933 37.3405 6.30576 65.86311.65056 35.93149-1.42604 58.13429-8.28143 88.54369-10.26361 45.5277-32.72414 83.4612-65.95528 111.3915-35.56267 29.8899-79.36925 43.5501-121 37.7315zm1280.5-29.2449c-13.9079-1.5699-38.1585-8.8782-51.5-15.5204-61.8157-30.7757-104.9414-100.65-114.9605-186.2645-1.9028-16.25941-1.9535-49.34742-.097-63.5 5.3438-40.74477 7.891-55.29778 13.7398-78.5 25.5393-101.31484 85.786-190.98151 162.4601-241.79355 36.2244-24.00592 72.8203-38.58153 113.8579-45.34784 15.9856-2.63572 38.8834-2.45514 51.7585.4082 46.4294 10.32554 84.2252 37.17234 112.955 80.23319 22.6246 33.91029 39.2111 81.20198 42.4255 120.96452.4249 5.2552.9552 7.71967 1.3987 6.5.8478-2.33176 1.6173 22.19066 1.0994 35.03548-.2133 5.28904-.6628 8.18782-1.0902 7.03025-.4041-1.09459-1.0396 4.34172-1.4304 12.23567-5.0647 102.32459-51.7804 209.13188-122.4862 280.04368-50.9902 51.1387-109.0511 80.4694-173.6303 87.713-12.1498 1.3628-26.392 1.6775-34.5.7623zm-912.5-484.94316c-18.48445-1.48822-37.03599-7.104-63-19.07085-48.49785-22.35273-92.88548-58.99434-128.13083-105.77089-44.92015-59.61664-76.10079-139.94084-86.37114-222.5-8.72807-70.16133-2.93948-142.85782 15.36796-193 26.27481-71.963955 80.76196-129.555381 140.36057-148.357296 34.23056-10.7989104 65.52344-9.9399402 103.8036 2.849344 43.06583 14.388161 78.7508 36.84901 113.58249 71.491148 23.44493 23.317334 39.6889 43.975014 56.18665 71.453314 46.61884 77.64737 71.83692 176.35744 69.37802 271.56349-.59919 23.20031-2.07024 38.43249-5.55304 57.5-14.91298 81.645-52.95338 147.18698-106.02376 182.67442-33.49764 22.39942-74.31914 34.00791-109.60052 31.16732zm545-1.38187c-23.5455-1.97553-55.8645-13.36555-80.3945-28.33302-30.3949-18.54607-57.2388-46.04804-78.3432-80.26389-34.6456-56.16961-53.1888-132.93591-49.7269-205.86296 1.013-21.34024 5.0022-57.34314 8.5277-76.9632 14.0299-78.07921 45.2263-149.91872 88.7768-204.43599 11.5947-14.514485 36.2631-39.583849 48.6601-49.451138 33.6567-26.788721 71.0343-45.058452 110.5-54.0110198 6.05-1.3724093 10.55-2.600308 10-2.7286637s2.375-.5195404 6.5-.8692994c9.0631-.76845847 31.2979-.022137 28.507.956851-1.2752.4473152.6838.9599196 5.4715 1.4316839 16.5527 1.6310591 38.9776 8.664615 57.5215 18.0416 52.3621 26.4776 95.7092 78.755816 119.0089 143.529176 9.917 27.56957 12.4309 40.61525 19.1732 99.5 2.2435 19.59444 2.2043 68.30934-.073 90-7.3266 69.79864-26.3369 131.77559-57.359 187-7.2522 12.91015-26.3475 41.11464-35.8827 53-10.8179 13.48429-37.5241 40.3246-50.3678 50.62082-11.2793 9.04207-28.0252 20.59994-40.5 27.95274-20.2773 11.95167-49.3728 24.21259-66 27.81259-7.6114 1.64796-31.5245 4.42705-34.1721 3.97135-.4553-.0784-4.8779-.48231-9.8279-.89763z"/></g></svg>