<?xml version="1.0" encoding="UTF-8" standalone="no"?>
<!-- Created with Inkscape (http://www.inkscape.org/) -->

<svg
   xmlns:dc="http://purl.org/dc/elements/1.1/"
   xmlns:cc="http://creativecommons.org/ns#"
   xmlns:rdf="http://www.w3.org/1999/02/22-rdf-syntax-ns#"
   xmlns:svg="http://www.w3.org/2000/svg"
   xmlns="http://www.w3.org/2000/svg"
   xmlns:sodipodi="http://sodipodi.sourceforge.net/DTD/sodipodi-0.dtd"
   xmlns:inkscape="http://www.inkscape.org/namespaces/inkscape"
   width="176.38889mm"
   height="176.38889mm"
   viewBox="0 0 624.99999 624.99999"
   id="svg3357"
   version="1.1"
   inkscape:version="0.91 r13725"
   sodipodi:docname="huella.svg">
  <defs
     id="defs3359" />
  <sodipodi:namedview
     id="base"
     pagecolor="#ffffff"
     bordercolor="#666666"
     borderopacity="1.0"
     inkscape:pageopacity="0.0"
     inkscape:pageshadow="2"
     inkscape:zoom="0.35"
     inkscape:cx="324.64287"
     inkscape:cy="261.07143"
     inkscape:document-units="px"
     inkscape:current-layer="layer1"
     showgrid="false"
     fit-margin-top="0"
     fit-margin-left="0"
     fit-margin-right="0"
     fit-margin-bottom="0"
     inkscape:window-width="1366"
     inkscape:window-height="705"
     inkscape:window-x="-8"
     inkscape:window-y="-8"
     inkscape:window-maximized="1" />
  <metadata
     id="metadata3362">
    <rdf:RDF>
      <cc:Work
         rdf:about="">
        <dc:format>image/svg+xml</dc:format>
        <dc:type
           rdf:resource="http://purl.org/dc/dcmitype/StillImage" />
        <dc:title></dc:title>
      </cc:Work>
    </rdf:RDF>
  </metadata>
  <g
     inkscape:label="Capa 1"
     inkscape:groupmode="layer"
     id="layer1"
     transform="translate(-50.357132,-168.43364)">
    <g
       id="g3376"
       transform="translate(-2.8571429,-31.428571)">
      <path
         style="fill:#fefefe"
         d="m 53.214275,512.36221 0,-312.5 312.499995,0 312.50001,0 0,312.5 0,312.5 -312.50001,0 -312.499995,0 0,-312.5 z"
         id="path3392"
         inkscape:connector-curvature="0" />
      <path
         style="fill:#d1d1d1"
         d="m 508.21427,731.57069 c -5.25806,-0.99942 -18.81607,-5.59144 -30,-10.16082 -43.37482,-17.72152 -45.27285,-18.22494 -68.75,-18.23436 -23.31441,-0.009 -32.92516,2.0019 -62.90786,13.16479 -38.60812,14.37424 -56.69803,17.41317 -73.42034,12.33393 -18.33211,-5.56821 -30.21282,-17.68178 -36.04962,-36.7562 -3.36212,-10.98728 -3.29921,-15.2438 0.45829,-31.0075 8.0715,-33.86208 19.76403,-60.44598 39.77138,-90.42332 24.52075,-36.73985 47.84195,-55.80141 82.3867,-67.3387 35.99495,-12.02162 69.42454,-7.91864 99.70025,12.23671 24.81147,16.51766 48.65189,42.56488 74.45964,81.35199 27.40049,41.18088 39.30669,72.87783 35.68168,94.99257 -1.97942,12.07563 -5.1847,18.02432 -14.31293,26.56332 -6.14611,5.74939 -9.68945,7.94904 -16.4855,10.23391 -8.38862,2.82033 -23.6845,4.34515 -30.53169,3.04368 z m -291.25,-164.27322 c -19.92783,-5.15907 -37.2719,-16.82111 -51.33374,-34.51646 -17.91323,-22.54193 -27.34345,-54.31974 -23.86738,-80.42796 3.5392,-26.58236 14.43697,-41.64314 35.13134,-48.5517 20.49231,-6.84112 40.9837,-0.009 63.04286,21.01973 19.98074,19.0473 30.5532,38.65314 35.02374,64.94891 2.40806,14.16426 2.44171,19.06954 0.21499,31.34222 -2.69433,14.84992 -6.33782,22.93351 -14.13048,31.35053 -8.46165,9.13958 -14.69891,12.94165 -25.34824,15.45155 -9.61351,2.26578 -7.305,2.34178 -18.73309,-0.61682 z m 331.87501,-7.93378 c -8.31641,-2.63014 -12.81236,-5.49318 -20.15212,-12.83294 -12.56161,-12.56161 -20.48931,-35.65493 -18.73177,-54.56544 2.61124,-28.09583 12.02531,-51.48159 28.34201,-70.40514 13.3732,-15.50977 26.55324,-24.11982 43.82636,-28.63016 17.2022,-4.49184 31.34716,-0.14657 44.66266,13.72014 20.69234,21.54892 24.31529,55.8447 9.76955,92.4811 -6.30932,15.8913 -11.49481,23.70363 -24.5917,37.04922 -9.56042,9.74199 -13.70228,12.98186 -21.25,16.62234 -16.33282,7.87778 -30.62867,10.11761 -41.875,6.56088 z M 306.58647,431.89707 c -22.74087,-9.59091 -42.99119,-29.95475 -52.59836,-52.89318 -12.61531,-30.12084 -14.80439,-63.35066 -5.79888,-88.02631 8.82139,-24.17119 27.80093,-40.78656 48.07634,-42.08776 16.92357,-1.08609 32.38119,6.08279 48.93609,22.69539 16.2699,16.32661 24.03705,31.12155 30.59469,58.277 4.29477,17.7848 4.05821,40.26344 -0.58503,55.59139 -4.60523,15.2025 -9.97196,24.84793 -18.68298,33.57831 -14.44575,14.47784 -34.10824,19.54295 -49.94187,12.86516 z m 145.12493,0.55164 c -10.60724,-3.39155 -17.12884,-7.70705 -26.23565,-17.36075 -23.01395,-24.396 -28.19223,-64.37964 -13.75813,-106.23228 6.26314,-18.1604 11.25442,-26.22263 24.62165,-39.77047 12.40698,-12.5746 20.81327,-17.67241 35.03104,-21.2438 6.94943,-1.74564 9.69205,-1.87327 15.80905,-0.73569 21.35305,3.97101 39.26583,20.72456 47.37529,44.30937 9.04144,26.29529 7.68609,55.86273 -3.943,86.01795 -9.9729,25.86062 -33.11034,48.74412 -56.06175,55.44651 -8.62901,2.51987 -13.92228,2.42002 -22.8385,-0.43084 z"
         id="path3390"
         inkscape:connector-curvature="0" />
      <path
         style="fill:#adadad"
         d="m 506.96427,730.24865 c -4.89157,-0.81884 -14.66897,-4.10644 -26.25,-8.82644 -45.47763,-18.53499 -49.73518,-19.69399 -71.875,-19.56588 -20.68455,0.11975 -32.37786,2.52347 -57.5,11.82013 -34.28648,12.68803 -47.88791,16.18575 -62.94063,16.18575 -27.46974,0 -50.029,-20.78169 -52.3498,-48.22486 -1.47229,-17.40959 11.88933,-58.70304 28.6852,-88.65014 28.19581,-50.27331 56.15746,-76.25727 95.98023,-89.1917 35.95924,-11.67954 68.10703,-7.51939 98.56069,12.75442 24.74766,16.47519 47.4966,41.35978 73.45343,80.34918 28.0187,42.08649 39.2591,72.11626 35.65972,95.2683 -1.74033,11.19429 -5.13565,17.47852 -13.84505,25.62515 -6.65937,6.22905 -11.47085,8.77189 -21.95378,11.6024 -5.88823,1.58989 -18.68103,2.01607 -25.62501,0.85369 z M 215.98369,566.0889 c -46.17939,-12.09895 -80.14316,-66.31306 -72.83882,-116.26775 2.7094,-18.5297 8.81334,-29.80112 20.98659,-38.75343 11.53834,-8.48538 29.75407,-11.12757 43.47302,-6.30575 19.11028,6.71673 41.08937,26.34563 53.41351,47.70211 8.32175,14.42073 14.76231,38.23589 14.65267,54.18091 -0.0674,9.79148 -3.15021,24.90268 -6.63208,32.5081 -3.73668,8.16196 -12.95734,18.40613 -20.59699,22.88326 -5.07179,2.97227 -17.09103,6.60283 -21.47731,6.48751 -1.03125,-0.0271 -5.97252,-1.12285 -10.98059,-2.43496 z m 333.48059,-7.3956 c -17.58221,-5.36764 -32.24412,-23.47869 -36.77833,-45.43023 -2.45296,-11.87553 -2.46936,-18.39524 -0.0833,-33.10766 8.17434,-50.40181 47.14264,-90.2555 85.56253,-87.50658 10.66952,0.76342 18.85089,5.04572 28.03468,14.67397 16.57995,17.38233 21.8095,42.56705 15.2114,73.25577 -9.4909,44.1436 -45.9666,79.67863 -81.27216,79.1762 -4.15243,-0.0591 -8.95612,-0.53676 -10.67487,-1.06147 z M 301.33927,428.16254 c -12.45372,-6.29377 -19.65328,-11.80792 -28.66477,-21.95438 -15.9566,-17.96627 -25.43114,-40.90003 -28.21884,-68.3056 -3.87857,-38.12983 8.73233,-68.36417 34.71587,-83.23044 6.15484,-3.52145 8.54566,-4.13573 17.82288,-4.57928 9.4645,-0.4525 11.72833,-0.11032 19.40468,2.93304 12.07195,4.78605 20.13321,10.40024 30.297,21.10006 13.87976,14.61179 22.02846,30.56371 27.83313,54.48627 4.11725,16.9683 4.18409,41.49505 0.15142,55.56866 -6.04792,21.10661 -17.65413,36.785 -33.0474,44.64249 -6.49425,3.31499 -9.56577,4.06566 -18.41897,4.50152 -10.5555,0.51967 -10.69858,0.4859 -21.875,-5.16234 z m 149.98368,3.27766 c -10.10686,-3.61818 -17.18644,-8.39854 -25.32903,-17.10298 -17.49944,-18.70697 -24.54141,-46.80103 -19.79531,-78.97387 4.42558,-30.00002 14.78246,-51.18255 33.59966,-68.72 19.93851,-18.5825 41.14038,-23.62115 60.43098,-14.36148 26.13644,12.54574 40.80854,43.51319 38.8297,81.95534 -1.63545,31.77106 -12.09945,56.84712 -32.09468,76.91203 -18.80366,18.86918 -39.01958,26.24141 -55.64132,20.29096 z"
         id="path3388"
         inkscape:connector-curvature="0" />
      <path
         style="fill:#929292"
         d="m 501.02834,727.93096 c -3.60853,-0.97169 -12.32728,-4.08665 -19.375,-6.92213 -7.04774,-2.83547 -17.03282,-6.84966 -22.18907,-8.92042 -5.15625,-2.07075 -15,-5.47443 -21.875,-7.56372 -11.05179,-3.35862 -14.31025,-3.79978 -28.125,-3.8078 -19.09863,-0.0113 -35.11571,3.52251 -62.5,13.78842 -28.85231,10.81626 -37.46012,13.01636 -53.87197,13.76929 -11.83389,0.54291 -15.73751,0.25611 -21.25,-1.56123 -20.60298,-6.79234 -34.87803,-26.51911 -34.87803,-48.19815 0,-19.35445 12.68165,-57.58435 28.26757,-85.21495 8.25422,-14.63302 23.31562,-36.9593 31.61585,-46.86574 13.72241,-16.37791 35.8363,-31.66571 57.40285,-39.68381 17.30131,-6.43235 23.768,-7.48199 45.83873,-7.44027 19.38673,0.0366 20.37783,0.16687 32.32158,4.2471 9.18692,3.13843 16.02402,6.66691 26.875,13.86959 26.75452,17.75917 44.22726,36.83264 72.08141,78.68507 29.25329,43.9547 39.60255,71.82865 35.98707,96.92496 -2.36661,16.42734 -13.12989,28.67294 -30.1038,34.24965 -9.33794,3.06794 -26.11326,3.36627 -36.22219,0.64414 z M 215.71427,565.4696 c -30.09728,-8.24366 -54.47598,-32.52325 -66.62216,-66.35133 -9.18817,-25.58977 -7.05964,-61.81796 4.52433,-77.00557 9.5965,-12.58185 22.18493,-18.50049 39.34892,-18.50049 11.94676,0 18.75413,2.29466 31.7526,10.70332 14.79854,9.57314 25.20544,20.61533 34.85768,36.98554 17.81475,30.2139 19.70536,72.91898 4.24034,95.7803 -10.72909,15.86036 -30.18148,23.29659 -48.10171,18.38823 z M 542.4266,554.93688 c -18.59775,-9.39286 -30.387,-31.45234 -30.4356,-56.94967 -0.0831,-43.60458 24.69011,-84.90508 60.04398,-100.10188 6.42788,-2.76302 10.51582,-3.57338 20.24426,-4.01311 11.39987,-0.51526 12.65565,-0.32347 19.375,2.95904 15.02086,7.33794 27.21769,24.7204 30.35181,43.25624 1.79828,10.63535 0.90899,31.484 -1.82986,42.89971 -6.10775,25.45761 -22.19213,50.08076 -40.94934,62.6883 -13.86684,9.32051 -21.61019,11.98589 -36.63758,12.61125 -11.98916,0.49894 -12.81315,0.36204 -20.16267,-3.34987 z M 303.55831,428.67922 c -33.33512,-15.7702 -53.98414,-47.80849 -57.98696,-89.97059 -3.86518,-40.71219 8.82239,-70.78286 35.57632,-84.31911 6.47153,-3.2743 7.79438,-3.48571 19.2962,-3.0838 11.67938,0.40811 12.95004,0.72983 23.45457,5.93842 24.31565,12.05673 42.17345,37.70682 50.12217,71.99307 1.75711,7.57919 2.2976,14.69034 2.23263,29.375 -0.0774,17.47701 -0.41053,20.35719 -3.40134,29.40135 -6.50915,19.6836 -16.70094,32.70585 -31.32161,40.02029 -7.86329,3.93384 -9.63354,4.32827 -19.42147,4.32737 -9.32528,-8.5e-4 -11.81302,-0.49464 -18.55051,-3.682 z m 144.62576,0.7826 c -16.66778,-6.85775 -27.69885,-18.35817 -35.61263,-37.12796 -9.10725,-21.60041 -8.93644,-55.03921 0.42155,-82.52083 4.36047,-12.80541 6.25516,-16.60281 14.08155,-28.22265 7.88525,-11.70724 18.16027,-20.71523 30.78872,-26.99209 17.89375,-8.89395 33.9985,-7.95732 50.29503,2.92508 21.02992,14.04324 31.65811,42.39011 29.64999,79.08073 -1.22907,22.45641 -7.25483,41.77448 -18.31544,58.71763 -8.33668,12.7705 -13.8191,18.54444 -24.09415,25.37528 -18.15503,12.06944 -32.64494,14.75931 -47.21462,8.76481 z"
         id="path3386"
         inkscape:connector-curvature="0" />
      <path
         style="fill:#6b6b6b"
         d="m 506.96427,728.99865 c -4.89157,-0.81884 -14.66897,-4.10644 -26.25,-8.82644 -45.47763,-18.53499 -49.73518,-19.69399 -71.875,-19.56588 -20.68455,0.11975 -32.37786,2.52347 -57.5,11.82013 -44.35654,16.41454 -61.44525,19.35869 -79.55582,13.70637 -19.41958,-6.06083 -34.81918,-27.09253 -34.81918,-47.5536 0,-17.82512 13.73803,-58.34459 29.01977,-85.59202 28.0162,-49.95306 55.05664,-75.05572 94.73023,-87.9417 35.93032,-11.67014 68.11073,-7.51693 98.49703,12.71205 24.5805,16.3639 46.33131,40.18379 72.26709,79.14155 20.83791,31.30034 31.14966,53.19316 35.02082,74.35251 5.3999,29.51539 -6.5082,49.49455 -33.90993,56.89334 -5.88823,1.58989 -18.68103,2.01607 -25.62501,0.85369 z M 215.98369,564.8389 c -45.70734,-11.97528 -78.86592,-65.24933 -71.58882,-115.01775 2.68296,-18.34887 8.46543,-29.21452 20.10126,-37.7716 11.17401,-8.21747 29.57407,-10.7945 43.10834,-6.03758 19.04159,6.69258 39.97895,25.3375 52.16352,46.45211 8.32175,14.42073 14.76231,38.23589 14.65267,54.18091 -0.21139,30.74334 -15.06196,53.49471 -38.52207,59.0166 -8.8062,2.07275 -8.87435,2.06992 -19.9149,-0.82269 z m 333.48059,-7.3956 c -17.23664,-5.26215 -31.03336,-22.41865 -35.52833,-44.18023 -2.45296,-11.87553 -2.46936,-18.39524 -0.0833,-33.10766 5.7957,-35.73544 26.74519,-66.75076 53.73658,-79.55596 23.87042,-11.32458 42.57053,-8.94189 58.01892,7.3925 15.92935,16.84293 21.04849,42.37567 14.55311,72.58662 -7.9541,36.99575 -34.63695,68.17879 -65.13741,76.12315 -7.68491,2.00167 -20.239,2.3659 -25.55962,0.74158 z M 300.87811,426.7103 c -30.9702,-15.56998 -51.00266,-47.815 -55.17245,-88.80774 -3.84472,-37.79702 8.3501,-67.61066 33.55335,-82.0305 6.0586,-3.46638 8.48946,-4.08717 17.7354,-4.52922 9.4645,-0.4525 11.72833,-0.11033 19.40468,2.93304 11.94566,4.73598 20.18556,10.42984 29.72003,20.53689 13.27024,14.06715 21.4515,30.2728 27.1601,53.79944 4.11725,16.9683 4.18409,41.49505 0.15142,55.56866 -6.00685,20.96331 -16.87365,35.77358 -31.86273,43.42546 -6.42427,3.27958 -9.52182,4.03374 -18.35364,4.46855 -10.59565,0.52164 -10.65736,0.50683 -22.33616,-5.36458 z m 150.44484,3.4799 c -9.99071,-3.57659 -17.21834,-8.40718 -24.74851,-16.54066 -16.84052,-18.18977 -23.79305,-46.64806 -19.12583,-78.28619 4.3775,-29.67415 14.8876,-51.36527 33.00388,-68.11454 19.02111,-17.58583 40.29257,-22.70619 58.91332,-14.18133 25.80029,11.81176 40.42399,42.68859 38.44314,81.16973 -1.61621,31.39752 -12.12767,56.87717 -31.46968,76.28216 -18.15257,18.2117 -38.63517,25.53515 -55.01632,19.67083 z"
         id="path3384"
         inkscape:connector-curvature="0" />
      <path
         style="fill:#505050"
         d="m 505.08927,728.09936 c -7.14918,-1.63171 -14.50221,-4.35238 -42.32501,-15.66046 -26.24569,-10.6671 -31.77025,-11.89984 -53.29999,-11.89316 -23.66046,0.007 -30.79121,1.47934 -61.875,12.77296 -26.7855,9.73192 -41.68191,13.79052 -54.375,14.81475 -27.18543,2.19365 -49.63678,-15.24214 -55.16063,-42.83791 -1.3831,-6.90965 -1.24658,-9.00663 1.34278,-20.625 7.86119,-35.27272 19.44119,-61.48074 42.41582,-95.99602 10.66108,-16.0164 26.36478,-33.27696 38.63712,-42.46762 18.89696,-14.1518 43.65874,-23.88645 67.50378,-26.53789 25.05356,-2.78582 46.76217,2.79978 69.9636,18.00155 14.82237,9.71175 35.24787,28.94931 49.44218,46.56665 5.53919,6.875 16.47518,22.2073 24.30219,34.07177 20.73059,31.42419 29.75859,50.48319 34.17299,72.14263 2.17938,10.69316 2.34174,13.62406 1.14258,20.625 -1.9666,11.48138 -5.30169,17.62687 -13.87187,25.56134 -5.7864,5.35717 -9.31257,7.48294 -15.85355,9.55734 -10.67963,3.38692 -22.57853,4.09137 -32.16199,1.90407 z M 217.76322,564.67266 c -39.0798,-9.226 -69.87879,-48.91465 -74.029,-95.39636 -0.91377,-10.23411 1.97438,-29.3399 5.71274,-37.79109 7.19747,-16.27106 24.94308,-27.873 42.63283,-27.873 25.9362,0 60.69465,29.90895 74.13422,63.79101 6.94644,17.51244 9.2474,36.23862 6.44584,52.45899 -2.53936,14.70229 -6.27263,23.05131 -14.00264,31.31533 -7.4268,7.93985 -13.9298,11.81942 -23.58485,14.07032 -6.74491,1.57245 -8.45239,1.51571 -17.30914,-0.5752 z m 330.82586,-8.38809 c -18.08715,-6.24966 -30.0134,-22.13125 -34.85775,-46.4183 -1.84678,-9.2588 -1.91943,-12.1423 -0.56649,-22.48341 3.74656,-28.63659 13.92311,-50.69075 32.09065,-69.54546 19.82839,-20.57838 47.44532,-29.0703 65.57894,-20.16486 9.16842,4.50262 20.18612,16.11847 24.85576,26.20517 7.6484,16.521 8.9167,32.98008 4.26589,55.3595 -7.83163,37.68529 -35.8536,70.14184 -66.87069,77.4532 -10.4026,2.45211 -16.51839,2.35079 -24.49631,-0.40584 z M 311.96427,431.26395 c -1.71875,-0.56818 -6.50136,-2.74132 -10.62801,-4.82916 -25.53347,-12.91852 -43.68399,-37.00333 -51.77891,-68.70804 -8.04375,-31.50424 -4.80565,-60.62141 9.04456,-81.32919 21.25161,-31.7738 53.11155,-33.48168 83.36453,-4.46881 16.22681,15.56166 24.28062,30.53705 30.82066,57.30846 10.45209,42.78517 -3.50535,84.64769 -32.79185,98.3525 -8.71678,4.07906 -21.67023,5.77699 -28.03098,3.67424 z m 142.36559,-0.71357 c -21.24262,-5.85812 -39.556,-27.157 -45.31264,-52.69962 -3.4028,-15.09849 -3.7716,-24.92858 -1.51236,-40.31063 4.49474,-30.60237 13.99388,-50.83837 32.16054,-68.51155 9.90066,-9.63172 18.6051,-14.75358 30.72316,-18.07813 8.36084,-2.29376 10.31937,-2.42043 17.07249,-1.10415 23.09562,4.50164 41.92366,25.67383 47.81305,53.76591 4.79568,22.87516 2.0505,51.0477 -7.12085,73.0783 -10.95675,26.31929 -33.21884,48.02942 -55.27029,53.89996 -7.79271,2.07458 -10.90933,2.06785 -18.5531,-0.0401 z"
         id="path3382"
         inkscape:connector-curvature="0" />
      <path
         style="fill:#2c2c2c"
         d="m 506.96427,727.74865 c -4.89157,-0.81884 -14.66897,-4.10644 -26.25,-8.82644 -45.47763,-18.53499 -49.73518,-19.69399 -71.875,-19.56588 -20.68455,0.11975 -32.37786,2.52347 -57.5,11.82013 -23.82581,8.81696 -33.85552,12.01127 -44.6348,14.21552 -33.21503,6.79215 -57.44952,-5.26571 -66.02142,-32.84895 -3.13644,-10.09262 -3.11342,-17.2141 0.10025,-31.01962 8.96165,-38.49814 27.80601,-77.0091 53.72109,-109.7862 29.6087,-37.44875 80.1328,-57.91353 123.70988,-50.10868 28.74254,5.14792 59.80522,26.76845 87.08293,60.61231 13.765,17.07841 37.63434,52.94597 44.69286,67.15827 13.6397,27.46344 18.44019,46.41664 15.89805,62.7683 -2.88189,18.53701 -13.20361,29.3016 -33.29884,34.72755 -5.88822,1.58989 -18.68102,2.01607 -25.625,0.85369 z M 216.18011,563.63878 c -39.29876,-10.30321 -68.65665,-49.46313 -71.24068,-95.02657 -1.11595,-19.67714 3.92226,-39.72218 12.25654,-48.7639 8.9667,-9.72783 21.24572,-14.9861 34.99522,-14.9861 14.87527,0 30.33393,7.34941 45.73058,21.7414 17.86952,16.70348 29.11312,37.62552 33.27412,61.91638 2.43392,14.20853 2.47852,21.39756 0.21165,34.11052 -4.0647,22.79535 -16.37222,37.2768 -35.50895,41.78108 -8.79132,2.06923 -8.89358,2.06522 -19.71848,-0.77281 z m 333.28417,-7.44548 c -16.86404,-5.14839 -29.82792,-21.38438 -34.27833,-42.93023 -2.45296,-11.87553 -2.46936,-18.39524 -0.0833,-33.10766 5.76329,-35.53559 26.0308,-65.77513 52.48658,-78.311 23.56039,-11.16394 42.73758,-8.88509 57.43227,6.82471 28.42499,30.38861 19.1529,95.14638 -18.55797,129.61199 -7.91793,7.23655 -21.24564,14.5154 -31.43968,17.17061 -7.68491,2.00167 -20.239,2.3659 -25.55962,0.74158 z M 300.91775,425.48014 c -30.4213,-15.29424 -49.81026,-46.76149 -53.96209,-87.57758 -3.80285,-37.38536 7.98424,-66.86652 32.29573,-80.77614 6.06698,-3.47118 8.49432,-4.09139 17.74302,-4.53358 9.4645,-0.4525 11.72833,-0.11033 19.40468,2.93304 28.01306,11.10606 46.47697,35.36376 55.63013,73.08633 4.11725,16.9683 4.18409,41.49505 0.15142,55.56866 -5.95947,20.79793 -16.12268,34.77703 -30.69182,42.21539 -6.33955,3.2367 -9.4691,3.99511 -18.27455,4.42862 -10.59126,0.52143 -10.66206,0.50446 -22.29652,-5.34474 z m 150.4052,3.46006 c -20.44801,-7.32023 -35.5017,-25.3389 -41.25504,-49.38068 -6.00302,-25.0851 -1.5178,-60.79733 10.63744,-84.69731 14.4392,-28.39078 41.82705,-47.1873 64.81799,-44.48517 25.47102,2.99362 44.67386,25.58943 49.70975,58.49301 5.84131,38.16619 -5.46839,76.86677 -29.51882,101.0102 -17.49527,17.56292 -38.25362,24.83712 -54.39132,19.05995 z"
         id="path3380"
         inkscape:connector-curvature="0" />
      <path
         style="fill:#000000"
         d="m 503.70458,726.138 c -2.82409,-0.5966 -10.98034,-3.43279 -18.125,-6.30265 -30.38739,-12.20598 -37.35447,-14.81738 -48.61531,-18.22192 -10.56408,-3.19388 -13.66887,-3.58041 -28.125,-3.50142 -20.00813,0.10937 -32.68288,2.97979 -64.375,14.57896 -30.58047,11.19234 -37.55261,12.79624 -55.625,12.79624 -14.04383,0 -15.47373,-0.2326 -22.43191,-3.64901 -15.24874,-7.48703 -25.56941,-22.94839 -26.6598,-39.93894 -1.38636,-21.60248 13.24004,-63.72004 34.05729,-98.0699 21.97295,-36.25688 39.47675,-54.18318 66.30761,-67.90813 20.02607,-10.24405 38.914,-14.86296 60.37977,-14.76541 21.67773,0.0985 38.30931,5.50855 58.69033,19.09125 24.22428,16.144 43.91558,37.77735 69.86268,76.75285 20.61261,30.96249 31.22906,53.05951 34.92165,72.68576 5.03478,26.76012 -3.64518,46.06292 -24.31875,54.08083 -7.84362,3.04202 -26.83733,4.29519 -35.94356,2.37149 z M 216.69975,562.99113 c -16.57246,-4.17629 -35.58123,-16.78748 -46.8292,-31.06838 -8.22245,-10.43956 -18.21829,-30.47476 -20.98459,-42.06054 -4.7299,-19.80967 -3.56356,-44.96205 2.74119,-59.11435 4.10109,-9.20576 14.00086,-18.48839 23.51319,-22.0474 8.49923,-3.17998 23.91841,-3.49999 31.97927,-0.66371 19.05873,6.70593 38.85146,24.47843 50.75613,45.57546 19.4705,34.5049 18.30458,80.73645 -2.51033,99.54147 -10.54261,9.52462 -25.15465,13.24225 -38.66566,9.83745 z m 327.13953,-10.38214 c -9.68407,-4.73674 -16.06612,-11.26736 -21.47774,-21.97768 -16.43608,-32.52927 -5.66486,-82.09297 24.47056,-112.60114 13.7853,-13.95581 30.9915,-21.84503 47.74503,-21.8916 8.09083,-0.0225 10.60265,0.53071 17.05907,3.75703 31.05385,15.51778 38.31061,64.32046 16.11726,108.39057 -9.7167,19.29479 -22.46555,32.32624 -40.27417,41.16689 -11.00748,5.4644 -12.32822,5.81284 -23.89574,6.30423 -11.54092,0.49026 -12.6751,0.30941 -19.74427,-3.1483 z M 300.19044,423.95546 c -29.63456,-15.48124 -48.08238,-45.8443 -52.06638,-85.69553 -3.88021,-38.81305 8.18068,-68.19086 33.2113,-80.89574 7.50475,-3.80921 8.44586,-3.97903 19.56891,-3.53116 10.6119,0.42729 12.60337,0.925 21.685,5.41958 17.65482,8.73751 33.26332,26.8254 42.24061,48.95048 6.33654,15.61678 8.84471,29.49573 8.88388,49.15912 0.042,21.09045 -1.65332,28.9606 -9.4883,44.04631 -6.33624,12.19999 -13.03721,18.94649 -24.10092,24.26465 -7.69752,3.70008 -9.8861,4.18423 -18.75,4.14776 -9.47937,-0.039 -10.65285,-0.3639 -21.1841,-5.86547 z m 152.8424,4.76587 c -8.05409,-2.61324 -19.15615,-9.77651 -24.91058,-16.07276 -31.12912,-34.06023 -24.27806,-109.55049 13.03729,-143.65461 31.9035,-29.158 69.37489,-21.44914 87.23804,17.94719 7.32835,16.16233 9.22757,47.56755 4.25857,70.41903 -6.30646,29.00225 -24.21216,54.26517 -46.89306,66.16078 -9.35656,4.90731 -11.61923,5.5756 -19.9874,5.90348 -5.19004,0.20335 -10.92433,-0.113 -12.74286,-0.70311 z"
         id="path3378"
         inkscape:connector-curvature="0" />
    </g>
  </g>
</svg>
