<?xml version="1.0" encoding="UTF-8" standalone="no"?>
<!-- Created with Inkscape (http://www.inkscape.org/) -->

<svg
   xmlns:dc="http://purl.org/dc/elements/1.1/"
   xmlns:cc="http://creativecommons.org/ns#"
   xmlns:rdf="http://www.w3.org/1999/02/22-rdf-syntax-ns#"
   xmlns:svg="http://www.w3.org/2000/svg"
   xmlns="http://www.w3.org/2000/svg"
   xmlns:sodipodi="http://sodipodi.sourceforge.net/DTD/sodipodi-0.dtd"
   xmlns:inkscape="http://www.inkscape.org/namespaces/inkscape"
   width="210mm"
   height="297mm"
   viewBox="0 0 744.09448819 1052.3622047"
   id="svg2"
   version="1.1"
   inkscape:version="0.91 r13725"
   sodipodi:docname="telefono.svg">
  <defs
     id="defs4" />
  <sodipodi:namedview
     id="base"
     pagecolor="#ffffff"
     bordercolor="#666666"
     borderopacity="1.0"
     inkscape:pageopacity="0.0"
     inkscape:pageshadow="2"
     inkscape:zoom="0.35"
     inkscape:cx="375"
     inkscape:cy="520"
     inkscape:document-units="px"
     inkscape:current-layer="layer1"
     showgrid="false"
     inkscape:window-width="1366"
     inkscape:window-height="705"
     inkscape:window-x="-8"
     inkscape:window-y="-8"
     inkscape:window-maximized="1" />
  <metadata
     id="metadata7">
    <rdf:RDF>
      <cc:Work
         rdf:about="">
        <dc:format>image/svg+xml</dc:format>
        <dc:type
           rdf:resource="http://purl.org/dc/dcmitype/StillImage" />
        <dc:title></dc:title>
      </cc:Work>
    </rdf:RDF>
  </metadata>
  <g
     inkscape:label="Capa 1"
     inkscape:groupmode="layer"
     id="layer1">
    <g
       id="g3405"
       transform="translate(-2.8571429,-20)">
      <path
         style="fill:#fcfdfd"
         d="m 203.57144,523.79077 0,-165 165,0 165,0 0,165 0,165 -165,0 -165,0 0,-165 z"
         id="path3421"
         inkscape:connector-curvature="0" />
      <path
         style="fill:#dce8f5"
         d="m 366.32144,671.21299 c -9.46929,-0.57846 -18.77531,-1.6998 -23.4,-2.81961 -1.32,-0.31962 -4.155,-0.99546 -6.3,-1.50183 -2.145,-0.5064 -4.71,-1.18182 -5.7,-1.50096 -0.99,-0.31914 -3.285,-1.04985 -5.1,-1.62381 -10.58081,-3.34593 -21.97325,-8.69055 -32.4,-15.20007 -2.28901,-1.42905 -8.79639,-5.85437 -9.63173,-6.55002 -0.51245,-0.42676 -1.64459,-1.31592 -2.51588,-1.97592 -1.71586,-1.29976 -5.17782,-4.13859 -7.79125,-6.38887 -4.95022,-4.26236 -13.26014,-13.06522 -18.49515,-19.59225 -4.19413,-5.22928 -9.35202,-12.72845 -11.73986,-17.06888 -0.59002,-1.0725 -1.24526,-2.15399 -1.45608,-2.40332 -0.66415,-0.78546 -5.99478,-11.68403 -7.60203,-15.5425 -2.06442,-4.95595 -4.60235,-11.95801 -5.40211,-14.90418 -0.35832,-1.32 -0.83821,-2.88956 -1.06643,-3.4879 -0.22821,-0.59835 -0.82824,-2.89335 -1.3334,-5.1 -0.50516,-2.20665 -1.12073,-4.8221 -1.36794,-5.8121 -1.24773,-4.99668 -2.39562,-14.61226 -2.88758,-24.18844 -0.5071,-9.87086 0.17221,-21.64162 1.85032,-32.06156 0.57348,-3.56097 0.82883,-4.76626 2.51044,-11.85 1.54051,-6.48934 4.48329,-15.28123 7.7242,-23.07692 1.57967,-3.79974 6.90542,-14.67924 7.57072,-15.46555 0.21292,-0.25164 0.86987,-1.33503 1.45989,-2.40753 1.11513,-2.02698 2.69094,-4.50622 5.39062,-8.4811 8.51132,-12.53167 20.34405,-25.07378 32.63325,-34.58963 0.7425,-0.57494 1.91251,-1.49417 2.60003,-2.04273 1.6631,-1.32697 10.09986,-6.90785 13.29997,-8.79787 17.1115,-10.10623 37.94618,-17.09648 57.85581,-19.41121 17.0084,-1.97742 35.66019,-0.90532 51.72892,2.97338 14.26583,3.44351 29.03734,9.36354 41.01527,16.43783 3.24043,1.91383 11.69245,7.50865 13.18968,8.73091 0.62686,0.51173 1.84881,1.47042 2.71546,2.13042 5.2613,4.00676 8.30231,6.6953 14.25527,12.60299 9.27259,9.20207 18.77065,21.37149 23.76346,30.44701 0.59002,1.0725 1.24526,2.15399 1.45608,2.40332 0.66416,0.78546 5.99477,11.68403 7.60202,15.5425 2.06442,4.95595 4.60236,11.95801 5.40213,14.90418 0.35832,1.32 0.8415,2.89781 1.07376,3.50624 0.23226,0.60843 0.77535,2.63343 1.2069,4.5 0.43155,1.86657 1.04112,4.47376 1.35459,5.79376 2.34234,9.86344 3.63573,26.22806 3.0201,38.21156 -0.49197,9.57618 -1.63986,19.19176 -2.88759,24.18844 -0.2472,0.99 -0.86277,3.60545 -1.36794,5.8121 -0.50517,2.20665 -1.10346,4.50165 -1.32957,5.1 -0.22611,0.59834 -0.77685,2.3704 -1.22385,3.9379 -0.97209,3.40868 -3.20295,9.54507 -5.28123,14.52692 -1.58274,3.79398 -6.91944,14.69754 -7.57326,15.47308 -0.20866,0.2475 -0.86212,1.3275 -1.45214,2.4 -3.58497,6.51646 -10.58262,16.08918 -17.26616,23.61995 -2.96557,3.3415 -10.51861,10.93863 -12.96549,13.04118 -2.66461,2.28965 -6.09567,5.10193 -7.79461,6.38887 -0.87129,0.66 -2.00343,1.54742 -2.51588,1.97205 -0.95914,0.79476 -6.85608,4.79716 -9.78173,6.6391 -9.95274,6.26607 -21.74547,11.79305 -32.25,15.11486 -1.815,0.57396 -4.11,1.30467 -5.1,1.62381 -0.99,0.31914 -3.555,0.99456 -5.7,1.50096 -2.145,0.50637 -4.98,1.18221 -6.3,1.50183 -2.99346,0.72483 -11.64413,1.95219 -16.77482,2.38002 -4.15384,0.34635 -15.96152,0.62064 -18.92518,0.43959 z m 47.55,-49.56078 c 1.0725,-0.33671 3.57,-1.08197 5.55,-1.65615 4.39047,-1.27318 10.07811,-3.31161 14.10362,-5.05469 3.50595,-1.51812 10.46186,-5.11334 11.54638,-5.96785 l 0.75,-0.59095 -0.64601,-0.5209 c -0.35531,-0.2865 -1.77281,-1.39398 -3.15,-2.46108 -1.3772,-1.0671 -4.73149,-3.7046 -7.45399,-5.86111 -2.7225,-2.15651 -6.03,-4.76315 -7.35,-5.79253 -2.69256,-2.09976 -7.07769,-5.55196 -11.88459,-9.35618 -1.77216,-1.4025 -4.52714,-3.5625 -6.12216,-4.8 -1.59503,-1.2375 -4.00102,-3.12887 -5.34665,-4.20304 -1.34563,-1.07418 -3.35785,-2.6627 -4.47159,-3.53006 l -2.025,-1.57701 -1.48277,0.75137 c -4.4816,2.271 -10.68427,2.98601 -14.72997,1.69797 -3.76591,-1.19895 -6.47972,-3.52284 -9.50493,-8.13923 -1.02721,-1.5675 -2.15122,-3.22125 -2.49781,-3.675 l -0.63017,-0.825 -5.60218,-0.003 c -9.57373,-0.005 -27.18847,-0.84203 -31.40218,-1.49234 -3.73619,-0.5766 -6.15,-0.66988 -6.15,-0.23766 0,0.40827 5.07241,7.86198 7.50799,11.0327 0.44361,0.5775 1.96683,2.6025 3.38494,4.5 1.41811,1.8975 3.09109,4.08658 3.71773,4.86462 0.62664,0.77804 1.54168,1.92554 2.03343,2.55 2.67578,3.39789 8.96166,10.39539 12.90571,14.36675 7.50898,7.56098 12.04017,11.34106 19.73691,16.46524 7.76978,5.17282 15.80357,8.48255 24.06329,9.91352 3.68199,0.6379 12.59537,0.40333 15.15,-0.39869 z m 39.7597,-21.88644 c 0.75743,-2.43375 1.56314,-4.965 1.79046,-5.625 0.92454,-2.68422 1.06886,-3.67648 0.74492,-5.12194 -0.33094,-1.47675 -2.2602,-4.51766 -3.26011,-5.13863 -0.31933,-0.19831 -2.33335,-1.75081 -4.47558,-3.45 -2.14225,-1.69919 -4.60227,-3.62943 -5.46673,-4.28943 -0.86446,-0.66 -2.1466,-1.6725 -2.84921,-2.25 -0.7026,-0.5775 -2.52058,-1.995 -4.03996,-3.15 -1.51937,-1.155 -3.59297,-2.73758 -4.60799,-3.51685 -3.43364,-2.63613 -4.24198,-3.25262 -5.7455,-4.38189 -3.17778,-2.38679 -5.96756,-3.82348 -8.32997,-4.2898 -1.63501,-0.32273 -1.81617,-0.29684 -3.3,0.47179 -7.86372,4.07342 -11.32003,5.94338 -11.32003,6.12444 0,0.11783 0.68885,0.7493 1.53078,1.40327 0.84193,0.65397 2.15818,1.69607 2.925,2.31577 0.76682,0.61971 2.11927,1.68226 3.00544,2.36123 0.88617,0.67896 1.84652,1.45444 2.1341,1.72326 0.28758,0.26883 2.51705,2.04128 4.95439,3.93878 2.43733,1.8975 5.00656,3.9225 5.7094,4.5 0.70283,0.5775 2.06831,1.6782 3.03438,2.44601 0.96608,0.7678 3.51163,2.7928 5.65677,4.5 2.14514,1.70719 4.41734,3.50899 5.04933,4.00399 0.63199,0.495 1.73511,1.3725 2.45139,1.95 0.71628,0.5775 2.29158,1.82492 3.50067,2.77204 1.20909,0.94712 3.14335,2.46996 4.29835,3.3841 3.47133,2.74742 4.7886,3.72859 5.01628,3.73642 0.11896,0.004 0.836,-1.98381 1.59342,-4.41756 z"
         id="path3419"
         inkscape:connector-curvature="0" />
      <path
         style="fill:#6790cb"
         d="m 365.42144,670.61323 c -9.00891,-0.55158 -18.916,-1.71789 -22.65,-2.66643 -0.9075,-0.23055 -3.27,-0.77892 -5.25,-1.21863 -3.49627,-0.77646 -4.42752,-1.0425 -11.4,-3.25689 -9.1241,-2.89773 -21.93741,-8.69174 -29.32179,-13.25894 -1.44199,-0.89187 -2.70314,-1.62157 -2.80256,-1.62157 -0.0994,0 -0.5396,-0.27185 -0.9782,-0.60411 -0.4386,-0.33226 -2.28245,-1.59545 -4.09745,-2.80709 -1.815,-1.21164 -4.25514,-2.93104 -5.42253,-3.82089 -1.1674,-0.88985 -2.6524,-2.01824 -3.3,-2.50754 -5.26794,-3.98016 -15.09895,-13.32171 -20.05487,-19.05636 -6.43878,-7.45055 -12.99785,-16.50804 -16.29647,-22.50401 -0.59002,-1.0725 -1.24181,-2.1525 -1.44841,-2.4 -0.56728,-0.67955 -5.57955,-10.68478 -6.86408,-13.7017 -0.62017,-1.45657 -1.31144,-3.0533 -1.53614,-3.5483 -0.99205,-2.18537 -3.87056,-10.213 -4.84078,-13.5 -1.97796,-6.70111 -2.19222,-7.49482 -2.9559,-10.95 -2.96381,-13.40949 -4.16928,-27.80932 -3.48216,-41.59605 0.61854,-12.41081 1.3963,-18.02914 4.10506,-29.65395 1.3446,-5.77045 5.21392,-17.58263 7.17378,-21.9 0.2247,-0.495 0.9249,-2.115 1.55599,-3.6 1.28547,-3.02477 6.26446,-12.95416 6.84466,-13.65 0.20636,-0.2475 0.89447,-1.395 1.52911,-2.55 0.63465,-1.155 1.60139,-2.72362 2.14832,-3.48583 0.54693,-0.76221 0.99442,-1.49149 0.99442,-1.62064 0,-0.12915 0.4109,-0.78802 0.91311,-1.46417 0.50221,-0.67615 2.01144,-2.78186 3.35384,-4.67936 7.8024,-11.02877 18.52409,-22.16784 29.52674,-30.67617 0.80097,-0.61939 2.19881,-1.69958 3.10631,-2.40043 2.12455,-1.64076 9.61274,-6.59843 12.9,-8.54065 3.31802,-1.9604 12.6263,-6.77827 14.55,-7.53094 0.825,-0.32279 2.3775,-0.98484 3.45,-1.47123 1.0725,-0.48639 3.03,-1.26629 4.35,-1.73312 1.32,-0.46683 2.535,-0.94322 2.7,-1.05864 0.48547,-0.33958 10.83691,-3.48536 14.1,-4.28495 6.37347,-1.56176 8.57376,-2.00125 13.65,-2.72647 8.16989,-1.1672 13.22977,-1.50011 22.8,-1.50011 17.26454,0 29.03276,1.7401 44.85,6.6317 2.97,0.91849 5.535,1.76442 5.7,1.87983 0.165,0.11542 1.38,0.59181 2.7,1.05864 1.32,0.46683 3.2775,1.24673 4.35,1.73312 1.0725,0.48639 2.625,1.14844 3.45,1.47123 1.93362,0.75655 11.24905,5.57984 14.55,7.53361 3.1967,1.89208 11.25415,7.28677 13.67483,9.15569 1.00365,0.77489 2.61696,2.00689 3.58512,2.73777 6.88695,5.19909 16.61507,14.92231 23.88313,23.87112 3.62777,4.46671 9.69228,13.27191 11.88079,17.25 0.59002,1.0725 1.24181,2.1525 1.44841,2.4 0.56728,0.67955 5.57956,10.68478 6.86407,13.7017 0.62019,1.45656 1.31145,3.0533 1.53615,3.5483 0.99204,2.18537 3.87057,10.213 4.84077,13.5 1.97796,6.70111 2.19222,7.49482 2.9559,10.95 2.9637,13.40888 4.1616,27.68396 3.48282,41.50395 -0.53529,10.89923 -1.43688,17.93948 -3.48282,27.19605 -0.77067,3.48686 -1.02084,4.41072 -2.97894,11.00146 -1.00389,3.37898 -3.8643,11.3581 -4.82112,13.44854 -0.22656,0.495 -0.77382,1.7775 -1.21608,2.85 -1.00494,2.43693 -6.66402,13.79114 -7.17715,14.4 -0.20858,0.2475 -0.86199,1.3275 -1.45201,2.4 -3.29862,5.99597 -9.85769,15.05346 -16.29647,22.50401 -4.95591,5.73465 -14.78693,15.0762 -20.05487,19.05636 -0.6476,0.4893 -2.1326,1.61769 -3.3,2.50754 -11.80598,8.99915 -28.30979,17.56193 -42.62253,22.11413 -6.58484,2.09433 -8.17928,2.54259 -12.75,3.58455 -7.30595,1.66548 -12.53246,2.48457 -19.95,3.12645 -3.80127,0.32898 -17.64893,0.61623 -20.7,0.42942 z m 44.88664,-47.82175 c 2.6016,-0.37637 9.51156,-2.33796 14.96336,-4.24778 5.72006,-2.00379 11.01702,-4.28147 15.45,-6.64348 4.95001,-2.63748 5.54593,-3.00536 5.5481,-3.42499 9e-4,-0.20104 -0.77435,-0.93758 -1.7231,-1.63675 -0.94875,-0.69917 -2.67,-2.02716 -3.825,-2.9511 -1.155,-0.92394 -3.45,-2.74361 -5.1,-4.04369 -1.65,-1.30009 -3.69488,-2.91261 -4.54418,-3.58336 -0.8493,-0.67076 -2.32498,-1.82706 -3.27929,-2.56956 -1.8655,-1.45145 -8.62137,-6.76566 -11.07653,-8.71288 -2.47906,-1.96616 -6.46808,-5.09204 -9.74596,-7.63712 -1.70006,-1.32 -3.66472,-2.8725 -4.36591,-3.45 -4.43164,-3.6499 -5.00046,-4.00934 -5.81189,-3.67253 -0.42693,0.17722 -1.62864,0.6799 -2.67047,1.11706 -5.29912,2.22361 -11.26042,2.19301 -15.47133,-0.0794 -2.11211,-1.1398 -4.54783,-3.64608 -6.62327,-6.81513 -0.97254,-1.485 -2.01971,-3.07329 -2.32704,-3.52953 -0.93486,-1.3878 -4.9698,-8.40372 -8.66723,-15.07047 -2.10033,-3.78704 -13.03363,-24.4507 -14.12718,-26.7 -0.4011,-0.825 -1.7494,-3.4575 -2.99623,-5.85 -4.96411,-9.52543 -8.61928,-17.05446 -9.24833,-19.05 -0.4761,-1.51033 -0.70385,-3.15298 -0.8111,-5.85 -0.17715,-4.45489 0.23223,-6.42633 2.06871,-9.96238 1.4437,-2.77976 4.53932,-5.87791 7.37419,-7.38021 l 1.87304,-0.99259 -0.008,-4.25741 c -0.0147,-7.70577 -1.43496,-57.47257 -1.65016,-57.82077 -0.14413,-0.23321 -0.88558,-0.27939 -2.35113,-0.14644 -16.60844,1.50664 -30.17636,8.43635 -37.42923,19.11666 -1.75575,2.58547 -4.0181,7.48701 -4.75087,10.29314 -1.72703,6.61355 -2.14722,12.75345 -1.50602,22.00606 1.39543,20.13608 2.02914,26.04325 4.07435,37.97928 0.7337,4.28193 1.66136,9.14193 2.06147,10.8 0.40011,1.65806 1.00762,4.22966 1.35003,5.71466 1.44215,6.25463 5.06529,17.33543 7.65715,23.41819 2.26194,5.30848 5.86749,12.09037 8.04474,15.13181 0.29529,0.4125 2.09592,3.1125 4.00139,6 1.90548,2.8875 4.15034,6.195 4.98858,7.35 3.21355,4.42788 3.77466,5.19074 6.06815,8.25 1.29883,1.7325 2.7076,3.5729 3.13058,4.08979 0.42299,0.51687 1.44407,1.78745 2.26907,2.82349 7.69457,9.66288 17.19763,19.39362 25.23691,25.84157 4.05077,3.24893 9.65828,7.10197 12.18419,8.37202 0.70339,0.35367 1.4814,0.80568 1.7289,1.00446 0.70705,0.56788 7.74045,3.64002 9.9,4.32426 7.53047,2.38599 14.60632,3.24518 20.13664,2.44512 z m 43.41843,-21.90071 c 3.03027,-9.45233 3.13385,-9.85487 2.94536,-11.44635 -0.34868,-2.9441 -1.81971,-4.56745 -9.76032,-10.77097 -2.20544,-1.72297 -4.52401,-3.53768 -5.15237,-4.03268 -1.79749,-1.416 -10.12687,-7.80594 -15.13774,-11.61303 -5.39642,-4.10001 -10.35283,-5.966 -12.30825,-4.63382 -0.50482,0.34392 -4.8259,2.63818 -10.49175,5.57053 -0.825,0.42697 -1.5,0.94185 -1.5,1.14416 0,0.20232 1.89,1.86759 4.2,3.70061 2.31,1.83301 6.6151,5.24498 9.56689,7.58215 2.95179,2.33717 5.94127,4.7219 6.64328,5.2994 0.70202,0.5775 1.99942,1.62169 2.88311,2.32041 0.8837,0.69873 4.37422,3.45684 7.75672,6.12913 3.3825,2.67229 7.77,6.15148 9.75,7.73154 1.98,1.58005 4.0725,3.24081 4.65,3.69058 0.5775,0.44978 1.7925,1.41013 2.7,2.13413 0.9075,0.72399 1.74065,1.23262 1.85144,1.13028 0.1108,-0.10234 0.74243,-1.87357 1.40363,-3.93607 z M 356.64009,467.96746 c 3.29076,-1.28929 6.5405,-3.85479 8.93717,-7.05541 l 1.14472,-1.52871 -0.28428,-21.27129 c -0.16729,-12.5177 -0.40777,-21.65487 -0.58438,-22.2034 -0.70033,-2.17518 -5.97916,-6.10534 -10.03188,-7.46886 -2.18153,-0.73397 -5.08017,-1.09874 -5.98811,-0.75354 -0.75042,0.28531 -0.76195,0.33832 -0.76584,3.52209 -0.002,1.77784 0.13147,7.68743 0.29697,13.13243 0.1655,5.445 0.43827,15.5025 0.60615,22.35 0.34772,14.18243 0.76449,20.50447 1.42148,21.5626 0.40488,0.65208 0.57934,0.6965 2.05455,0.52312 0.88665,-0.10421 2.32371,-0.46827 3.19345,-0.80903 z"
         id="path3417"
         inkscape:connector-curvature="0" />
      <path
         style="fill:#4776b9"
         d="m 366.62144,670.61278 c -13.12076,-0.79992 -19.43712,-1.74468 -30.9,-4.62177 -7.82384,-1.96374 -15.23928,-4.48914 -22.35,-7.61153 -4.89832,-2.15091 -12.66945,-6.12466 -15.97179,-8.16714 -1.44199,-0.89187 -2.70314,-1.62157 -2.80256,-1.62157 -0.0994,0 -0.53961,-0.2722 -0.9782,-0.60489 -0.4386,-0.33269 -2.55245,-1.77227 -4.69745,-3.19908 -2.145,-1.4268 -4.31928,-2.94335 -4.83173,-3.37011 -0.51245,-0.42676 -1.6446,-1.31592 -2.51588,-1.97592 -10.02965,-7.59746 -21.17675,-18.9953 -29.25239,-29.91039 -2.96587,-4.00869 -6.87,-9.92423 -8.47387,-12.83961 -0.59002,-1.0725 -1.24181,-2.1525 -1.44841,-2.4 -0.56413,-0.67579 -5.57407,-10.67274 -6.86656,-13.7017 -0.62154,-1.45656 -1.37145,-3.1883 -1.66648,-3.8483 -0.29503,-0.66 -0.97636,-2.4825 -1.51407,-4.05 -0.5377,-1.5675 -1.08467,-2.99144 -1.21548,-3.1643 -0.34482,-0.45567 -2.84695,-8.97947 -3.87061,-13.1857 -1.75598,-7.21536 -2.09068,-8.76807 -2.68364,-12.45 -3.24089,-20.12379 -2.55671,-40.09622 2.06381,-60.24559 0.65528,-2.85758 1.39711,-5.76008 1.64851,-6.45 0.2514,-0.68993 0.87839,-2.73941 1.39331,-4.55441 0.51492,-1.815 1.12232,-3.705 1.34978,-4.2 0.22745,-0.495 0.83702,-2.115 1.35459,-3.6 0.51757,-1.485 1.1816,-3.24 1.47562,-3.9 0.29403,-0.66 1.05206,-2.415 1.68452,-3.9 1.29301,-3.03599 6.27007,-12.95792 6.84713,-13.65 0.20636,-0.2475 0.89447,-1.395 1.52911,-2.55 0.63465,-1.155 1.58081,-2.7075 2.10258,-3.45 0.52177,-0.7425 1.02341,-1.5525 1.11475,-1.8 0.15152,-0.41056 2.28029,-3.49059 4.76895,-6.9 7.95683,-10.9007 18.88966,-22.13371 29.65646,-30.47073 0.7425,-0.57494 1.91251,-1.49416 2.60003,-2.04273 1.65207,-1.31818 10.08004,-6.89529 13.29997,-8.80112 3.29889,-1.95255 12.61517,-6.77649 14.55,-7.53394 0.825,-0.32297 2.26992,-0.94024 3.21094,-1.37171 0.94102,-0.43147 2.83102,-1.19101 4.2,-1.68786 1.36898,-0.49685 2.75906,-1.02601 3.08906,-1.17591 1.75918,-0.79907 11.4956,-3.60889 17.1,-4.93486 20.58713,-4.87078 45.11287,-4.87078 65.7,0 5.6044,1.32597 15.34082,4.13579 17.1,4.93486 0.33,0.1499 1.72008,0.67906 3.08906,1.17591 1.36898,0.49685 3.25898,1.25639 4.2,1.68786 0.94102,0.43147 2.38594,1.04874 3.21094,1.37171 1.93483,0.75745 11.25111,5.58139 14.55,7.53394 3.26093,1.9301 11.70229,7.51993 13.18968,8.73416 0.62686,0.51173 1.84881,1.47042 2.71546,2.13042 10.22565,7.78738 21.12268,18.9324 29.24486,29.91039 2.96587,4.00869 6.87,9.92422 8.47387,12.83961 0.59002,1.0725 1.24181,2.1525 1.44841,2.4 0.56413,0.67579 5.57407,10.67274 6.86656,13.7017 0.62154,1.45656 1.37064,3.1883 1.66467,3.8483 0.294,0.66 0.95805,2.415 1.47561,3.9 0.51756,1.485 1.12932,3.105 1.35942,3.6 0.23013,0.495 0.90324,2.62075 1.49586,4.72389 0.59259,2.10314 1.21386,4.12814 1.3806,4.5 1.03605,2.31081 3.83628,16.77504 4.61322,23.82909 1.54428,14.02081 1.18767,28.5702 -1.03911,42.39702 -0.59238,3.67841 -0.92154,5.20598 -2.68275,12.45 -0.97401,4.00613 -3.39639,12.23144 -3.88302,13.18487 -0.17265,0.33832 -0.735,1.83013 -1.24959,3.31513 -0.51462,1.485 -1.17774,3.24 -1.47363,3.9 -0.29589,0.66 -0.90096,2.0775 -1.3446,3.15 -1.01406,2.45143 -6.66984,13.79509 -7.17964,14.4 -0.20858,0.2475 -0.86199,1.3275 -1.45201,2.4 -1.59912,2.90673 -5.48847,8.80136 -8.47387,12.84281 -7.98496,10.80954 -19.26371,22.34077 -29.25239,29.90719 -0.87128,0.66 -2.00343,1.54916 -2.51588,1.97592 -0.82088,0.6836 -7.1806,5.01163 -9.63173,6.55474 -13.07866,8.23368 -27.27087,14.32268 -42,18.01958 -9.48456,2.38056 -15.86146,3.48102 -24.19749,4.17576 -4.14454,0.34542 -15.52722,0.6213 -18.40251,0.44601 z m 50.32391,-49.1045 c 8.59121,-2.49195 15.95319,-5.30836 22.27609,-8.52196 4.90107,-2.49096 7.35,-3.97093 7.35,-4.44184 0,-0.46481 -0.45137,-0.85238 -6.3,-5.40966 -2.2275,-1.73567 -4.67957,-3.65938 -5.44903,-4.27491 -2.16592,-1.7326 -4.36685,-3.46713 -7.15097,-5.63563 -1.4025,-1.09237 -3.9,-3.05143 -5.55,-4.35347 -1.65,-1.30204 -4.8225,-3.79946 -7.05,-5.54983 -5.9669,-4.68879 -9.63295,-7.57818 -13.5,-10.64 -1.8975,-1.50238 -3.62531,-2.80675 -3.83958,-2.8986 -0.21427,-0.0919 -1.30834,0.25649 -2.43127,0.77408 -3.45398,1.59205 -6.57481,2.23083 -10.06459,2.06008 -3.76739,-0.18434 -5.73465,-0.89647 -8.48357,-3.071 -2.90772,-2.30013 -5.87122,-6.74521 -13.20371,-19.80477 -1.41734,-2.52437 -3.82624,-7.00427 -7.58175,-14.1 -0.87329,-1.65 -2.05667,-3.8775 -2.62975,-4.95 -6.70287,-12.54434 -17.18104,-33.34801 -18.03077,-35.79881 -0.95141,-2.74408 -1.36027,-7.17111 -0.95239,-10.31217 0.51389,-3.95751 2.27478,-7.40984 5.18361,-10.16281 1.20657,-1.14191 2.96229,-2.46079 3.90162,-2.93083 0.93931,-0.47004 1.86465,-1.04356 2.05629,-1.27447 0.24983,-0.30102 0.29261,-1.62995 0.15115,-4.69538 -0.10851,-2.35154 -0.32364,-11.95836 -0.47806,-21.34848 -0.31764,-19.31494 -0.49251,-17.84935 2.13193,-17.86751 l 1.37917,-0.01 0.19447,3.375 c 0.10696,1.85625 0.19384,4.86 0.19307,6.675 -9e-4,1.815 0.13326,5.9325 0.29784,9.15 0.16458,3.2175 0.44231,9.2925 0.61718,13.5 0.36039,8.67128 0.54852,9.80308 1.67654,10.0862 3.81489,0.95748 10.50287,-2.8092 14.44634,-8.1362 l 1.3325,-1.8 -0.19952,-2.21771 c -0.20251,-2.25107 -0.26591,-30.93313 -0.0688,-31.13023 0.0591,-0.0591 2.5929,-0.19387 5.63075,-0.29958 4.91465,-0.17102 5.56864,-0.13766 5.93408,0.30266 0.5373,0.64741 0.98655,0.63194 0.87538,-0.0301 -0.0794,-0.47287 0.28176,-0.5334 3.63721,-0.60964 2.27668,-0.0517 3.84577,0.0358 4.035,0.225 0.42417,0.42417 0.80557,0.38929 0.71464,-0.0654 -0.0967,-0.48362 7.2132,-0.7068 7.68536,-0.23464 0.42417,0.42417 0.80557,0.38929 0.71464,-0.0654 -0.0967,-0.48362 7.2132,-0.7068 7.68536,-0.23464 0.42417,0.42417 0.80557,0.38929 0.71464,-0.0654 -0.0561,-0.28068 0.87604,-0.39604 3.7061,-0.45863 3.09877,-0.0686 3.84979,-9e-4 4.16173,0.375 0.51097,0.61566 0.954,0.58088 0.84532,-0.0664 -0.0746,-0.44435 0.23444,-0.55384 2.01185,-0.71274 1.155,-0.10325 3.73722,-0.2045 5.73827,-0.225 2.90116,-0.0297 3.71393,0.0539 4.01173,0.41274 0.5047,0.60812 0.94622,0.56861 0.83815,-0.075 -0.0793,-0.4722 0.27701,-0.53344 3.54275,-0.60888 2.96523,-0.0685 3.70071,2.5e-4 4.01173,0.375 0.51114,0.61588 0.95422,0.58123 0.84552,-0.0661 -0.0801,-0.47688 0.28306,-0.52853 3.96185,-0.56355 2.2275,-0.0212 4.2525,-0.11125 4.5,-0.2001 0.2475,-0.0889 3.285,-0.24196 6.75,-0.34024 11.70109,-0.33186 24.59925,-0.82321 24.71913,-0.94166 0.0655,-0.0647 -0.49906,-0.7616 -1.25462,-1.54858 -8.92205,-9.29302 -13.65226,-13.5972 -20.01451,-18.21193 -1.5675,-1.13695 -3.3225,-2.42127 -3.9,-2.85405 -1.48559,-1.1133 -6.54924,-4.33381 -7.8,-4.96085 -0.5775,-0.28952 -1.2525,-0.70109 -1.5,-0.91461 -0.88496,-0.76344 -11.62764,-6.04674 -15.75,-7.74591 -11.02652,-4.54497 -21.95708,-7.43927 -34.2,-9.05582 -7.0513,-0.93106 -9.40201,-1.0746 -17.55,-1.07169 -8.46687,0.003 -10.07709,0.1094 -18.6,1.22878 -18.84534,2.4751 -37.67207,9.37395 -54.07255,19.81427 -10.29364,6.55279 -20.35725,15.08325 -27.94883,23.69094 -0.80037,0.9075 -1.949,2.19 -2.55251,2.85 -1.82144,1.99191 -5.12559,6.20451 -5.12624,6.53563 -7e-5,0.0354 2.05796,0.0644 4.5734,0.0644 3.86464,0 4.57377,0.0697 4.57513,0.45 0.001,0.32372 0.40148,0.47566 1.4266,0.54144 1.63786,0.10509 1.98363,-0.45598 0.36873,-0.59833 -0.58094,-0.0512 -1.08719,-0.22811 -1.125,-0.39311 -0.0424,-0.18528 1.4612,-0.33208 3.93203,-0.38389 3.80387,-0.0798 4.0086,-0.0539 4.15999,0.525 0.12945,0.49503 0.40513,0.60889 1.47424,0.60889 1.56549,0 1.7717,-0.52352 0.25874,-0.65689 -0.58094,-0.0512 -1.05344,-0.22811 -1.05,-0.39311 0.004,-0.18333 1.43545,-0.3 3.68127,-0.3 3.33358,0 3.66681,0.0488 3.58685,0.525 -0.0656,0.39077 0.11636,0.525 0.71173,0.525 0.68677,0 0.74558,-0.0654 0.41587,-0.46271 -0.22726,-0.27384 -0.27287,-0.56607 -0.11174,-0.71591 0.20445,-0.1901 10.62229,-0.67841 10.62229,-0.49789 0,0.17531 -1.29702,3.39736 -1.93238,4.80039 -0.84962,1.87618 -1.998,6.38719 -2.54154,9.98359 -0.41187,2.72512 -0.42586,14.05458 -0.0235,18.99253 0.16808,2.0625 0.58144,7.26 0.91859,11.55 0.95673,12.17386 3.04765,26.1944 5.25694,35.25 0.5837,2.3925 1.25761,5.17944 1.49758,6.1932 0.23997,1.01376 1.08781,3.98376 1.88409,6.6 4.30831,14.15537 8.13612,22.57117 14.85349,32.6568 7.1204,10.69075 14.51902,20.97018 18.78668,26.10167 0.5775,0.6944 2.535,3.06802 4.35,5.27472 3.87554,4.71195 14.97008,15.97075 19.04807,19.33011 11.49017,9.46535 20.92541,14.57645 31.50193,17.0647 4.39325,1.03356 4.27039,1.023 10.95,0.94057 l 6,-0.074 4.72391,-1.37021 z m 36.33364,-18.29251 c 0.42263,-1.19625 1.19193,-3.5925 1.70955,-5.325 0.51761,-1.7325 1.21219,-3.96 1.54349,-4.95 1.29726,-3.87646 -0.13641,-7.15273 -4.69505,-10.72925 -7.03273,-5.51758 -10.07553,-7.8983 -11.53203,-9.02276 -0.88907,-0.6864 -2.03657,-1.59657 -2.55,-2.02261 -2.21727,-1.83987 -11.66025,-8.92546 -13.80548,-10.35903 -2.96834,-1.98362 -5.80736,-3.10504 -7.88043,-3.11279 -0.63355,-0.002 -2.99377,1.06666 -7.05,3.19319 -5.9537,3.1213 -7.1476,3.84573 -7.1476,4.33697 0,0.21363 2.93628,2.68372 5.13091,4.31628 0.44362,0.33 2.06939,1.61875 3.61283,2.86389 1.54345,1.24514 4.6812,3.74264 6.9728,5.55 2.29159,1.80736 4.74107,3.75861 5.44328,4.33611 0.70221,0.5775 1.99977,1.61901 2.88346,2.31446 0.8837,0.69545 3.36172,2.66007 5.50672,4.36582 5.82629,4.63318 12.55856,9.97034 15.6,12.36725 1.485,1.1703 3.24,2.55635 3.9,3.08009 0.66,0.52374 1.28756,0.95679 1.39457,0.96232 0.10701,0.006 0.54035,-0.96869 0.96298,-2.16494 z m -105.10755,-175.725 c 0,-0.165 -0.54,-0.3 -1.2,-0.3 -0.66,0 -1.29788,-0.0101 -1.4175,-0.0225 -0.11963,-0.0124 -0.26588,0.12262 -0.325,0.3 -0.0673,0.2018 0.46324,0.3225 1.4175,0.3225 0.83875,0 1.525,-0.135 1.525,-0.3 z"
         id="path3415"
         inkscape:connector-curvature="0" />
      <path
         style="fill:#3668b3"
         d="m 366.02144,670.31311 c -9.48694,-0.58011 -18.78701,-1.70139 -23.4,-2.82123 -1.32,-0.32043 -3.885,-0.92649 -5.7,-1.34676 -7.2793,-1.68558 -16.27093,-4.73643 -24.15,-8.19409 -4.61129,-2.02362 -12.43465,-6.03654 -15.67179,-8.03869 -1.44199,-0.89186 -2.70314,-1.62157 -2.80255,-1.62157 -0.0994,0 -0.53962,-0.27185 -0.97821,-0.60411 -0.4386,-0.33226 -2.28245,-1.59545 -4.09745,-2.80709 -1.815,-1.21164 -4.25514,-2.93104 -5.42253,-3.82089 -1.1674,-0.88985 -2.6524,-2.01824 -3.3,-2.50754 -5.35621,-4.04685 -15.00917,-13.21812 -20.04347,-19.04327 -6.44993,-7.46318 -13.00656,-16.51625 -16.30787,-22.5171 -0.59002,-1.0725 -1.24181,-2.1525 -1.44841,-2.4 -0.56413,-0.67579 -5.57407,-10.67274 -6.86656,-13.7017 -0.62154,-1.45657 -1.36779,-3.1883 -1.65834,-3.8483 -0.29056,-0.66 -0.96139,-2.415 -1.49074,-3.9 -0.52936,-1.485 -1.1521,-3.12218 -1.38388,-3.63819 -0.8659,-1.92773 -3.5787,-11.50416 -4.83325,-17.06181 -4.21025,-18.65132 -4.74893,-40.72333 -1.45875,-59.77113 0.73538,-4.25732 2.21009,-11.08988 2.96319,-13.72887 1.29293,-4.53069 2.9848,-9.9931 3.34158,-10.78872 0.22476,-0.5012 0.84175,-2.12628 1.37111,-3.61128 0.52935,-1.485 1.20018,-3.24 1.49074,-3.9 0.29055,-0.66 1.04574,-2.415 1.6782,-3.9 1.29301,-3.03599 6.27007,-12.95792 6.84713,-13.65 0.20636,-0.2475 0.89447,-1.395 1.52911,-2.55 0.63465,-1.155 1.60139,-2.72362 2.14832,-3.48583 0.54693,-0.76221 0.99442,-1.49149 0.99442,-1.62064 0,-0.12915 0.4109,-0.78802 0.91311,-1.46417 0.50221,-0.67615 2.01144,-2.78186 3.35384,-4.67936 8.06258,-11.39653 19.79199,-23.46344 30.68305,-31.56591 0.495,-0.36826 1.5075,-1.14796 2.25,-1.73266 1.76696,-1.39145 9.35873,-6.40363 12.6,-8.31868 3.31595,-1.95917 12.6251,-6.77771 14.55,-7.53127 0.825,-0.32297 2.26992,-0.94024 3.21094,-1.37171 0.94102,-0.43147 2.83102,-1.19101 4.2,-1.68786 1.36898,-0.49685 2.75906,-1.03244 3.08906,-1.19019 0.59674,-0.28527 3.57162,-1.22918 9.3,-2.95084 1.65,-0.4959 4.5525,-1.25018 6.45,-1.67618 1.8975,-0.42599 3.855,-0.90025 4.35,-1.0539 0.495,-0.15366 2.655,-0.55668 4.8,-0.89561 17.13981,-2.70827 33.56019,-2.70827 50.7,0 2.145,0.33893 4.305,0.74195 4.8,0.89561 0.495,0.15365 2.4525,0.62791 4.35,1.0539 1.8975,0.426 4.8,1.18028 6.45,1.67618 5.72838,1.72166 8.70326,2.66557 9.3,2.95084 0.33,0.15775 1.72008,0.69334 3.08906,1.19019 1.36898,0.49685 3.25898,1.25639 4.2,1.68786 0.94102,0.43147 2.38594,1.04874 3.21094,1.37171 1.93483,0.75745 11.25111,5.58139 14.55,7.53394 3.1637,1.87254 11.22366,7.26551 13.68347,9.15569 1.00841,0.77489 2.69591,2.07189 3.75,2.88223 7.23591,5.56264 16.42877,14.76212 23.70961,23.72666 3.62777,4.46671 9.69228,13.27191 11.88079,17.25 0.59002,1.0725 1.24181,2.1525 1.44841,2.4 0.56413,0.67579 5.57407,10.67274 6.86656,13.7017 0.62154,1.45656 1.36779,3.1883 1.65834,3.8483 0.29055,0.66 0.96138,2.415 1.49073,3.9 0.52938,1.485 1.15212,3.12218 1.3839,3.63819 0.35934,0.80003 1.50165,4.50174 3.32094,10.76181 0.23976,0.825 0.84585,3.3225 1.34688,5.55 5.40534,24.03109 4.98336,50.35033 -1.1784,73.5 -0.97254,3.65392 -3.07671,10.57829 -3.50976,11.55 -0.22059,0.495 -0.83418,2.115 -1.36356,3.6 -0.52935,1.485 -1.20168,3.24 -1.49409,3.9 -0.29241,0.66 -0.89466,2.0775 -1.3383,3.15 -1.01406,2.45143 -6.66984,13.79509 -7.17964,14.4 -0.20858,0.2475 -0.86199,1.3275 -1.45201,2.4 -3.30131,6.00085 -9.85794,15.05392 -16.30788,22.5171 -5.03429,5.82515 -14.68725,14.99642 -20.04346,19.04327 -0.6476,0.4893 -2.1326,1.61769 -3.3,2.50754 -14.77746,11.26417 -35.31594,20.96321 -53.12253,25.08644 -1.815,0.42027 -4.38,1.02633 -5.7,1.34676 -2.98838,0.72546 -11.62721,1.95183 -16.8,2.38494 -4.12782,0.34563 -16.46763,0.62169 -19.5,0.43629 z m 47.55,-47.76037 c 1.0725,-0.33723 3.2325,-0.95692 4.8,-1.37709 3.19842,-0.85735 11.42645,-3.77314 15.3,-5.4219 5.53294,-2.35508 13.2,-6.55123 13.2,-7.22432 0,-0.21613 -1.38375,-1.46378 -3.075,-2.77254 -1.69125,-1.30877 -4.8975,-3.81941 -7.125,-5.57921 -8.05943,-6.36718 -10.09324,-7.96701 -12.6,-9.91138 -3.14381,-2.4385 -5.37023,-4.20194 -7.03933,-5.57553 -0.70174,-0.5775 -2.52904,-1.995 -4.06067,-3.15 -1.53163,-1.155 -3.35893,-2.5725 -4.06067,-3.15 -3.22131,-2.65099 -10.41562,-8.24499 -11.08661,-8.6205 -0.46261,-0.25889 -0.93571,-0.14432 -2.34798,0.56858 -0.97274,0.49104 -2.733,1.13935 -3.91168,1.44067 -7.74059,1.97887 -13.41457,0.26401 -17.70491,-5.35101 -3.21366,-4.20592 -9.8571,-15.71337 -17.42786,-30.18774 -1.03564,-1.98 -2.32705,-4.41 -2.86982,-5.4 -3.75598,-6.85089 -17.19865,-33.49862 -17.96701,-35.61642 -0.90738,-2.501 -1.22373,-4.52981 -1.2199,-7.82335 0.004,-3.45259 0.37565,-5.13257 1.80516,-8.16023 1.30889,-2.77218 4.70568,-6.20131 7.54781,-7.61966 1.10359,-0.55075 2.07845,-1.18879 2.16636,-1.41787 0.0879,-0.22908 0.075,-3.24271 -0.0286,-6.69696 l -0.18844,-6.28045 0.75067,-0.18841 c 0.41288,-0.10362 1.27781,-0.14526 1.92208,-0.0925 l 1.17139,0.0959 0.19943,4.047 c 0.38588,7.83072 0.60604,8.403 3.23269,8.403 4.12345,0 9.49665,-3.33553 13.45411,-8.35194 1.09594,-1.38921 1.26377,-1.79756 1.26377,-3.075 0,-1.37126 0.0518,-1.47306 0.75,-1.47306 0.4125,0 0.75,-0.135 0.75,-0.3 0,-0.37783 2.6144,-0.3989 2.75,-0.0222 0.0887,0.24645 26.00362,-0.59863 44.95,-1.46581 9.14802,-0.41871 10.5,-0.40095 10.5,0.13797 0,0.31429 0.31667,0.45 1.05,0.45 0.85,0 1.05,-0.11428 1.05,-0.6 0,-0.53333 0.2,-0.6 1.8,-0.6 1.40836,0 1.8,0.099 1.8,0.45476 0,0.53201 -2.62668,0.62704 30.3,-1.0963 25.68707,-1.34443 31.52279,-1.67906 31.65172,-1.81499 0.0488,-0.0514 -0.36387,-0.97097 -0.91697,-2.04347 -0.5531,-1.0725 -1.01219,-1.71375 -1.02019,-1.425 -0.0126,0.45504 -0.33439,0.525 -2.41456,0.525 -2.19231,0 -2.4,-0.0514 -2.4,-0.59428 0,-0.7349 0.93129,-1.00298 2.98898,-0.86042 0.83126,0.0576 1.50928,0.1047 1.50669,0.1047 -0.003,0 -0.17713,-0.4725 -0.38787,-1.05 -1.21335,-3.32501 -7.14836,-12.38576 -12.80015,-19.54147 -7.56733,-9.58098 -19.86667,-21.06954 -29.67296,-27.71692 -2.94993,-1.99966 -4.79068,-3.18636 -6.78469,-4.37397 -1.155,-0.68791 -2.4681,-1.50375 -2.91799,-1.81299 -1.66901,-1.14719 -12.22064,-6.28305 -16.28201,-7.92503 -8.2375,-3.33037 -17.08183,-5.98123 -25.43781,-7.62434 -3.19901,-0.62904 -10.84254,-1.692 -15.21219,-2.11549 -3.48967,-0.33821 -18.13438,-0.33647 -21.45,0.003 -19.99747,2.0447 -34.39201,6.13925 -51.15,14.54969 -10.07166,5.05472 -21.35118,12.85693 -30.15403,20.85798 -5.24898,4.77088 -13.50969,13.8218 -17.38681,19.05 -3.96682,5.34917 -4.67147,6.37109 -7.44699,10.8 -4.27527,6.82207 -10.04256,18.50039 -8.25217,16.71 0.47049,-0.47049 4.74,-0.49346 4.74,-0.0255 0,0.20543 0.28532,0.14756 0.73945,-0.15 0.98545,-0.64569 5.86055,-0.70621 5.86055,-0.0727 0,0.32791 -1.21554,0.45614 -5.96929,0.62971 l -5.96929,0.21797 -0.9626,2.08839 c -0.52943,1.14862 -0.9145,2.12432 -0.85571,2.16822 0.1514,0.11308 20.69076,-0.64338 26.80689,-0.9873 20.24834,-1.13856 24.47791,-1.32006 24.72827,-1.06119 0.15024,0.15534 0.42341,2.57744 0.60705,5.38244 0.81723,12.48253 1.7147,19.89361 4.03258,33.3 0.57055,3.3 1.18832,6.6075 1.37281,7.35 0.1845,0.7425 0.72908,3.0375 1.21018,5.1 3.46356,14.84847 9.08117,29.49603 14.84266,38.70128 2.11874,3.38516 9.35268,14.0516 12.00645,17.70352 0.99,1.36236 1.99948,2.76236 2.24328,3.11111 0.2438,0.34875 1.99346,2.65909 3.88813,5.13409 20.40673,26.65725 39.4818,41.76315 58.51859,46.34194 4.20899,1.01236 5.91235,1.17545 11.25,1.07712 4.11227,-0.0757 5.47766,-0.21269 7.05,-0.70709 z m -152.4,-165.81197 c 1.0406,-0.59486 3.3,-0.59486 3.3,0 0,0.3566 -0.42028,0.4478 -2.025,0.43937 -1.90755,-0.01 -1.9815,-0.0355 -1.275,-0.43937 z m 8.1,-0.15 c 0.58696,-0.37932 1.2,-0.37932 1.2,0 0,0.165 -0.37125,0.29793 -0.825,0.29541 -0.64288,-0.004 -0.72566,-0.0688 -0.375,-0.29541 z m -19.85625,-1.10493 c 0.21656,-0.0867 0.47531,-0.076 0.575,0.0237 0.0997,0.0997 -0.0775,0.17059 -0.39375,0.15756 -0.34948,-0.0144 -0.42057,-0.0855 -0.18125,-0.18125 z m 44.38125,-1.50679 c 0.37125,-0.0715 0.97875,-0.0715 1.35,0 0.37125,0.0715 0.0675,0.13001 -0.675,0.13001 -0.7425,0 -1.04625,-0.0585 -0.675,-0.13001 z m 54.975,-0.53828 c 0,-0.2475 0.135,-0.45 0.3,-0.45 0.165,0 0.3,0.2025 0.3,0.45 0,0.2475 -0.135,0.45 -0.3,0.45 -0.165,0 -0.3,-0.2025 -0.3,-0.45 z m 19.5,-0.45 c 0.59136,-0.38217 2.31381,-0.38217 2.55,0 0.11483,0.18581 -0.42085,0.29825 -1.40729,0.29541 -1.13898,-0.003 -1.46451,-0.0874 -1.14271,-0.29541 z m 5.7,-0.3 c 0.59494,-0.38448 5.01238,-0.38448 5.25,0 0.11886,0.19232 -0.87079,0.29835 -2.75729,0.29541 -2.01077,-0.003 -2.8002,-0.0967 -2.49271,-0.29541 z m 6,-0.2691 c 0.51841,-0.28899 15.66608,-1.0546 33.34127,-1.68518 7.0032,-0.24984 12.55671,-0.57504 13.05,-0.76419 0.4723,-0.18109 1.39647,-0.24439 2.05371,-0.14066 0.65724,0.10373 5.62925,0.0307 11.04891,-0.16222 6.40279,-0.22796 9.9564,-0.24836 10.14652,-0.0582 0.19011,0.19011 -1.57817,0.36594 -5.04892,0.50205 -2.93782,0.11522 -6.55649,0.33762 -8.04149,0.49423 -2.67543,0.28216 -50.4231,2.09079 -54.75,2.07387 -1.36935,-0.005 -2.07387,-0.10699 -1.8,-0.25966 z m -99.675,-0.22958 c 0.20625,-0.0832 0.54375,-0.0832 0.75,0 0.20625,0.0832 0.0375,0.15131 -0.375,0.15131 -0.4125,0 -0.58125,-0.0681 -0.375,-0.15131 z m 112.13633,-1.88299 c -0.0868,-0.1405 0.0395,-0.33121 0.28079,-0.42379 0.24127,-0.0926 0.50971,-0.0534 0.59655,0.0871 0.0868,0.1405 -0.0395,0.33121 -0.28079,0.42379 -0.24127,0.0926 -0.50971,0.0534 -0.59655,-0.0871 z m 8.4,-0.3 c -0.0868,-0.1405 0.0395,-0.33121 0.28079,-0.42379 0.24126,-0.0926 0.50971,-0.0534 0.59655,0.0871 0.0868,0.1405 -0.0395,0.33121 -0.28079,0.42379 -0.24126,0.0926 -0.50971,0.0534 -0.59655,-0.0871 z m 51.13867,-0.61833 c 0.59326,-0.38339 3.21305,-0.38339 3.45,0 0.11677,0.18894 -0.57082,0.2983 -1.85729,0.29541 -1.42961,-0.003 -1.90765,-0.0919 -1.59271,-0.29541 z m 8.50391,-0.34021 c 0.39698,-0.23075 0.64772,-0.22816 0.885,0.009 0.24145,0.24145 0.0915,0.32862 -0.55391,0.32196 -0.77583,-0.008 -0.81668,-0.0488 -0.33109,-0.33108 z m 21.85159,-0.48479 c 0.0695,-0.36691 0.43751,-0.55304 1.222,-0.61811 0.96359,-0.0799 1.1225,-0.006 1.1225,0.525 0,0.52298 -0.18807,0.61811 -1.222,0.61811 -1.0017,0 -1.20406,-0.0946 -1.1225,-0.525 z m -18.19417,-0.95667 c -0.0868,-0.1405 0.0395,-0.33121 0.28079,-0.42379 0.24127,-0.0926 0.50971,-0.0534 0.59655,0.0871 0.0868,0.1405 -0.0395,0.33121 -0.28079,0.42379 -0.24126,0.0926 -0.50971,0.0534 -0.59655,-0.0871 z m 8.48242,-0.52326 c 0.21656,-0.0867 0.47531,-0.076 0.575,0.0237 0.0997,0.0997 -0.0775,0.17059 -0.39375,0.15756 -0.34948,-0.0144 -0.42057,-0.0855 -0.18125,-0.18125 z m 0.19815,-2.20817 c -0.0975,-0.1578 0.10066,-0.2869 0.44039,-0.2869 0.72437,0 0.79745,0.16683 0.17732,0.4048 -0.24222,0.093 -0.52019,0.0399 -0.61771,-0.1179 z m 4.9581,-0.2869 c -0.31579,-0.20408 0.13159,-0.29081 1.5,-0.29081 1.36841,0 1.81579,0.0867 1.5,0.29081 -0.2475,0.15995 -0.9225,0.29081 -1.5,0.29081 -0.5775,0 -1.2525,-0.13086 -1.5,-0.29081 z m -24.56588,159.15 c 0.31464,-0.825 1.32485,-3.93 2.24488,-6.9 1.87271,-6.04531 2.03346,-7.57487 1.00374,-9.55054 -1.29143,-2.4778 -2.0495,-3.22124 -8.08274,-7.92678 -1.2375,-0.96517 -3.95399,-3.09761 -6.03664,-4.73877 -5.67952,-4.47553 -10.44732,-8.15953 -13.93344,-10.76616 -0.64896,-0.48523 -1.86099,-1.39154 -2.6934,-2.01402 -4.86073,-3.63483 -9.96714,-5.17579 -11.9406,-3.6033 -0.29787,0.23736 -3.46645,1.92387 -9.74809,5.18853 -1.99541,1.03704 -2.44915,1.40853 -2.27493,1.86255 0.0755,0.19669 1.43385,1.36807 3.01859,2.60306 1.58475,1.23499 3.45819,2.71793 4.16321,3.29543 0.70502,0.5775 2.00489,1.62248 2.88858,2.32216 1.53364,1.21431 3.96946,3.14974 19.62768,15.59561 3.78348,3.00727 9.91654,7.89471 13.62904,10.86096 3.7125,2.96626 6.93271,5.36576 7.15601,5.33223 0.22331,-0.0335 0.66346,-0.73596 0.97811,-1.56096 z"
         id="path3413"
         inkscape:connector-curvature="0" />
      <path
         style="fill:#2557a5"
         d="m 366.02144,670.31311 c -9.48694,-0.58011 -18.78701,-1.70139 -23.4,-2.82123 -1.32,-0.32043 -3.885,-0.92649 -5.7,-1.34676 -7.15941,-1.6578 -16.26443,-4.73502 -23.85,-8.06056 -9.86562,-4.32512 -21.35863,-11.05808 -29.57253,-17.3245 -1.1674,-0.89061 -2.6524,-2.01962 -3.3,-2.50892 -2.905,-2.19486 -9.37888,-7.97671 -13.01417,-11.62303 -8.13598,-8.16066 -13.8657,-15.36156 -21.07583,-26.48734 -4.99814,-7.71251 -10.88422,-19.6728 -13.79552,-28.03197 -0.485,-1.39259 -1.00933,-2.77022 -1.16517,-3.06141 -0.30318,-0.56651 -2.34878,-7.34273 -3.33775,-11.05662 -6.16166,-23.13884 -6.58391,-49.46931 -1.17867,-73.5 0.50103,-2.2275 1.10359,-4.725 1.33903,-5.55 1.2388,-4.34101 2.94842,-9.87879 3.18794,-10.32633 0.15004,-0.28035 0.66962,-1.64911 1.15462,-3.0417 5.53387,-15.88931 15.86025,-33.19435 28.52828,-47.80794 4.96112,-5.72306 13.4948,-13.87075 18.74466,-17.89681 0.95186,-0.72997 2.56416,-1.96388 3.58289,-2.74202 2.55611,-1.95246 11.50961,-7.93196 14.60222,-9.75193 12.14743,-7.14867 27.25465,-13.2023 40.2,-16.10857 1.8975,-0.42599 3.855,-0.90025 4.35,-1.0539 0.495,-0.15366 2.655,-0.55668 4.8,-0.89561 17.13981,-2.70827 33.56019,-2.70827 50.7,0 2.145,0.33893 4.305,0.74195 4.8,0.89561 0.495,0.15365 2.4525,0.62791 4.35,1.0539 12.94535,2.90627 28.05257,8.9599 40.2,16.10857 3.18953,1.87701 12.14265,7.86794 14.57483,9.75266 1.00365,0.77774 2.61696,2.01207 3.58512,2.74295 2.8517,2.1528 8.69602,7.40059 12.5779,11.29407 8.84951,8.87596 16.97289,19.48153 23.8802,31.17705 3.50626,5.93684 8.67319,17.01044 10.84,23.23197 0.48501,1.39259 1.00932,2.77022 1.16517,3.06141 0.24144,0.45117 1.40379,4.2308 3.16953,10.30662 0.23976,0.825 0.84585,3.3225 1.34688,5.55 5.40534,24.03109 4.98336,50.35033 -1.1784,73.5 -0.9165,3.44339 -3.07131,10.55827 -3.36231,11.10201 -0.14247,0.26622 -0.65586,1.62343 -1.14087,3.01602 -2.89776,8.32033 -8.8206,20.35529 -13.79552,28.03197 -7.21013,11.12578 -12.93985,18.32668 -21.07583,26.48734 -3.63529,3.64632 -10.10917,9.42817 -13.01417,11.62303 -0.6476,0.4893 -2.07176,1.57131 -3.1648,2.40446 -15.36923,11.71508 -35.55029,21.31979 -53.55773,25.48952 -1.815,0.42027 -4.38,1.02633 -5.7,1.34676 -2.98838,0.72546 -11.62721,1.95183 -16.8,2.38494 -4.12782,0.34563 -16.46763,0.62169 -19.5,0.43629 z m 45.9,-47.34599 c 6.7696,-1.54628 16.42716,-4.75406 22.57528,-7.49843 6.37194,-2.84428 12.37472,-6.20316 12.37472,-6.92433 0,-0.45556 -0.27334,-0.68968 -6.3,-5.39619 -2.2275,-1.73956 -4.725,-3.69836 -5.55,-4.35288 -0.825,-0.65452 -2.2425,-1.77367 -3.15,-2.48699 -0.9075,-0.71333 -2.595,-2.04194 -3.75,-2.95247 -2.02112,-1.59334 -6.73246,-5.30301 -12.33503,-9.71253 -1.46573,-1.15361 -3.88248,-3.04361 -5.37055,-4.2 -1.48807,-1.15639 -3.21841,-2.50753 -3.84521,-3.00253 -6.37416,-5.03386 -8.67082,-6.79631 -9.04188,-6.9387 -0.20632,-0.0792 -1.19118,0.27073 -2.18858,0.77758 -4.26463,2.16712 -10.19888,2.81275 -14.19507,1.54436 -4.06254,-1.28944 -6.7542,-4.06396 -11.23729,-11.58324 -1.27887,-2.145 -2.62596,-4.3725 -2.99353,-4.95 -0.36756,-0.5775 -1.13709,-1.9275 -1.71006,-3 -0.57298,-1.0725 -1.75368,-3.2325 -2.62379,-4.8 -0.87011,-1.5675 -2.08818,-3.795 -2.70682,-4.95 -0.61864,-1.155 -1.52735,-2.8425 -2.01935,-3.75 -0.492,-0.9075 -1.84456,-3.4725 -3.00567,-5.7 -1.16112,-2.2275 -2.51403,-4.7925 -3.00648,-5.7 -0.88028,-1.62221 -7.91776,-15.36905 -8.58135,-16.76261 -0.18664,-0.39193 -1.80649,-3.63193 -3.59967,-7.2 -4.42611,-8.80705 -4.72225,-9.69807 -4.89814,-14.73739 -0.10328,-2.95909 -0.0246,-4.49444 0.29202,-5.7 l 0.43338,-1.65 4.46653,-0.18674 c 11.8816,-0.49674 16.97345,-0.59805 16.81054,-0.33446 -0.0951,0.15382 -1.89885,0.35793 -4.00842,0.45358 -2.10957,0.0957 -4.17308,0.3042 -4.58558,0.46345 l -0.75,0.28954 0.81176,0.21151 c 0.44646,0.11633 6.31896,-0.005 13.04999,-0.26965 6.73104,-0.26464 19.19075,-0.74772 27.68825,-1.07351 8.4975,-0.32579 21.8625,-0.94161 29.7,-1.36849 7.8375,-0.42687 21.27,-1.16138 29.85,-1.63223 8.58,-0.47084 17.22,-0.93311 19.2,-1.02724 1.98,-0.0941 4.815,-0.23281 6.3,-0.30817 1.485,-0.0754 4.5225,-0.21504 6.75,-0.31038 2.2275,-0.0953 5.6025,-0.30804 7.5,-0.47266 1.8975,-0.16462 6.40227,-0.42451 10.0106,-0.57753 3.60833,-0.15302 6.63487,-0.35249 6.72565,-0.44328 0.1974,-0.19739 -1.9345,-6.61114 -3.59444,-10.81374 -2.71953,-6.88526 -7.47986,-16.52548 -10.59198,-21.45 -8.98282,-14.21411 -16.45465,-23.13572 -27.64292,-33.00654 -4.81837,-4.251 -5.78215,-5.04533 -9.20558,-7.58711 -19.06764,-14.15704 -40.83992,-22.98356 -63.80133,-25.86515 -2.0625,-0.25884 -3.9525,-0.5283 -4.2,-0.5988 -0.2475,-0.0705 -3.43712,-0.26863 -7.08804,-0.44029 -6.76321,-0.31798 -16.53148,-0.0444 -20.96196,0.5872 -9.27249,1.32176 -13.02477,1.98839 -17.85,3.1712 -9.99621,2.45037 -19.27249,5.85255 -28.2,10.34267 -0.9075,0.45643 -2.1225,1.06765 -2.7,1.35827 -1.95603,0.98433 -8.83822,5.02233 -10.95,6.4247 -9.50263,6.31041 -16.52857,12.1634 -24.7949,20.6555 -5.1703,5.31151 -8.0336,8.70778 -12.31586,14.60835 -10.48482,14.44714 -18.02083,29.9902 -22.32719,46.05 -1.58214,5.90031 -2.07885,8.04362 -1.89691,8.18527 0.16441,0.12801 55.58199,-2.84207 58.48486,-3.13446 0.2475,-0.0249 1.0805,-0.0241 1.85112,0.002 l 1.40112,0.0473 0.21303,2.025 c 0.53569,5.09222 2.70088,17.2827 4.06289,22.875 5.45825,22.41117 10.00017,33.56436 19.26126,47.29828 2.82041,4.18258 9.28195,13.44853 10.21727,14.65172 0.38479,0.495 1.86175,2.4525 3.28212,4.35 1.42038,1.8975 3.09521,4.08658 3.72185,4.86462 0.62664,0.77805 1.54278,1.92555 2.03588,2.55 4.38586,5.55425 12.01128,13.79064 17.30205,18.68835 14.31001,13.24689 26.96994,20.276 40.45141,22.45964 2.67189,0.43277 10.71594,0.37835 12.75,-0.0863 z m -52.2,-142.37635 c 0.10198,-0.165 0.86041,-0.3 1.68541,-0.3 0.92361,0 1.42875,0.11528 1.31459,0.3 -0.10198,0.165 -0.86041,0.3 -1.68541,0.3 -0.92361,0 -1.42876,-0.11528 -1.31459,-0.3 z m 94.3335,120.825 c 0.69839,-2.18625 1.68756,-5.2575 2.19815,-6.825 1.27404,-3.91125 1.25103,-5.70692 -0.10172,-7.93895 -1.5017,-2.47779 -1.54253,-2.51607 -8.22993,-7.71684 -1.32,-1.02656 -3.68043,-2.88521 -5.24541,-4.13034 -1.56497,-1.24513 -3.58997,-2.82902 -4.5,-3.51975 -0.91002,-0.69074 -3.28356,-2.51324 -5.27453,-4.05 -3.48445,-2.68953 -4.17767,-3.2156 -7.48006,-5.67631 -2.5086,-1.86924 -5.85325,-3.50461 -7.95,-3.88717 l -1.95,-0.35579 -6.45,3.38469 c -6.2217,3.26489 -7.5,4.03241 -7.5,4.50317 0,0.19853 3.10975,2.82991 5.12579,4.33729 0.44136,0.33 2.14534,1.68 3.78662,3 1.64127,1.32 4.78859,3.8175 6.99403,5.55 2.20544,1.7325 4.57694,3.6225 5.27001,4.2 0.69306,0.5775 1.98314,1.62188 2.86683,2.32085 0.8837,0.69897 4.17172,3.29778 7.30672,5.77513 3.135,2.47735 6.375,5.04289 7.2,5.70119 8.65082,6.90285 11.77429,9.28576 12.18185,9.29358 0.35656,0.007 0.81204,-1.02438 1.75165,-3.96575 z m -115.9335,-118.7017 c 0.5869,-0.2294 0.58582,-0.23903 -0.0495,-0.44103 -0.87046,-0.27677 -2.41138,0.0996 -1.85402,0.45281 0.48552,0.30771 1.09581,0.30393 1.90351,-0.0118 z m 8.20036,-0.21902 c 1.12719,-0.30181 0.13773,-0.69502 -1.75036,-0.69559 -2.07176,-6e-4 -3.21501,0.27041 -2.65036,0.62834 0.46665,0.29581 3.3808,0.34034 4.40072,0.0673 z"
         id="path3411"
         inkscape:connector-curvature="0" />
      <path
         style="fill:#0e4799"
         d="m 365.72144,670.01323 c -14.68982,-0.89928 -23.65165,-2.40993 -36.3,-6.11904 -11.05299,-3.24123 -27.55149,-10.79875 -36,-16.4906 -0.495,-0.33349 -2.385,-1.60099 -4.2,-2.81667 -1.815,-1.21568 -4.25514,-2.93839 -5.42253,-3.82824 -1.1674,-0.88985 -2.6524,-2.01824 -3.3,-2.50754 -5.23327,-3.95397 -14.85145,-13.08695 -19.75703,-18.76037 -6.42582,-7.43162 -12.99473,-16.5023 -16.29431,-22.5 -0.59002,-1.0725 -1.24162,-2.1525 -1.44798,-2.4 -1.40143,-1.68075 -8.4349,-16.70602 -10.29215,-21.98662 -0.51003,-1.45015 -1.06254,-2.88928 -1.2278,-3.19806 -1.2227,-2.28464 -5.42367,-18.88968 -6.4552,-25.51532 -3.04639,-19.56716 -2.36781,-40.61484 1.92473,-59.7 0.501,-2.2275 1.03939,-4.5225 1.19642,-5.1 0.81221,-2.98694 3.08103,-10.34255 3.33855,-10.82374 0.16278,-0.30415 0.71327,-1.73949 1.2233,-3.18963 1.88215,-5.35142 8.86603,-20.26888 10.29343,-21.98663 0.20566,-0.2475 0.86238,-1.33907 1.45937,-2.42571 1.62115,-2.95081 3.18802,-5.33615 7.47146,-11.37429 7.83908,-11.0503 18.30456,-21.92489 29.23343,-30.37617 0.80097,-0.61939 2.19881,-1.69958 3.10631,-2.40043 0.9075,-0.70085 3.6075,-2.57022 6,-4.15415 15.07465,-9.98004 31.32628,-17.11224 47.4,-20.80199 1.8975,-0.43558 4.26,-0.98456 5.25,-1.21996 2.6116,-0.62098 11.60771,-1.86042 16.65,-2.29396 5.60057,-0.48154 20.19943,-0.48154 25.8,0 5.04229,0.43354 14.0384,1.67298 16.65,2.29396 0.99,0.2354 3.3525,0.78438 5.25,1.21996 13.27078,3.04633 27.89069,8.97422 40.5,16.42141 3.18001,1.87814 11.24032,7.27284 13.67483,9.15244 1.00365,0.77489 2.61696,2.00689 3.58512,2.73777 6.84656,5.16859 16.35809,14.67528 23.58313,23.57112 3.62777,4.46671 9.69228,13.27191 11.88079,17.25 0.59002,1.0725 1.24161,2.1525 1.44798,2.4 1.40143,1.68075 8.43491,16.70602 10.29215,21.98663 0.51003,1.45014 1.06254,2.88927 1.22781,3.19805 0.25326,0.47323 2.34126,7.2584 3.3282,10.81532 0.63525,2.28937 2.15136,9.36643 2.82783,13.2 1.77384,10.05217 2.54055,22.95337 1.99947,33.64372 -0.63597,12.56533 -1.44273,18.26003 -4.26498,30.10628 -0.91938,3.8589 -3.45909,12.55919 -3.91473,13.41055 -0.15195,0.28391 -0.69357,1.70268 -1.2036,3.15283 -1.83645,5.22144 -8.90833,20.32942 -10.29172,21.98662 -0.2066,0.2475 -0.85839,1.3275 -1.44841,2.4 -3.29958,5.9977 -9.86849,15.06838 -16.29431,22.5 -4.90558,5.67342 -14.52376,14.8064 -19.75703,18.76037 -0.6476,0.4893 -2.1326,1.61769 -3.3,2.50754 -8.02047,6.11363 -19.2487,12.63873 -29.57253,17.18559 -14.32326,6.3083 -30.02462,10.30358 -45.75,11.64125 -3.85268,0.32772 -17.12112,0.61005 -20.1,0.42771 z m 50.25,-47.912 c 5.60122,-1.56696 6.3067,-1.7893 11.1,-3.49834 7.9789,-2.84485 20.1,-8.91656 20.1,-10.0685 0,-0.23632 -0.70875,-0.97754 -1.575,-1.64715 -3.27735,-2.53342 -9.33608,-7.295 -17.175,-13.4979 -0.825,-0.65282 -2.715,-2.13717 -4.2,-3.29857 -3.63521,-2.84304 -5.65857,-4.4432 -7.2075,-5.7 -0.71174,-0.5775 -2.53173,-1.995 -4.04442,-3.15 -1.51269,-1.155 -3.85724,-2.9775 -5.21011,-4.05 -1.35287,-1.0725 -3.06236,-2.42064 -3.79887,-2.99588 -0.7365,-0.57523 -1.5416,-1.21022 -1.7891,-1.41108 -2.96964,-2.41013 -4.3686,-3.39304 -4.82927,-3.39304 -0.30403,0 -1.33307,0.39406 -2.28676,0.87569 -4.87334,2.46113 -11.44088,2.76673 -15.53388,0.72282 -3.32402,-1.6599 -5.81151,-4.53051 -9.77142,-11.2764 -1.18556,-2.01966 -2.45899,-4.14461 -2.82984,-4.72211 -0.37085,-0.5775 -1.14343,-1.9275 -1.71685,-3 -0.57343,-1.0725 -1.85845,-3.435 -2.85562,-5.25 -1.73989,-3.16687 -5.87218,-11.06121 -7.93026,-15.15 -0.53984,-1.0725 -1.13946,-2.1525 -1.33249,-2.4 -0.19303,-0.2475 -1.39278,-2.5425 -2.66611,-5.1 -2.71115,-5.44537 -2.61427,-5.25538 -3.75839,-7.37013 -0.48901,-0.90387 -0.88911,-1.74956 -0.88911,-1.87932 0,-0.21195 13.46154,-0.95697 20.7,-1.14563 4.22814,-0.1102 17.31407,-0.93721 17.93177,-1.13326 0.29438,-0.0934 3.23142,-0.24293 6.52674,-0.3322 3.29532,-0.0893 8.42149,-0.2982 11.39149,-0.46429 2.97,-0.16609 6.8175,-0.34771 8.55,-0.4036 1.7325,-0.0559 5.20875,-0.19007 7.725,-0.29819 2.51625,-0.10812 4.575,-0.10499 4.575,0.007 0,0.11194 -0.23625,0.38287 -0.525,0.60206 -0.47376,0.35964 -0.43717,0.39906 0.375,0.40397 1.17865,0.007 2.25,-0.28873 2.25,-0.62135 0,-0.14576 -0.27,-0.26502 -0.6,-0.26502 -0.96897,0 -0.68751,-0.51902 0.375,-0.69152 0.53625,-0.0871 2.71603,-0.17293 4.84395,-0.19083 2.12793,-0.0179 4.76043,-0.16152 5.85,-0.31915 2.69296,-0.38961 7.53105,-0.3826 7.53105,0.0109 0,0.48342 -0.48473,0.57169 -4.65,0.84681 -2.84552,0.18794 -3.37276,0.27494 -1.95,0.32177 1.0725,0.0353 2.22,0.17243 2.55,0.30475 0.37705,0.15119 0.92179,0.0769 1.46601,-0.19999 0.62703,-0.319 1.9102,-0.43968 4.65,-0.43734 2.08119,0.002 5.74149,-0.0664 8.13399,-0.15156 2.3925,-0.0851 6.1725,-0.2091 8.4,-0.27546 2.2275,-0.0664 4.86,-0.19061 5.85,-0.2761 0.99,-0.0855 3.8925,-0.23447 6.45,-0.33108 2.5575,-0.0966 6.50649,-0.24576 8.77553,-0.33145 5.92285,-0.22368 12.04174,-0.43653 16.87447,-0.58699 2.31,-0.0719 6.0066,-0.19746 8.21466,-0.27898 l 4.01466,-0.14823 -0.22107,-2.00778 c -0.12162,-1.10429 -0.26454,-2.88529 -0.31764,-3.95779 -0.0531,-1.0725 -0.24795,-2.8275 -0.43296,-3.9 -0.18504,-1.0725 -0.46746,-2.8275 -0.62766,-3.9 -0.89637,-6.00147 -3.94047,-18.04349 -6.21867,-24.6 -1.97698,-5.68958 -6.27642,-15.6227 -8.09968,-18.7129 -0.3639,-0.61677 -0.66164,-1.19753 -0.66164,-1.29059 0,-0.52361 -5.60423,-9.83392 -8.29503,-13.78053 -5.21318,-7.64623 -11.76641,-15.55891 -17.61235,-21.26598 -2.34351,-2.28784 -9.60759,-8.80515 -11.29262,-10.13171 -7.21723,-5.68181 -16.25614,-11.60979 -22.5,-14.75613 -0.5775,-0.29101 -1.7925,-0.90187 -2.7,-1.35747 -13.30063,-6.67744 -27.93624,-11.10774 -43.2,-13.07694 -6.73508,-0.8689 -8.74014,-0.98494 -17.25,-0.9983 -8.66736,-0.0136 -10.54772,0.10308 -18.45,1.14503 -11.24246,1.48236 -22.24656,4.41084 -33.3,8.862 -3.65698,1.47264 -12.58899,5.84698 -16.36762,8.01582 -4.48132,2.57217 -13.47779,8.71838 -17.54425,11.98588 -4.94724,3.97523 -14.27946,12.90697 -18.17612,17.39612 -3.47639,4.00497 -4.25812,4.97706 -7.54962,9.3881 -12.26218,16.43292 -21.20187,36.30347 -25.4236,56.50993 -0.56104,2.68529 -1.09632,5.58779 -1.18953,6.45001 -0.16358,1.5134 -0.36088,2.70701 -1.02775,6.21766 -0.55715,2.93303 -0.89073,7.76128 -0.60505,8.7574 0.17697,0.61704 0.16111,1.07864 -0.0456,1.32773 -0.17429,0.21001 -0.27279,0.69302 -0.21887,1.07336 0.0936,0.65997 0.2075,0.68978 2.49803,0.65356 1.32,-0.0209 4.02,-0.12117 6,-0.22289 12.80773,-0.65797 15.44619,-0.73803 15.6096,-0.47363 0.14547,0.23537 -3.51768,0.55459 -8.1096,0.70669 -1.485,0.0492 -3.8475,0.24361 -5.25,0.43206 -1.4025,0.18844 -4.41384,0.42506 -6.69188,0.52581 l -4.14187,0.18318 0.0919,0.79337 c 0.0649,0.56068 0.29114,0.82165 0.77132,0.88981 0.80182,0.11382 0.59771,0.65355 -0.24716,0.65355 -0.54462,0 -0.73785,0.3433 -0.591,1.05 0.0343,0.165 0.0987,0.63457 0.14325,1.04349 l 0.0809,0.74349 4.76727,-0.0914 c 2.622,-0.0503 5.37477,-0.22534 6.11727,-0.38902 0.7425,-0.16368 2.4975,-0.26181 3.9,-0.21807 2.37914,0.0742 2.54413,0.0404 2.46249,-0.50447 -0.0523,-0.34911 0.008,-0.45122 0.15,-0.25387 0.27945,0.38842 4.89945,0.81315 5.33751,0.4907 0.165,-0.12146 0.3,-0.42333 0.3,-0.67083 0,-0.66704 1.67388,-0.78275 2.03326,-0.14056 0.25363,0.45321 0.6826,0.48636 3.92574,0.30342 6.43714,-0.36311 11.67402,-0.53754 14.36043,-0.47831 1.44068,0.0318 2.77088,-0.0359 2.95599,-0.15026 0.18512,-0.11441 1.75287,-0.1837 3.4839,-0.15398 1.81068,0.0311 3.07622,-0.061 2.97992,-0.21682 -0.0964,-0.156 1.47144,-0.26631 3.69717,-0.26011 2.74023,0.008 4.00107,-0.10252 4.33371,-0.37859 0.35413,-0.2939 1.15069,-0.33652 3.24951,-0.17386 1.5292,0.11851 2.93555,0.3408 3.1252,0.49397 0.18966,0.15317 1.20242,0.31206 2.25057,0.35309 2.01456,0.0788 2.6546,0.29907 2.6546,0.91339 0,1.23977 5.17543,16.43847 6.80648,19.98862 1.91912,4.17715 4.79485,9.74851 6.27137,12.15 1.74111,2.83183 9.29581,14.05608 11.34894,16.86147 0.50777,0.69381 1.66571,2.29129 2.57321,3.54996 16.37865,22.71652 33.41919,39.18424 48.66158,47.0258 5.50032,2.82968 7.6195,3.66646 12.83842,5.06942 5.2968,1.42388 7.71106,1.72864 12.9,1.62841 4.48188,-0.0866 4.82896,-0.13989 9.6,-1.4746 z m -180.9,-106.62613 c 0,-0.32845 16.10073,-1.1836 16.41262,-0.8717 0.10856,0.10855 0.0714,0.31704 -0.0826,0.46331 -0.39674,0.37683 -16.33,0.7753 -16.33,0.40839 z m 66.9,-0.0843 c 0,-0.165 0.54,-0.3 1.2,-0.3 0.66,0 1.2,0.135 1.2,0.3 0,0.165 -0.54,0.3 -1.2,0.3 -0.66,0 -1.2,-0.135 -1.2,-0.3 z m -49.61696,-0.54654 c -0.10605,-0.1716 -0.0894,-0.37217 0.0371,-0.4457 0.4915,-0.28585 10.74603,-0.51589 11.14453,-0.25001 0.67648,0.45136 -0.27493,0.58202 -5.85171,0.8036 -3.44725,0.13697 -5.20049,0.10149 -5.32989,-0.10789 z m 12.49196,-0.24988 c -0.68053,-0.1465 -0.8847,-0.53857 -0.42758,-0.82108 0.13608,-0.0841 2.80233,-0.22943 5.925,-0.32295 3.12267,-0.0935 6.35258,-0.29156 7.17758,-0.44008 0.825,-0.14853 6.63,-0.48931 12.9,-0.75728 6.27,-0.26798 11.66297,-0.54345 11.98439,-0.61216 0.72291,-0.15453 1.36561,0.34567 1.36561,1.06283 0,0.4438 -0.33227,0.56903 -1.875,0.70669 -1.49466,0.13337 -26.6104,0.94232 -31.575,1.017 -0.66,0.01 -2.01,0.0843 -3,0.16519 -0.99,0.0809 -2.10375,0.0818 -2.475,0.002 z m -4.58803,-3.14053 c 1.43463,-0.16617 2.34387,-0.15221 2.535,0.0389 0.19737,0.19737 -0.55816,0.28488 -2.23697,0.25911 l -2.535,-0.0389 2.23697,-0.25911 z m 6.31303,-0.0802 c 0,-0.0644 0.4725,-0.17234 1.05,-0.23976 0.5775,-0.0674 1.05,-0.0147 1.05,0.11718 0,0.13187 -0.4725,0.23976 -1.05,0.23976 -0.5775,0 -1.05,-0.0527 -1.05,-0.11718 z m 76.93415,-0.6149 c -0.28348,-0.43266 -0.44844,-0.85363 -0.36656,-0.93551 0.11682,-0.11682 20.3879,-0.93078 23.63241,-0.94893 0.4125,-0.002 2.91,-0.0918 5.55,-0.19894 2.64,-0.10711 6.69,-0.25331 9,-0.3249 2.31,-0.0716 5.6175,-0.21112 7.35,-0.31008 2.87895,-0.16444 3.09989,-0.13989 2.56766,0.28526 -0.42157,0.33676 -1.3326,0.47382 -3.3,0.49648 -1.49471,0.0172 -3.25766,0.0736 -3.91766,0.12536 -0.66,0.0517 -2.955,0.17244 -5.1,0.26824 -9.23636,0.4125 -16.05466,0.81896 -18.15,1.08196 -1.2375,0.15532 -3.6,0.35144 -5.25,0.4358 -1.65,0.0844 -4.215,0.21542 -5.7,0.29122 -1.485,0.0758 -3.39759,0.22397 -4.25021,0.32926 -1.44108,0.17795 -1.58649,0.13604 -2.06564,-0.59522 z m 35.71585,-0.46792 c 0.10198,-0.165 0.72541,-0.3 1.38541,-0.3 0.72361,0 1.12639,0.1191 1.01459,0.3 -0.10198,0.165 -0.72541,0.3 -1.38541,0.3 -0.72361,0 -1.12639,-0.1191 -1.01459,-0.3 z m 66.21841,-0.35912 c 0.0811,-0.24586 0.77142,-0.42459 1.86058,-0.48176 1.31813,-0.0692 1.70079,0.002 1.6026,0.3 -0.0811,0.24586 -0.77143,0.42459 -1.86058,0.48176 -1.31813,0.0692 -1.70079,-0.002 -1.6026,-0.3 z m -51.81841,-0.24088 c 0.10198,-0.165 0.32041,-0.3 0.48541,-0.3 0.165,0 0.21657,0.135 0.11459,0.3 -0.10198,0.165 -0.32041,0.3 -0.48541,0.3 -0.165,0 -0.21657,-0.135 -0.11459,-0.3 z m 58.41755,-0.0573 c 0.0763,-0.23154 0.7172,-0.43074 1.5618,-0.4854 1.0757,-0.0696 1.40024,0.005 1.3031,0.3 -0.0763,0.23154 -0.71721,0.43074 -1.5618,0.4854 -1.0757,0.0696 -1.40024,-0.005 -1.3031,-0.3 z m -52.71755,-0.2427 c 0.10198,-0.165 0.37198,-0.3 0.6,-0.3 0.22802,0 0.49802,0.135 0.6,0.3 0.10557,0.17082 -0.15279,0.3 -0.6,0.3 -0.44721,0 -0.70557,-0.12918 -0.6,-0.3 z m 58.71706,-0.0562 c 0.0729,-0.22153 0.69076,-0.4348 1.41252,-0.48756 0.95422,-0.0697 1.24974,0.007 1.15336,0.3 -0.0729,0.22153 -0.69076,0.4348 -1.41252,0.48756 -0.95422,0.0697 -1.24974,-0.007 -1.15336,-0.3 z m -52.71706,-0.24378 c 0.10198,-0.165 0.37198,-0.3 0.6,-0.3 0.22802,0 0.49802,0.135 0.6,0.3 0.10557,0.17082 -0.15279,0.3 -0.6,0.3 -0.44721,0 -0.70557,-0.12918 -0.6,-0.3 z m 58.41755,-0.0573 c 0.0763,-0.23154 0.7172,-0.43074 1.5618,-0.4854 1.0757,-0.0696 1.40024,0.005 1.3031,0.3 -0.0763,0.23154 -0.71721,0.43074 -1.5618,0.4854 -1.0757,0.0696 -1.40024,-0.005 -1.3031,-0.3 z m 6.00156,-0.30332 c 0.0845,-0.25552 0.82689,-0.42011 2.1596,-0.47876 1.56004,-0.0687 2.00104,9e-4 1.90218,0.29999 -0.0845,0.25553 -0.82689,0.42012 -2.1596,0.47878 -1.56004,0.0687 -2.00104,-9e-4 -1.90218,-0.30001 z m 5.69999,-0.29668 c 0.15471,-0.46412 2.59217,-0.54762 2.7059,-0.0927 0.0412,0.165 -0.58016,0.34172 -1.3809,0.3927 -1.09565,0.0698 -1.42351,-0.004 -1.325,-0.3 z m 3.71793,0.11721 c -0.29081,-0.47053 0.0545,-0.58826 2.40465,-0.81983 1.3826,-0.13624 2.1979,-0.0996 2.32394,0.1043 0.29376,0.47531 -0.14429,0.62621 -2.43599,0.8392 -1.35931,0.12634 -2.16495,0.0829 -2.2926,-0.12367 z m -85.81863,-0.33013 c -0.13486,-0.21822 0.19282,-0.32978 0.96863,-0.32978 0.64484,0 2.23906,-0.0848 3.54271,-0.18852 1.62087,-0.12891 2.27541,-0.091 2.07026,0.11988 -0.4429,0.45528 -6.32634,0.81144 -6.5816,0.39842 z m 94.05377,-0.15307 c -0.19322,-0.23281 -0.2359,-0.49462 -0.0949,-0.58179 0.37955,-0.23458 10.88522,-0.82258 11.20173,-0.62696 0.86559,0.53496 -0.12352,0.73299 -3.70405,0.74158 -3.01907,0.007 -4.11504,0.11547 -4.55734,0.45 -0.74032,0.55995 -2.38678,0.56988 -2.84549,0.0172 z m -85.97217,-0.17671 c -0.10198,-0.165 0.033,-0.3 0.3,-0.3 0.26698,0 0.40198,0.135 0.3,0.3 -0.10198,0.165 -0.23698,0.3 -0.3,0.3 -0.063,0 -0.19802,-0.135 -0.3,-0.3 z m 4.5,-0.3 c 0.10198,-0.165 0.72541,-0.3 1.38541,-0.3 0.72361,0 1.12639,0.1191 1.01459,0.3 -0.10198,0.165 -0.72541,0.3 -1.38541,0.3 -0.72361,0 -1.12639,-0.1191 -1.01459,-0.3 z m 46.8,0 c 0.10198,-0.165 0.32041,-0.3 0.48541,-0.3 0.165,0 0.21657,0.135 0.11459,0.3 -0.10198,0.165 -0.32041,0.3 -0.48541,0.3 -0.165,0 -0.21657,-0.135 -0.11459,-0.3 z m -42.9,-0.3 c 0.10621,-0.17186 1.65902,-0.3 3.63541,-0.3 2.22361,0 3.38409,0.10664 3.26459,0.3 -0.10622,0.17186 -1.65902,0.3 -3.63541,0.3 -2.22361,0 -3.38409,-0.10664 -3.26459,-0.3 z m 45.9,0.0668 c 0.16592,-0.17138 2.57932,-0.40371 5.4,-0.51983 3.71438,-0.15291 5.01455,-0.12004 4.78549,0.12101 -0.19001,0.19997 -2.32743,0.40573 -5.4,0.51984 -3.49584,0.12983 -4.99172,0.092 -4.78549,-0.12102 z m -37.2,-0.36685 c 0.10198,-0.165 0.79291,-0.3 1.53541,-0.3 0.82361,0 1.2777,0.11698 1.16459,0.3 -0.10198,0.165 -0.79291,0.3 -1.53541,0.3 -0.82361,0 -1.27771,-0.11698 -1.16459,-0.3 z m 8.4,-0.3 c 0.10198,-0.165 0.72541,-0.3 1.38541,-0.3 0.72361,0 1.12639,0.1191 1.01459,0.3 -0.10198,0.165 -0.72541,0.3 -1.38541,0.3 -0.72361,0 -1.12639,-0.1191 -1.01459,-0.3 z m 9.36872,0.0609 c -0.62221,-0.0538 -1.05299,-0.22458 -0.9573,-0.37941 0.22544,-0.36477 2.15059,-0.36659 2.37577,-0.002 0.24469,0.39592 -0.11993,0.49403 -1.41847,0.38166 z m 31.13128,-0.0609 c 0.10256,-0.16594 1.45902,-0.3 3.03541,-0.3 1.82361,0 2.78323,0.10804 2.66459,0.3 -0.10256,0.16594 -1.45902,0.3 -3.03541,0.3 -1.82361,0 -2.78323,-0.10804 -2.66459,-0.3 z m 34.8,0 c 0.10198,-0.165 0.64198,-0.3 1.2,-0.3 0.55803,0 1.09803,0.135 1.2,0.3 0.11337,0.18346 -0.3528,0.3 -1.2,0.3 -0.84722,0 -1.31338,-0.11654 -1.2,-0.3 z m 5.87415,-0.0282 c -1.06818,-0.42696 -0.38178,-0.85031 1.00122,-0.61751 1.40178,0.23595 1.84776,0.95514 0.57462,0.92665 -0.46749,-0.0105 -1.17663,-0.14957 -1.57584,-0.30914 z m -31.97415,-0.27183 c -0.1152,-0.1864 0.45279,-0.3 1.5,-0.3 1.04721,0 1.6152,0.1136 1.5,0.3 -0.10198,0.165 -0.77698,0.3 -1.5,0.3 -0.72302,0 -1.39802,-0.135 -1.5,-0.3 z m 11.1,-1.8 c 0.10198,-0.165 0.45541,-0.3 0.78541,-0.3 0.33,0 0.51657,0.135 0.41459,0.3 -0.10198,0.165 -0.45541,0.3 -0.78541,0.3 -0.33,0 -0.51657,-0.135 -0.41459,-0.3 z m 18.01611,0.026 c -0.11229,-0.18165 0.0407,-0.40948 0.33987,-0.50628 0.29922,-0.0968 0.89925,-0.3081 1.33344,-0.46955 0.95439,-0.35487 2.83425,-0.21833 2.75046,0.19979 -0.11973,0.59718 -4.10253,1.29586 -4.42377,0.77604 z m -6.31611,-0.62604 c 0.10198,-0.165 0.65791,-0.3 1.23541,-0.3 0.62361,0 0.97471,0.12183 0.86459,0.3 -0.10198,0.165 -0.65791,0.3 -1.23541,0.3 -0.62361,0 -0.97471,-0.12183 -0.86459,-0.3 z m -45.62469,100.275 c 0.27304,-0.78375 1.01663,-3.1125 1.65242,-5.175 0.6358,-2.0625 1.4409,-4.58949 1.78913,-5.61554 0.84515,-2.49022 0.80981,-4.34235 -0.12101,-6.34187 -0.81387,-1.7483 -3.25855,-4.32366 -6.06258,-6.38665 -0.9533,-0.70137 -3.00987,-2.29462 -4.57015,-3.54057 -1.56029,-1.24595 -3.20147,-2.53537 -3.64708,-2.86537 -0.44561,-0.33 -3.08402,-2.35604 -5.86312,-4.50232 -5.07219,-3.9172 -5.73883,-4.42871 -9.38073,-7.19768 -4.53889,-3.45097 -7.59013,-4.96873 -10.33044,-5.1386 l -1.84175,-0.11417 -6.6,3.52638 c -4.96166,2.65102 -6.62171,3.678 -6.68744,4.13714 -0.0652,0.45562 0.54137,1.10327 2.38841,2.55 1.36172,1.06659 6.59857,5.22683 11.63744,9.24497 5.03888,4.01815 9.63409,7.68241 10.21159,8.1428 0.5775,0.46038 3.10523,2.46098 5.61717,4.44576 2.51194,1.98478 5.07694,4.02211 5.7,4.5274 7.95559,6.45187 14.72979,11.69823 15.12227,11.71162 0.32051,0.0109 0.66078,-0.47514 0.98587,-1.4083 z m -161.1446,-81.57178 c -0.20311,-0.0822 -0.60811,-0.0872 -0.9,-0.0111 -0.29189,0.0761 -0.12571,0.1433 0.36929,0.14941 0.495,0.006 0.73382,-0.0561 0.53071,-0.1383 z m 62.05756,-3.90382 c 0.37414,-0.45489 0.31929,-0.48228 -0.60077,-0.29999 -0.55688,0.11032 -1.20609,0.20059 -1.44271,0.20059 -0.23661,0 -0.34677,0.135 -0.24479,0.3 0.29725,0.48095 1.83885,0.34581 2.28827,-0.2006 z m 4.31173,-0.0994 c -0.10198,-0.165 -0.38791,-0.3 -0.63541,-0.3 -0.2475,0 -0.36657,0.135 -0.26459,0.3 0.10198,0.165 0.38791,0.3 0.63541,0.3 0.2475,0 0.36657,-0.135 0.26459,-0.3 z m 14.1,-0.32166 c 3.63,-0.18435 8.4225,-0.43759 10.65,-0.56276 l 4.05,-0.22758 -3.45,-0.0231 c -6.98787,-0.0469 -22.75938,0.67452 -23.14346,1.0586 -0.39774,0.39774 -1.01637,0.41049 11.89346,-0.24512 z m 18.83405,-1.09756 c -0.69627,-0.0629 -1.91127,-0.0637 -2.7,-0.002 -0.78873,0.062 -0.21905,0.11348 1.26595,0.11439 1.485,9e-4 2.13032,-0.0498 1.43405,-0.11273 z m -102.98405,-0.38078 c 0,-0.165 -0.27797,-0.3 -0.61771,-0.3 -0.33973,0 -0.53427,0.135 -0.43229,0.3 0.10198,0.165 0.37994,0.3 0.61771,0.3 0.23776,0 0.43229,-0.135 0.43229,-0.3 z m 8.55,0 c 0.10198,-0.165 -0.10052,-0.3 -0.45,-0.3 -0.34948,0 -0.55198,0.135 -0.45,0.3 0.10198,0.165 0.30448,0.3 0.45,0.3 0.14552,0 0.34802,-0.135 0.45,-0.3 z m 101.025,0.0883 c -0.37125,-0.0715 -0.97875,-0.0715 -1.35,0 -0.37125,0.0715 -0.0675,0.13001 0.675,0.13001 0.7425,0 1.04625,-0.0585 0.675,-0.13001 z m 5.8535,-0.2944 c -0.28683,-0.0751 -0.82683,-0.0778 -1.2,-0.006 -0.37317,0.0718 -0.1385,0.13319 0.5215,0.13652 0.66,0.003 0.96533,-0.0554 0.6785,-0.13047 z m 17.4715,-0.52288 c 2.2275,-0.0356 4.3875,-0.15069 4.8,-0.25567 0.4125,-0.10498 3.2475,-0.2591 6.3,-0.34249 8.92497,-0.24382 14.50586,-0.54264 15.15,-0.8112 0.34487,-0.14379 -0.7394,-0.18734 -2.55,-0.10241 -1.7325,0.0813 -7.1325,0.28623 -12,0.45549 -10.75949,0.37415 -24.6315,1.11678 -24.84476,1.33005 -0.0857,0.0857 1.92557,0.0737 4.46948,-0.0266 2.5439,-0.10031 6.44778,-0.21154 8.67528,-0.24717 z m 48.51875,-0.0523 c -0.0997,-0.0997 -0.35844,-0.11034 -0.575,-0.0237 -0.23932,0.0958 -0.16823,0.16685 0.18125,0.18125 0.31625,0.013 0.49344,-0.0579 0.39375,-0.15757 z m 8.03125,-0.11875 c 0.41693,-0.17916 -0.0233,-0.26426 -1.44271,-0.27891 -1.29032,-0.0133 -1.97441,0.0894 -1.85729,0.27891 0.22316,0.36108 2.45972,0.36108 3.3,0 z m 4.2,-0.3 c 0.47913,-0.20589 0.36981,-0.26208 -0.54271,-0.27891 -0.68995,-0.0127 -1.06924,0.0978 -0.95729,0.27891 0.21898,0.35432 0.67546,0.35432 1.5,0 z m 8.4,-0.3 c 0.1118,-0.1809 -0.29098,-0.3 -1.01459,-0.3 -0.66,0 -1.28343,0.135 -1.38541,0.3 -0.1118,0.1809 0.29098,0.3 1.01459,0.3 0.66,0 1.28343,-0.135 1.38541,-0.3 z m 8.4,-0.3 c 0.24098,-0.38992 -1.94665,-0.38992 -2.55,0 -0.3259,0.21061 -0.0619,0.29208 0.95729,0.29541 0.77402,0.002 1.49073,-0.13041 1.59271,-0.29541 z m 6.6,-0.3 c 0.23466,-0.37968 -0.16248,-0.37968 -0.75,0 -0.38781,0.25062 -0.37989,0.29145 0.0573,0.29541 0.279,0.002 0.59073,-0.13041 0.6927,-0.29541 z m -136.65,-0.3 c 0,-0.165 -0.135,-0.3 -0.3,-0.3 -0.165,0 -0.3,0.135 -0.3,0.3 0,0.165 0.135,0.3 0.3,0.3 0.165,0 0.3,-0.135 0.3,-0.3 z m 84.81831,0.0811 c -0.62243,-0.0649 -1.56743,-0.0639 -2.1,0.002 -0.53257,0.0663 -0.0233,0.11941 1.13169,0.11808 1.155,-10e-4 1.59074,-0.0556 0.96831,-0.1205 z m -60.10706,-1.21836 c 0.0807,-0.13052 -0.31637,-0.18325 -0.8823,-0.11718 -0.56592,0.0661 -1.02895,0.17285 -1.02895,0.2373 0,0.22578 1.76608,0.11477 1.91125,-0.12012 z m 93.56946,0.0405 c -0.20311,-0.0822 -0.60811,-0.0872 -0.9,-0.0111 -0.29189,0.0761 -0.12571,0.1433 0.36929,0.14941 0.495,0.006 0.73382,-0.0561 0.53071,-0.1383 z m -81.30571,-0.59873 c 1.11375,-0.10519 2.025,-0.30673 2.025,-0.44787 0,-0.38456 -2.33198,-0.30938 -2.57448,0.083 -0.14472,0.23416 -0.94205,0.27856 -2.56771,0.14298 -1.5359,-0.12809 -2.35781,-0.0896 -2.35781,0.11039 0,0.34831 2.44116,0.39803 5.475,0.11151 z m 8.625,-0.70449 c -1.09098,-0.3494 -3,-0.3494 -3,0 0,0.17119 0.80506,0.28716 1.875,0.2701 1.39345,-0.0222 1.68238,-0.0916 1.125,-0.2701 z m 5.1,-0.3 c 0,-0.165 -0.54,-0.3 -1.2,-0.3 -0.66,0 -1.2,0.135 -1.2,0.3 0,0.165 0.54,0.3 1.2,0.3 0.66,0 1.2,-0.135 1.2,-0.3 z m 12.6,-0.2679 c 0,-0.39535 -0.79576,-0.6321 -2.12454,-0.6321 -1.34024,0 -1.59432,0.4967 -0.35046,0.68512 1.55025,0.23485 2.475,0.21503 2.475,-0.053 z"
         id="path3409"
         inkscape:connector-curvature="0" />
      <path
         style="fill:#103685"
         d="m 365.72144,670.01323 c -14.68982,-0.89928 -23.65165,-2.40993 -36.3,-6.11904 -11.05299,-3.24123 -27.55149,-10.79875 -36,-16.4906 -0.495,-0.33349 -2.385,-1.60099 -4.2,-2.81667 -1.815,-1.21568 -4.25514,-2.93839 -5.42253,-3.82824 -1.1674,-0.88985 -2.6524,-2.01824 -3.3,-2.50754 -5.23327,-3.95397 -14.85145,-13.08695 -19.75703,-18.76037 -6.42582,-7.43162 -12.99473,-16.5023 -16.29431,-22.5 -0.59002,-1.0725 -1.24162,-2.1525 -1.44798,-2.4 -1.40143,-1.68075 -8.4349,-16.70602 -10.29215,-21.98662 -0.51003,-1.45015 -1.06254,-2.88928 -1.2278,-3.19806 -1.2227,-2.28464 -5.42367,-18.88968 -6.4552,-25.51532 -3.04639,-19.56716 -2.36781,-40.61484 1.92473,-59.7 0.501,-2.2275 1.03939,-4.5225 1.19642,-5.1 0.81221,-2.98694 3.08103,-10.34255 3.33855,-10.82374 0.16278,-0.30415 0.71327,-1.73949 1.2233,-3.18963 1.88215,-5.35142 8.86603,-20.26888 10.29343,-21.98663 0.20566,-0.2475 0.86238,-1.33907 1.45937,-2.42571 1.62115,-2.95081 3.18802,-5.33615 7.47146,-11.37429 7.83908,-11.0503 18.30456,-21.92489 29.23343,-30.37617 0.80097,-0.61939 2.19881,-1.69958 3.10631,-2.40043 0.9075,-0.70085 3.6075,-2.57022 6,-4.15415 15.07465,-9.98004 31.32628,-17.11224 47.4,-20.80199 1.8975,-0.43558 4.26,-0.98456 5.25,-1.21996 2.6116,-0.62098 11.60771,-1.86042 16.65,-2.29396 5.60057,-0.48154 20.19943,-0.48154 25.8,0 5.04229,0.43354 14.0384,1.67298 16.65,2.29396 0.99,0.2354 3.3525,0.78438 5.25,1.21996 13.27078,3.04633 27.89069,8.97422 40.5,16.42141 3.18001,1.87814 11.24032,7.27284 13.67483,9.15244 1.00365,0.77489 2.61696,2.00689 3.58512,2.73777 6.84656,5.16859 16.35809,14.67528 23.58313,23.57112 3.62777,4.46671 9.69228,13.27191 11.88079,17.25 0.59002,1.0725 1.24161,2.1525 1.44798,2.4 1.40143,1.68075 8.43491,16.70602 10.29215,21.98663 0.51003,1.45014 1.06254,2.88927 1.22781,3.19805 0.25326,0.47323 2.34126,7.2584 3.3282,10.81532 0.63525,2.28937 2.15136,9.36643 2.82783,13.2 1.77384,10.05217 2.54055,22.95337 1.99947,33.64372 -0.63597,12.56533 -1.44273,18.26003 -4.26498,30.10628 -0.91938,3.8589 -3.45909,12.55919 -3.91473,13.41055 -0.15195,0.28391 -0.69357,1.70268 -1.2036,3.15283 -1.83645,5.22144 -8.90833,20.32942 -10.29172,21.98662 -0.2066,0.2475 -0.85839,1.3275 -1.44841,2.4 -3.29958,5.9977 -9.86849,15.06838 -16.29431,22.5 -4.90558,5.67342 -14.52376,14.8064 -19.75703,18.76037 -0.6476,0.4893 -2.1326,1.61769 -3.3,2.50754 -8.02047,6.11363 -19.2487,12.63873 -29.57253,17.18559 -14.32326,6.3083 -30.02462,10.30358 -45.75,11.64125 -3.85268,0.32772 -17.12112,0.61005 -20.1,0.42771 z m 45.3199,-46.64992 c 2.71083,-0.49868 9.67455,-2.51911 14.5301,-4.21572 9.24819,-3.23146 21.6,-9.29923 21.6,-10.6109 0,-0.2456 -0.82854,-1.08766 -1.8412,-1.87123 -1.01267,-0.78358 -4.96142,-3.89226 -8.77501,-6.90817 -3.81358,-3.01591 -7.66886,-6.05341 -8.56727,-6.75 -0.89841,-0.69659 -2.99104,-2.35118 -4.65029,-3.67686 -1.65924,-1.3257 -3.80384,-3.0132 -4.76576,-3.75 -2.1866,-1.67489 -3.25953,-2.53067 -6.94536,-5.53966 -3.4958,-2.85387 -4.64379,-3.76854 -6.91709,-5.51122 -0.94075,-0.72117 -1.93042,-1.50569 -2.19924,-1.74336 -1.52415,-1.34754 -4.74405,-3.69232 -5.07234,-3.69375 -0.21095,-9e-4 -1.17405,0.39737 -2.14021,0.88509 -5.01177,2.52993 -11.73538,2.88866 -15.77454,0.84162 -1.73842,-0.88103 -3.88151,-2.75253 -5.37131,-4.69064 -1.42001,-1.84731 -3.78038,-5.59669 -3.78038,-6.00502 0,-0.14119 1.38375,-0.26196 3.075,-0.26839 3.09298,-0.0118 7.66274,-0.23634 10.725,-0.52709 7.07886,-0.67212 7.9436,-0.77087 9,-1.02782 0.0825,-0.0201 -0.255,-0.22193 -0.75,-0.44859 -0.88171,-0.40372 -0.86341,-0.41211 0.9,-0.41278 0.99,-3e-4 1.63125,0.0674 1.425,0.15063 -0.20625,0.0832 -0.375,0.27721 -0.375,0.43109 0,0.33077 1.77985,0.24554 1.99051,-0.0953 0.0797,-0.12895 0.65679,-0.23445 1.28243,-0.23445 0.62564,0 1.52892,-0.12752 2.00729,-0.28338 0.47837,-0.15586 2.55727,-0.35819 4.61977,-0.44962 2.0625,-0.0914 4.7625,-0.28968 6,-0.44054 5.4264,-0.66155 22.24891,-4.03458 27.9,-5.59414 0.9075,-0.25045 3.54,-0.93908 5.85,-1.5303 2.31,-0.59122 4.46629,-1.26103 4.79175,-1.48848 0.32546,-0.22745 0.92665,-0.41354 1.33597,-0.41354 1.69351,0 16.57107,-4.94804 25.82228,-8.58809 4.89327,-1.92533 11.71191,-4.78667 14.7,-6.16862 1.4025,-0.64863 3.765,-1.74206 5.25,-2.42985 5.29336,-2.45163 16.20639,-8.08145 16.575,-8.55072 0.71178,-0.90613 0.23046,-12.87232 -0.85926,-21.36272 -1.21998,-9.50519 -4.21266,-22.02914 -7.2801,-30.46623 -1.5696,-4.31723 -4.3565,-11.24925 -4.96579,-12.35171 -0.16173,-0.29263 -1.18738,-2.35456 -2.27924,-4.58206 -2.30241,-4.69717 -3.63125,-7.05479 -6.74061,-11.95915 -3.84439,-6.0637 -5.95886,-9.08271 -9.15,-13.06424 -0.825,-1.02934 -2.30564,-2.87392 -3.29032,-4.09907 -2.43931,-3.03504 -9.73152,-10.45491 -14.10968,-14.3567 -3.99414,-3.55956 -9.70599,-8.08898 -12.8572,-10.19559 -4.04294,-2.70273 -5.47197,-3.62435 -7.5428,-4.86452 -1.155,-0.69171 -2.7075,-1.63237 -3.45,-2.09036 -2.44899,-1.51059 -12.08094,-6.19057 -15.98862,-7.76857 -10.40248,-4.20072 -21.4407,-7.18242 -31.59395,-8.53432 -1.96209,-0.26125 -4.38489,-0.60682 -5.38401,-0.76792 -5.73832,-0.9253 -22.65944,-0.93018 -28.82645,-0.008 -1.13134,0.16911 -4.43649,0.6468 -7.34479,1.06154 -7.66282,1.09274 -22.24163,4.95458 -27.00503,7.15348 -0.55393,0.25571 -2.08715,0.8859 -3.40715,1.40043 -3.48382,1.35796 -10.42623,4.69487 -13.95,6.70514 -0.7425,0.42359 -1.89,1.06181 -2.55,1.41827 -2.1663,1.17 -6.65949,4.06218 -10.5411,6.78509 -2.44014,1.71174 -3.9568,2.88961 -10.33466,8.02615 -2.74709,2.21243 -11.81257,11.29232 -15.33917,15.36355 -13.62445,15.72855 -24.31235,35.72602 -30.11436,56.34511 -4.23408,15.04701 -6.08903,32.17686 -5.24086,48.39762 0.20212,3.86543 0.51045,7.3418 0.68517,7.72528 0.17473,0.38348 0.73782,0.85264 1.25133,1.04258 5.59122,2.06812 26.92044,8.96229 29.13365,9.41677 0.495,0.10165 2.0475,0.51159 3.45,0.91098 8.15394,2.32199 17.3839,4.46674 29.7,6.90134 2.82632,0.5587 8.87272,1.54702 12.93918,2.115 1.71095,0.23897 4.79832,0.69435 6.86082,1.01196 2.0625,0.31761 4.52018,0.6654 5.46151,0.77288 1.63701,0.18689 1.75032,0.25656 2.60283,1.60049 1.2261,1.93288 6.02235,8.75947 8.51441,12.11872 5.70491,7.69012 13.40788,16.81645 20.13694,23.85787 4.47174,4.67931 12.66906,11.87197 17.17123,15.06672 6.15074,4.36459 14.32663,8.76339 19.16308,10.31014 3.37999,1.08096 8.07985,2.26504 10.2,2.56977 2.64091,0.37958 9.36636,0.38218 11.4199,0.004 z m -41.2699,-64.7707 c 0.40563,-0.2638 3.87358,-0.45182 3.575,-0.19383 -0.0687,0.0594 -1.0025,0.19317 -2.075,0.29725 -1.31203,0.12732 -1.80278,0.0935 -1.5,-0.10342 z m 7.27912,-0.51711 c 0.45602,-0.069 1.13102,-0.0671 1.5,0.004 0.36899,0.0712 -0.004,0.12762 -0.82912,0.12537 -0.825,-0.002 -1.12689,-0.0605 -0.67088,-0.12947 z m 6.52088,-0.0847 c -0.31789,-0.20544 0.0784,-0.29081 1.35,-0.29081 1.27156,0 1.66789,0.0854 1.35,0.29081 -0.2475,0.15995 -0.855,0.29081 -1.35,0.29081 -0.495,0 -1.1025,-0.13086 -1.35,-0.29081 z m 69.99301,45.525 c 0.42536,-1.19625 1.19904,-3.5925 1.7193,-5.325 0.52025,-1.7325 1.21717,-3.96 1.54872,-4.95 0.89293,-2.66631 0.63936,-5.07491 -0.75543,-7.17561 -1.2849,-1.9352 -3.63416,-3.9325 -18.5056,-15.73312 -1.70797,-1.35529 -8.33029,-6.40557 -9.88871,-7.54127 -3.45971,-2.52128 -4.26536,-3.04636 -6.1758,-4.02503 -1.1123,-0.5698 -2.93666,-1.1994 -4.05414,-1.3991 -2.30872,-0.4126 -1.52558,-0.68602 -8.23135,2.87386 -2.145,1.13871 -4.575,2.3975 -5.4,2.79732 -1.84205,0.89272 -2.55,1.49058 -2.55,2.15348 0,0.28747 1.31901,1.53561 3.04195,2.87851 1.67307,1.30403 3.27677,2.59091 3.56378,2.85974 0.287,0.26882 1.24688,1.04267 2.13305,1.71966 0.88617,0.67699 2.08252,1.60454 2.65854,2.06122 0.57603,0.45669 2.73603,2.14037 4.8,3.74152 4.90927,3.80842 6.38843,4.96939 7.94865,6.23882 0.70979,0.5775 3.95111,3.1425 7.20293,5.7 3.25182,2.5575 8.90236,7.03804 12.55675,9.95676 3.65439,2.91871 6.86252,5.31496 7.12916,5.325 0.33655,0.0127 0.72134,-0.64692 1.2582,-2.15676 z"
         id="path3407"
         inkscape:connector-curvature="0" />
    </g>
  </g>
</svg>
