<svg height="297mm" viewBox="0 0 744.09448819 1052.3622047" width="210mm" xmlns="http://www.w3.org/2000/svg"><g transform="translate(-2.857143 -20)"><path d="m203.57144 523.79077v-165h165 165v165 165h-165-165z" fill="#fcfdfd"/><path d="m366.32144 671.21299c-9.46929-.57846-18.77531-1.6998-23.4-2.81961-1.32-.31962-4.155-.99546-6.3-1.50183-2.145-.5064-4.71-1.18182-5.7-1.50096s-3.285-1.04985-5.1-1.62381c-10.58081-3.34593-21.97325-8.69055-32.4-15.20007-2.28901-1.42905-8.79639-5.85437-9.63173-6.55002-.51245-.42676-1.64459-1.31592-2.51588-1.97592-1.71586-1.29976-5.17782-4.13859-7.79125-6.38887-4.95022-4.26236-13.26014-13.06522-18.49515-19.59225-4.19413-5.22928-9.35202-12.72845-11.73986-17.06888-.59002-1.0725-1.24526-2.15399-1.45608-2.40332-.66415-.78546-5.99478-11.68403-7.60203-15.5425-2.06442-4.95595-4.60235-11.95801-5.40211-14.90418-.35832-1.32-.83821-2.88956-1.06643-3.4879-.22821-.59835-.82824-2.89335-1.3334-5.1s-1.12073-4.8221-1.36794-5.8121c-1.24773-4.99668-2.39562-14.61226-2.88758-24.18844-.5071-9.87086.17221-21.64162 1.85032-32.06156.57348-3.56097.82883-4.76626 2.51044-11.85 1.54051-6.48934 4.48329-15.28123 7.7242-23.07692 1.57967-3.79974 6.90542-14.67924 7.57072-15.46555.21292-.25164.86987-1.33503 1.45989-2.40753 1.11513-2.02698 2.69094-4.50622 5.39062-8.4811 8.51132-12.53167 20.34405-25.07378 32.63325-34.58963.7425-.57494 1.91251-1.49417 2.60003-2.04273 1.6631-1.32697 10.09986-6.90785 13.29997-8.79787 17.1115-10.10623 37.94618-17.09648 57.85581-19.41121 17.0084-1.97742 35.66019-.90532 51.72892 2.97338 14.26583 3.44351 29.03734 9.36354 41.01527 16.43783 3.24043 1.91383 11.69245 7.50865 13.18968 8.73091.62686.51173 1.84881 1.47042 2.71546 2.13042 5.2613 4.00676 8.30231 6.6953 14.25527 12.60299 9.27259 9.20207 18.77065 21.37149 23.76346 30.44701.59002 1.0725 1.24526 2.15399 1.45608 2.40332.66416.78546 5.99477 11.68403 7.60202 15.5425 2.06442 4.95595 4.60236 11.95801 5.40213 14.90418.35832 1.32.8415 2.89781 1.07376 3.50624s.77535 2.63343 1.2069 4.5 1.04112 4.47376 1.35459 5.79376c2.34234 9.86344 3.63573 26.22806 3.0201 38.21156-.49197 9.57618-1.63986 19.19176-2.88759 24.18844-.2472.99-.86277 3.60545-1.36794 5.8121s-1.10346 4.50165-1.32957 5.1c-.22611.59834-.77685 2.3704-1.22385 3.9379-.97209 3.40868-3.20295 9.54507-5.28123 14.52692-1.58274 3.79398-6.91944 14.69754-7.57326 15.47308-.20866.2475-.86212 1.3275-1.45214 2.4-3.58497 6.51646-10.58262 16.08918-17.26616 23.61995-2.96557 3.3415-10.51861 10.93863-12.96549 13.04118-2.66461 2.28965-6.09567 5.10193-7.79461 6.38887-.87129.66-2.00343 1.54742-2.51588 1.97205-.95914.79476-6.85608 4.79716-9.78173 6.6391-9.95274 6.26607-21.74547 11.79305-32.25 15.11486-1.815.57396-4.11 1.30467-5.1 1.62381s-3.555.99456-5.7 1.50096c-2.145.50637-4.98 1.18221-6.3 1.50183-2.99346.72483-11.64413 1.95219-16.77482 2.38002-4.15384.34635-15.96152.62064-18.92518.43959zm47.55-49.56078c1.0725-.33671 3.57-1.08197 5.55-1.65615 4.39047-1.27318 10.07811-3.31161 14.10362-5.05469 3.50595-1.51812 10.46186-5.11334 11.54638-5.96785l.75-.59095-.64601-.5209c-.35531-.2865-1.77281-1.39398-3.15-2.46108-1.3772-1.0671-4.73149-3.7046-7.45399-5.86111s-6.03-4.76315-7.35-5.79253c-2.69256-2.09976-7.07769-5.55196-11.88459-9.35618-1.77216-1.4025-4.52714-3.5625-6.12216-4.8-1.59503-1.2375-4.00102-3.12887-5.34665-4.20304-1.34563-1.07418-3.35785-2.6627-4.47159-3.53006l-2.025-1.57701-1.48277.75137c-4.4816 2.271-10.68427 2.98601-14.72997 1.69797-3.76591-1.19895-6.47972-3.52284-9.50493-8.13923-1.02721-1.5675-2.15122-3.22125-2.49781-3.675l-.63017-.825-5.60218-.003c-9.57373-.005-27.18847-.84203-31.40218-1.49234-3.73619-.5766-6.15-.66988-6.15-.23766 0 .40827 5.07241 7.86198 7.50799 11.0327.44361.5775 1.96683 2.6025 3.38494 4.5s3.09109 4.08658 3.71773 4.86462 1.54168 1.92554 2.03343 2.55c2.67578 3.39789 8.96166 10.39539 12.90571 14.36675 7.50898 7.56098 12.04017 11.34106 19.73691 16.46524 7.76978 5.17282 15.80357 8.48255 24.06329 9.91352 3.68199.6379 12.59537.40333 15.15-.39869zm39.7597-21.88644c.75743-2.43375 1.56314-4.965 1.79046-5.625.92454-2.68422 1.06886-3.67648.74492-5.12194-.33094-1.47675-2.2602-4.51766-3.26011-5.13863-.31933-.19831-2.33335-1.75081-4.47558-3.45-2.14225-1.69919-4.60227-3.62943-5.46673-4.28943s-2.1466-1.6725-2.84921-2.25c-.7026-.5775-2.52058-1.995-4.03996-3.15-1.51937-1.155-3.59297-2.73758-4.60799-3.51685-3.43364-2.63613-4.24198-3.25262-5.7455-4.38189-3.17778-2.38679-5.96756-3.82348-8.32997-4.2898-1.63501-.32273-1.81617-.29684-3.3.47179-7.86372 4.07342-11.32003 5.94338-11.32003 6.12444 0 .11783.68885.7493 1.53078 1.40327s2.15818 1.69607 2.925 2.31577c.76682.61971 2.11927 1.68226 3.00544 2.36123.88617.67896 1.84652 1.45444 2.1341 1.72326.28758.26883 2.51705 2.04128 4.95439 3.93878 2.43733 1.8975 5.00656 3.9225 5.7094 4.5.70283.5775 2.06831 1.6782 3.03438 2.44601.96608.7678 3.51163 2.7928 5.65677 4.5 2.14514 1.70719 4.41734 3.50899 5.04933 4.00399s1.73511 1.3725 2.45139 1.95 2.29158 1.82492 3.50067 2.77204 3.14335 2.46996 4.29835 3.3841c3.47133 2.74742 4.7886 3.72859 5.01628 3.73642.11896.004.836-1.98381 1.59342-4.41756z" fill="#dce8f5"/><path d="m365.42144 670.61323c-9.00891-.55158-18.916-1.71789-22.65-2.66643-.9075-.23055-3.27-.77892-5.25-1.21863-3.49627-.77646-4.42752-1.0425-11.4-3.25689-9.1241-2.89773-21.93741-8.69174-29.32179-13.25894-1.44199-.89187-2.70314-1.62157-2.80256-1.62157-.0994 0-.5396-.27185-.9782-.60411s-2.28245-1.59545-4.09745-2.80709-4.25514-2.93104-5.42253-3.82089c-1.1674-.88985-2.6524-2.01824-3.3-2.50754-5.26794-3.98016-15.09895-13.32171-20.05487-19.05636-6.43878-7.45055-12.99785-16.50804-16.29647-22.50401-.59002-1.0725-1.24181-2.1525-1.44841-2.4-.56728-.67955-5.57955-10.68478-6.86408-13.7017-.62017-1.45657-1.31144-3.0533-1.53614-3.5483-.99205-2.18537-3.87056-10.213-4.84078-13.5-1.97796-6.70111-2.19222-7.49482-2.9559-10.95-2.96381-13.40949-4.16928-27.80932-3.48216-41.59605.61854-12.41081 1.3963-18.02914 4.10506-29.65395 1.3446-5.77045 5.21392-17.58263 7.17378-21.9.2247-.495.9249-2.115 1.55599-3.6 1.28547-3.02477 6.26446-12.95416 6.84466-13.65.20636-.2475.89447-1.395 1.52911-2.55.63465-1.155 1.60139-2.72362 2.14832-3.48583s.99442-1.49149.99442-1.62064.4109-.78802.91311-1.46417 2.01144-2.78186 3.35384-4.67936c7.8024-11.02877 18.52409-22.16784 29.52674-30.67617.80097-.61939 2.19881-1.69958 3.10631-2.40043 2.12455-1.64076 9.61274-6.59843 12.9-8.54065 3.31802-1.9604 12.6263-6.77827 14.55-7.53094.825-.32279 2.3775-.98484 3.45-1.47123s3.03-1.26629 4.35-1.73312 2.535-.94322 2.7-1.05864c.48547-.33958 10.83691-3.48536 14.1-4.28495 6.37347-1.56176 8.57376-2.00125 13.65-2.72647 8.16989-1.1672 13.22977-1.50011 22.8-1.50011 17.26454 0 29.03276 1.7401 44.85 6.6317 2.97.91849 5.535 1.76442 5.7 1.87983.165.11542 1.38.59181 2.7 1.05864s3.2775 1.24673 4.35 1.73312 2.625 1.14844 3.45 1.47123c1.93362.75655 11.24905 5.57984 14.55 7.53361 3.1967 1.89208 11.25415 7.28677 13.67483 9.15569 1.00365.77489 2.61696 2.00689 3.58512 2.73777 6.88695 5.19909 16.61507 14.92231 23.88313 23.87112 3.62777 4.46671 9.69228 13.27191 11.88079 17.25.59002 1.0725 1.24181 2.1525 1.44841 2.4.56728.67955 5.57956 10.68478 6.86407 13.7017.62019 1.45656 1.31145 3.0533 1.53615 3.5483.99204 2.18537 3.87057 10.213 4.84077 13.5 1.97796 6.70111 2.19222 7.49482 2.9559 10.95 2.9637 13.40888 4.1616 27.68396 3.48282 41.50395-.53529 10.89923-1.43688 17.93948-3.48282 27.19605-.77067 3.48686-1.02084 4.41072-2.97894 11.00146-1.00389 3.37898-3.8643 11.3581-4.82112 13.44854-.22656.495-.77382 1.7775-1.21608 2.85-1.00494 2.43693-6.66402 13.79114-7.17715 14.4-.20858.2475-.86199 1.3275-1.45201 2.4-3.29862 5.99597-9.85769 15.05346-16.29647 22.50401-4.95591 5.73465-14.78693 15.0762-20.05487 19.05636-.6476.4893-2.1326 1.61769-3.3 2.50754-11.80598 8.99915-28.30979 17.56193-42.62253 22.11413-6.58484 2.09433-8.17928 2.54259-12.75 3.58455-7.30595 1.66548-12.53246 2.48457-19.95 3.12645-3.80127.32898-17.64893.61623-20.7.42942zm44.88664-47.82175c2.6016-.37637 9.51156-2.33796 14.96336-4.24778 5.72006-2.00379 11.01702-4.28147 15.45-6.64348 4.95001-2.63748 5.54593-3.00536 5.5481-3.42499.0009-.20104-.77435-.93758-1.7231-1.63675s-2.67-2.02716-3.825-2.9511-3.45-2.74361-5.1-4.04369c-1.65-1.30009-3.69488-2.91261-4.54418-3.58336-.8493-.67076-2.32498-1.82706-3.27929-2.56956-1.8655-1.45145-8.62137-6.76566-11.07653-8.71288-2.47906-1.96616-6.46808-5.09204-9.74596-7.63712-1.70006-1.32-3.66472-2.8725-4.36591-3.45-4.43164-3.6499-5.00046-4.00934-5.81189-3.67253-.42693.17722-1.62864.6799-2.67047 1.11706-5.29912 2.22361-11.26042 2.19301-15.47133-.0794-2.11211-1.1398-4.54783-3.64608-6.62327-6.81513-.97254-1.485-2.01971-3.07329-2.32704-3.52953-.93486-1.3878-4.9698-8.40372-8.66723-15.07047-2.10033-3.78704-13.03363-24.4507-14.12718-26.7-.4011-.825-1.7494-3.4575-2.99623-5.85-4.96411-9.52543-8.61928-17.05446-9.24833-19.05-.4761-1.51033-.70385-3.15298-.8111-5.85-.17715-4.45489.23223-6.42633 2.06871-9.96238 1.4437-2.77976 4.53932-5.87791 7.37419-7.38021l1.87304-.99259-.008-4.25741c-.0147-7.70577-1.43496-57.47257-1.65016-57.82077-.14413-.23321-.88558-.27939-2.35113-.14644-16.60844 1.50664-30.17636 8.43635-37.42923 19.11666-1.75575 2.58547-4.0181 7.48701-4.75087 10.29314-1.72703 6.61355-2.14722 12.75345-1.50602 22.00606 1.39543 20.13608 2.02914 26.04325 4.07435 37.97928.7337 4.28193 1.66136 9.14193 2.06147 10.8.40011 1.65806 1.00762 4.22966 1.35003 5.71466 1.44215 6.25463 5.06529 17.33543 7.65715 23.41819 2.26194 5.30848 5.86749 12.09037 8.04474 15.13181.29529.4125 2.09592 3.1125 4.00139 6 1.90548 2.8875 4.15034 6.195 4.98858 7.35 3.21355 4.42788 3.77466 5.19074 6.06815 8.25 1.29883 1.7325 2.7076 3.5729 3.13058 4.08979.42299.51687 1.44407 1.78745 2.26907 2.82349 7.69457 9.66288 17.19763 19.39362 25.23691 25.84157 4.05077 3.24893 9.65828 7.10197 12.18419 8.37202.70339.35367 1.4814.80568 1.7289 1.00446.70705.56788 7.74045 3.64002 9.9 4.32426 7.53047 2.38599 14.60632 3.24518 20.13664 2.44512zm43.41843-21.90071c3.03027-9.45233 3.13385-9.85487 2.94536-11.44635-.34868-2.9441-1.81971-4.56745-9.76032-10.77097-2.20544-1.72297-4.52401-3.53768-5.15237-4.03268-1.79749-1.416-10.12687-7.80594-15.13774-11.61303-5.39642-4.10001-10.35283-5.966-12.30825-4.63382-.50482.34392-4.8259 2.63818-10.49175 5.57053-.825.42697-1.5.94185-1.5 1.14416 0 .20232 1.89 1.86759 4.2 3.70061 2.31 1.83301 6.6151 5.24498 9.56689 7.58215s5.94127 4.7219 6.64328 5.2994c.70202.5775 1.99942 1.62169 2.88311 2.32041.8837.69873 4.37422 3.45684 7.75672 6.12913s7.77 6.15148 9.75 7.73154c1.98 1.58005 4.0725 3.24081 4.65 3.69058.5775.44978 1.7925 1.41013 2.7 2.13413.9075.72399 1.74065 1.23262 1.85144 1.13028.1108-.10234.74243-1.87357 1.40363-3.93607zm-97.08642-132.92331c3.29076-1.28929 6.5405-3.85479 8.93717-7.05541l1.14472-1.52871-.28428-21.27129c-.16729-12.5177-.40777-21.65487-.58438-22.2034-.70033-2.17518-5.97916-6.10534-10.03188-7.46886-2.18153-.73397-5.08017-1.09874-5.98811-.75354-.75042.28531-.76195.33832-.76584 3.52209-.002 1.77784.13147 7.68743.29697 13.13243s.43827 15.5025.60615 22.35c.34772 14.18243.76449 20.50447 1.42148 21.5626.40488.65208.57934.6965 2.05455.52312.88665-.10421 2.32371-.46827 3.19345-.80903z" fill="#6790cb"/><path d="m366.62144 670.61278c-13.12076-.79992-19.43712-1.74468-30.9-4.62177-7.82384-1.96374-15.23928-4.48914-22.35-7.61153-4.89832-2.15091-12.66945-6.12466-15.97179-8.16714-1.44199-.89187-2.70314-1.62157-2.80256-1.62157-.0994 0-.53961-.2722-.9782-.60489-.4386-.33269-2.55245-1.77227-4.69745-3.19908-2.145-1.4268-4.31928-2.94335-4.83173-3.37011s-1.6446-1.31592-2.51588-1.97592c-10.02965-7.59746-21.17675-18.9953-29.25239-29.91039-2.96587-4.00869-6.87-9.92423-8.47387-12.83961-.59002-1.0725-1.24181-2.1525-1.44841-2.4-.56413-.67579-5.57407-10.67274-6.86656-13.7017-.62154-1.45656-1.37145-3.1883-1.66648-3.8483s-.97636-2.4825-1.51407-4.05c-.5377-1.5675-1.08467-2.99144-1.21548-3.1643-.34482-.45567-2.84695-8.97947-3.87061-13.1857-1.75598-7.21536-2.09068-8.76807-2.68364-12.45-3.24089-20.12379-2.55671-40.09622 2.06381-60.24559.65528-2.85758 1.39711-5.76008 1.64851-6.45.2514-.68993.87839-2.73941 1.39331-4.55441s1.12232-3.705 1.34978-4.2c.22745-.495.83702-2.115 1.35459-3.6s1.1816-3.24 1.47562-3.9c.29403-.66 1.05206-2.415 1.68452-3.9 1.29301-3.03599 6.27007-12.95792 6.84713-13.65.20636-.2475.89447-1.395 1.52911-2.55.63465-1.155 1.58081-2.7075 2.10258-3.45s1.02341-1.5525 1.11475-1.8c.15152-.41056 2.28029-3.49059 4.76895-6.9 7.95683-10.9007 18.88966-22.13371 29.65646-30.47073.7425-.57494 1.91251-1.49416 2.60003-2.04273 1.65207-1.31818 10.08004-6.89529 13.29997-8.80112 3.29889-1.95255 12.61517-6.77649 14.55-7.53394.825-.32297 2.26992-.94024 3.21094-1.37171s2.83102-1.19101 4.2-1.68786 2.75906-1.02601 3.08906-1.17591c1.75918-.79907 11.4956-3.60889 17.1-4.93486 20.58713-4.87078 45.11287-4.87078 65.7 0 5.6044 1.32597 15.34082 4.13579 17.1 4.93486.33.1499 1.72008.67906 3.08906 1.17591s3.25898 1.25639 4.2 1.68786 2.38594 1.04874 3.21094 1.37171c1.93483.75745 11.25111 5.58139 14.55 7.53394 3.26093 1.9301 11.70229 7.51993 13.18968 8.73416.62686.51173 1.84881 1.47042 2.71546 2.13042 10.22565 7.78738 21.12268 18.9324 29.24486 29.91039 2.96587 4.00869 6.87 9.92422 8.47387 12.83961.59002 1.0725 1.24181 2.1525 1.44841 2.4.56413.67579 5.57407 10.67274 6.86656 13.7017.62154 1.45656 1.37064 3.1883 1.66467 3.8483.294.66.95805 2.415 1.47561 3.9s1.12932 3.105 1.35942 3.6c.23013.495.90324 2.62075 1.49586 4.72389.59259 2.10314 1.21386 4.12814 1.3806 4.5 1.03605 2.31081 3.83628 16.77504 4.61322 23.82909 1.54428 14.02081 1.18767 28.5702-1.03911 42.39702-.59238 3.67841-.92154 5.20598-2.68275 12.45-.97401 4.00613-3.39639 12.23144-3.88302 13.18487-.17265.33832-.735 1.83013-1.24959 3.31513-.51462 1.485-1.17774 3.24-1.47363 3.9s-.90096 2.0775-1.3446 3.15c-1.01406 2.45143-6.66984 13.79509-7.17964 14.4-.20858.2475-.86199 1.3275-1.45201 2.4-1.59912 2.90673-5.48847 8.80136-8.47387 12.84281-7.98496 10.80954-19.26371 22.34077-29.25239 29.90719-.87128.66-2.00343 1.54916-2.51588 1.97592-.82088.6836-7.1806 5.01163-9.63173 6.55474-13.07866 8.23368-27.27087 14.32268-42 18.01958-9.48456 2.38056-15.86146 3.48102-24.19749 4.17576-4.14454.34542-15.52722.6213-18.40251.44601zm50.32391-49.1045c8.59121-2.49195 15.95319-5.30836 22.27609-8.52196 4.90107-2.49096 7.35-3.97093 7.35-4.44184 0-.46481-.45137-.85238-6.3-5.40966-2.2275-1.73567-4.67957-3.65938-5.44903-4.27491-2.16592-1.7326-4.36685-3.46713-7.15097-5.63563-1.4025-1.09237-3.9-3.05143-5.55-4.35347s-4.8225-3.79946-7.05-5.54983c-5.9669-4.68879-9.63295-7.57818-13.5-10.64-1.8975-1.50238-3.62531-2.80675-3.83958-2.8986-.21427-.0919-1.30834.25649-2.43127.77408-3.45398 1.59205-6.57481 2.23083-10.06459 2.06008-3.76739-.18434-5.73465-.89647-8.48357-3.071-2.90772-2.30013-5.87122-6.74521-13.20371-19.80477-1.41734-2.52437-3.82624-7.00427-7.58175-14.1-.87329-1.65-2.05667-3.8775-2.62975-4.95-6.70287-12.54434-17.18104-33.34801-18.03077-35.79881-.95141-2.74408-1.36027-7.17111-.95239-10.31217.51389-3.95751 2.27478-7.40984 5.18361-10.16281 1.20657-1.14191 2.96229-2.46079 3.90162-2.93083.93931-.47004 1.86465-1.04356 2.05629-1.27447.24983-.30102.29261-1.62995.15115-4.69538-.10851-2.35154-.32364-11.95836-.47806-21.34848-.31764-19.31494-.49251-17.84935 2.13193-17.86751l1.37917-.01.19447 3.375c.10696 1.85625.19384 4.86.19307 6.675-.0009 1.815.13326 5.9325.29784 9.15s.44231 9.2925.61718 13.5c.36039 8.67128.54852 9.80308 1.67654 10.0862 3.81489.95748 10.50287-2.8092 14.44634-8.1362l1.3325-1.8-.19952-2.21771c-.20251-2.25107-.26591-30.93313-.0688-31.13023.0591-.0591 2.5929-.19387 5.63075-.29958 4.91465-.17102 5.56864-.13766 5.93408.30266.5373.64741.98655.63194.87538-.0301-.0794-.47287.28176-.5334 3.63721-.60964 2.27668-.0517 3.84577.0358 4.035.225.42417.42417.80557.38929.71464-.0654-.0967-.48362 7.2132-.7068 7.68536-.23464.42417.42417.80557.38929.71464-.0654-.0967-.48362 7.2132-.7068 7.68536-.23464.42417.42417.80557.38929.71464-.0654-.0561-.28068.87604-.39604 3.7061-.45863 3.09877-.0686 3.84979-.0009 4.16173.375.51097.61566.954.58088.84532-.0664-.0746-.44435.23444-.55384 2.01185-.71274 1.155-.10325 3.73722-.2045 5.73827-.225 2.90116-.0297 3.71393.0539 4.01173.41274.5047.60812.94622.56861.83815-.075-.0793-.4722.27701-.53344 3.54275-.60888 2.96523-.0685 3.70071.00025 4.01173.375.51114.61588.95422.58123.84552-.0661-.0801-.47688.28306-.52853 3.96185-.56355 2.2275-.0212 4.2525-.11125 4.5-.2001.2475-.0889 3.285-.24196 6.75-.34024 11.70109-.33186 24.59925-.82321 24.71913-.94166.0655-.0647-.49906-.7616-1.25462-1.54858-8.92205-9.29302-13.65226-13.5972-20.01451-18.21193-1.5675-1.13695-3.3225-2.42127-3.9-2.85405-1.48559-1.1133-6.54924-4.33381-7.8-4.96085-.5775-.28952-1.2525-.70109-1.5-.91461-.88496-.76344-11.62764-6.04674-15.75-7.74591-11.02652-4.54497-21.95708-7.43927-34.2-9.05582-7.0513-.93106-9.40201-1.0746-17.55-1.07169-8.46687.003-10.07709.1094-18.6 1.22878-18.84534 2.4751-37.67207 9.37395-54.07255 19.81427-10.29364 6.55279-20.35725 15.08325-27.94883 23.69094-.80037.9075-1.949 2.19-2.55251 2.85-1.82144 1.99191-5.12559 6.20451-5.12624 6.53563-.00007.0354 2.05796.0644 4.5734.0644 3.86464 0 4.57377.0697 4.57513.45.001.32372.40148.47566 1.4266.54144 1.63786.10509 1.98363-.45598.36873-.59833-.58094-.0512-1.08719-.22811-1.125-.39311-.0424-.18528 1.4612-.33208 3.93203-.38389 3.80387-.0798 4.0086-.0539 4.15999.525.12945.49503.40513.60889 1.47424.60889 1.56549 0 1.7717-.52352.25874-.65689-.58094-.0512-1.05344-.22811-1.05-.39311.004-.18333 1.43545-.3 3.68127-.3 3.33358 0 3.66681.0488 3.58685.525-.0656.39077.11636.525.71173.525.68677 0 .74558-.0654.41587-.46271-.22726-.27384-.27287-.56607-.11174-.71591.20445-.1901 10.62229-.67841 10.62229-.49789 0 .17531-1.29702 3.39736-1.93238 4.80039-.84962 1.87618-1.998 6.38719-2.54154 9.98359-.41187 2.72512-.42586 14.05458-.0235 18.99253.16808 2.0625.58144 7.26.91859 11.55.95673 12.17386 3.04765 26.1944 5.25694 35.25.5837 2.3925 1.25761 5.17944 1.49758 6.1932s1.08781 3.98376 1.88409 6.6c4.30831 14.15537 8.13612 22.57117 14.85349 32.6568 7.1204 10.69075 14.51902 20.97018 18.78668 26.10167.5775.6944 2.535 3.06802 4.35 5.27472 3.87554 4.71195 14.97008 15.97075 19.04807 19.33011 11.49017 9.46535 20.92541 14.57645 31.50193 17.0647 4.39325 1.03356 4.27039 1.023 10.95.94057l6-.074 4.72391-1.37021zm36.33364-18.29251c.42263-1.19625 1.19193-3.5925 1.70955-5.325.51761-1.7325 1.21219-3.96 1.54349-4.95 1.29726-3.87646-.13641-7.15273-4.69505-10.72925-7.03273-5.51758-10.07553-7.8983-11.53203-9.02276-.88907-.6864-2.03657-1.59657-2.55-2.02261-2.21727-1.83987-11.66025-8.92546-13.80548-10.35903-2.96834-1.98362-5.80736-3.10504-7.88043-3.11279-.63355-.002-2.99377 1.06666-7.05 3.19319-5.9537 3.1213-7.1476 3.84573-7.1476 4.33697 0 .21363 2.93628 2.68372 5.13091 4.31628.44362.33 2.06939 1.61875 3.61283 2.86389 1.54345 1.24514 4.6812 3.74264 6.9728 5.55 2.29159 1.80736 4.74107 3.75861 5.44328 4.33611s1.99977 1.61901 2.88346 2.31446c.8837.69545 3.36172 2.66007 5.50672 4.36582 5.82629 4.63318 12.55856 9.97034 15.6 12.36725 1.485 1.1703 3.24 2.55635 3.9 3.08009s1.28756.95679 1.39457.96232c.10701.006.54035-.96869.96298-2.16494zm-105.10755-175.725c0-.165-.54-.3-1.2-.3s-1.29788-.0101-1.4175-.0225c-.11963-.0124-.26588.12262-.325.3-.0673.2018.46324.3225 1.4175.3225.83875 0 1.525-.135 1.525-.3z" fill="#4776b9"/><path d="m366.02144 670.31311c-9.48694-.58011-18.78701-1.70139-23.4-2.82123-1.32-.32043-3.885-.92649-5.7-1.34676-7.2793-1.68558-16.27093-4.73643-24.15-8.19409-4.61129-2.02362-12.43465-6.03654-15.67179-8.03869-1.44199-.89186-2.70314-1.62157-2.80255-1.62157-.0994 0-.53962-.27185-.97821-.60411-.4386-.33226-2.28245-1.59545-4.09745-2.80709s-4.25514-2.93104-5.42253-3.82089c-1.1674-.88985-2.6524-2.01824-3.3-2.50754-5.35621-4.04685-15.00917-13.21812-20.04347-19.04327-6.44993-7.46318-13.00656-16.51625-16.30787-22.5171-.59002-1.0725-1.24181-2.1525-1.44841-2.4-.56413-.67579-5.57407-10.67274-6.86656-13.7017-.62154-1.45657-1.36779-3.1883-1.65834-3.8483-.29056-.66-.96139-2.415-1.49074-3.9-.52936-1.485-1.1521-3.12218-1.38388-3.63819-.8659-1.92773-3.5787-11.50416-4.83325-17.06181-4.21025-18.65132-4.74893-40.72333-1.45875-59.77113.73538-4.25732 2.21009-11.08988 2.96319-13.72887 1.29293-4.53069 2.9848-9.9931 3.34158-10.78872.22476-.5012.84175-2.12628 1.37111-3.61128.52935-1.485 1.20018-3.24 1.49074-3.9.29055-.66 1.04574-2.415 1.6782-3.9 1.29301-3.03599 6.27007-12.95792 6.84713-13.65.20636-.2475.89447-1.395 1.52911-2.55.63465-1.155 1.60139-2.72362 2.14832-3.48583s.99442-1.49149.99442-1.62064.4109-.78802.91311-1.46417 2.01144-2.78186 3.35384-4.67936c8.06258-11.39653 19.79199-23.46344 30.68305-31.56591.495-.36826 1.5075-1.14796 2.25-1.73266 1.76696-1.39145 9.35873-6.40363 12.6-8.31868 3.31595-1.95917 12.6251-6.77771 14.55-7.53127.825-.32297 2.26992-.94024 3.21094-1.37171s2.83102-1.19101 4.2-1.68786 2.75906-1.03244 3.08906-1.19019c.59674-.28527 3.57162-1.22918 9.3-2.95084 1.65-.4959 4.5525-1.25018 6.45-1.67618 1.8975-.42599 3.855-.90025 4.35-1.0539.495-.15366 2.655-.55668 4.8-.89561 17.13981-2.70827 33.56019-2.70827 50.7 0 2.145.33893 4.305.74195 4.8.89561.495.15365 2.4525.62791 4.35 1.0539 1.8975.426 4.8 1.18028 6.45 1.67618 5.72838 1.72166 8.70326 2.66557 9.3 2.95084.33.15775 1.72008.69334 3.08906 1.19019s3.25898 1.25639 4.2 1.68786 2.38594 1.04874 3.21094 1.37171c1.93483.75745 11.25111 5.58139 14.55 7.53394 3.1637 1.87254 11.22366 7.26551 13.68347 9.15569 1.00841.77489 2.69591 2.07189 3.75 2.88223 7.23591 5.56264 16.42877 14.76212 23.70961 23.72666 3.62777 4.46671 9.69228 13.27191 11.88079 17.25.59002 1.0725 1.24181 2.1525 1.44841 2.4.56413.67579 5.57407 10.67274 6.86656 13.7017.62154 1.45656 1.36779 3.1883 1.65834 3.8483s.96138 2.415 1.49073 3.9c.52938 1.485 1.15212 3.12218 1.3839 3.63819.35934.80003 1.50165 4.50174 3.32094 10.76181.23976.825.84585 3.3225 1.34688 5.55 5.40534 24.03109 4.98336 50.35033-1.1784 73.5-.97254 3.65392-3.07671 10.57829-3.50976 11.55-.22059.495-.83418 2.115-1.36356 3.6-.52935 1.485-1.20168 3.24-1.49409 3.9s-.89466 2.0775-1.3383 3.15c-1.01406 2.45143-6.66984 13.79509-7.17964 14.4-.20858.2475-.86199 1.3275-1.45201 2.4-3.30131 6.00085-9.85794 15.05392-16.30788 22.5171-5.03429 5.82515-14.68725 14.99642-20.04346 19.04327-.6476.4893-2.1326 1.61769-3.3 2.50754-14.77746 11.26417-35.31594 20.96321-53.12253 25.08644-1.815.42027-4.38 1.02633-5.7 1.34676-2.98838.72546-11.62721 1.95183-16.8 2.38494-4.12782.34563-16.46763.62169-19.5.43629zm47.55-47.76037c1.0725-.33723 3.2325-.95692 4.8-1.37709 3.19842-.85735 11.42645-3.77314 15.3-5.4219 5.53294-2.35508 13.2-6.55123 13.2-7.22432 0-.21613-1.38375-1.46378-3.075-2.77254-1.69125-1.30877-4.8975-3.81941-7.125-5.57921-8.05943-6.36718-10.09324-7.96701-12.6-9.91138-3.14381-2.4385-5.37023-4.20194-7.03933-5.57553-.70174-.5775-2.52904-1.995-4.06067-3.15s-3.35893-2.5725-4.06067-3.15c-3.22131-2.65099-10.41562-8.24499-11.08661-8.6205-.46261-.25889-.93571-.14432-2.34798.56858-.97274.49104-2.733 1.13935-3.91168 1.44067-7.74059 1.97887-13.41457.26401-17.70491-5.35101-3.21366-4.20592-9.8571-15.71337-17.42786-30.18774-1.03564-1.98-2.32705-4.41-2.86982-5.4-3.75598-6.85089-17.19865-33.49862-17.96701-35.61642-.90738-2.501-1.22373-4.52981-1.2199-7.82335.004-3.45259.37565-5.13257 1.80516-8.16023 1.30889-2.77218 4.70568-6.20131 7.54781-7.61966 1.10359-.55075 2.07845-1.18879 2.16636-1.41787.0879-.22908.075-3.24271-.0286-6.69696l-.18844-6.28045.75067-.18841c.41288-.10362 1.27781-.14526 1.92208-.0925l1.17139.0959.19943 4.047c.38588 7.83072.60604 8.403 3.23269 8.403 4.12345 0 9.49665-3.33553 13.45411-8.35194 1.09594-1.38921 1.26377-1.79756 1.26377-3.075 0-1.37126.0518-1.47306.75-1.47306.4125 0 .75-.135.75-.3 0-.37783 2.6144-.3989 2.75-.0222.0887.24645 26.00362-.59863 44.95-1.46581 9.14802-.41871 10.5-.40095 10.5.13797 0 .31429.31667.45 1.05.45.85 0 1.05-.11428 1.05-.6 0-.53333.2-.6 1.8-.6 1.40836 0 1.8.099 1.8.45476 0 .53201-2.62668.62704 30.3-1.0963 25.68707-1.34443 31.52279-1.67906 31.65172-1.81499.0488-.0514-.36387-.97097-.91697-2.04347s-1.01219-1.71375-1.02019-1.425c-.0126.45504-.33439.525-2.41456.525-2.19231 0-2.4-.0514-2.4-.59428 0-.7349.93129-1.00298 2.98898-.86042.83126.0576 1.50928.1047 1.50669.1047-.003 0-.17713-.4725-.38787-1.05-1.21335-3.32501-7.14836-12.38576-12.80015-19.54147-7.56733-9.58098-19.86667-21.06954-29.67296-27.71692-2.94993-1.99966-4.79068-3.18636-6.78469-4.37397-1.155-.68791-2.4681-1.50375-2.91799-1.81299-1.66901-1.14719-12.22064-6.28305-16.28201-7.92503-8.2375-3.33037-17.08183-5.98123-25.43781-7.62434-3.19901-.62904-10.84254-1.692-15.21219-2.11549-3.48967-.33821-18.13438-.33647-21.45.003-19.99747 2.0447-34.39201 6.13925-51.15 14.54969-10.07166 5.05472-21.35118 12.85693-30.15403 20.85798-5.24898 4.77088-13.50969 13.8218-17.38681 19.05-3.96682 5.34917-4.67147 6.37109-7.44699 10.8-4.27527 6.82207-10.04256 18.50039-8.25217 16.71.47049-.47049 4.74-.49346 4.74-.0255 0 .20543.28532.14756.73945-.15.98545-.64569 5.86055-.70621 5.86055-.0727 0 .32791-1.21554.45614-5.96929.62971l-5.96929.21797-.9626 2.08839c-.52943 1.14862-.9145 2.12432-.85571 2.16822.1514.11308 20.69076-.64338 26.80689-.9873 20.24834-1.13856 24.47791-1.32006 24.72827-1.06119.15024.15534.42341 2.57744.60705 5.38244.81723 12.48253 1.7147 19.89361 4.03258 33.3.57055 3.3 1.18832 6.6075 1.37281 7.35.1845.7425.72908 3.0375 1.21018 5.1 3.46356 14.84847 9.08117 29.49603 14.84266 38.70128 2.11874 3.38516 9.35268 14.0516 12.00645 17.70352.99 1.36236 1.99948 2.76236 2.24328 3.11111s1.99346 2.65909 3.88813 5.13409c20.40673 26.65725 39.4818 41.76315 58.51859 46.34194 4.20899 1.01236 5.91235 1.17545 11.25 1.07712 4.11227-.0757 5.47766-.21269 7.05-.70709zm-152.4-165.81197c1.0406-.59486 3.3-.59486 3.3 0 0 .3566-.42028.4478-2.025.43937-1.90755-.01-1.9815-.0355-1.275-.43937zm8.1-.15c.58696-.37932 1.2-.37932 1.2 0 0 .165-.37125.29793-.825.29541-.64288-.004-.72566-.0688-.375-.29541zm-19.85625-1.10493c.21656-.0867.47531-.076.575.0237.0997.0997-.0775.17059-.39375.15756-.34948-.0144-.42057-.0855-.18125-.18125zm44.38125-1.50679c.37125-.0715.97875-.0715 1.35 0s .0675.13001-.675.13001-1.04625-.0585-.675-.13001zm54.975-.53828c0-.2475.135-.45.3-.45s.3.2025.3.45-.135.45-.3.45-.3-.2025-.3-.45zm19.5-.45c.59136-.38217 2.31381-.38217 2.55 0 .11483.18581-.42085.29825-1.40729.29541-1.13898-.003-1.46451-.0874-1.14271-.29541zm5.7-.3c.59494-.38448 5.01238-.38448 5.25 0 .11886.19232-.87079.29835-2.75729.29541-2.01077-.003-2.8002-.0967-2.49271-.29541zm6-.2691c.51841-.28899 15.66608-1.0546 33.34127-1.68518 7.0032-.24984 12.55671-.57504 13.05-.76419.4723-.18109 1.39647-.24439 2.05371-.14066s5.62925.0307 11.04891-.16222c6.40279-.22796 9.9564-.24836 10.14652-.0582.19011.19011-1.57817.36594-5.04892.50205-2.93782.11522-6.55649.33762-8.04149.49423-2.67543.28216-50.4231 2.09079-54.75 2.07387-1.36935-.005-2.07387-.10699-1.8-.25966zm-99.675-.22958c.20625-.0832.54375-.0832.75 0s .0375.15131-.375.15131-.58125-.0681-.375-.15131zm112.13633-1.88299c-.0868-.1405.0395-.33121.28079-.42379.24127-.0926.50971-.0534.59655.0871.0868.1405-.0395.33121-.28079.42379-.24127.0926-.50971.0534-.59655-.0871zm8.4-.3c-.0868-.1405.0395-.33121.28079-.42379.24126-.0926.50971-.0534.59655.0871.0868.1405-.0395.33121-.28079.42379-.24126.0926-.50971.0534-.59655-.0871zm51.13867-.61833c.59326-.38339 3.21305-.38339 3.45 0 .11677.18894-.57082.2983-1.85729.29541-1.42961-.003-1.90765-.0919-1.59271-.29541zm8.50391-.34021c.39698-.23075.64772-.22816.885.009.24145.24145.0915.32862-.55391.32196-.77583-.008-.81668-.0488-.33109-.33108zm21.85159-.48479c.0695-.36691.43751-.55304 1.222-.61811.96359-.0799 1.1225-.006 1.1225.525 0 .52298-.18807.61811-1.222.61811-1.0017 0-1.20406-.0946-1.1225-.525zm-18.19417-.95667c-.0868-.1405.0395-.33121.28079-.42379.24127-.0926.50971-.0534.59655.0871.0868.1405-.0395.33121-.28079.42379-.24126.0926-.50971.0534-.59655-.0871zm8.48242-.52326c.21656-.0867.47531-.076.575.0237.0997.0997-.0775.17059-.39375.15756-.34948-.0144-.42057-.0855-.18125-.18125zm.19815-2.20817c-.0975-.1578.10066-.2869.44039-.2869.72437 0 .79745.16683.17732.4048-.24222.093-.52019.0399-.61771-.1179zm4.9581-.2869c-.31579-.20408.13159-.29081 1.5-.29081s1.81579.0867 1.5.29081c-.2475.15995-.9225.29081-1.5.29081s-1.2525-.13086-1.5-.29081zm-24.56588 159.15c.31464-.825 1.32485-3.93 2.24488-6.9 1.87271-6.04531 2.03346-7.57487 1.00374-9.55054-1.29143-2.4778-2.0495-3.22124-8.08274-7.92678-1.2375-.96517-3.95399-3.09761-6.03664-4.73877-5.67952-4.47553-10.44732-8.15953-13.93344-10.76616-.64896-.48523-1.86099-1.39154-2.6934-2.01402-4.86073-3.63483-9.96714-5.17579-11.9406-3.6033-.29787.23736-3.46645 1.92387-9.74809 5.18853-1.99541 1.03704-2.44915 1.40853-2.27493 1.86255.0755.19669 1.43385 1.36807 3.01859 2.60306 1.58475 1.23499 3.45819 2.71793 4.16321 3.29543s2.00489 1.62248 2.88858 2.32216c1.53364 1.21431 3.96946 3.14974 19.62768 15.59561 3.78348 3.00727 9.91654 7.89471 13.62904 10.86096 3.7125 2.96626 6.93271 5.36576 7.15601 5.33223.22331-.0335.66346-.73596.97811-1.56096z" fill="#3668b3"/><path d="m366.02144 670.31311c-9.48694-.58011-18.78701-1.70139-23.4-2.82123-1.32-.32043-3.885-.92649-5.7-1.34676-7.15941-1.6578-16.26443-4.73502-23.85-8.06056-9.86562-4.32512-21.35863-11.05808-29.57253-17.3245-1.1674-.89061-2.6524-2.01962-3.3-2.50892-2.905-2.19486-9.37888-7.97671-13.01417-11.62303-8.13598-8.16066-13.8657-15.36156-21.07583-26.48734-4.99814-7.71251-10.88422-19.6728-13.79552-28.03197-.485-1.39259-1.00933-2.77022-1.16517-3.06141-.30318-.56651-2.34878-7.34273-3.33775-11.05662-6.16166-23.13884-6.58391-49.46931-1.17867-73.5.50103-2.2275 1.10359-4.725 1.33903-5.55 1.2388-4.34101 2.94842-9.87879 3.18794-10.32633.15004-.28035.66962-1.64911 1.15462-3.0417 5.53387-15.88931 15.86025-33.19435 28.52828-47.80794 4.96112-5.72306 13.4948-13.87075 18.74466-17.89681.95186-.72997 2.56416-1.96388 3.58289-2.74202 2.55611-1.95246 11.50961-7.93196 14.60222-9.75193 12.14743-7.14867 27.25465-13.2023 40.2-16.10857 1.8975-.42599 3.855-.90025 4.35-1.0539.495-.15366 2.655-.55668 4.8-.89561 17.13981-2.70827 33.56019-2.70827 50.7 0 2.145.33893 4.305.74195 4.8.89561.495.15365 2.4525.62791 4.35 1.0539 12.94535 2.90627 28.05257 8.9599 40.2 16.10857 3.18953 1.87701 12.14265 7.86794 14.57483 9.75266 1.00365.77774 2.61696 2.01207 3.58512 2.74295 2.8517 2.1528 8.69602 7.40059 12.5779 11.29407 8.84951 8.87596 16.97289 19.48153 23.8802 31.17705 3.50626 5.93684 8.67319 17.01044 10.84 23.23197.48501 1.39259 1.00932 2.77022 1.16517 3.06141.24144.45117 1.40379 4.2308 3.16953 10.30662.23976.825.84585 3.3225 1.34688 5.55 5.40534 24.03109 4.98336 50.35033-1.1784 73.5-.9165 3.44339-3.07131 10.55827-3.36231 11.10201-.14247.26622-.65586 1.62343-1.14087 3.01602-2.89776 8.32033-8.8206 20.35529-13.79552 28.03197-7.21013 11.12578-12.93985 18.32668-21.07583 26.48734-3.63529 3.64632-10.10917 9.42817-13.01417 11.62303-.6476.4893-2.07176 1.57131-3.1648 2.40446-15.36923 11.71508-35.55029 21.31979-53.55773 25.48952-1.815.42027-4.38 1.02633-5.7 1.34676-2.98838.72546-11.62721 1.95183-16.8 2.38494-4.12782.34563-16.46763.62169-19.5.43629zm45.9-47.34599c6.7696-1.54628 16.42716-4.75406 22.57528-7.49843 6.37194-2.84428 12.37472-6.20316 12.37472-6.92433 0-.45556-.27334-.68968-6.3-5.39619-2.2275-1.73956-4.725-3.69836-5.55-4.35288s-2.2425-1.77367-3.15-2.48699c-.9075-.71333-2.595-2.04194-3.75-2.95247-2.02112-1.59334-6.73246-5.30301-12.33503-9.71253-1.46573-1.15361-3.88248-3.04361-5.37055-4.2s-3.21841-2.50753-3.84521-3.00253c-6.37416-5.03386-8.67082-6.79631-9.04188-6.9387-.20632-.0792-1.19118.27073-2.18858.77758-4.26463 2.16712-10.19888 2.81275-14.19507 1.54436-4.06254-1.28944-6.7542-4.06396-11.23729-11.58324-1.27887-2.145-2.62596-4.3725-2.99353-4.95-.36756-.5775-1.13709-1.9275-1.71006-3-.57298-1.0725-1.75368-3.2325-2.62379-4.8s-2.08818-3.795-2.70682-4.95-1.52735-2.8425-2.01935-3.75-1.84456-3.4725-3.00567-5.7c-1.16112-2.2275-2.51403-4.7925-3.00648-5.7-.88028-1.62221-7.91776-15.36905-8.58135-16.76261-.18664-.39193-1.80649-3.63193-3.59967-7.2-4.42611-8.80705-4.72225-9.69807-4.89814-14.73739-.10328-2.95909-.0246-4.49444.29202-5.7l.43338-1.65 4.46653-.18674c11.8816-.49674 16.97345-.59805 16.81054-.33446-.0951.15382-1.89885.35793-4.00842.45358-2.10957.0957-4.17308.3042-4.58558.46345l-.75.28954.81176.21151c.44646.11633 6.31896-.005 13.04999-.26965 6.73104-.26464 19.19075-.74772 27.68825-1.07351s21.8625-.94161 29.7-1.36849c7.8375-.42687 21.27-1.16138 29.85-1.63223 8.58-.47084 17.22-.93311 19.2-1.02724 1.98-.0941 4.815-.23281 6.3-.30817 1.485-.0754 4.5225-.21504 6.75-.31038 2.2275-.0953 5.6025-.30804 7.5-.47266s6.40227-.42451 10.0106-.57753 6.63487-.35249 6.72565-.44328c.1974-.19739-1.9345-6.61114-3.59444-10.81374-2.71953-6.88526-7.47986-16.52548-10.59198-21.45-8.98282-14.21411-16.45465-23.13572-27.64292-33.00654-4.81837-4.251-5.78215-5.04533-9.20558-7.58711-19.06764-14.15704-40.83992-22.98356-63.80133-25.86515-2.0625-.25884-3.9525-.5283-4.2-.5988s-3.43712-.26863-7.08804-.44029c-6.76321-.31798-16.53148-.0444-20.96196.5872-9.27249 1.32176-13.02477 1.98839-17.85 3.1712-9.99621 2.45037-19.27249 5.85255-28.2 10.34267-.9075.45643-2.1225 1.06765-2.7 1.35827-1.95603.98433-8.83822 5.02233-10.95 6.4247-9.50263 6.31041-16.52857 12.1634-24.7949 20.6555-5.1703 5.31151-8.0336 8.70778-12.31586 14.60835-10.48482 14.44714-18.02083 29.9902-22.32719 46.05-1.58214 5.90031-2.07885 8.04362-1.89691 8.18527.16441.12801 55.58199-2.84207 58.48486-3.13446.2475-.0249 1.0805-.0241 1.85112.002l1.40112.0473.21303 2.025c.53569 5.09222 2.70088 17.2827 4.06289 22.875 5.45825 22.41117 10.00017 33.56436 19.26126 47.29828 2.82041 4.18258 9.28195 13.44853 10.21727 14.65172.38479.495 1.86175 2.4525 3.28212 4.35 1.42038 1.8975 3.09521 4.08658 3.72185 4.86462.62664.77805 1.54278 1.92555 2.03588 2.55 4.38586 5.55425 12.01128 13.79064 17.30205 18.68835 14.31001 13.24689 26.96994 20.276 40.45141 22.45964 2.67189.43277 10.71594.37835 12.75-.0863zm-52.2-142.37635c.10198-.165.86041-.3 1.68541-.3.92361 0 1.42875.11528 1.31459.3-.10198.165-.86041.3-1.68541.3-.92361 0-1.42876-.11528-1.31459-.3zm94.3335 120.825c.69839-2.18625 1.68756-5.2575 2.19815-6.825 1.27404-3.91125 1.25103-5.70692-.10172-7.93895-1.5017-2.47779-1.54253-2.51607-8.22993-7.71684-1.32-1.02656-3.68043-2.88521-5.24541-4.13034-1.56497-1.24513-3.58997-2.82902-4.5-3.51975-.91002-.69074-3.28356-2.51324-5.27453-4.05-3.48445-2.68953-4.17767-3.2156-7.48006-5.67631-2.5086-1.86924-5.85325-3.50461-7.95-3.88717l-1.95-.35579-6.45 3.38469c-6.2217 3.26489-7.5 4.03241-7.5 4.50317 0 .19853 3.10975 2.82991 5.12579 4.33729.44136.33 2.14534 1.68 3.78662 3 1.64127 1.32 4.78859 3.8175 6.99403 5.55s4.57694 3.6225 5.27001 4.2c.69306.5775 1.98314 1.62188 2.86683 2.32085.8837.69897 4.17172 3.29778 7.30672 5.77513s6.375 5.04289 7.2 5.70119c8.65082 6.90285 11.77429 9.28576 12.18185 9.29358.35656.007.81204-1.02438 1.75165-3.96575zm-115.9335-118.7017c.5869-.2294.58582-.23903-.0495-.44103-.87046-.27677-2.41138.0996-1.85402.45281.48552.30771 1.09581.30393 1.90351-.0118zm8.20036-.21902c1.12719-.30181.13773-.69502-1.75036-.69559-2.07176-.0006-3.21501.27041-2.65036.62834.46665.29581 3.3808.34034 4.40072.0673z" fill="#2557a5"/><path d="m365.72144 670.01323c-14.68982-.89928-23.65165-2.40993-36.3-6.11904-11.05299-3.24123-27.55149-10.79875-36-16.4906-.495-.33349-2.385-1.60099-4.2-2.81667s-4.25514-2.93839-5.42253-3.82824c-1.1674-.88985-2.6524-2.01824-3.3-2.50754-5.23327-3.95397-14.85145-13.08695-19.75703-18.76037-6.42582-7.43162-12.99473-16.5023-16.29431-22.5-.59002-1.0725-1.24162-2.1525-1.44798-2.4-1.40143-1.68075-8.4349-16.70602-10.29215-21.98662-.51003-1.45015-1.06254-2.88928-1.2278-3.19806-1.2227-2.28464-5.42367-18.88968-6.4552-25.51532-3.04639-19.56716-2.36781-40.61484 1.92473-59.7.501-2.2275 1.03939-4.5225 1.19642-5.1.81221-2.98694 3.08103-10.34255 3.33855-10.82374.16278-.30415.71327-1.73949 1.2233-3.18963 1.88215-5.35142 8.86603-20.26888 10.29343-21.98663.20566-.2475.86238-1.33907 1.45937-2.42571 1.62115-2.95081 3.18802-5.33615 7.47146-11.37429 7.83908-11.0503 18.30456-21.92489 29.23343-30.37617.80097-.61939 2.19881-1.69958 3.10631-2.40043s3.6075-2.57022 6-4.15415c15.07465-9.98004 31.32628-17.11224 47.4-20.80199 1.8975-.43558 4.26-.98456 5.25-1.21996 2.6116-.62098 11.60771-1.86042 16.65-2.29396 5.60057-.48154 20.19943-.48154 25.8 0 5.04229.43354 14.0384 1.67298 16.65 2.29396.99.2354 3.3525.78438 5.25 1.21996 13.27078 3.04633 27.89069 8.97422 40.5 16.42141 3.18001 1.87814 11.24032 7.27284 13.67483 9.15244 1.00365.77489 2.61696 2.00689 3.58512 2.73777 6.84656 5.16859 16.35809 14.67528 23.58313 23.57112 3.62777 4.46671 9.69228 13.27191 11.88079 17.25.59002 1.0725 1.24161 2.1525 1.44798 2.4 1.40143 1.68075 8.43491 16.70602 10.29215 21.98663.51003 1.45014 1.06254 2.88927 1.22781 3.19805.25326.47323 2.34126 7.2584 3.3282 10.81532.63525 2.28937 2.15136 9.36643 2.82783 13.2 1.77384 10.05217 2.54055 22.95337 1.99947 33.64372-.63597 12.56533-1.44273 18.26003-4.26498 30.10628-.91938 3.8589-3.45909 12.55919-3.91473 13.41055-.15195.28391-.69357 1.70268-1.2036 3.15283-1.83645 5.22144-8.90833 20.32942-10.29172 21.98662-.2066.2475-.85839 1.3275-1.44841 2.4-3.29958 5.9977-9.86849 15.06838-16.29431 22.5-4.90558 5.67342-14.52376 14.8064-19.75703 18.76037-.6476.4893-2.1326 1.61769-3.3 2.50754-8.02047 6.11363-19.2487 12.63873-29.57253 17.18559-14.32326 6.3083-30.02462 10.30358-45.75 11.64125-3.85268.32772-17.12112.61005-20.1.42771zm50.25-47.912c5.60122-1.56696 6.3067-1.7893 11.1-3.49834 7.9789-2.84485 20.1-8.91656 20.1-10.0685 0-.23632-.70875-.97754-1.575-1.64715-3.27735-2.53342-9.33608-7.295-17.175-13.4979-.825-.65282-2.715-2.13717-4.2-3.29857-3.63521-2.84304-5.65857-4.4432-7.2075-5.7-.71174-.5775-2.53173-1.995-4.04442-3.15s-3.85724-2.9775-5.21011-4.05-3.06236-2.42064-3.79887-2.99588c-.7365-.57523-1.5416-1.21022-1.7891-1.41108-2.96964-2.41013-4.3686-3.39304-4.82927-3.39304-.30403 0-1.33307.39406-2.28676.87569-4.87334 2.46113-11.44088 2.76673-15.53388.72282-3.32402-1.6599-5.81151-4.53051-9.77142-11.2764-1.18556-2.01966-2.45899-4.14461-2.82984-4.72211s-1.14343-1.9275-1.71685-3c-.57343-1.0725-1.85845-3.435-2.85562-5.25-1.73989-3.16687-5.87218-11.06121-7.93026-15.15-.53984-1.0725-1.13946-2.1525-1.33249-2.4s-1.39278-2.5425-2.66611-5.1c-2.71115-5.44537-2.61427-5.25538-3.75839-7.37013-.48901-.90387-.88911-1.74956-.88911-1.87932 0-.21195 13.46154-.95697 20.7-1.14563 4.22814-.1102 17.31407-.93721 17.93177-1.13326.29438-.0934 3.23142-.24293 6.52674-.3322 3.29532-.0893 8.42149-.2982 11.39149-.46429s6.8175-.34771 8.55-.4036c1.7325-.0559 5.20875-.19007 7.725-.29819s4.575-.10499 4.575.007c0 .11194-.23625.38287-.525.60206-.47376.35964-.43717.39906.375.40397 1.17865.007 2.25-.28873 2.25-.62135 0-.14576-.27-.26502-.6-.26502-.96897 0-.68751-.51902.375-.69152.53625-.0871 2.71603-.17293 4.84395-.19083 2.12793-.0179 4.76043-.16152 5.85-.31915 2.69296-.38961 7.53105-.3826 7.53105.0109 0 .48342-.48473.57169-4.65.84681-2.84552.18794-3.37276.27494-1.95.32177 1.0725.0353 2.22.17243 2.55.30475.37705.15119.92179.0769 1.46601-.19999.62703-.319 1.9102-.43968 4.65-.43734 2.08119.002 5.74149-.0664 8.13399-.15156 2.3925-.0851 6.1725-.2091 8.4-.27546 2.2275-.0664 4.86-.19061 5.85-.2761.99-.0855 3.8925-.23447 6.45-.33108 2.5575-.0966 6.50649-.24576 8.77553-.33145 5.92285-.22368 12.04174-.43653 16.87447-.58699 2.31-.0719 6.0066-.19746 8.21466-.27898l4.01466-.14823-.22107-2.00778c-.12162-1.10429-.26454-2.88529-.31764-3.95779s-.24795-2.8275-.43296-3.9c-.18504-1.0725-.46746-2.8275-.62766-3.9-.89637-6.00147-3.94047-18.04349-6.21867-24.6-1.97698-5.68958-6.27642-15.6227-8.09968-18.7129-.3639-.61677-.66164-1.19753-.66164-1.29059 0-.52361-5.60423-9.83392-8.29503-13.78053-5.21318-7.64623-11.76641-15.55891-17.61235-21.26598-2.34351-2.28784-9.60759-8.80515-11.29262-10.13171-7.21723-5.68181-16.25614-11.60979-22.5-14.75613-.5775-.29101-1.7925-.90187-2.7-1.35747-13.30063-6.67744-27.93624-11.10774-43.2-13.07694-6.73508-.8689-8.74014-.98494-17.25-.9983-8.66736-.0136-10.54772.10308-18.45 1.14503-11.24246 1.48236-22.24656 4.41084-33.3 8.862-3.65698 1.47264-12.58899 5.84698-16.36762 8.01582-4.48132 2.57217-13.47779 8.71838-17.54425 11.98588-4.94724 3.97523-14.27946 12.90697-18.17612 17.39612-3.47639 4.00497-4.25812 4.97706-7.54962 9.3881-12.26218 16.43292-21.20187 36.30347-25.4236 56.50993-.56104 2.68529-1.09632 5.58779-1.18953 6.45001-.16358 1.5134-.36088 2.70701-1.02775 6.21766-.55715 2.93303-.89073 7.76128-.60505 8.7574.17697.61704.16111 1.07864-.0456 1.32773-.17429.21001-.27279.69302-.21887 1.07336.0936.65997.2075.68978 2.49803.65356 1.32-.0209 4.02-.12117 6-.22289 12.80773-.65797 15.44619-.73803 15.6096-.47363.14547.23537-3.51768.55459-8.1096.70669-1.485.0492-3.8475.24361-5.25.43206-1.4025.18844-4.41384.42506-6.69188.52581l-4.14187.18318.0919.79337c.0649.56068.29114.82165.77132.88981.80182.11382.59771.65355-.24716.65355-.54462 0-.73785.3433-.591 1.05.0343.165.0987.63457.14325 1.04349l.0809.74349 4.76727-.0914c2.622-.0503 5.37477-.22534 6.11727-.38902s2.4975-.26181 3.9-.21807c2.37914.0742 2.54413.0404 2.46249-.50447-.0523-.34911.008-.45122.15-.25387.27945.38842 4.89945.81315 5.33751.4907.165-.12146.3-.42333.3-.67083 0-.66704 1.67388-.78275 2.03326-.14056.25363.45321.6826.48636 3.92574.30342 6.43714-.36311 11.67402-.53754 14.36043-.47831 1.44068.0318 2.77088-.0359 2.95599-.15026.18512-.11441 1.75287-.1837 3.4839-.15398 1.81068.0311 3.07622-.061 2.97992-.21682-.0964-.156 1.47144-.26631 3.69717-.26011 2.74023.008 4.00107-.10252 4.33371-.37859.35413-.2939 1.15069-.33652 3.24951-.17386 1.5292.11851 2.93555.3408 3.1252.49397.18966.15317 1.20242.31206 2.25057.35309 2.01456.0788 2.6546.29907 2.6546.91339 0 1.23977 5.17543 16.43847 6.80648 19.98862 1.91912 4.17715 4.79485 9.74851 6.27137 12.15 1.74111 2.83183 9.29581 14.05608 11.34894 16.86147.50777.69381 1.66571 2.29129 2.57321 3.54996 16.37865 22.71652 33.41919 39.18424 48.66158 47.0258 5.50032 2.82968 7.6195 3.66646 12.83842 5.06942 5.2968 1.42388 7.71106 1.72864 12.9 1.62841 4.48188-.0866 4.82896-.13989 9.6-1.4746zm-180.9-106.62613c0-.32845 16.10073-1.1836 16.41262-.8717.10856.10855.0714.31704-.0826.46331-.39674.37683-16.33.7753-16.33.40839zm66.9-.0843c0-.165.54-.3 1.2-.3s1.2.135 1.2.3-.54.3-1.2.3-1.2-.135-1.2-.3zm-49.61696-.54654c-.10605-.1716-.0894-.37217.0371-.4457.4915-.28585 10.74603-.51589 11.14453-.25001.67648.45136-.27493.58202-5.85171.8036-3.44725.13697-5.20049.10149-5.32989-.10789zm12.49196-.24988c-.68053-.1465-.8847-.53857-.42758-.82108.13608-.0841 2.80233-.22943 5.925-.32295 3.12267-.0935 6.35258-.29156 7.17758-.44008.825-.14853 6.63-.48931 12.9-.75728 6.27-.26798 11.66297-.54345 11.98439-.61216.72291-.15453 1.36561.34567 1.36561 1.06283 0 .4438-.33227.56903-1.875.70669-1.49466.13337-26.6104.94232-31.575 1.017-.66.01-2.01.0843-3 .16519-.99.0809-2.10375.0818-2.475.002zm-4.58803-3.14053c1.43463-.16617 2.34387-.15221 2.535.0389.19737.19737-.55816.28488-2.23697.25911l-2.535-.0389zm6.31303-.0802c0-.0644.4725-.17234 1.05-.23976.5775-.0674 1.05-.0147 1.05.11718 0 .13187-.4725.23976-1.05.23976s-1.05-.0527-1.05-.11718zm76.93415-.6149c-.28348-.43266-.44844-.85363-.36656-.93551.11682-.11682 20.3879-.93078 23.63241-.94893.4125-.002 2.91-.0918 5.55-.19894 2.64-.10711 6.69-.25331 9-.3249 2.31-.0716 5.6175-.21112 7.35-.31008 2.87895-.16444 3.09989-.13989 2.56766.28526-.42157.33676-1.3326.47382-3.3.49648-1.49471.0172-3.25766.0736-3.91766.12536-.66.0517-2.955.17244-5.1.26824-9.23636.4125-16.05466.81896-18.15 1.08196-1.2375.15532-3.6.35144-5.25.4358-1.65.0844-4.215.21542-5.7.29122s-3.39759.22397-4.25021.32926c-1.44108.17795-1.58649.13604-2.06564-.59522zm35.71585-.46792c.10198-.165.72541-.3 1.38541-.3.72361 0 1.12639.1191 1.01459.3-.10198.165-.72541.3-1.38541.3-.72361 0-1.12639-.1191-1.01459-.3zm66.21841-.35912c.0811-.24586.77142-.42459 1.86058-.48176 1.31813-.0692 1.70079.002 1.6026.3-.0811.24586-.77143.42459-1.86058.48176-1.31813.0692-1.70079-.002-1.6026-.3zm-51.81841-.24088c.10198-.165.32041-.3.48541-.3s.21657.135.11459.3-.32041.3-.48541.3-.21657-.135-.11459-.3zm58.41755-.0573c.0763-.23154.7172-.43074 1.5618-.4854 1.0757-.0696 1.40024.005 1.3031.3-.0763.23154-.71721.43074-1.5618.4854-1.0757.0696-1.40024-.005-1.3031-.3zm-52.71755-.2427c.10198-.165.37198-.3.6-.3s.49802.135.6.3c.10557.17082-.15279.3-.6.3s-.70557-.12918-.6-.3zm58.71706-.0562c.0729-.22153.69076-.4348 1.41252-.48756.95422-.0697 1.24974.007 1.15336.3-.0729.22153-.69076.4348-1.41252.48756-.95422.0697-1.24974-.007-1.15336-.3zm-52.71706-.24378c.10198-.165.37198-.3.6-.3s.49802.135.6.3c.10557.17082-.15279.3-.6.3s-.70557-.12918-.6-.3zm58.41755-.0573c.0763-.23154.7172-.43074 1.5618-.4854 1.0757-.0696 1.40024.005 1.3031.3-.0763.23154-.71721.43074-1.5618.4854-1.0757.0696-1.40024-.005-1.3031-.3zm6.00156-.30332c.0845-.25552.82689-.42011 2.1596-.47876 1.56004-.0687 2.00104.0009 1.90218.29999-.0845.25553-.82689.42012-2.1596.47878-1.56004.0687-2.00104-.0009-1.90218-.30001zm5.69999-.29668c.15471-.46412 2.59217-.54762 2.7059-.0927.0412.165-.58016.34172-1.3809.3927-1.09565.0698-1.42351-.004-1.325-.3zm3.71793.11721c-.29081-.47053.0545-.58826 2.40465-.81983 1.3826-.13624 2.1979-.0996 2.32394.1043.29376.47531-.14429.62621-2.43599.8392-1.35931.12634-2.16495.0829-2.2926-.12367zm-85.81863-.33013c-.13486-.21822.19282-.32978.96863-.32978.64484 0 2.23906-.0848 3.54271-.18852 1.62087-.12891 2.27541-.091 2.07026.11988-.4429.45528-6.32634.81144-6.5816.39842zm94.05377-.15307c-.19322-.23281-.2359-.49462-.0949-.58179.37955-.23458 10.88522-.82258 11.20173-.62696.86559.53496-.12352.73299-3.70405.74158-3.01907.007-4.11504.11547-4.55734.45-.74032.55995-2.38678.56988-2.84549.0172zm-85.97217-.17671c-.10198-.165.033-.3.3-.3.26698 0 .40198.135.3.3s-.23698.3-.3.3c-.063 0-.19802-.135-.3-.3zm4.5-.3c.10198-.165.72541-.3 1.38541-.3.72361 0 1.12639.1191 1.01459.3-.10198.165-.72541.3-1.38541.3-.72361 0-1.12639-.1191-1.01459-.3zm46.8 0c .10198-.165.32041-.3.48541-.3s.21657.135.11459.3-.32041.3-.48541.3-.21657-.135-.11459-.3zm-42.9-.3c.10621-.17186 1.65902-.3 3.63541-.3 2.22361 0 3.38409.10664 3.26459.3-.10622.17186-1.65902.3-3.63541.3-2.22361 0-3.38409-.10664-3.26459-.3zm45.9.0668c.16592-.17138 2.57932-.40371 5.4-.51983 3.71438-.15291 5.01455-.12004 4.78549.12101-.19001.19997-2.32743.40573-5.4.51984-3.49584.12983-4.99172.092-4.78549-.12102zm-37.2-.36685c.10198-.165.79291-.3 1.53541-.3.82361 0 1.2777.11698 1.16459.3-.10198.165-.79291.3-1.53541.3-.82361 0-1.27771-.11698-1.16459-.3zm8.4-.3c.10198-.165.72541-.3 1.38541-.3.72361 0 1.12639.1191 1.01459.3-.10198.165-.72541.3-1.38541.3-.72361 0-1.12639-.1191-1.01459-.3zm9.36872.0609c-.62221-.0538-1.05299-.22458-.9573-.37941.22544-.36477 2.15059-.36659 2.37577-.002.24469.39592-.11993.49403-1.41847.38166zm31.13128-.0609c.10256-.16594 1.45902-.3 3.03541-.3 1.82361 0 2.78323.10804 2.66459.3-.10256.16594-1.45902.3-3.03541.3-1.82361 0-2.78323-.10804-2.66459-.3zm34.8 0c .10198-.165.64198-.3 1.2-.3.55803 0 1.09803.135 1.2.3.11337.18346-.3528.3-1.2.3-.84722 0-1.31338-.11654-1.2-.3zm5.87415-.0282c-1.06818-.42696-.38178-.85031 1.00122-.61751 1.40178.23595 1.84776.95514.57462.92665-.46749-.0105-1.17663-.14957-1.57584-.30914zm-31.97415-.27183c-.1152-.1864.45279-.3 1.5-.3s1.6152.1136 1.5.3c-.10198.165-.77698.3-1.5.3s-1.39802-.135-1.5-.3zm11.1-1.8c.10198-.165.45541-.3.78541-.3s.51657.135.41459.3-.45541.3-.78541.3-.51657-.135-.41459-.3zm18.01611.026c-.11229-.18165.0407-.40948.33987-.50628.29922-.0968.89925-.3081 1.33344-.46955.95439-.35487 2.83425-.21833 2.75046.19979-.11973.59718-4.10253 1.29586-4.42377.77604zm-6.31611-.62604c.10198-.165.65791-.3 1.23541-.3.62361 0 .97471.12183.86459.3-.10198.165-.65791.3-1.23541.3-.62361 0-.97471-.12183-.86459-.3zm-45.62469 100.275c.27304-.78375 1.01663-3.1125 1.65242-5.175.6358-2.0625 1.4409-4.58949 1.78913-5.61554.84515-2.49022.80981-4.34235-.12101-6.34187-.81387-1.7483-3.25855-4.32366-6.06258-6.38665-.9533-.70137-3.00987-2.29462-4.57015-3.54057-1.56029-1.24595-3.20147-2.53537-3.64708-2.86537s-3.08402-2.35604-5.86312-4.50232c-5.07219-3.9172-5.73883-4.42871-9.38073-7.19768-4.53889-3.45097-7.59013-4.96873-10.33044-5.1386l-1.84175-.11417-6.6 3.52638c-4.96166 2.65102-6.62171 3.678-6.68744 4.13714-.0652.45562.54137 1.10327 2.38841 2.55 1.36172 1.06659 6.59857 5.22683 11.63744 9.24497 5.03888 4.01815 9.63409 7.68241 10.21159 8.1428.5775.46038 3.10523 2.46098 5.61717 4.44576s5.07694 4.02211 5.7 4.5274c7.95559 6.45187 14.72979 11.69823 15.12227 11.71162.32051.0109.66078-.47514.98587-1.4083zm-161.1446-81.57178c-.20311-.0822-.60811-.0872-.9-.0111s-.12571.1433.36929.14941c.495.006.73382-.0561.53071-.1383zm62.05756-3.90382c.37414-.45489.31929-.48228-.60077-.29999-.55688.11032-1.20609.20059-1.44271.20059-.23661 0-.34677.135-.24479.3.29725.48095 1.83885.34581 2.28827-.2006zm4.31173-.0994c-.10198-.165-.38791-.3-.63541-.3s-.36657.135-.26459.3.38791.3.63541.3.36657-.135.26459-.3zm14.1-.32166c3.63-.18435 8.4225-.43759 10.65-.56276l4.05-.22758-3.45-.0231c-6.98787-.0469-22.75938.67452-23.14346 1.0586-.39774.39774-1.01637.41049 11.89346-.24512zm18.83405-1.09756c-.69627-.0629-1.91127-.0637-2.7-.002-.78873.062-.21905.11348 1.26595.11439 1.485.0009 2.13032-.0498 1.43405-.11273zm-102.98405-.38078c0-.165-.27797-.3-.61771-.3-.33973 0-.53427.135-.43229.3s.37994.3.61771.3c.23776 0 .43229-.135.43229-.3zm8.55 0c .10198-.165-.10052-.3-.45-.3s-.55198.135-.45.3.30448.3.45.3.34802-.135.45-.3zm101.025.0883c-.37125-.0715-.97875-.0715-1.35 0s-.0675.13001.675.13001 1.04625-.0585.675-.13001zm5.8535-.2944c-.28683-.0751-.82683-.0778-1.2-.006s-.1385.13319.5215.13652c.66.003.96533-.0554.6785-.13047zm17.4715-.52288c2.2275-.0356 4.3875-.15069 4.8-.25567s3.2475-.2591 6.3-.34249c8.92497-.24382 14.50586-.54264 15.15-.8112.34487-.14379-.7394-.18734-2.55-.10241-1.7325.0813-7.1325.28623-12 .45549-10.75949.37415-24.6315 1.11678-24.84476 1.33005-.0857.0857 1.92557.0737 4.46948-.0266 2.5439-.10031 6.44778-.21154 8.67528-.24717zm48.51875-.0523c-.0997-.0997-.35844-.11034-.575-.0237-.23932.0958-.16823.16685.18125.18125.31625.013.49344-.0579.39375-.15757zm8.03125-.11875c.41693-.17916-.0233-.26426-1.44271-.27891-1.29032-.0133-1.97441.0894-1.85729.27891.22316.36108 2.45972.36108 3.3 0zm4.2-.3c.47913-.20589.36981-.26208-.54271-.27891-.68995-.0127-1.06924.0978-.95729.27891.21898.35432.67546.35432 1.5 0zm8.4-.3c.1118-.1809-.29098-.3-1.01459-.3-.66 0-1.28343.135-1.38541.3-.1118.1809.29098.3 1.01459.3.66 0 1.28343-.135 1.38541-.3zm8.4-.3c.24098-.38992-1.94665-.38992-2.55 0-.3259.21061-.0619.29208.95729.29541.77402.002 1.49073-.13041 1.59271-.29541zm6.6-.3c.23466-.37968-.16248-.37968-.75 0-.38781.25062-.37989.29145.0573.29541.279.002.59073-.13041.6927-.29541zm-136.65-.3c0-.165-.135-.3-.3-.3s-.3.135-.3.3.135.3.3.3.3-.135.3-.3zm84.81831.0811c-.62243-.0649-1.56743-.0639-2.1.002-.53257.0663-.0233.11941 1.13169.11808 1.155-.001 1.59074-.0556.96831-.1205zm-60.10706-1.21836c.0807-.13052-.31637-.18325-.8823-.11718-.56592.0661-1.02895.17285-1.02895.2373 0 .22578 1.76608.11477 1.91125-.12012zm93.56946.0405c-.20311-.0822-.60811-.0872-.9-.0111s-.12571.1433.36929.14941c.495.006.73382-.0561.53071-.1383zm-81.30571-.59873c1.11375-.10519 2.025-.30673 2.025-.44787 0-.38456-2.33198-.30938-2.57448.083-.14472.23416-.94205.27856-2.56771.14298-1.5359-.12809-2.35781-.0896-2.35781.11039 0 .34831 2.44116.39803 5.475.11151zm8.625-.70449c-1.09098-.3494-3-.3494-3 0 0 .17119.80506.28716 1.875.2701 1.39345-.0222 1.68238-.0916 1.125-.2701zm5.1-.3c0-.165-.54-.3-1.2-.3s-1.2.135-1.2.3.54.3 1.2.3 1.2-.135 1.2-.3zm12.6-.2679c0-.39535-.79576-.6321-2.12454-.6321-1.34024 0-1.59432.4967-.35046.68512 1.55025.23485 2.475.21503 2.475-.053z" fill="#0e4799"/><path d="m365.72144 670.01323c-14.68982-.89928-23.65165-2.40993-36.3-6.11904-11.05299-3.24123-27.55149-10.79875-36-16.4906-.495-.33349-2.385-1.60099-4.2-2.81667s-4.25514-2.93839-5.42253-3.82824c-1.1674-.88985-2.6524-2.01824-3.3-2.50754-5.23327-3.95397-14.85145-13.08695-19.75703-18.76037-6.42582-7.43162-12.99473-16.5023-16.29431-22.5-.59002-1.0725-1.24162-2.1525-1.44798-2.4-1.40143-1.68075-8.4349-16.70602-10.29215-21.98662-.51003-1.45015-1.06254-2.88928-1.2278-3.19806-1.2227-2.28464-5.42367-18.88968-6.4552-25.51532-3.04639-19.56716-2.36781-40.61484 1.92473-59.7.501-2.2275 1.03939-4.5225 1.19642-5.1.81221-2.98694 3.08103-10.34255 3.33855-10.82374.16278-.30415.71327-1.73949 1.2233-3.18963 1.88215-5.35142 8.86603-20.26888 10.29343-21.98663.20566-.2475.86238-1.33907 1.45937-2.42571 1.62115-2.95081 3.18802-5.33615 7.47146-11.37429 7.83908-11.0503 18.30456-21.92489 29.23343-30.37617.80097-.61939 2.19881-1.69958 3.10631-2.40043s3.6075-2.57022 6-4.15415c15.07465-9.98004 31.32628-17.11224 47.4-20.80199 1.8975-.43558 4.26-.98456 5.25-1.21996 2.6116-.62098 11.60771-1.86042 16.65-2.29396 5.60057-.48154 20.19943-.48154 25.8 0 5.04229.43354 14.0384 1.67298 16.65 2.29396.99.2354 3.3525.78438 5.25 1.21996 13.27078 3.04633 27.89069 8.97422 40.5 16.42141 3.18001 1.87814 11.24032 7.27284 13.67483 9.15244 1.00365.77489 2.61696 2.00689 3.58512 2.73777 6.84656 5.16859 16.35809 14.67528 23.58313 23.57112 3.62777 4.46671 9.69228 13.27191 11.88079 17.25.59002 1.0725 1.24161 2.1525 1.44798 2.4 1.40143 1.68075 8.43491 16.70602 10.29215 21.98663.51003 1.45014 1.06254 2.88927 1.22781 3.19805.25326.47323 2.34126 7.2584 3.3282 10.81532.63525 2.28937 2.15136 9.36643 2.82783 13.2 1.77384 10.05217 2.54055 22.95337 1.99947 33.64372-.63597 12.56533-1.44273 18.26003-4.26498 30.10628-.91938 3.8589-3.45909 12.55919-3.91473 13.41055-.15195.28391-.69357 1.70268-1.2036 3.15283-1.83645 5.22144-8.90833 20.32942-10.29172 21.98662-.2066.2475-.85839 1.3275-1.44841 2.4-3.29958 5.9977-9.86849 15.06838-16.29431 22.5-4.90558 5.67342-14.52376 14.8064-19.75703 18.76037-.6476.4893-2.1326 1.61769-3.3 2.50754-8.02047 6.11363-19.2487 12.63873-29.57253 17.18559-14.32326 6.3083-30.02462 10.30358-45.75 11.64125-3.85268.32772-17.12112.61005-20.1.42771zm45.3199-46.64992c2.71083-.49868 9.67455-2.51911 14.5301-4.21572 9.24819-3.23146 21.6-9.29923 21.6-10.6109 0-.2456-.82854-1.08766-1.8412-1.87123-1.01267-.78358-4.96142-3.89226-8.77501-6.90817-3.81358-3.01591-7.66886-6.05341-8.56727-6.75s-2.99104-2.35118-4.65029-3.67686c-1.65924-1.3257-3.80384-3.0132-4.76576-3.75-2.1866-1.67489-3.25953-2.53067-6.94536-5.53966-3.4958-2.85387-4.64379-3.76854-6.91709-5.51122-.94075-.72117-1.93042-1.50569-2.19924-1.74336-1.52415-1.34754-4.74405-3.69232-5.07234-3.69375-.21095-.0009-1.17405.39737-2.14021.88509-5.01177 2.52993-11.73538 2.88866-15.77454.84162-1.73842-.88103-3.88151-2.75253-5.37131-4.69064-1.42001-1.84731-3.78038-5.59669-3.78038-6.00502 0-.14119 1.38375-.26196 3.075-.26839 3.09298-.0118 7.66274-.23634 10.725-.52709 7.07886-.67212 7.9436-.77087 9-1.02782.0825-.0201-.255-.22193-.75-.44859-.88171-.40372-.86341-.41211.9-.41278.99-.0003 1.63125.0674 1.425.15063-.20625.0832-.375.27721-.375.43109 0 .33077 1.77985.24554 1.99051-.0953.0797-.12895.65679-.23445 1.28243-.23445s1.52892-.12752 2.00729-.28338 2.55727-.35819 4.61977-.44962c2.0625-.0914 4.7625-.28968 6-.44054 5.4264-.66155 22.24891-4.03458 27.9-5.59414.9075-.25045 3.54-.93908 5.85-1.5303s4.46629-1.26103 4.79175-1.48848.92665-.41354 1.33597-.41354c1.69351 0 16.57107-4.94804 25.82228-8.58809 4.89327-1.92533 11.71191-4.78667 14.7-6.16862 1.4025-.64863 3.765-1.74206 5.25-2.42985 5.29336-2.45163 16.20639-8.08145 16.575-8.55072.71178-.90613.23046-12.87232-.85926-21.36272-1.21998-9.50519-4.21266-22.02914-7.2801-30.46623-1.5696-4.31723-4.3565-11.24925-4.96579-12.35171-.16173-.29263-1.18738-2.35456-2.27924-4.58206-2.30241-4.69717-3.63125-7.05479-6.74061-11.95915-3.84439-6.0637-5.95886-9.08271-9.15-13.06424-.825-1.02934-2.30564-2.87392-3.29032-4.09907-2.43931-3.03504-9.73152-10.45491-14.10968-14.3567-3.99414-3.55956-9.70599-8.08898-12.8572-10.19559-4.04294-2.70273-5.47197-3.62435-7.5428-4.86452-1.155-.69171-2.7075-1.63237-3.45-2.09036-2.44899-1.51059-12.08094-6.19057-15.98862-7.76857-10.40248-4.20072-21.4407-7.18242-31.59395-8.53432-1.96209-.26125-4.38489-.60682-5.38401-.76792-5.73832-.9253-22.65944-.93018-28.82645-.008-1.13134.16911-4.43649.6468-7.34479 1.06154-7.66282 1.09274-22.24163 4.95458-27.00503 7.15348-.55393.25571-2.08715.8859-3.40715 1.40043-3.48382 1.35796-10.42623 4.69487-13.95 6.70514-.7425.42359-1.89 1.06181-2.55 1.41827-2.1663 1.17-6.65949 4.06218-10.5411 6.78509-2.44014 1.71174-3.9568 2.88961-10.33466 8.02615-2.74709 2.21243-11.81257 11.29232-15.33917 15.36355-13.62445 15.72855-24.31235 35.72602-30.11436 56.34511-4.23408 15.04701-6.08903 32.17686-5.24086 48.39762.20212 3.86543.51045 7.3418.68517 7.72528.17473.38348.73782.85264 1.25133 1.04258 5.59122 2.06812 26.92044 8.96229 29.13365 9.41677.495.10165 2.0475.51159 3.45.91098 8.15394 2.32199 17.3839 4.46674 29.7 6.90134 2.82632.5587 8.87272 1.54702 12.93918 2.115 1.71095.23897 4.79832.69435 6.86082 1.01196s4.52018.6654 5.46151.77288c1.63701.18689 1.75032.25656 2.60283 1.60049 1.2261 1.93288 6.02235 8.75947 8.51441 12.11872 5.70491 7.69012 13.40788 16.81645 20.13694 23.85787 4.47174 4.67931 12.66906 11.87197 17.17123 15.06672 6.15074 4.36459 14.32663 8.76339 19.16308 10.31014 3.37999 1.08096 8.07985 2.26504 10.2 2.56977 2.64091.37958 9.36636.38218 11.4199.004zm-41.2699-64.7707c.40563-.2638 3.87358-.45182 3.575-.19383-.0687.0594-1.0025.19317-2.075.29725-1.31203.12732-1.80278.0935-1.5-.10342zm7.27912-.51711c.45602-.069 1.13102-.0671 1.5.004.36899.0712-.004.12762-.82912.12537-.825-.002-1.12689-.0605-.67088-.12947zm6.52088-.0847c-.31789-.20544.0784-.29081 1.35-.29081 1.27156 0 1.66789.0854 1.35.29081-.2475.15995-.855.29081-1.35.29081s-1.1025-.13086-1.35-.29081zm69.99301 45.525c.42536-1.19625 1.19904-3.5925 1.7193-5.325.52025-1.7325 1.21717-3.96 1.54872-4.95.89293-2.66631.63936-5.07491-.75543-7.17561-1.2849-1.9352-3.63416-3.9325-18.5056-15.73312-1.70797-1.35529-8.33029-6.40557-9.88871-7.54127-3.45971-2.52128-4.26536-3.04636-6.1758-4.02503-1.1123-.5698-2.93666-1.1994-4.05414-1.3991-2.30872-.4126-1.52558-.68602-8.23135 2.87386-2.145 1.13871-4.575 2.3975-5.4 2.79732-1.84205.89272-2.55 1.49058-2.55 2.15348 0 .28747 1.31901 1.53561 3.04195 2.87851 1.67307 1.30403 3.27677 2.59091 3.56378 2.85974.287.26882 1.24688 1.04267 2.13305 1.71966s2.08252 1.60454 2.65854 2.06122c.57603.45669 2.73603 2.14037 4.8 3.74152 4.90927 3.80842 6.38843 4.96939 7.94865 6.23882.70979.5775 3.95111 3.1425 7.20293 5.7s8.90236 7.03804 12.55675 9.95676c3.65439 2.91871 6.86252 5.31496 7.12916 5.325.33655.0127.72134-.64692 1.2582-2.15676z" fill="#103685"/></g></svg>