<?xml version="1.0" encoding="UTF-8" standalone="no"?>
<!-- Created with Inkscape (http://www.inkscape.org/) -->

<svg
   xmlns:dc="http://purl.org/dc/elements/1.1/"
   xmlns:cc="http://creativecommons.org/ns#"
   xmlns:rdf="http://www.w3.org/1999/02/22-rdf-syntax-ns#"
   xmlns:svg="http://www.w3.org/2000/svg"
   xmlns="http://www.w3.org/2000/svg"
   xmlns:sodipodi="http://sodipodi.sourceforge.net/DTD/sodipodi-0.dtd"
   xmlns:inkscape="http://www.inkscape.org/namespaces/inkscape"
   version="1.1"
   id="svg50"
   width="606.66742"
   height="614.36713"
   viewBox="0 0 606.66742 614.36712"
   sodipodi:docname="tlf.svg"
   inkscape:version="0.92.1 r15371">
  <metadata
     id="metadata56">
    <rdf:RDF>
      <cc:Work
         rdf:about="">
        <dc:format>image/svg+xml</dc:format>
        <dc:type
           rdf:resource="http://purl.org/dc/dcmitype/StillImage" />
        <dc:title></dc:title>
      </cc:Work>
    </rdf:RDF>
  </metadata>
  <defs
     id="defs54" />
  <sodipodi:namedview
     pagecolor="#ffffff"
     bordercolor="#666666"
     borderopacity="1"
     objecttolerance="10"
     gridtolerance="10"
     guidetolerance="10"
     inkscape:pageopacity="0"
     inkscape:pageshadow="2"
     inkscape:window-width="1366"
     inkscape:window-height="705"
     id="namedview52"
     showgrid="false"
     fit-margin-top="0"
     fit-margin-left="0"
     fit-margin-right="0"
     fit-margin-bottom="0"
     inkscape:zoom="0.38411457"
     inkscape:cx="-888.9951"
     inkscape:cy="226.43826"
     inkscape:window-x="-8"
     inkscape:window-y="-8"
     inkscape:window-maximized="1"
     inkscape:current-layer="svg50" />
  <g
     id="g60"
     transform="translate(-0.00249017,0.02375669)">
    <path
       style="fill:#6791cb;stroke-width:0.31999999"
       d="m 284.23405,613.90344 c -33.80202,-1.82912 -69.35848,-10.4392 -101.67406,-24.62054 -6.10493,-2.67907 -19.42239,-9.30192 -25.12,-12.49232 C 137.4276,565.58463 118.80461,552.27983 101.86259,537.08459 93.818002,529.86943 81.768015,517.57576 74.758723,509.43266 35.574478,463.91 10.596575,408.38222 2.5737644,348.96001 c -3.42836564,-25.39274 -3.42836564,-58.12726 0,-83.52 C 8.4626284,221.8232 23.713157,179.60906 46.950526,142.60317 81.425711,87.70088 132.26188,45.107528 191.83999,21.206767 215.3558,11.773004 240.65262,5.2540693 265.95204,2.1082518 c 22.84947,-2.84118155 51.67005,-2.84278629 74.68794,-0.00416 20.28525,2.5016321 39.41178,6.891598 59.18576,13.5844742 84.00409,28.43274 152.18009,93.539104 185.29433,176.951444 10.36979,26.12071 17.21836,54.10518 20.16563,82.4 1.37891,13.23819 1.78336,34.53376 0.96019,50.56 -3.15462,61.41821 -25.78509,121.98928 -63.95827,171.18599 -8.77283,11.30621 -16.37299,19.81987 -27.61869,30.9384 -28.43151,28.10989 -61.90738,50.10647 -99.10924,65.1234 -25.50259,10.2944 -51.54537,16.85468 -79.15871,19.94041 -13.59472,1.51917 -35.89286,1.99587 -52.16693,1.11523 z m 94.89854,-96.48483 c 9.01321,-0.99024 31.10704,-7.92343 47.58739,-14.93322 10.44729,-4.44368 26.56915,-13.03478 26.33187,-14.03187 -0.0772,-0.32429 -20.09053,-16.13088 -90.27094,-71.29623 l -8.8991,-6.99513 -3.7409,1.76371 c -7.04787,3.32285 -12.79702,4.71136 -19.51443,4.71312 -6.05613,0 -10.39693,-1.09523 -15.32777,-3.87299 -3.90257,-2.19847 -8.80231,-7.26906 -12.64507,-13.08599 -12.38021,-18.74035 -32.82515,-56.28669 -63.86195,-117.28 -11.00603,-21.62898 -11.68092,-23.20783 -12.91104,-30.2046 -0.83168,-4.7305 -0.91185,-11.77706 -0.18068,-15.88037 2.07592,-11.64998 8.96707,-20.67366 20.30002,-26.58202 l 2.32,-1.20952 v -2.96041 c 0,-1.62822 -0.3601,-15.67801 -0.80021,-31.22174 -1.36994,-48.38297 -2.39958,-86.373754 -2.40469,-88.725715 -0.003,-1.240599 -0.13498,-2.461175 -0.29397,-2.712391 -0.2472,-0.390614 -0.92998,-0.400445 -4.7151,-0.06787 -26.57988,2.335386 -50.42519,12.084493 -65.83339,26.915846 -13.43847,12.93538 -20.843,29.27082 -22.63173,49.92879 -0.80466,9.29312 0.29855,37.93405 2.2988,59.68 5.55892,60.43439 19.23748,112.1057 38.67156,146.08333 7.02164,12.27632 28.83671,43.70567 42.09109,60.64135 33.95814,43.38979 67.32763,71.94781 98.25763,84.09011 9.77383,3.83696 17.992,5.9728 27.344,7.10653 4.22893,0.51267 14.71594,0.58915 18.82861,0.13728 z m 87.81427,-41.67258 c 3.03523,-9.31619 6.30166,-20.03517 6.71449,-22.03398 0.76637,-3.71028 -0.87606,-8.70375 -4.16038,-12.64884 -1.1648,-1.39913 -6.39328,-5.70393 -17.89334,-14.73222 -43.45203,-34.11264 -48.34131,-37.55687 -56.05587,-39.488 -4.8233,-1.20736 -4.44407,-1.33616 -19.47792,6.61533 -7.26339,3.84163 -13.15575,7.13712 -13.09411,7.32326 0.17673,0.53376 101.46361,80.82864 101.81417,80.71284 0.17264,-0.057 1.14147,-2.64378 2.15296,-5.74839 z M 269.2761,205.06856 c 3.5857,-1.18108 8.91848,-3.93012 11.77561,-6.07032 2.1187,-1.58705 6.94517,-6.7478 9.53827,-10.19889 l 1.29314,-1.72101 -0.18439,-6.57917 c -0.10141,-3.61854 -0.32561,-20.11516 -0.49822,-36.65917 -0.17261,-16.544 -0.39511,-33.16011 -0.49444,-36.92469 -0.17019,-6.45023 -0.226,-6.934289 -0.96842,-8.399384 -1.10088,-2.172489 -4.41198,-5.573299 -7.72961,-7.939043 -3.52259,-2.511898 -10.86393,-6.137699 -14.64805,-7.234499 -2.99152,-0.867069 -8.55947,-1.392762 -10.25209,-0.96794 l -0.8867,0.222544 0.2181,15.101508 c 0.38123,26.397174 1.21839,63.187114 1.80724,79.421514 0.6713,18.50709 1.28157,26.67635 2.08435,27.90155 1.04521,1.59519 4.19476,1.61174 8.94521,0.047 z"
       id="path74"
       inkscape:connector-curvature="0" />
    <path
       style="fill:#507ec0;stroke-width:0.31999999"
       d="m 292.15999,614.20245 c -7.92898,-0.33734 -21.97941,-1.65107 -30.72,-2.87232 C 187.75125,601.03416 120.30436,563.36949 71.82032,505.44002 34.090107,460.35937 9.876789,404.73774 2.5867244,346.40001 1.997538,341.68513 1.7207945,338.82904 0.58678896,325.76001 0.05613016,319.64435 0.05240198,294.8543 0.58120647,288.64001 2.2932697,268.52055 3.3620654,260.2667 5.9472935,247.20001 11.379007,219.74614 19.936855,194.46312 32.159342,169.76001 44.029911,145.76817 58.870624,123.62063 76.974575,102.88 82.83637,96.16449 97.342702,81.630703 103.99999,75.803436 c 37.21934,-32.578868 78.91689,-54.619817 126.08,-66.6447458 10.26263,-2.6166084 22.01509,-4.8585544 33.6,-6.409666 5.45624,-0.7305412 8.48669,-1.0363172 21.44,-2.16332572 6.17529,-0.53728387 30.3047,-0.53728387 36.47999,0 12.95332,1.12700852 15.98375,1.43278452 21.44,2.16332572 50.0527,6.7015947 96.71171,25.4827188 137.87792,55.4984628 22.10467,16.117267 43.71363,37.124887 60.72233,59.032513 35.29574,45.4617 57.05692,99.39586 63.13606,156.48001 1.49267,14.01633 1.75222,19.01617 1.74419,33.6 -0.01,17.19658 -0.76361,27.78861 -3.18966,44.8 -6.38093,44.7432 -23.33638,89.00906 -48.51888,126.66897 -56.19878,84.04413 -148.71839,134.46685 -248.41196,135.3833 -6.33599,0.0583 -12.74399,0.0538 -14.23999,-0.01 z m 87.2926,-96.46317 c 9.36592,-1.02704 33.42758,-8.75107 49.98739,-16.04643 7.64525,-3.3681 20.31216,-10.06583 23.31203,-12.3264 l 1.072,-0.80784 -0.752,-0.72522 C 452.453,487.2365 359.0291,413.72129 355.10606,410.74408 l -1.21392,-0.92125 -3.10608,1.48096 c -7.18342,3.42499 -11.97203,4.67898 -18.80662,4.92486 -5.37805,0.19348 -8.52096,-0.2495 -12.29946,-1.73363 -6.69831,-2.63091 -11.29235,-6.80688 -17.00236,-15.45501 -12.5375,-18.98877 -35.34266,-61.17603 -68.50098,-126.72 -5.0049,-9.89318 -5.69233,-11.44791 -6.61761,-14.96672 -3.37745,-12.84446 -2.35973,-23.63604 3.13038,-33.19328 1.04382,-1.8171 2.49207,-3.58904 4.99058,-6.10598 3.53583,-3.56194 5.81693,-5.26292 10.56,-7.87443 l 2.56,-1.40953 -0.0638,-6.54503 c -0.0351,-3.59977 -0.43493,-20.80103 -0.88854,-38.22503 -0.82132,-31.54804 -1.39179,-57.51334 -1.26763,-57.69597 0.0359,-0.0528 2.09806,-0.18292 4.58261,-0.28918 l 4.51737,-0.1932 v 0.8441 c 0,2.42335 1.63506,61.20707 1.91962,69.01425 0.6229,17.08987 1.29703,27.32047 1.90574,28.92151 0.15776,0.41494 0.6936,1.07741 1.19074,1.47214 0.82139,0.65219 1.15217,0.70282 3.6239,0.55474 6.23006,-0.37326 15.37295,-4.99597 20.50331,-10.36662 3.44875,-3.61027 7.33294,-8.35693 7.35972,-8.99392 0.0526,-1.24999 -0.0551,-15.58728 -0.36071,-48.04236 -0.2076,-22.04559 -0.21311,-34.44287 -0.0154,-34.56508 0.16959,-0.10481 15.18639,-0.73773 33.3707,-1.40648 18.18429,-0.66876 34.46633,-1.30012 36.18233,-1.40303 2.66752,-0.15998 3.12,-0.11617 3.12,0.30203 0,0.41155 -0.95181,0.5334 -6,0.7681 -3.43849,0.15987 -4.97539,0.31024 -3.6,0.35222 3.53773,0.10798 142.33155,-5.17814 142.58387,-5.43047 0.76176,-0.761724 -12.58205,-13.173834 -23.5609,-21.915837 C 429.65595,40.694923 375.52808,20.159748 318.39998,16.931837 305.15529,16.183472 284.98106,16.812258 271.35999,18.39797 216.53508,24.780471 165.01755,47.649637 122.67504,84.400764 113.17014,92.650531 99.641118,106.30941 96.447531,110.88 l -0.670777,0.96 1.951622,-0.0841 c 1.073389,-0.0463 17.575614,-0.65531 36.671614,-1.35347 19.096,-0.69816 35.67115,-1.31185 36.83368,-1.36375 l 2.11367,-0.0944 -3.35092,3.84784 c -10.50212,12.05953 -16.36597,25.61337 -18.69317,43.20785 -0.86228,6.51912 -0.4704,28.14423 0.87273,48.16 4.46013,66.46663 18.72155,123.73405 40.32326,161.92 2.05731,3.63674 16.17391,24.89251 22.47745,33.8449 20.95922,29.76662 40.89548,53.54269 59.5833,71.05927 30.30306,28.40384 58.19574,43.49193 86.39999,46.7367 3.49981,0.40262 14.88525,0.41395 18.49261,0.0182 z M 107.83999,110.85981 c 1.14176,-0.25202 3.2,-0.29592 3.2,-0.0683 0,0.13665 -0.828,0.23175 -1.84,0.21133 -1.012,-0.0204 -1.624,-0.0848 -1.36,-0.14307 z m 6.08,-0.34106 c 1.47388,-0.1941 26.04769,-1.08162 28.64,-1.03437 1.408,0.0257 -3.56,0.30207 -11.04,0.61424 -12.39328,0.51722 -19.65314,0.69053 -17.6,0.42013 z m 41.12,-1.56822 c 5.456,-0.21808 12.00225,-0.4914 14.54721,-0.60739 2.54497,-0.11599 4.54618,-0.12986 4.44714,-0.0308 -0.22153,0.22154 -22.43378,1.13445 -26.19435,1.07658 -1.496,-0.023 1.744,-0.22029 7.2,-0.43836 z m 93.35154,-3.58313 c 0.65535,-0.0688 1.80735,-0.0697 2.56,-0.002 0.75265,0.0676 0.21646,0.12386 -1.19154,0.12502 -1.408,0.001 -2.02381,-0.0541 -1.36846,-0.12291 z M 366.71998,102.08 c 0,-0.176 0.34202,-0.32 0.76,-0.32 0.41802,0 1.21002,-0.09 1.76,-0.2 0.79181,-0.15836 1,-0.0917 1,0.32 0,0.41697 -0.3487,0.52 -1.76,0.52 -0.968,0 -1.76,-0.144 -1.76,-0.32 z m 100.60227,373.52002 c 3.89721,-11.83021 6.62467,-21.03569 6.81366,-22.99693 0.23776,-2.46743 -0.26899,-4.71328 -1.76073,-7.80308 -1.77709,-3.68092 -4.85943,-6.48169 -21.3352,-19.38649 -29.17037,-22.84787 -42.93517,-33.21495 -47.25715,-35.592 -4.48256,-2.46541 -9.06589,-3.89866 -12.42285,-3.88477 -1.67165,0.007 -2.43475,0.36413 -15.2,7.11526 -9.62265,5.08912 -13.44,7.26202 -13.44,7.65024 0,0.3306 4.62154,4.21002 11.84,9.93879 6.512,5.16806 29.38234,23.32006 50.82294,40.33773 21.44064,17.01769 39.17971,30.94125 39.42013,30.94125 0.28454,0 1.16413,-2.20669 2.5192,-6.32 z M 342.64373,103.78014 c -0.30595,-0.0801 -0.88195,-0.083 -1.28,-0.006 -0.39808,0.0765 -0.14775,0.14208 0.55625,0.14563 0.704,0.004 1.02967,-0.0591 0.72375,-0.13917 z m 7.83625,-0.33444 c -0.748,-0.0674 -1.972,-0.0674 -2.72,0 -0.748,0.0674 -0.136,0.12249 1.36,0.12249 1.496,0 2.108,-0.0551 1.36,-0.12249 z"
       id="path72"
       inkscape:connector-curvature="0" />
    <path
       style="fill:#4676bb;stroke-width:0.31999999"
       d="m 290.87999,614.08914 c -38.93403,-2.12122 -74.44331,-10.3784 -108,-25.11386 -6.10513,-2.68089 -20.05784,-9.62246 -25.76,-12.81577 C 118.27442,554.40523 84.158562,523.93551 58.243668,487.85058 25.854613,442.75073 6.0355763,389.3116 1.4519699,334.72001 c -0.2733796,-3.256 -0.63861688,-7.432 -0.81163841,-9.28 -0.5265512,-5.62396 -0.72821999,-21.78073 -0.36547292,-29.28 C 2.5027421,250.10177 12.550028,210.03886 31.653421,171.04001 50.889197,131.7709 77.887411,97.384579 111.11583,69.832575 158.48294,30.557196 216.23917,6.6301116 276.15999,1.4585602 c 3.08,-0.2658237 7.472,-0.66266872 9.76,-0.88187772 5.5564,-0.53234828 29.32359,-0.53234828 34.87999,0 2.288,0.219209 6.68,0.61605402 9.76,0.88187772 23.11277,1.9947801 45.22186,6.6412263 68.32,14.3581408 75.90988,25.360904 139.57603,81.146528 175.50102,153.777739 19.8367,40.10478 30.22182,81.66475 32.08639,128.40557 1.18087,29.60195 -3.29827,64.89075 -12.11408,95.44 -24.82947,86.04132 -86.05481,157.12823 -167.02853,193.93179 -30.70813,13.95721 -64.46691,22.8496 -97.0848,25.57305 -3.256,0.27187 -7.36,0.64355 -9.12,0.82602 -4.16305,0.43152 -24.27579,0.64323 -30.23999,0.31827 z m 89.27999,-96.35882 c 4.72704,-0.54605 18.72032,-4.44064 29.44,-8.19376 11.56685,-4.0497 23.36246,-9.05555 31.68,-13.44442 5.85392,-3.08892 12.48,-7.09651 12.48,-7.54819 0,-0.21581 -0.828,-1.03558 -1.84,-1.82176 -1.012,-0.78614 -23.40752,-18.38825 -49.76781,-39.11578 -26.36032,-20.72752 -48.1432,-37.6864 -48.4064,-37.6864 -0.26323,0 -1.78691,0.65709 -3.38601,1.4602 -3.35149,1.68323 -8.20525,3.36518 -12.11978,4.19984 -4.05225,0.86403 -12.04236,0.78147 -15.52,-0.16039 -5.75619,-1.55894 -11.72553,-5.48275 -15.55465,-10.22454 -9.70584,-12.01924 -33.56877,-55.39309 -70.49194,-128.12795 -7.40015,-14.57755 -8.69435,-17.61691 -9.7949,-23.00281 -3.00681,-14.71478 0.16673,-27.41867 9.06367,-36.2825 2.72993,-2.71977 7.14184,-5.8708 10.79782,-7.71192 1.17643,-0.59244 2.20367,-1.26454 2.28276,-1.49355 0.0791,-0.22901 0.0313,-4.44838 -0.10613,-9.37638 -0.25361,-9.09275 -1.23662,-51.18761 -1.23662,-52.9555 V 145.28 h 4.29014 4.29013 l 0.18312,2.96 c 0.10072,1.628 0.33696,8.07201 0.52499,14.32001 0.5723,19.01676 1.52385,37.44376 2.11512,40.96 0.60449,3.59484 3.79185,4.35354 10.0218,2.3855 3.37185,-1.06517 9.22913,-4.07543 12.1747,-6.25701 2.13713,-1.58283 6.49397,-6.1788 10.0456,-10.59698 l 1.21263,-1.50849 -0.23556,-21.93151 L 292.0671,143.68 h 1.35796 c 3.8446,0 139.93633,-5.19433 150.89492,-5.75934 7.04,-0.36297 18.128,-0.94186 24.64,-1.28643 17.91888,-0.94813 25.8952,-1.33926 29.6,-1.45147 7.86755,-0.2383 10.88374,-0.39122 12.66691,-0.64218 1.04121,-0.14654 3.27507,-0.22316 4.96419,-0.17026 2.10688,0.066 3.27926,-0.0338 3.73414,-0.3179 0.51923,-0.32427 1.14231,-0.33991 2.87242,-0.0721 1.99629,0.309 5.30336,0.10533 5.76365,-0.35496 0.56758,-0.56757 -7.16285,-10.88013 -15.28685,-20.39299 -5.82538,-6.82131 -19.28589,-20.541477 -25.75446,-26.251285 -25.37027,-22.394346 -52.55229,-39.230254 -82.72,-51.234847 -26.00595,-10.348512 -50.87379,-16.083966 -80.96,-18.672412 -7.78234,-0.669549 -31.20035,-0.768959 -38.71999,-0.164368 -26.40791,2.123237 -47.17479,6.305052 -70.229,14.141974 C 160.15742,49.657253 111.48618,85.98223 77.35758,133.69721 c -5.460153,7.6338 -12.422329,18.70851 -12.014476,19.11138 0.129971,0.12839 28.473551,-0.98818 40.096886,-1.57957 5.104,-0.25969 11.512,-0.5564 14.24,-0.65936 2.728,-0.10296 11.04575,-0.4935 18.48389,-0.86788 7.43814,-0.37436 13.5974,-0.60716 13.68724,-0.51731 0.0898,0.0898 -0.0503,1.58809 -0.31134,3.32944 -1.32776,8.85592 -1.3293,20.60927 -0.006,43.6461 4.20332,73.15917 19.59784,135.1455 43.11417,173.6 2.83299,4.63258 13.48133,20.50195 19.86156,29.6 14.34102,20.44989 27.00353,36.57143 40.9686,52.16 5.3236,5.9425 19.61421,20.23876 25.00162,25.01149 26.35351,23.34679 51.07839,36.60272 75.68562,40.57792 7.76375,1.25421 16.54468,1.48144 23.99437,0.6209 z m 87.95846,-44.2903 c 5.22045,-16.23575 5.8609,-18.46609 6.03392,-21.01249 0.26826,-3.94777 -1.24253,-7.88736 -4.59242,-11.97548 -2.22003,-2.70925 -53.35622,-42.51876 -62.52249,-48.67373 -5.36253,-3.60084 -11.26595,-5.85831 -15.31987,-5.85831 h -2.13078 l -13.59341,7.15837 c -7.47638,3.93712 -13.59341,7.34803 -13.59341,7.57981 0,0.23178 8.424,7.1096 18.72,15.28403 80.56403,63.9633 83.60553,66.34964 84.01904,65.92042 0.2239,-0.23245 1.56467,-4.02262 2.97942,-8.42262 z"
       id="path70"
       inkscape:connector-curvature="0" />
    <path
       style="fill:#3667b0;stroke-width:0.31999999"
       d="m 293.43999,614.21452 c -1.848,-0.055 -4.872,-0.2498 -6.72,-0.43284 -1.848,-0.18304 -5.376,-0.48643 -7.84,-0.67424 -25.40281,-1.93603 -52.79744,-7.87494 -77.44,-16.78822 C 147.71953,576.88837 100.24342,542.20607 64.752352,496.466 28.179725,449.33205 5.751089,391.25489 1.299522,332.16001 c -0.1922399,-2.552 -0.51993061,-6.08 -0.72820142,-7.84 -0.5190656,-4.38638 -0.51753949,-29.5691 0.002074,-34.24 0.21537026,-1.936 0.61107482,-6.256 0.87934352,-9.6 C 6.2625875,220.52469 29.627812,161.8227 67.573542,114.36038 86.629282,90.525561 108.382,70.271737 133.59999,52.883557 175.72985,23.834399 226.4658,5.6364955 276.95999,1.4633867 c 3.344,-0.2763659 7.52,-0.64645035 9.28,-0.82240978 10.9181,-1.09155869 32.03888,-0.53821185 48.87247,1.28041778 57.37146,6.1981713 110.81222,28.2098913 155.76636,64.1586073 63.78278,51.005538 104.38272,124.676008 113.60297,206.137868 2.3794,21.02225 2.72333,38.79236 1.12922,58.34214 -3.90563,47.89738 -17.42243,91.6544 -40.7136,131.79908 -30.37507,52.35453 -75.57795,94.67859 -129.21743,120.98803 -34.19635,16.77287 -71.61629,27.08535 -108,29.76356 -2.552,0.18784 -5.792,0.4808 -7.2,0.65097 -2.64684,0.31994 -21.11571,0.62925 -27.03999,0.45287 z m 84.04918,-96.16353 c 10.1583,-0.86809 34.30774,-8.42333 52.22559,-16.33891 9.23002,-4.07757 23.76519,-12.02659 23.97587,-13.11197 0.0558,-0.28781 -6.14531,-5.36806 -16.16,-13.23897 -8.93785,-7.02458 -29.35465,-23.07889 -45.37065,-35.67623 -16.016,-12.59738 -31.17097,-24.5104 -33.67773,-26.47344 l -4.55772,-3.56912 -3.60228,1.69958 c -7.38838,3.48592 -12.67564,4.78164 -19.60227,4.80378 -4.99798,0.016 -7.87468,-0.49651 -11.74426,-2.09219 -5.06475,-2.08855 -10.4591,-6.69962 -14.38182,-12.29351 -10.89259,-15.53312 -41.29571,-71.65552 -71.07482,-131.2 -5.85108,-11.69947 -7.12604,-15.92991 -7.49642,-24.87397 -0.66997,-16.17839 5.81961,-27.35764 20.48249,-35.28409 l 2.82517,-1.52722 -0.26517,-12.19736 c -0.14584,-6.70855 -0.26516,-13.20536 -0.26516,-14.43736 v -2.24 l 4.20859,-0.0891 4.20858,-0.0891 0.19308,3.28907 c 0.10619,1.80899 0.34134,5.80907 0.52257,8.88907 0.4439,7.54408 0.90623,11.76256 1.42531,13.00487 0.68214,1.6326 2.0439,2.15049 5.10552,1.94169 3.28217,-0.22383 5.71204,-1.025 10.89635,-3.59271 6.27949,-3.11014 8.8169,-5.28342 15.462,-13.24317 l 1.978,-2.36932 v -4.75068 -4.75068 h 1.57118 c 0.86415,0 13.14015,-0.4384 27.28001,-0.97421 14.13984,-0.53582 26.2128,-0.93182 26.8288,-0.88 0.616,0.0518 -5.648,0.45421 -13.92,0.89421 -8.272,0.44 -14.536,0.85213 -13.92,0.91585 1.95472,0.2022 41.86189,-2.02097 40.32,-2.24617 -0.792,-0.11567 0.39635,-0.13433 2.64077,-0.0415 2.88518,0.11939 4.21392,0.0584 4.5352,-0.20827 0.28835,-0.2393 1.48678,-0.35263 3.27923,-0.3101 1.55363,0.0369 19.6008,-0.59911 40.1048,-1.41327 62.09846,-2.46577 123.46441,-4.73262 125.3863,-4.63176 0.99753,0.0523 -6.25031,0.52719 -16.10631,1.05519 -9.856,0.528 -17.40236,1.00336 -16.76969,1.05635 0.63267,0.053 10.81795,-0.27101 22.63395,-0.72 11.816,-0.44899 22.26557,-0.81635 23.22125,-0.81635 h 1.7376 l -2.78304,-5.52 C 542.60029,152.02374 531.58071,135.30135 520.84692,121.92 513.87204,113.22472 507.82081,106.50917 499.21502,97.913296 454.48923,53.239131 396.80513,25.144442 335.33362,18.095873 c -13.90564,-1.594474 -32.5414,-2.197583 -45.89363,-1.485254 -46.72955,2.492979 -90.923,16.285388 -130.56,40.746698 C 120.49328,81.04703 86.99718,115.02315 63.681565,153.92001 57.164109,164.79291 49.832391,179.0964 47.547217,185.3966 l -0.770192,2.12341 0.691488,0.0319 c 0.640377,0.0295 0.634112,0.0479 -0.08479,0.24883 -1.539513,0.43021 -0.988732,0.83942 1.01553,0.7545 1.10041,-0.0466 23.312744,-0.86749 49.360743,-1.82414 26.047994,-0.95665 48.619994,-1.81693 50.159994,-1.91173 l 2.8,-0.17238 v 0.92101 c 0,3.222 0.98836,17.91708 1.94995,28.99201 4.94359,56.93723 16.83133,106.0217 34.20091,141.21556 3.97955,8.06326 6.93435,13.07958 13.60938,23.10445 25.22041,37.87715 44.59881,62.60128 66.1922,84.45203 16.19103,16.38397 31.2091,28.5072 46.60755,37.62362 21.8688,12.94707 43.95168,18.8265 64.20919,17.09533 z M 53.514266,187.29136 c 0.480848,-0.073 1.344848,-0.0745 1.92,-0.003 0.575152,0.0712 0.181731,0.13096 -0.874269,0.13276 -1.056,0.002 -1.526579,-0.0565 -1.045731,-0.12949 z m 8.485731,-0.32284 c 0.572,-0.071 1.508,-0.071 2.08,0 0.572,0.071 0.104,0.12906 -1.04,0.12906 -1.144,0 -1.612,-0.0581 -1.04,-0.12906 z m 8.474268,-0.31716 c 0.480848,-0.073 1.344848,-0.0745 1.92,-0.003 0.575152,0.0712 0.181731,0.13096 -0.874269,0.13276 -1.055999,0.002 -1.526579,-0.0565 -1.045731,-0.12949 z m 8.64,-0.32 c 0.480848,-0.073 1.344848,-0.0745 1.92,-0.003 0.575152,0.0712 0.181731,0.13096 -0.874269,0.13276 -1.056,0.002 -1.526579,-0.0565 -1.045731,-0.12949 z m 8.639999,-0.32 c 0.480848,-0.073 1.344848,-0.0745 1.92,-0.003 0.575152,0.0712 0.181732,0.13096 -0.874268,0.13276 -1.056,0.002 -1.52658,-0.0565 -1.045732,-0.12949 z m 8.485731,-0.32284 c 0.572,-0.071 1.508,-0.071 2.08,0 0.572,0.071 0.104,0.12906 -1.04,0.12906 -1.144,0 -1.612,-0.0581 -1.04,-0.12906 z m 8.474265,-0.31716 c 0.48085,-0.073 1.34485,-0.0745 1.92,-0.003 0.57516,0.0712 0.18173,0.13096 -0.87427,0.13276 -1.056,0.002 -1.52657,-0.0565 -1.04573,-0.12949 z m 8.48573,-0.32284 c 0.572,-0.071 1.508,-0.071 2.08,0 0.572,0.071 0.104,0.12906 -1.04,0.12906 -1.144,0 -1.612,-0.0581 -1.04,-0.12906 z m 8.47427,-0.31716 c 0.48085,-0.073 1.34485,-0.0745 1.92,-0.003 0.57515,0.0712 0.18173,0.13096 -0.87427,0.13276 -1.056,0.002 -1.52658,-0.0565 -1.04573,-0.12949 z m 8.64,-0.32 c 0.48085,-0.073 1.34485,-0.0745 1.92,-0.003 0.57515,0.0712 0.18173,0.13096 -0.87427,0.13276 -1.056,0.002 -1.52658,-0.0565 -1.04573,-0.12949 z m 8.48573,-0.32284 c 0.572,-0.071 1.508,-0.071 2.08,0 0.572,0.071 0.104,0.12906 -1.04,0.12906 -1.144,0 -1.612,-0.0581 -1.04,-0.12906 z m 8.64,-0.32 c 0.572,-0.071 1.508,-0.071 2.08,0 0.572,0.071 0.104,0.12906 -1.04,0.12906 -1.144,0 -1.612,-0.0581 -1.04,-0.12906 z m 204.64713,-7.68205 c 0.66393,-0.0693 1.67193,-0.0681 2.24,0.003 0.56806,0.0707 0.025,0.12737 -1.20714,0.12595 -1.232,-0.001 -1.6968,-0.0593 -1.03286,-0.12853 z m 188.16252,-7.04207 c 0.84131,-0.0661 2.13731,-0.0653 2.88,0.002 0.74269,0.0671 0.0543,0.12122 -1.52967,0.12025 -1.584,-9.6e-4 -2.19164,-0.0559 -1.35033,-0.12202 z m 7.67033,-0.31359 c 0.484,-0.0733 1.276,-0.0733 1.76,0 0.484,0.0733 0.088,0.1333 -0.88,0.1333 -0.968,0 -1.364,-0.06 -0.88,-0.1333 z m -79.8471,305.02857 c 5.31981,-16.56509 6.16711,-19.61021 6.16711,-22.16388 0,-3.84425 -1.508,-7.43062 -4.71136,-11.20461 -2.66365,-3.13817 -54.1688,-43.23235 -62.86003,-48.93341 -5.40781,-3.54729 -10.71552,-5.54883 -14.93255,-5.6311 l -2.13606,-0.0417 -13.13699,6.9463 c -7.22534,3.82045 -13.41734,7.15459 -13.76,7.40919 -0.61526,0.45715 -0.61469,0.47132 0.0446,1.14009 1.71686,1.74144 101.78867,80.93296 102.19295,80.87008 0.30311,-0.0472 1.37421,-2.91654 3.13232,-8.391 z M 310.31998,178.65081 c -0.484,-0.0733 -1.276,-0.0733 -1.76,0 -0.484,0.0733 -0.088,0.1333 0.88,0.1333 0.968,0 1.364,-0.06 0.88,-0.1333 z m 7.84966,-0.32464 c -0.74269,-0.0671 -2.03869,-0.0679 -2.88,-0.002 -0.84131,0.0661 -0.23366,0.12105 1.35034,0.12202 1.584,9.6e-4 2.27235,-0.0531 1.52966,-0.12024 z m 174.55034,-6.38675 c -0.308,-0.0805 -0.812,-0.0805 -1.12,0 -0.308,0.0805 -0.056,0.14635 0.56,0.14635 0.616,0 0.868,-0.0659 0.56,-0.14635 z m 7.68,-0.33252 c -0.66,-0.069 -1.74,-0.069 -2.4,0 -0.66,0.069 -0.12,0.12552 1.2,0.12552 1.32,0 1.86,-0.0565 1.2,-0.12552 z"
       id="path68"
       inkscape:connector-curvature="0" />
    <path
       style="fill:#2658a6;stroke-width:0.31999999"
       d="m 292.95999,614.05538 c -8.15632,-0.34378 -21.80792,-1.61376 -30.88,-2.87267 C 196.01806,602.01544 135.08814,571.14674 87.999996,522.9892 44.321921,478.31915 15.172163,421.08558 4.8246257,359.68001 c -1.6540641,-9.81574 -2.7455248,-18.65517 -3.378317,-27.36 -0.2814725,-3.872 -0.6465114,-7.904 -0.81119763,-8.96 -0.48208444,-3.09123 -0.681133,-18.63949 -0.32977889,-25.76 C 1.9701897,263.86015 7.0604726,236.11112 16.917667,207.04001 37.869496,145.24828 78.576457,91.21968 132.31999,53.871461 c 43.01035,-29.889363 94.04412,-48.2575959 145.6,-52.4048085 3.344,-0.2689951 6.872,-0.56625106 7.84,-0.66056883 8.04038,-0.7834201 29.99065,-0.88816654 33.59999,-0.16033875 0.792,0.15970765 3.888,0.44906638 6.88,0.64301938 20.44909,1.3255896 42.72912,5.4841249 64.37229,12.0150027 92.67679,27.965428 167.66159,100.898533 199.18629,193.736243 10.03523,29.55295 15.18071,58.04103 16.62445,92.04184 0.55814,13.14498 -0.5033,31.92139 -2.7744,49.07816 -12.58202,95.04864 -68.18992,178.29182 -151.04188,226.10468 -6.19453,3.57482 -19.93606,10.59543 -26.52675,13.55264 -28.41069,12.74784 -59.8344,21.23415 -90.72,24.49991 -17.24783,1.82371 -28.96912,2.30422 -42.39999,1.73814 z m 85.43999,-95.98487 c 10.70355,-1.00029 37.60176,-9.81552 55.50454,-18.1903 10.10131,-4.72531 19.99203,-10.45463 19.79696,-11.46759 -0.0954,-0.49513 -99.32636,-78.80173 -99.8679,-78.80921 -0.13552,-0.003 -1.50352,0.62291 -3.04,1.38838 -7.97241,3.97184 -16.45625,5.776 -23.51068,4.99974 -8.79014,-0.96723 -15.63507,-5.00848 -21.33549,-12.59648 -9.59075,-12.76653 -32.28818,-54.13933 -64.35988,-117.31504 -12.5703,-24.7613 -13.26685,-26.32887 -14.57474,-32.8 -0.78473,-3.88262 -0.97042,-12.78589 -0.33656,-16.13719 0.28057,-1.48345 0.63558,-2.82264 0.78891,-2.97596 0.15333,-0.15333 2.20839,-0.34498 4.56681,-0.42589 2.35842,-0.0809 17.82404,-0.65064 34.36804,-1.26605 55.32851,-2.05816 72.86841,-2.70559 86.39999,-3.1892 7.392,-0.26418 14.448,-0.55705 15.68,-0.65081 1.232,-0.0938 7.568,-0.38553 14.08,-0.64836 6.512,-0.26284 23.36,-1.13191 37.44,-1.93127 14.08,-0.79936 26.68,-1.50725 28,-1.57309 1.32,-0.0659 3.696,-0.20288 5.28,-0.30453 10.25645,-0.65816 25.34758,-1.45718 33.28,-1.76205 5.104,-0.19617 13.3639,-0.57602 18.35536,-0.84411 8.00585,-0.43 9.81078,-0.43484 9.29798,-0.0249 -0.0734,0.0586 -17.41334,1.03062 -38.53334,2.16 -21.12,1.12938 -37.896,2.10241 -37.28,2.16228 0.94387,0.0918 134.10575,-4.7625 134.30978,-4.89609 0.22212,-0.14542 -1.76992,-6.96615 -3.60188,-12.33277 -4.11917,-12.06706 -8.69271,-22.88326 -14.88391,-35.20001 C 533.99377,133.19427 505.04833,98.555382 469.04532,71.507177 411.29601,28.121454 339.57144,9.1784809 267.99999,18.409669 212.95168,25.509725 162.72283,48.555157 119.19999,86.680387 113.82432,91.389385 99.162843,106.1294 94.333586,111.68 67.158,142.91481 47.60305,177.32031 35.314357,215.52001 c -2.807984,8.72868 -5.81995,19.8997 -6.44939,23.92 l -0.28808,1.84 0.991555,-0.005 c 0.545356,-0.003 4.231556,-0.13974 8.191556,-0.30387 3.96,-0.16413 10.08,-0.38515 13.599999,-0.49117 6.771901,-0.20396 66.436923,-2.39775 87.113663,-3.20305 15.05334,-0.58628 16.07245,-0.59108 16.22498,-0.0765 0.0652,0.22 0.50296,3.28 0.97279,6.8 5.86508,43.94156 17.876,86.41424 32.30612,114.24001 4.94261,9.53088 8.56188,15.28883 20.88407,33.22476 22.04836,32.09319 39.59821,53.85178 59.28139,73.49809 32.39026,32.3296 62.69464,49.61984 92.81697,52.95699 4.612,0.51094 12.82551,0.58192 17.44,0.15066 z M 103.76439,237.21038 c 0.48642,-0.0735 1.20642,-0.0716 1.6,0.004 0.39359,0.076 -0.004,0.13614 -0.8844,0.13374 -0.88,-0.003 -1.20201,-0.0645 -0.7156,-0.1381 z m 5.5156,-0.25083 c 0.7641,-0.2625 5.28,-0.35785 5.28,-0.11148 0,0.14956 -1.26,0.26057 -2.8,0.24667 -1.54,-0.0139 -2.656,-0.0747 -2.48,-0.13519 z m 8.48,-0.46817 c 4.02123,-0.3571 16.49478,-0.92248 24.48,-1.10958 5.97499,-0.14 5.71997,-0.11028 -3.84,0.4475 -11.25415,0.65663 -25.85141,1.12487 -20.64,0.66208 z m 32.72966,-1.52698 c 0.84131,-0.0661 2.13731,-0.0653 2.88,0.002 0.74269,0.0671 0.0543,0.12122 -1.52966,0.12025 -1.584,-9.6e-4 -2.19165,-0.0559 -1.35034,-0.12202 z m 80.75462,-3.21274 c -0.28024,-0.45343 0.92685,-0.70865 3.15572,-0.66723 1.83647,0.0341 1.86431,0.0465 0.64,0.28448 -0.704,0.13684 -1.80169,0.35068 -2.43932,0.47521 -0.68087,0.13298 -1.24065,0.0948 -1.3564,-0.0925 z m 17.07572,-0.0455 c 0,-0.89553 0.46348,-1.30617 1.47423,-1.30617 0.94482,0 1.08577,0.10385 1.08577,0.8 0,0.72 -0.128,0.8 -1.28,0.8 -0.704,0 -1.28,-0.13223 -1.28,-0.29383 z m -19.76,-0.24676 c 0.308,-0.0805 0.812,-0.0805 1.12,0 0.308,0.0805 0.056,0.14635 -0.56,0.14635 -0.616,0 -0.868,-0.0659 -0.56,-0.14635 z m 10.48,-0.25941 c 0,-0.36503 0.39791,-0.48 1.66116,-0.48 1.52931,0 1.61186,0.0373 1.04,0.46982 -0.84275,0.63742 -2.70116,0.64442 -2.70116,0.0102 z m 15.04,0.1827 c 0,-0.41095 3.39341,-1.36109 4.43181,-1.24089 0.59812,0.0692 0.87833,0.31046 0.95044,0.81819 0.0992,0.69861 0.0208,0.72 -2.64,0.72 -1.50824,0 -2.74225,-0.13378 -2.74225,-0.2973 z m 6.08,-0.33661 c 0,-0.61812 3.58101,-0.92915 16.16,-1.40355 6.7889,-0.25603 28.34872,-1.21387 33.45031,-1.4861 8.70617,-0.46456 9.58968,-0.44027 9.58968,0.26367 0,0.53838 -0.79989,0.61998 -11.12,1.13451 -12.19231,0.60786 -42.48503,1.79661 -45.91999,1.80199 -1.201,0.002 -2.16,-0.13598 -2.16,-0.31052 z m 59.83999,-2.88609 c 0,-0.58667 0.21335,-0.64 2.56,-0.64 2.34666,0 2.56,0.0533 2.56,0.64 0,0.58666 -0.21334,0.64 -2.56,0.64 -2.34665,0 -2.56,-0.0533 -2.56,-0.64 z m 8.64,-0.32 c 0,-0.53334 0.21335,-0.64 1.28,-0.64 1.06666,0 1.28,0.10666 1.28,0.64 0,0.53333 -0.21334,0.64 -1.28,0.64 -1.06665,0 -1.28,-0.10667 -1.28,-0.64 z m 187.51999,-6.73634 c 2.05754,-0.3661 4.16,-0.35785 4.16,0.0163 0,0.19201 -1.11996,0.30398 -2.8,0.27995 -2.45692,-0.0351 -2.62355,-0.0714 -1.36,-0.29628 z m 8,-0.30366 c 1.15159,-0.36881 1.92,-0.36881 1.92,0 0,0.176 -0.612,0.30564 -1.36,0.2881 -1.15532,-0.0271 -1.23961,-0.0704 -0.56,-0.2881 z M 466.80945,477.92 c 2.7088,-8.22845 6.72265,-21.16653 7.28249,-23.47412 0.48368,-1.9936 0.51732,-2.70189 0.21962,-4.62515 -0.48448,-3.12998 -2.39926,-6.88541 -4.90493,-9.6199 -3.17891,-3.46922 -50.54777,-40.46176 -61.463,-47.99933 -5.92061,-4.08852 -13.22419,-6.87687 -17.06365,-6.51456 -1.31968,0.12451 -3.97069,1.40563 -15.13078,7.312 -10.66941,5.64672 -13.51159,7.28041 -13.44,7.72553 0.11808,0.73431 101.97679,81.56762 102.63222,81.44714 0.33068,-0.0608 0.95964,-1.49225 1.86803,-4.25161 z M 338.96437,232.73475 c -0.39357,-0.076 -1.11357,-0.0779 -1.6,-0.004 -0.4864,0.0735 -0.16439,0.1357 0.71561,0.1381 0.88,0.003 1.27799,-0.0578 0.88439,-0.13373 z m 6.72275,-0.3257 c -0.56807,-0.0707 -1.57607,-0.0719 -2.24,-0.003 -0.66394,0.0693 -0.19914,0.12711 1.03286,0.12854 1.232,0.001 1.7752,-0.0553 1.20714,-0.12595 z m 6.08,-0.32 c -0.56807,-0.0707 -1.57607,-0.0718 -2.24,-0.003 -0.66394,0.0693 -0.19914,0.12711 1.03286,0.12854 1.232,0.001 1.7752,-0.0553 1.20714,-0.12595 z m 5.76,-0.32 c -0.56807,-0.0707 -1.57607,-0.0718 -2.24,-0.003 -0.66394,0.0693 -0.19914,0.12711 1.03286,0.12854 1.232,0.001 1.7752,-0.0553 1.20714,-0.12595 z m 6.08,-0.32 c -0.56807,-0.0707 -1.57607,-0.0719 -2.24,-0.003 -0.66394,0.0693 -0.19914,0.12711 1.03286,0.12854 1.232,0.001 1.7752,-0.0553 1.20714,-0.12595 z m 5.76,-0.32 c -0.56807,-0.0707 -1.57607,-0.0719 -2.24,-0.003 -0.66394,0.0693 -0.19914,0.12711 1.03286,0.12854 1.232,0.001 1.7752,-0.0553 1.20714,-0.12595 z m 6.08,-0.32 c -0.56807,-0.0707 -1.57607,-0.0719 -2.24,-0.003 -0.66394,0.0693 -0.19914,0.12711 1.03286,0.12854 1.232,0.001 1.7752,-0.0553 1.20714,-0.12595 z m 5.76,-0.32 c -0.56807,-0.0707 -1.57607,-0.0718 -2.24,-0.003 -0.66394,0.0693 -0.19914,0.12711 1.03286,0.12854 1.232,0.001 1.7752,-0.0553 1.20714,-0.12595 z m 5.91286,-0.32215 c -0.66,-0.069 -1.74,-0.069 -2.4,0 -0.66,0.069 -0.12,0.12552 1.2,0.12552 1.32,0 1.86,-0.0565 1.2,-0.12552 z m 5.92714,-0.31785 c -0.56807,-0.0707 -1.57607,-0.0719 -2.24,-0.003 -0.66394,0.0693 -0.19914,0.12711 1.03286,0.12854 1.232,0.001 1.7752,-0.0553 1.20714,-0.12595 z m 6.23286,-0.31824 c -0.484,-0.0733 -1.276,-0.0733 -1.76,0 -0.484,0.0733 -0.088,0.13331 0.88,0.13331 0.968,0 1.364,-0.06 0.88,-0.13331 z m 28.64438,-3.19606 c -0.39357,-0.076 -1.11357,-0.0779 -1.6,-0.004 -0.4864,0.0736 -0.16438,0.1357 0.71562,0.1381 0.88,0.003 1.27798,-0.0578 0.88438,-0.13373 z m 7.83562,-0.32996 c -0.836,-0.0659 -2.204,-0.0659 -3.04,0 -0.836,0.0659 -0.152,0.11986 1.52,0.11986 1.672,0 2.356,-0.0539 1.52,-0.11986 z"
       id="path66"
       inkscape:connector-curvature="0" />
    <path
       style="fill:#174898;stroke-width:0.31999999"
       d="m 293.99999,614.18453 c -3.1895,-0.0714 -5.36,-0.24643 -5.36,-0.43225 0,-0.17175 -0.9,-0.31408 -2,-0.31632 -2.36505,-0.005 -11.36698,-0.75044 -17.49363,-1.44903 -28.4679,-3.24595 -56.85957,-10.75318 -83.38637,-22.0487 -6.96339,-2.96512 -22.49412,-10.61514 -29.19804,-14.38215 C 121.24708,555.71224 89.8382,528.54459 64.771066,496.16002 32.407016,454.34846 11.174927,404.2219 3.7092379,352.00001 2.2152342,341.54958 0.95999995,328.73563 0.95999995,323.93467 c 0,-1.12884 -0.12114764,-1.97757 -0.26921694,-1.88605 -0.40693284,0.25152 -0.70609029,-13.85525 -0.47409906,-22.35611 0.11268515,-4.12912 0.32602972,-7.43263 0.47409906,-7.34111 0.1480693,0.0915 0.26921694,-0.75721 0.26921694,-1.88604 0,-4.77007 1.24937315,-17.54774 2.73984855,-28.02116 C 14.075325,189.53676 51.203162,121.64563 106.87999,73.771292 140.70515,44.686357 178.84703,24.00606 220.79999,12.004557 241.52984,6.0743586 264.918,2.053144 284.35189,1.0778399 c 2.35845,-0.11836064 4.2881,-0.31469735 4.2881,-0.43630385 0,-0.35726985 14.09781,-0.62139059 22.06804,-0.41344197 4.04142,0.10544343 7.28648,0.29132293 7.21124,0.41306552 -0.0752,0.1217426 1.83814,0.31588366 4.25195,0.4314246 19.30857,0.9242327 42.95417,4.9844758 63.87289,10.9677608 67.9526,19.436168 127.715,63.089616 167.68981,122.489005 7.63565,11.34596 13.537,21.51245 19.99095,34.43929 18.12662,36.30629 28.45036,73.84925 31.71068,115.31784 0.17844,2.26956 0.32442,5.05005 0.32442,6.17888 0,1.12883 0.12115,1.97755 0.26922,1.88604 0.40694,-0.2515 0.70608,13.85525 0.47411,22.35611 -0.11271,4.12912 -0.32605,7.43263 -0.47411,7.34111 -0.14807,-0.0915 -0.26922,0.75721 -0.26922,1.88605 0,6.87875 -2.2192,26.33885 -4.35002,38.14534 -14.10374,78.14583 -57.07458,147.06727 -120.92997,193.96094 -24.51338,18.00195 -53.80771,33.10048 -82.72646,42.63782 -17.69882,5.83703 -34.36887,9.75536 -52.47354,12.33402 -7.95091,1.13245 -21.39126,2.41574 -25.37888,2.42317 -1.37017,0.003 -2.10548,0.12284 -1.98112,0.32406 0.12676,0.20509 -0.93952,0.32 -2.96965,0.32 -1.74209,0 -5.96259,0.0505 -9.37889,0.11226 -3.4163,0.0617 -8.62345,0.0582 -11.57145,-0.008 z m 85.4526,-96.12563 c 8.78073,-0.96391 31.50633,-8.11447 47.42739,-14.92292 11.42403,-4.88531 27.2,-13.36409 27.2,-14.61859 0,-0.23264 -0.9,-1.12544 -2,-1.98403 -1.1,-0.85859 -14.096,-11.07501 -28.88,-22.7032 -14.784,-11.62819 -36.34902,-28.58695 -47.92227,-37.68615 -11.57325,-9.0992 -21.2295,-16.544 -21.45834,-16.544 -0.22886,0 -1.41584,0.50532 -2.63772,1.12292 -2.67424,1.35164 -6.58637,2.89772 -9.42167,3.72348 -4.95494,1.44308 -12.20633,1.97802 -16.50121,1.21728 -7.96395,-1.41059 -14.61855,-5.87203 -20.01131,-13.41625 -8.12364,-11.36455 -24.72121,-41.06631 -46.76519,-83.68743 -5.98899,-11.57947 -11.12228,-21.81596 -11.12228,-22.17936 0,-0.21028 10.49066,-1.05897 13.28,-1.07435 0.352,-0.002 3.232,-0.13622 6.4,-0.2984 3.168,-0.16218 17.28,-0.72506 31.36,-1.25083 89.08572,-3.32666 120.31541,-4.5138 125.11999,-4.75623 2.992,-0.15097 5.872,-0.28172 6.4,-0.29056 1.80854,-0.0303 10.55846,-0.36821 14.4,-0.55616 2.112,-0.10332 5.928,-0.25609 8.48,-0.33948 2.552,-0.0834 5.936,-0.22604 7.52,-0.31702 1.584,-0.091 3.672,-0.15533 4.64,-0.14301 0.968,0.0123 2.67561,-0.14467 3.79468,-0.34888 1.6096,-0.29371 2.0866,-0.28727 2.28317,0.0308 0.26426,0.42756 1.19834,0.35028 3.98877,-0.32999 1.16586,-0.28421 1.61846,-0.29129 1.70666,-0.0267 0.1407,0.42207 2.94672,0.49488 2.94672,0.0764 0,-0.43731 2.9966,-0.80649 3.13664,-0.38643 0.14521,0.43568 2.85059,0.46682 2.9967,0.0345 0.0587,-0.17359 0.79066,-0.40916 1.62666,-0.5235 1.31824,-0.18029 1.52,-0.13284 1.52,0.35748 0,0.47238 0.19312,0.53402 1.17411,0.37483 0.64576,-0.10479 1.25776,-0.32552 1.36,-0.4905 0.10224,-0.16498 0.86989,-0.40243 1.70589,-0.52767 1.27939,-0.19166 1.52,-0.14598 1.52,0.28863 0,0.42842 0.36777,0.50891 2.16,0.47275 1.188,-0.024 1.836,-0.10598 1.44,-0.18225 -0.77847,-0.14994 -1.00128,-0.73417 -0.28,-0.73417 0.24198,0 0.88998,-0.09 1.44,-0.2 0.7918,-0.15836 1,-0.0917 1,0.32 0,0.37173 0.29654,0.52223 1.04,0.52782 4.68735,0.0353 64.12313,-2.40814 64.27586,-2.64237 0.11671,-0.17898 1.37773,-0.20794 3.12,-0.0716 2.188,0.17116 2.92413,0.13209 2.92413,-0.15523 0,-0.27782 0.79648,-0.35559 2.88074,-0.28128 1.58441,0.0565 2.88041,-0.005 2.88,-0.13729 0,-0.132 1.20528,-0.24 2.67926,-0.24 3.34589,0 4.61792,-0.24545 4.75082,-0.91672 0.15113,-0.76336 -0.60807,-9.02882 -1.35603,-14.76328 -3.43069,-26.30205 -11.23895,-53.96841 -22.3977,-79.36 -4.3016,-9.7882 -10.59101,-21.98422 -16.25465,-31.52 -17.12973,-28.84084 -38.85348,-54.299 -64.71395,-75.83854 C 458.32955,61.854911 433.14638,46.772296 406.55998,35.992248 365.54085,19.360133 320.55064,12.901649 276.31999,17.295892 222.00826,22.691671 170.9555,43.911214 128.15999,78.877027 78.107555,119.77208 42.618977,177.03133 27.889197,240.65953 c -4.499762,19.43761 -7.162545,40.76298 -7.382409,59.12334 l -0.07021,5.86285 3.301709,-0.20682 c 1.81594,-0.11375 7.981709,-0.39632 13.701709,-0.62794 9.919952,-0.40168 13.777542,-0.57791 20.959999,-0.95757 1.76,-0.093 11.552,-0.60561 21.759999,-1.13907 10.208,-0.53345 22.231996,-1.18879 26.719996,-1.45631 4.488,-0.26751 9.24,-0.53921 10.56,-0.60376 6.51487,-0.31861 44.59415,-1.77198 46.45457,-1.77303 l 2.13458,-10e-4 0.22411,1.04 c 0.54154,2.51315 4.44255,15.66116 6.33749,21.36 7.16136,21.53699 15.00677,38.47421 24.70719,53.33955 5.29163,8.10912 17.84229,26.2528 24.41864,35.30045 22.01164,30.28333 44.16799,54.93456 64.92811,72.2393 25.25897,21.05475 48.95735,32.63923 73.13162,35.7489 4.04685,0.52057 15.50736,0.60835 19.67629,0.15068 z M 503.35998,285.48188 c 0,-0.15297 0.54,-0.36739 1.2,-0.47648 1.75558,-0.29018 1.99999,-0.25662 1.99999,0.27461 0,0.36266 -0.3911,0.48 -1.59999,0.48 -0.88,0 -1.6,-0.12516 -1.6,-0.27813 z m 6.07999,-0.32187 c 0,-0.28487 1.51082,-0.68 2.6,-0.68 0.33002,0 0.6,0.216 0.6,0.48 0,0.36266 -0.3911,0.48 -1.6,0.48 -0.88,0 -1.6,-0.126 -1.6,-0.28 z m 5.76,-0.31813 c 0,-0.15297 0.54,-0.36739 1.2,-0.47648 1.75559,-0.29018 2,-0.25662 2,0.27461 0,0.36266 -0.3911,0.48 -1.6,0.48 -0.88,0 -1.6,-0.12516 -1.6,-0.27813 z m 6.08,-0.36187 c 0,-0.176 0.19802,-0.32 0.44,-0.32 0.24202,0 0.89002,-0.09 1.44,-0.2 0.79181,-0.15836 1,-0.0917 1,0.32 0,0.40296 -0.32409,0.52 -1.44,0.52 -0.792,0 -1.44,-0.144 -1.44,-0.32 z m 5.76,-0.27813 c 0,-0.15297 0.54,-0.36739 1.2,-0.47648 1.75559,-0.29018 2,-0.25662 2,0.27461 0,0.36266 -0.3911,0.48 -1.6,0.48 -0.88,0 -1.6,-0.12516 -1.6,-0.27813 z m 6.08,-0.32187 c 0,-0.26515 1.48858,-0.68 2.44,-0.68 0.24202,0 0.44,0.216 0.44,0.48 0,0.35555 -0.37334,0.48 -1.44,0.48 -0.792,0 -1.44,-0.126 -1.44,-0.28 z m 5.76,-0.36 c 0,-0.176 0.49223,-0.32 1.09383,-0.32 0.6016,0 1.3216,-0.0874 1.6,-0.19424 0.33216,-0.12746 0.50617,-0.0174 0.50617,0.32 0,0.40375 -0.34377,0.51424 -1.6,0.51424 -0.88,0 -1.6,-0.144 -1.6,-0.32 z m 6.08,-0.32 c 0,-0.176 0.648,-0.32 1.44,-0.32 0.792,0 1.44,0.144 1.44,0.32 0,0.176 -0.648,0.32 -1.44,0.32 -0.792,0 -1.44,-0.144 -1.44,-0.32 z m 5.76,-0.32 c 0,-0.176 0.72,-0.32 1.6,-0.32 0.88,0 1.6,0.144 1.6,0.32 0,0.176 -0.72,0.32 -1.6,0.32 -0.88,0 -1.6,-0.144 -1.6,-0.32 z m 6.88,-0.32 c 1.41543,-0.36017 2.08,-0.36017 2.08,0 0,0.176 -0.684,0.30296 -1.52,0.28214 -1.35677,-0.0338 -1.41693,-0.0641 -0.56,-0.28214 z m 5.68,-0.2292 c 0.484,-0.0733 1.276,-0.0733 1.76,0 0.484,0.0733 0.088,0.13331 -0.88,0.13331 -0.968,0 -1.364,-0.06 -0.88,-0.13331 z m 6.08439,-0.32043 c 0.48643,-0.0736 1.20643,-0.0716 1.6,0.004 0.3936,0.0759 -0.004,0.13613 -0.88439,0.13373 -0.88,-0.003 -1.20201,-0.0645 -0.71561,-0.1381 z m 6.71561,-0.31096 c 0.308,-0.0805 0.812,-0.0805 1.12,0 0.308,0.0805 0.056,0.14635 -0.56,0.14635 -0.616,0 -0.868,-0.0659 -0.56,-0.14635 z M 467.12682,477.26226 c 3.96096,-11.98061 7.19124,-22.81162 7.34548,-24.62887 0.21401,-2.52163 -0.34468,-5.09517 -1.68404,-7.75741 -2.06364,-4.10179 -3.5719,-5.54265 -16.29379,-15.56547 -25.69078,-20.24026 -44.53414,-34.66307 -49.76739,-38.09219 -5.18073,-3.39472 -11.19011,-5.61888 -15.1783,-5.61776 -1.92026,0 -2.14566,0.10409 -15.3888,7.06931 -7.392,3.88781 -13.64361,7.26432 -13.89251,7.50339 -0.38358,0.36842 -0.38579,0.51501 -0.0147,0.96231 0.24086,0.2902 13.18851,10.64134 28.77251,23.00249 15.58403,12.36115 34.02259,26.99079 40.97459,32.51031 28.92986,22.96873 32.72931,25.93561 33.07629,25.82845 0.20003,-0.0618 1.12278,-2.40832 2.05056,-5.21456 z"
       id="path64"
       inkscape:connector-curvature="0" />
    <path
       style="fill:#0e3583;stroke-width:0.31999999"
       d="m 295.19999,614.08786 c -4.64937,-0.12544 -5.74352,-0.22029 -4,-0.34669 l 2.4,-0.17398 -2.88,-0.0649 c -13.43169,-0.30259 -34.16659,-2.95584 -50.56,-6.46966 C 166.14953,591.16898 100.54426,547.39096 56.248628,484.30965 39.501886,460.46065 25.803883,433.25701 16.525389,405.42101 9.5379726,384.45838 4.6899255,362.16286 2.4043089,340.48001 c -0.6484835,-6.15194 -1.42963007,-16.7305 -1.50047944,-20.32 l -0.056845,-2.88 -0.18413337,2.24 c -0.3020784,3.67482 -0.58461042,-11.30079 -0.3719652,-19.71601 0.13112507,-5.18914 0.2450288,-6.74807 0.37146345,-5.08399 l 0.1823494,2.4 0.0608151,-2.88 C 0.99107038,290.18834 1.4984529,283.1892 2.2625657,275.52001 7.2122486,225.84143 24.261551,178.14174 52.016833,136.32 99.150017,65.299583 173.28909,17.398174 256.30648,4.3280318 c 10.85229,-1.7085684 21.99048,-2.8590574 31.85351,-3.2902213 4.6837,-0.20474874 5.10633,-0.26316171 3.04,-0.42015986 -1.32,-0.10029219 4.152,-0.18234941 12.15999,-0.18234941 8.008,0 13.48,0.0820572 12.16,0.18234941 -2.02711,0.15401825 -1.48022,0.22481672 3.52,0.45568426 48.74,2.2503948 97.4696,17.2902641 140.12048,43.2466661 21.24067,12.926602 39.524,27.412549 57.63951,45.66796 15.44256,15.561809 26.581,29.188479 38.14963,46.671899 30.66468,46.34277 48.33664,100.64336 50.81539,156.14015 0.16186,3.62371 0.21568,3.95896 0.33396,2.08 0.23267,-3.69601 0.4918,13.90898 0.3038,20.64 -0.12012,4.30126 -0.2222,5.49434 -0.32854,3.84 -0.12109,-1.88411 -0.21347,-1.09309 -0.42976,3.68 -1.46541,32.3393 -8.74512,66.39491 -20.72611,96.96 -6.68595,17.05671 -15.91248,35.41924 -25.59574,50.94029 -17.95207,28.77498 -41.86919,55.69546 -68.08563,76.6354 -24.1656,19.30189 -50.26806,34.42118 -78.84688,45.6704 -7.12787,2.8057 -20.48493,7.31738 -27.27011,9.21117 -21.31696,5.94976 -43.69852,9.69097 -64.32,10.75149 -7.81501,0.40192 -7.9235,0.41363 -5.28,0.56963 1.33829,0.079 -1.20981,0.23891 -5.76,0.36153 -4.488,0.12096 -8.15999,0.19757 -8.15999,0.17028 0,-0.0272 -2.88,-0.1274 -6.4,-0.22234 z m 82.71999,-95.70381 c 5.15549,-0.46759 12.70237,-2.31747 24.32,-5.96135 18.05811,-5.66393 34.81817,-12.98409 48.4,-21.13929 2.69357,-1.61735 3.43721,-2.21504 3.4272,-2.75447 -0.01,-0.52329 -4.14519,-3.93292 -17.2,-14.18124 -9.45296,-7.4208 -31.9295,-25.09681 -49.94787,-39.28001 -18.01837,-14.18323 -32.86864,-25.78768 -33.00064,-25.78768 -0.132,0 -1.8777,0.77879 -3.87933,1.73066 -7.08438,3.3689 -12.6974,4.75203 -19.31936,4.76051 -10.99008,0.0141 -18.74723,-4.29638 -25.81141,-14.34272 -2.30573,-3.2791 -6.33239,-9.66416 -6.69342,-10.61376 -0.26046,-0.68506 -0.19851,-0.73469 0.91726,-0.73469 4.80142,0 29.62415,-1.41209 39.58757,-2.25203 2.112,-0.17805 6.432,-0.53776 9.6,-0.79939 5.94567,-0.49101 8.25223,-0.72973 15.36,-1.58983 10.45965,-1.26566 32.24074,-4.7568 34.88,-5.59065 0.528,-0.16682 2.77536,-0.59763 4.99418,-0.95741 4.06492,-0.65907 15.8399,-3.07318 19.35184,-3.96749 1.04169,-0.26528 3.69398,-0.85539 5.89398,-1.31139 5.44547,-1.12867 24.15321,-6.07949 33.76,-8.93427 10.04428,-2.9848 12.23203,-3.68256 23.68,-7.55242 16.36851,-5.53318 21.13366,-7.31216 36.47999,-13.61894 19.68983,-8.09184 37.28592,-16.32071 56.8,-26.5627 6.6632,-3.49719 7.3575,-3.93522 7.71091,-4.86478 0.34794,-0.91518 -0.10083,-17.48525 -0.67817,-25.0387 -3.24128,-42.40782 -15.35571,-83.89946 -35.1769,-120.48 C 530.65761,128.32406 502.65799,95.962707 468.0666,70.273119 430.01095,42.010731 384.69428,23.743873 338.23998,17.940811 287.86576,11.648074 237.06994,19.110032 191.58802,39.484139 164.98243,51.402395 142.31569,66.009465 119.35999,86.029875 113.07007,91.515517 99.695419,104.89854 94.045704,111.36 62.449143,147.49633 40.697086,188.70589 28.846889,234.88001 20.543752,267.23306 17.645912,303.114 20.654731,336.31495 c 0.289673,3.19642 0.63314,5.41473 0.871654,5.62961 1.216382,1.09593 33.283449,11.92323 49.673611,16.77206 4.224,1.24963 8.832,2.61696 10.24,3.03853 5.61623,1.6815 28.348304,7.61443 34.399994,8.97817 1.848,0.41642 5.304,1.20432 7.68,1.75085 5.2683,1.21184 12.13137,2.67763 16.64,3.55392 1.848,0.35917 5.448,1.06765 8,1.57443 9.76764,1.93965 26.55518,4.70624 35.68,5.88007 17.05332,2.19376 20.79736,2.77766 21.31389,3.32393 0.28264,0.29892 1.63798,2.19949 3.01185,4.22349 36.29882,53.47559 71.04958,90.01933 104.73374,110.13751 4.46968,2.66957 14.38311,7.65283 18.62051,9.36013 16.10464,6.4887 31.90682,9.16089 46.4,7.8464 z m 89.71638,-42.14403 c 3.00118,-9.17981 6.25722,-19.76756 6.80422,-22.12564 0.9224,-3.97635 -0.68729,-9.15885 -4.20652,-13.54297 -1.44944,-1.80567 -12.68074,-10.8304 -36.19709,-29.08573 -17.4607,-13.5544 -25.45197,-19.4992 -29.22422,-21.74026 -4.5657,-2.71245 -10.93059,-4.69968 -14.06989,-4.3929 -1.13459,0.11088 -4.51504,1.75492 -15.06288,7.32573 -12.0136,6.34493 -13.60777,7.27488 -13.66656,7.97229 -0.0573,0.67939 1.21437,1.79757 9.12,8.0192 5.05261,3.97632 28.10202,22.22832 51.22093,40.56 23.11888,18.33165 42.30016,33.33028 42.62505,33.33028 0.48461,0 0.96189,-1.1353 2.65696,-6.32 z"
       id="path62"
       inkscape:connector-curvature="0" />
  </g>
</svg>
