<svg height="614.36713" viewBox="0 0 606.66742 614.36712" width="606.66742" xmlns="http://www.w3.org/2000/svg"><g stroke-width=".32" transform="translate(-.00249 .023757)"><path d="m284.23405 613.90344c-33.80202-1.82912-69.35848-10.4392-101.67406-24.62054-6.10493-2.67907-19.42239-9.30192-25.12-12.49232-20.01239-11.20595-38.63538-24.51075-55.5774-39.70599-8.044588-7.21516-20.094575-19.50883-27.103867-27.65193-39.184245-45.52266-64.162148-101.05044-72.1849586-160.47265-3.42836564-25.39274-3.42836564-58.12726 0-83.52 5.888864-43.61681 21.1393926-85.83095 44.3767616-122.83684 34.475185-54.90229 85.311354-97.495642 144.889464-121.396403 23.51581-9.433763 48.81263-15.9526977 74.11205-19.0985152 22.84947-2.84118155 51.67005-2.84278629 74.68794-.00416 20.28525 2.5016321 39.41178 6.891598 59.18576 13.5844742 84.00409 28.43274 152.18009 93.539104 185.29433 176.951444 10.36979 26.12071 17.21836 54.10518 20.16563 82.4 1.37891 13.23819 1.78336 34.53376.96019 50.56-3.15462 61.41821-25.78509 121.98928-63.95827 171.18599-8.77283 11.30621-16.37299 19.81987-27.61869 30.9384-28.43151 28.10989-61.90738 50.10647-99.10924 65.1234-25.50259 10.2944-51.54537 16.85468-79.15871 19.94041-13.59472 1.51917-35.89286 1.99587-52.16693 1.11523zm94.89854-96.48483c9.01321-.99024 31.10704-7.92343 47.58739-14.93322 10.44729-4.44368 26.56915-13.03478 26.33187-14.03187-.0772-.32429-20.09053-16.13088-90.27094-71.29623l-8.8991-6.99513-3.7409 1.76371c-7.04787 3.32285-12.79702 4.71136-19.51443 4.71312-6.05613 0-10.39693-1.09523-15.32777-3.87299-3.90257-2.19847-8.80231-7.26906-12.64507-13.08599-12.38021-18.74035-32.82515-56.28669-63.86195-117.28-11.00603-21.62898-11.68092-23.20783-12.91104-30.2046-.83168-4.7305-.91185-11.77706-.18068-15.88037 2.07592-11.64998 8.96707-20.67366 20.30002-26.58202l2.32-1.20952v-2.96041c0-1.62822-.3601-15.67801-.80021-31.22174-1.36994-48.38297-2.39958-86.373754-2.40469-88.725715-.003-1.240599-.13498-2.461175-.29397-2.712391-.2472-.390614-.92998-.400445-4.7151-.06787-26.57988 2.335386-50.42519 12.084493-65.83339 26.915846-13.43847 12.93538-20.843 29.27082-22.63173 49.92879-.80466 9.29312.29855 37.93405 2.2988 59.68 5.55892 60.43439 19.23748 112.1057 38.67156 146.08333 7.02164 12.27632 28.83671 43.70567 42.09109 60.64135 33.95814 43.38979 67.32763 71.94781 98.25763 84.09011 9.77383 3.83696 17.992 5.9728 27.344 7.10653 4.22893.51267 14.71594.58915 18.82861.13728zm87.81427-41.67258c3.03523-9.31619 6.30166-20.03517 6.71449-22.03398.76637-3.71028-.87606-8.70375-4.16038-12.64884-1.1648-1.39913-6.39328-5.70393-17.89334-14.73222-43.45203-34.11264-48.34131-37.55687-56.05587-39.488-4.8233-1.20736-4.44407-1.33616-19.47792 6.61533-7.26339 3.84163-13.15575 7.13712-13.09411 7.32326.17673.53376 101.46361 80.82864 101.81417 80.71284.17264-.057 1.14147-2.64378 2.15296-5.74839zm-197.67076-270.67747c3.5857-1.18108 8.91848-3.93012 11.77561-6.07032 2.1187-1.58705 6.94517-6.7478 9.53827-10.19889l1.29314-1.72101-.18439-6.57917c-.10141-3.61854-.32561-20.11516-.49822-36.65917-.17261-16.544-.39511-33.16011-.49444-36.92469-.17019-6.45023-.226-6.934289-.96842-8.399384-1.10088-2.172489-4.41198-5.573299-7.72961-7.939043-3.52259-2.511898-10.86393-6.137699-14.64805-7.234499-2.99152-.867069-8.55947-1.392762-10.25209-.96794l-.8867.222544.2181 15.101508c.38123 26.397174 1.21839 63.187114 1.80724 79.421514.6713 18.50709 1.28157 26.67635 2.08435 27.90155 1.04521 1.59519 4.19476 1.61174 8.94521.047z" fill="#6791cb"/><path d="m292.15999 614.20245c-7.92898-.33734-21.97941-1.65107-30.72-2.87232-73.68874-10.29597-141.13563-47.96064-189.61967-105.89011-37.730213-45.08065-61.943531-100.70228-69.2335956-159.04001-.5891864-4.71488-.8659299-7.57097-1.99993544-20.64-.5306588-6.11566-.53438698-30.90571-.00558249-37.12 1.71206323-20.11946 2.78085893-28.37331 5.36608703-41.44 5.4317135-27.45387 13.9895615-52.73689 26.2120485-77.44 11.870569-23.99184 26.711282-46.13938 44.815233-66.88001 5.861795-6.71551 20.368127-21.249297 27.025415-27.076564 37.21934-32.578868 78.91689-54.619817 126.08-66.6447458 10.26263-2.6166084 22.01509-4.8585544 33.6-6.409666 5.45624-.7305412 8.48669-1.0363172 21.44-2.16332572 6.17529-.53728387 30.3047-.53728387 36.47999 0 12.95332 1.12700852 15.98375 1.43278452 21.44 2.16332572 50.0527 6.7015947 96.71171 25.4827188 137.87792 55.4984628 22.10467 16.117267 43.71363 37.124887 60.72233 59.032513 35.29574 45.4617 57.05692 99.39586 63.13606 156.48001 1.49267 14.01633 1.75222 19.01617 1.74419 33.6-.01 17.19658-.76361 27.78861-3.18966 44.8-6.38093 44.7432-23.33638 89.00906-48.51888 126.66897-56.19878 84.04413-148.71839 134.46685-248.41196 135.3833-6.33599.0583-12.74399.0538-14.23999-.01zm87.2926-96.46317c9.36592-1.02704 33.42758-8.75107 49.98739-16.04643 7.64525-3.3681 20.31216-10.06583 23.31203-12.3264l1.072-.80784-.752-.72522c-.61901-.59689-94.04291-74.1121-97.96595-77.08931l-1.21392-.92125-3.10608 1.48096c-7.18342 3.42499-11.97203 4.67898-18.80662 4.92486-5.37805.19348-8.52096-.2495-12.29946-1.73363-6.69831-2.63091-11.29235-6.80688-17.00236-15.45501-12.5375-18.98877-35.34266-61.17603-68.50098-126.72-5.0049-9.89318-5.69233-11.44791-6.61761-14.96672-3.37745-12.84446-2.35973-23.63604 3.13038-33.19328 1.04382-1.8171 2.49207-3.58904 4.99058-6.10598 3.53583-3.56194 5.81693-5.26292 10.56-7.87443l2.56-1.40953-.0638-6.54503c-.0351-3.59977-.43493-20.80103-.88854-38.22503-.82132-31.54804-1.39179-57.51334-1.26763-57.69597.0359-.0528 2.09806-.18292 4.58261-.28918l4.51737-.1932v.8441c0 2.42335 1.63506 61.20707 1.91962 69.01425.6229 17.08987 1.29703 27.32047 1.90574 28.92151.15776.41494.6936 1.07741 1.19074 1.47214.82139.65219 1.15217.70282 3.6239.55474 6.23006-.37326 15.37295-4.99597 20.50331-10.36662 3.44875-3.61027 7.33294-8.35693 7.35972-8.99392.0526-1.24999-.0551-15.58728-.36071-48.04236-.2076-22.04559-.21311-34.44287-.0154-34.56508.16959-.10481 15.18639-.73773 33.3707-1.40648 18.18429-.66876 34.46633-1.30012 36.18233-1.40303 2.66752-.15998 3.12-.11617 3.12.30203 0 .41155-.95181.5334-6 .7681-3.43849.15987-4.97539.31024-3.6.35222 3.53773.10798 142.33155-5.17814 142.58387-5.43047.76176-.761724-12.58205-13.173834-23.5609-21.915837-44.24697-35.23203-98.37484-55.767205-155.50294-58.995116-13.24469-.748365-33.41892-.119579-47.03999 1.466133-54.82491 6.382501-106.34244 29.251667-148.68495 66.002794-9.5049 8.249767-23.033922 21.908646-26.227509 26.479236l-.670777.96 1.951622-.0841c1.073389-.0463 17.575614-.65531 36.671614-1.35347s35.67115-1.31185 36.83368-1.36375l2.11367-.0944-3.35092 3.84784c-10.50212 12.05953-16.36597 25.61337-18.69317 43.20785-.86228 6.51912-.4704 28.14423.87273 48.16 4.46013 66.46663 18.72155 123.73405 40.32326 161.92 2.05731 3.63674 16.17391 24.89251 22.47745 33.8449 20.95922 29.76662 40.89548 53.54269 59.5833 71.05927 30.30306 28.40384 58.19574 43.49193 86.39999 46.7367 3.49981.40262 14.88525.41395 18.49261.0182zm-271.6126-406.87947c1.14176-.25202 3.2-.29592 3.2-.0683 0 .13665-.828.23175-1.84.21133-1.012-.0204-1.624-.0848-1.36-.14307zm6.08-.34106c1.47388-.1941 26.04769-1.08162 28.64-1.03437 1.408.0257-3.56.30207-11.04.61424-12.39328.51722-19.65314.69053-17.6.42013zm41.12-1.56822c5.456-.21808 12.00225-.4914 14.54721-.60739 2.54497-.11599 4.54618-.12986 4.44714-.0308-.22153.22154-22.43378 1.13445-26.19435 1.07658-1.496-.023 1.744-.22029 7.2-.43836zm93.35154-3.58313c.65535-.0688 1.80735-.0697 2.56-.002.75265.0676.21646.12386-1.19154.12502-1.408.001-2.02381-.0541-1.36846-.12291zm118.32845-3.2874c0-.176.34202-.32.76-.32.41802 0 1.21002-.09 1.76-.2.79181-.15836 1-.0917 1 .32 0 .41697-.3487.52-1.76.52-.968 0-1.76-.144-1.76-.32zm100.60227 373.52002c3.89721-11.83021 6.62467-21.03569 6.81366-22.99693.23776-2.46743-.26899-4.71328-1.76073-7.80308-1.77709-3.68092-4.85943-6.48169-21.3352-19.38649-29.17037-22.84787-42.93517-33.21495-47.25715-35.592-4.48256-2.46541-9.06589-3.89866-12.42285-3.88477-1.67165.007-2.43475.36413-15.2 7.11526-9.62265 5.08912-13.44 7.26202-13.44 7.65024 0 .3306 4.62154 4.21002 11.84 9.93879 6.512 5.16806 29.38234 23.32006 50.82294 40.33773 21.44064 17.01769 39.17971 30.94125 39.42013 30.94125.28454 0 1.16413-2.20669 2.5192-6.32zm-124.67852-371.81988c-.30595-.0801-.88195-.083-1.28-.006-.39808.0765-.14775.14208.55625.14563.704.004 1.02967-.0591.72375-.13917zm7.83625-.33444c-.748-.0674-1.972-.0674-2.72 0s-.136.12249 1.36.12249 2.108-.0551 1.36-.12249z" fill="#507ec0"/><path d="m290.87999 614.08914c-38.93403-2.12122-74.44331-10.3784-108-25.11386-6.10513-2.68089-20.05784-9.62246-25.76-12.81577-38.84557-21.75428-72.961428-52.224-98.876322-88.30893-32.389055-45.09985-52.2080917-98.53898-56.7916981-153.13057-.2733796-3.256-.63861688-7.432-.81163841-9.28-.5265512-5.62396-.72821999-21.78073-.36547292-29.28 2.22788353-46.05824 12.27516943-86.12115 31.37856243-125.12 19.235776-39.26911 46.23399-73.655431 79.462409-101.207435 47.36711-39.275379 105.12334-63.2024634 165.04416-68.3740148 3.08-.2658237 7.472-.66266872 9.76-.88187772 5.5564-.53234828 29.32359-.53234828 34.87999 0 2.288.219209 6.68.61605402 9.76.88187772 23.11277 1.9947801 45.22186 6.6412263 68.32 14.3581408 75.90988 25.360904 139.57603 81.146528 175.50102 153.777739 19.8367 40.10478 30.22182 81.66475 32.08639 128.40557 1.18087 29.60195-3.29827 64.89075-12.11408 95.44-24.82947 86.04132-86.05481 157.12823-167.02853 193.93179-30.70813 13.95721-64.46691 22.8496-97.0848 25.57305-3.256.27187-7.36.64355-9.12.82602-4.16305.43152-24.27579.64323-30.23999.31827zm89.27999-96.35882c4.72704-.54605 18.72032-4.44064 29.44-8.19376 11.56685-4.0497 23.36246-9.05555 31.68-13.44442 5.85392-3.08892 12.48-7.09651 12.48-7.54819 0-.21581-.828-1.03558-1.84-1.82176-1.012-.78614-23.40752-18.38825-49.76781-39.11578-26.36032-20.72752-48.1432-37.6864-48.4064-37.6864-.26323 0-1.78691.65709-3.38601 1.4602-3.35149 1.68323-8.20525 3.36518-12.11978 4.19984-4.05225.86403-12.04236.78147-15.52-.16039-5.75619-1.55894-11.72553-5.48275-15.55465-10.22454-9.70584-12.01924-33.56877-55.39309-70.49194-128.12795-7.40015-14.57755-8.69435-17.61691-9.7949-23.00281-3.00681-14.71478.16673-27.41867 9.06367-36.2825 2.72993-2.71977 7.14184-5.8708 10.79782-7.71192 1.17643-.59244 2.20367-1.26454 2.28276-1.49355.0791-.22901.0313-4.44838-.10613-9.37638-.25361-9.09275-1.23662-51.18761-1.23662-52.9555v-.96451h4.29014 4.29013l.18312 2.96c.10072 1.628.33696 8.07201.52499 14.32001.5723 19.01676 1.52385 37.44376 2.11512 40.96.60449 3.59484 3.79185 4.35354 10.0218 2.3855 3.37185-1.06517 9.22913-4.07543 12.1747-6.25701 2.13713-1.58283 6.49397-6.1788 10.0456-10.59698l1.21263-1.50849-.23556-21.93151-.23556-21.93152h1.35796c3.8446 0 139.93633-5.19433 150.89492-5.75934 7.04-.36297 18.128-.94186 24.64-1.28643 17.91888-.94813 25.8952-1.33926 29.6-1.45147 7.86755-.2383 10.88374-.39122 12.66691-.64218 1.04121-.14654 3.27507-.22316 4.96419-.17026 2.10688.066 3.27926-.0338 3.73414-.3179.51923-.32427 1.14231-.33991 2.87242-.0721 1.99629.309 5.30336.10533 5.76365-.35496.56758-.56757-7.16285-10.88013-15.28685-20.39299-5.82538-6.82131-19.28589-20.541477-25.75446-26.251285-25.37027-22.394346-52.55229-39.230254-82.72-51.234847-26.00595-10.348512-50.87379-16.083966-80.96-18.672412-7.78234-.669549-31.20035-.768959-38.71999-.164368-26.40791 2.123237-47.17479 6.305052-70.229 14.141974-54.73357 18.605821-103.40481 54.930798-137.53341 102.645778-5.460153 7.6338-12.422329 18.70851-12.014476 19.11138.129971.12839 28.473551-.98818 40.096886-1.57957 5.104-.25969 11.512-.5564 14.24-.65936s11.04575-.4935 18.48389-.86788c7.43814-.37436 13.5974-.60716 13.68724-.51731.0898.0898-.0503 1.58809-.31134 3.32944-1.32776 8.85592-1.3293 20.60927-.006 43.6461 4.20332 73.15917 19.59784 135.1455 43.11417 173.6 2.83299 4.63258 13.48133 20.50195 19.86156 29.6 14.34102 20.44989 27.00353 36.57143 40.9686 52.16 5.3236 5.9425 19.61421 20.23876 25.00162 25.01149 26.35351 23.34679 51.07839 36.60272 75.68562 40.57792 7.76375 1.25421 16.54468 1.48144 23.99437.6209zm87.95846-44.2903c5.22045-16.23575 5.8609-18.46609 6.03392-21.01249.26826-3.94777-1.24253-7.88736-4.59242-11.97548-2.22003-2.70925-53.35622-42.51876-62.52249-48.67373-5.36253-3.60084-11.26595-5.85831-15.31987-5.85831h-2.13078l-13.59341 7.15837c-7.47638 3.93712-13.59341 7.34803-13.59341 7.57981s8.424 7.1096 18.72 15.28403c80.56403 63.9633 83.60553 66.34964 84.01904 65.92042.2239-.23245 1.56467-4.02262 2.97942-8.42262z" fill="#4676bb"/><path d="m293.43999 614.21452c-1.848-.055-4.872-.2498-6.72-.43284s-5.376-.48643-7.84-.67424c-25.40281-1.93603-52.79744-7.87494-77.44-16.78822-53.72046-19.43085-101.19657-54.11315-136.687638-99.85322-36.572627-47.13395-59.001263-105.21111-63.45283-164.30599-.1922399-2.552-.51993061-6.08-.72820142-7.84-.5190656-4.38638-.51753949-29.5691.002074-34.24.21537026-1.936.61107482-6.256.87934352-9.6 4.8098494-59.95532 28.1750739-118.65731 66.1208039-166.11963 19.05574-23.834819 40.808458-44.088643 66.026448-61.476823 42.12986-29.049158 92.86581-47.2470615 143.36-51.4201703 3.344-.2763659 7.52-.64645035 9.28-.82240978 10.9181-1.09155869 32.03888-.53821185 48.87247 1.28041778 57.37146 6.1981713 110.81222 28.2098913 155.76636 64.1586073 63.78278 51.005538 104.38272 124.676008 113.60297 206.137868 2.3794 21.02225 2.72333 38.79236 1.12922 58.34214-3.90563 47.89738-17.42243 91.6544-40.7136 131.79908-30.37507 52.35453-75.57795 94.67859-129.21743 120.98803-34.19635 16.77287-71.61629 27.08535-108 29.76356-2.552.18784-5.792.4808-7.2.65097-2.64684.31994-21.11571.62925-27.03999.45287zm84.04918-96.16353c10.1583-.86809 34.30774-8.42333 52.22559-16.33891 9.23002-4.07757 23.76519-12.02659 23.97587-13.11197.0558-.28781-6.14531-5.36806-16.16-13.23897-8.93785-7.02458-29.35465-23.07889-45.37065-35.67623-16.016-12.59738-31.17097-24.5104-33.67773-26.47344l-4.55772-3.56912-3.60228 1.69958c-7.38838 3.48592-12.67564 4.78164-19.60227 4.80378-4.99798.016-7.87468-.49651-11.74426-2.09219-5.06475-2.08855-10.4591-6.69962-14.38182-12.29351-10.89259-15.53312-41.29571-71.65552-71.07482-131.2-5.85108-11.69947-7.12604-15.92991-7.49642-24.87397-.66997-16.17839 5.81961-27.35764 20.48249-35.28409l2.82517-1.52722-.26517-12.19736c-.14584-6.70855-.26516-13.20536-.26516-14.43736v-2.24l4.20859-.0891 4.20858-.0891.19308 3.28907c.10619 1.80899.34134 5.80907.52257 8.88907.4439 7.54408.90623 11.76256 1.42531 13.00487.68214 1.6326 2.0439 2.15049 5.10552 1.94169 3.28217-.22383 5.71204-1.025 10.89635-3.59271 6.27949-3.11014 8.8169-5.28342 15.462-13.24317l1.978-2.36932v-4.75068-4.75068h1.57118c.86415 0 13.14015-.4384 27.28001-.97421 14.13984-.53582 26.2128-.93182 26.8288-.88.616.0518-5.648.45421-13.92.89421s-14.536.85213-13.92.91585c1.95472.2022 41.86189-2.02097 40.32-2.24617-.792-.11567.39635-.13433 2.64077-.0415 2.88518.11939 4.21392.0584 4.5352-.20827.28835-.2393 1.48678-.35263 3.27923-.3101 1.55363.0369 19.6008-.59911 40.1048-1.41327 62.09846-2.46577 123.46441-4.73262 125.3863-4.63176.99753.0523-6.25031.52719-16.10631 1.05519s-17.40236 1.00336-16.76969 1.05635c.63267.053 10.81795-.27101 22.63395-.72s22.26557-.81635 23.22125-.81635h1.7376l-2.78304-5.52c-6.23975-12.37618-17.25933-29.09857-27.99312-42.47992-6.97488-8.69528-13.02611-15.41083-21.6319-24.006704-44.72579-44.674165-102.40989-72.768854-163.8814-79.817423-13.90564-1.594474-32.5414-2.197583-45.89363-1.485254-46.72955 2.492979-90.923 16.285388-130.56 40.746698-38.38671 23.689713-71.88281 57.665833-95.198425 96.562693-6.517456 10.8729-13.849174 25.17639-16.134348 31.47659l-.770192 2.12341.691488.0319c.640377.0295.634112.0479-.08479.24883-1.539513.43021-.988732.83942 1.01553.7545 1.10041-.0466 23.312744-.86749 49.360743-1.82414 26.047994-.95665 48.619994-1.81693 50.159994-1.91173l2.8-.17238v.92101c0 3.222.98836 17.91708 1.94995 28.99201 4.94359 56.93723 16.83133 106.0217 34.20091 141.21556 3.97955 8.06326 6.93435 13.07958 13.60938 23.10445 25.22041 37.87715 44.59881 62.60128 66.1922 84.45203 16.19103 16.38397 31.2091 28.5072 46.60755 37.62362 21.8688 12.94707 43.95168 18.8265 64.20919 17.09533zm-323.974904-330.75963c.480848-.073 1.344848-.0745 1.92-.003.575152.0712.181731.13096-.874269.13276-1.056.002-1.526579-.0565-1.045731-.12949zm8.485731-.32284c.572-.071 1.508-.071 2.08 0s.104.12906-1.04.12906-1.612-.0581-1.04-.12906zm8.474268-.31716c.480848-.073 1.344848-.0745 1.92-.003.575152.0712.181731.13096-.874269.13276-1.055999.002-1.526579-.0565-1.045731-.12949zm8.64-.32c.480848-.073 1.344848-.0745 1.92-.003.575152.0712.181731.13096-.874269.13276-1.056.002-1.526579-.0565-1.045731-.12949zm8.639999-.32c.480848-.073 1.344848-.0745 1.92-.003.575152.0712.181732.13096-.874268.13276-1.056.002-1.52658-.0565-1.045732-.12949zm8.485731-.32284c.572-.071 1.508-.071 2.08 0s.104.12906-1.04.12906-1.612-.0581-1.04-.12906zm8.474265-.31716c.48085-.073 1.34485-.0745 1.92-.003.57516.0712.18173.13096-.87427.13276-1.056.002-1.52657-.0565-1.04573-.12949zm8.48573-.32284c.572-.071 1.508-.071 2.08 0s.104.12906-1.04.12906-1.612-.0581-1.04-.12906zm8.47427-.31716c.48085-.073 1.34485-.0745 1.92-.003.57515.0712.18173.13096-.87427.13276-1.056.002-1.52658-.0565-1.04573-.12949zm8.64-.32c.48085-.073 1.34485-.0745 1.92-.003.57515.0712.18173.13096-.87427.13276-1.056.002-1.52658-.0565-1.04573-.12949zm8.48573-.32284c.572-.071 1.508-.071 2.08 0s.104.12906-1.04.12906-1.612-.0581-1.04-.12906zm8.64-.32c.572-.071 1.508-.071 2.08 0s.104.12906-1.04.12906-1.612-.0581-1.04-.12906zm204.64713-7.68205c.66393-.0693 1.67193-.0681 2.24.003.56806.0707.025.12737-1.20714.12595-1.232-.001-1.6968-.0593-1.03286-.12853zm188.16252-7.04207c.84131-.0661 2.13731-.0653 2.88.002.74269.0671.0543.12122-1.52967.12025-1.584-.00096-2.19164-.0559-1.35033-.12202zm7.67033-.31359c.484-.0733 1.276-.0733 1.76 0s.088.1333-.88.1333-1.364-.06-.88-.1333zm-79.8471 305.02857c5.31981-16.56509 6.16711-19.61021 6.16711-22.16388 0-3.84425-1.508-7.43062-4.71136-11.20461-2.66365-3.13817-54.1688-43.23235-62.86003-48.93341-5.40781-3.54729-10.71552-5.54883-14.93255-5.6311l-2.13606-.0417-13.13699 6.9463c-7.22534 3.82045-13.41734 7.15459-13.76 7.40919-.61526.45715-.61469.47132.0446 1.14009 1.71686 1.74144 101.78867 80.93296 102.19295 80.87008.30311-.0472 1.37421-2.91654 3.13232-8.391zm-157.75289-295.10857c-.484-.0733-1.276-.0733-1.76 0s-.088.1333.88.1333 1.364-.06.88-.1333zm7.84966-.32464c-.74269-.0671-2.03869-.0679-2.88-.002-.84131.0661-.23366.12105 1.35034.12202 1.584.00096 2.27235-.0531 1.52966-.12024zm174.55034-6.38675c-.308-.0805-.812-.0805-1.12 0s-.056.14635.56.14635.868-.0659.56-.14635zm7.68-.33252c-.66-.069-1.74-.069-2.4 0s-.12.12552 1.2.12552 1.86-.0565 1.2-.12552z" fill="#3667b0"/><path d="m292.95999 614.05538c-8.15632-.34378-21.80792-1.61376-30.88-2.87267-66.06193-9.16727-126.99185-40.03597-174.079994-88.19351-43.678075-44.67005-72.827833-101.90362-83.1753703-163.30919-1.6540641-9.81574-2.7455248-18.65517-3.378317-27.36-.2814725-3.872-.6465114-7.904-.81119763-8.96-.48208444-3.09123-.681133-18.63949-.32977889-25.76 1.66485752-33.73986 6.75514042-61.48889 16.61233482-90.56 20.951829-61.79173 61.65879-115.82033 115.402323-153.168549 43.01035-29.889363 94.04412-48.2575959 145.6-52.4048085 3.344-.2689951 6.872-.56625106 7.84-.66056883 8.04038-.7834201 29.99065-.88816654 33.59999-.16033875.792.15970765 3.888.44906638 6.88.64301938 20.44909 1.3255896 42.72912 5.4841249 64.37229 12.0150027 92.67679 27.965428 167.66159 100.898533 199.18629 193.736243 10.03523 29.55295 15.18071 58.04103 16.62445 92.04184.55814 13.14498-.5033 31.92139-2.7744 49.07816-12.58202 95.04864-68.18992 178.29182-151.04188 226.10468-6.19453 3.57482-19.93606 10.59543-26.52675 13.55264-28.41069 12.74784-59.8344 21.23415-90.72 24.49991-17.24783 1.82371-28.96912 2.30422-42.39999 1.73814zm85.43999-95.98487c10.70355-1.00029 37.60176-9.81552 55.50454-18.1903 10.10131-4.72531 19.99203-10.45463 19.79696-11.46759-.0954-.49513-99.32636-78.80173-99.8679-78.80921-.13552-.003-1.50352.62291-3.04 1.38838-7.97241 3.97184-16.45625 5.776-23.51068 4.99974-8.79014-.96723-15.63507-5.00848-21.33549-12.59648-9.59075-12.76653-32.28818-54.13933-64.35988-117.31504-12.5703-24.7613-13.26685-26.32887-14.57474-32.8-.78473-3.88262-.97042-12.78589-.33656-16.13719.28057-1.48345.63558-2.82264.78891-2.97596.15333-.15333 2.20839-.34498 4.56681-.42589 2.35842-.0809 17.82404-.65064 34.36804-1.26605 55.32851-2.05816 72.86841-2.70559 86.39999-3.1892 7.392-.26418 14.448-.55705 15.68-.65081 1.232-.0938 7.568-.38553 14.08-.64836 6.512-.26284 23.36-1.13191 37.44-1.93127s26.68-1.50725 28-1.57309c1.32-.0659 3.696-.20288 5.28-.30453 10.25645-.65816 25.34758-1.45718 33.28-1.76205 5.104-.19617 13.3639-.57602 18.35536-.84411 8.00585-.43 9.81078-.43484 9.29798-.0249-.0734.0586-17.41334 1.03062-38.53334 2.16s-37.896 2.10241-37.28 2.16228c.94387.0918 134.10575-4.7625 134.30978-4.89609.22212-.14542-1.76992-6.96615-3.60188-12.33277-4.11917-12.06706-8.69271-22.88326-14.88391-35.20001-20.2302-40.24574-49.17564-74.884628-85.17865-101.932833-57.74931-43.385723-129.47388-62.3286961-201.04533-53.097508-55.04831 7.100056-105.27716 30.145488-148.8 68.270718-5.37567 4.708998-20.037147 19.449013-24.866404 24.999613-27.175586 31.23481-46.730536 65.64031-59.019229 103.84001-2.807984 8.72868-5.81995 19.8997-6.44939 23.92l-.28808 1.84.991555-.005c.545356-.003 4.231556-.13974 8.191556-.30387s10.08-.38515 13.599999-.49117c6.771901-.20396 66.436923-2.39775 87.113663-3.20305 15.05334-.58628 16.07245-.59108 16.22498-.0765.0652.22.50296 3.28.97279 6.8 5.86508 43.94156 17.876 86.41424 32.30612 114.24001 4.94261 9.53088 8.56188 15.28883 20.88407 33.22476 22.04836 32.09319 39.59821 53.85178 59.28139 73.49809 32.39026 32.3296 62.69464 49.61984 92.81697 52.95699 4.612.51094 12.82551.58192 17.44.15066zm-274.63559-280.86013c.48642-.0735 1.20642-.0716 1.6.004.39359.076-.004.13614-.8844.13374-.88-.003-1.20201-.0645-.7156-.1381zm5.5156-.25083c.7641-.2625 5.28-.35785 5.28-.11148 0 .14956-1.26.26057-2.8.24667s-2.656-.0747-2.48-.13519zm8.48-.46817c4.02123-.3571 16.49478-.92248 24.48-1.10958 5.97499-.14 5.71997-.11028-3.84.4475-11.25415.65663-25.85141 1.12487-20.64.66208zm32.72966-1.52698c.84131-.0661 2.13731-.0653 2.88.002.74269.0671.0543.12122-1.52966.12025-1.584-.00096-2.19165-.0559-1.35034-.12202zm80.75462-3.21274c-.28024-.45343.92685-.70865 3.15572-.66723 1.83647.0341 1.86431.0465.64.28448-.704.13684-1.80169.35068-2.43932.47521-.68087.13298-1.24065.0948-1.3564-.0925zm17.07572-.0455c0-.89553.46348-1.30617 1.47423-1.30617.94482 0 1.08577.10385 1.08577.8 0 .72-.128.8-1.28.8-.704 0-1.28-.13223-1.28-.29383zm-19.76-.24676c.308-.0805.812-.0805 1.12 0s.056.14635-.56.14635-.868-.0659-.56-.14635zm10.48-.25941c0-.36503.39791-.48 1.66116-.48 1.52931 0 1.61186.0373 1.04.46982-.84275.63742-2.70116.64442-2.70116.0102zm15.04.1827c0-.41095 3.39341-1.36109 4.43181-1.24089.59812.0692.87833.31046.95044.81819.0992.69861.0208.72-2.64.72-1.50824 0-2.74225-.13378-2.74225-.2973zm6.08-.33661c0-.61812 3.58101-.92915 16.16-1.40355 6.7889-.25603 28.34872-1.21387 33.45031-1.4861 8.70617-.46456 9.58968-.44027 9.58968.26367 0 .53838-.79989.61998-11.12 1.13451-12.19231.60786-42.48503 1.79661-45.91999 1.80199-1.201.002-2.16-.13598-2.16-.31052zm59.83999-2.88609c0-.58667.21335-.64 2.56-.64 2.34666 0 2.56.0533 2.56.64 0 .58666-.21334.64-2.56.64-2.34665 0-2.56-.0533-2.56-.64zm8.64-.32c0-.53334.21335-.64 1.28-.64 1.06666 0 1.28.10666 1.28.64 0 .53333-.21334.64-1.28.64-1.06665 0-1.28-.10667-1.28-.64zm187.51999-6.73634c2.05754-.3661 4.16-.35785 4.16.0163 0 .19201-1.11996.30398-2.8.27995-2.45692-.0351-2.62355-.0714-1.36-.29628zm8-.30366c1.15159-.36881 1.92-.36881 1.92 0 0 .176-.612.30564-1.36.2881-1.15532-.0271-1.23961-.0704-.56-.2881zm-57.35052 257.12001c2.7088-8.22845 6.72265-21.16653 7.28249-23.47412.48368-1.9936.51732-2.70189.21962-4.62515-.48448-3.12998-2.39926-6.88541-4.90493-9.6199-3.17891-3.46922-50.54777-40.46176-61.463-47.99933-5.92061-4.08852-13.22419-6.87687-17.06365-6.51456-1.31968.12451-3.97069 1.40563-15.13078 7.312-10.66941 5.64672-13.51159 7.28041-13.44 7.72553.11808.73431 101.97679 81.56762 102.63222 81.44714.33068-.0608.95964-1.49225 1.86803-4.25161zm-127.84508-245.18525c-.39357-.076-1.11357-.0779-1.6-.004-.4864.0735-.16439.1357.71561.1381.88.003 1.27799-.0578.88439-.13373zm6.72275-.3257c-.56807-.0707-1.57607-.0719-2.24-.003-.66394.0693-.19914.12711 1.03286.12854 1.232.001 1.7752-.0553 1.20714-.12595zm6.08-.32c-.56807-.0707-1.57607-.0718-2.24-.003-.66394.0693-.19914.12711 1.03286.12854 1.232.001 1.7752-.0553 1.20714-.12595zm5.76-.32c-.56807-.0707-1.57607-.0718-2.24-.003-.66394.0693-.19914.12711 1.03286.12854 1.232.001 1.7752-.0553 1.20714-.12595zm6.08-.32c-.56807-.0707-1.57607-.0719-2.24-.003-.66394.0693-.19914.12711 1.03286.12854 1.232.001 1.7752-.0553 1.20714-.12595zm5.76-.32c-.56807-.0707-1.57607-.0719-2.24-.003-.66394.0693-.19914.12711 1.03286.12854 1.232.001 1.7752-.0553 1.20714-.12595zm6.08-.32c-.56807-.0707-1.57607-.0719-2.24-.003-.66394.0693-.19914.12711 1.03286.12854 1.232.001 1.7752-.0553 1.20714-.12595zm5.76-.32c-.56807-.0707-1.57607-.0718-2.24-.003-.66394.0693-.19914.12711 1.03286.12854 1.232.001 1.7752-.0553 1.20714-.12595zm5.91286-.32215c-.66-.069-1.74-.069-2.4 0s-.12.12552 1.2.12552 1.86-.0565 1.2-.12552zm5.92714-.31785c-.56807-.0707-1.57607-.0719-2.24-.003-.66394.0693-.19914.12711 1.03286.12854 1.232.001 1.7752-.0553 1.20714-.12595zm6.23286-.31824c-.484-.0733-1.276-.0733-1.76 0s-.088.13331.88.13331 1.364-.06.88-.13331zm28.64438-3.19606c-.39357-.076-1.11357-.0779-1.6-.004-.4864.0736-.16438.1357.71562.1381.88.003 1.27798-.0578.88438-.13373zm7.83562-.32996c-.836-.0659-2.204-.0659-3.04 0s-.152.11986 1.52.11986 2.356-.0539 1.52-.11986z" fill="#2658a6"/><path d="m293.99999 614.18453c-3.1895-.0714-5.36-.24643-5.36-.43225 0-.17175-.9-.31408-2-.31632-2.36505-.005-11.36698-.75044-17.49363-1.44903-28.4679-3.24595-56.85957-10.75318-83.38637-22.0487-6.96339-2.96512-22.49412-10.61514-29.19804-14.38215-35.31487-19.84384-66.72375-47.01149-91.790884-79.39606-32.36405-41.81156-53.596139-91.93812-61.0618281-144.16001-1.4940037-10.45043-2.74923795-23.26438-2.74923795-28.06534 0-1.12884-.12114764-1.97757-.26921694-1.88605-.40693284.25152-.70609029-13.85525-.47409906-22.35611.11268515-4.12912.32602972-7.43263.47409906-7.34111.1480693.0915.26921694-.75721.26921694-1.88604 0-4.77007 1.24937315-17.54774 2.73984855-28.02116 10.3754765-72.90744 47.5033135-140.79857 103.1801415-188.672908 33.82516-29.084935 71.96704-49.765232 113.92-61.766735 20.72985-5.9301984 44.11801-9.951413 63.5519-10.9267171 2.35845-.11836064 4.2881-.31469735 4.2881-.43630385 0-.35726985 14.09781-.62139059 22.06804-.41344197 4.04142.10544343 7.28648.29132293 7.21124.41306552-.0752.1217426 1.83814.31588366 4.25195.4314246 19.30857.9242327 42.95417 4.9844758 63.87289 10.9677608 67.9526 19.436168 127.715 63.089616 167.68981 122.489005 7.63565 11.34596 13.537 21.51245 19.99095 34.43929 18.12662 36.30629 28.45036 73.84925 31.71068 115.31784.17844 2.26956.32442 5.05005.32442 6.17888s.12115 1.97755.26922 1.88604c.40694-.2515.70608 13.85525.47411 22.35611-.11271 4.12912-.32605 7.43263-.47411 7.34111-.14807-.0915-.26922.75721-.26922 1.88605 0 6.87875-2.2192 26.33885-4.35002 38.14534-14.10374 78.14583-57.07458 147.06727-120.92997 193.96094-24.51338 18.00195-53.80771 33.10048-82.72646 42.63782-17.69882 5.83703-34.36887 9.75536-52.47354 12.33402-7.95091 1.13245-21.39126 2.41574-25.37888 2.42317-1.37017.003-2.10548.12284-1.98112.32406.12676.20509-.93952.32-2.96965.32-1.74209 0-5.96259.0505-9.37889.11226-3.4163.0617-8.62345.0582-11.57145-.008zm85.4526-96.12563c8.78073-.96391 31.50633-8.11447 47.42739-14.92292 11.42403-4.88531 27.2-13.36409 27.2-14.61859 0-.23264-.9-1.12544-2-1.98403s-14.096-11.07501-28.88-22.7032-36.34902-28.58695-47.92227-37.68615-21.2295-16.544-21.45834-16.544c-.22886 0-1.41584.50532-2.63772 1.12292-2.67424 1.35164-6.58637 2.89772-9.42167 3.72348-4.95494 1.44308-12.20633 1.97802-16.50121 1.21728-7.96395-1.41059-14.61855-5.87203-20.01131-13.41625-8.12364-11.36455-24.72121-41.06631-46.76519-83.68743-5.98899-11.57947-11.12228-21.81596-11.12228-22.17936 0-.21028 10.49066-1.05897 13.28-1.07435.352-.002 3.232-.13622 6.4-.2984s17.28-.72506 31.36-1.25083c89.08572-3.32666 120.31541-4.5138 125.11999-4.75623 2.992-.15097 5.872-.28172 6.4-.29056 1.80854-.0303 10.55846-.36821 14.4-.55616 2.112-.10332 5.928-.25609 8.48-.33948 2.552-.0834 5.936-.22604 7.52-.31702 1.584-.091 3.672-.15533 4.64-.14301.968.0123 2.67561-.14467 3.79468-.34888 1.6096-.29371 2.0866-.28727 2.28317.0308.26426.42756 1.19834.35028 3.98877-.32999 1.16586-.28421 1.61846-.29129 1.70666-.0267.1407.42207 2.94672.49488 2.94672.0764 0-.43731 2.9966-.80649 3.13664-.38643.14521.43568 2.85059.46682 2.9967.0345.0587-.17359.79066-.40916 1.62666-.5235 1.31824-.18029 1.52-.13284 1.52.35748 0 .47238.19312.53402 1.17411.37483.64576-.10479 1.25776-.32552 1.36-.4905s.86989-.40243 1.70589-.52767c1.27939-.19166 1.52-.14598 1.52.28863 0 .42842.36777.50891 2.16.47275 1.188-.024 1.836-.10598 1.44-.18225-.77847-.14994-1.00128-.73417-.28-.73417.24198 0 .88998-.09 1.44-.2.7918-.15836 1-.0917 1 .32 0 .37173.29654.52223 1.04.52782 4.68735.0353 64.12313-2.40814 64.27586-2.64237.11671-.17898 1.37773-.20794 3.12-.0716 2.188.17116 2.92413.13209 2.92413-.15523 0-.27782.79648-.35559 2.88074-.28128 1.58441.0565 2.88041-.005 2.88-.13729 0-.132 1.20528-.24 2.67926-.24 3.34589 0 4.61792-.24545 4.75082-.91672.15113-.76336-.60807-9.02882-1.35603-14.76328-3.43069-26.30205-11.23895-53.96841-22.3977-79.36-4.3016-9.7882-10.59101-21.98422-16.25465-31.52-17.12973-28.84084-38.85348-54.299-64.71395-75.83854-21.97891-18.306509-47.16208-33.389124-73.74848-44.169172-41.01913-16.632115-86.00934-23.090599-130.23999-18.696356-54.31173 5.395779-105.36449 26.615322-148.16 61.581135-50.052435 40.895053-85.541013 98.154303-100.270793 161.782503-4.499762 19.43761-7.162545 40.76298-7.382409 59.12334l-.07021 5.86285 3.301709-.20682c1.81594-.11375 7.981709-.39632 13.701709-.62794 9.919952-.40168 13.777542-.57791 20.959999-.95757 1.76-.093 11.552-.60561 21.759999-1.13907 10.208-.53345 22.231996-1.18879 26.719996-1.45631 4.488-.26751 9.24-.53921 10.56-.60376 6.51487-.31861 44.59415-1.77198 46.45457-1.77303l2.13458-.001.22411 1.04c.54154 2.51315 4.44255 15.66116 6.33749 21.36 7.16136 21.53699 15.00677 38.47421 24.70719 53.33955 5.29163 8.10912 17.84229 26.2528 24.41864 35.30045 22.01164 30.28333 44.16799 54.93456 64.92811 72.2393 25.25897 21.05475 48.95735 32.63923 73.13162 35.7489 4.04685.52057 15.50736.60835 19.67629.15068zm123.90739-232.57702c0-.15297.54-.36739 1.2-.47648 1.75558-.29018 1.99999-.25662 1.99999.27461 0 .36266-.3911.48-1.59999.48-.88 0-1.6-.12516-1.6-.27813zm6.07999-.32187c0-.28487 1.51082-.68 2.6-.68.33002 0 .6.216.6.48 0 .36266-.3911.48-1.6.48-.88 0-1.6-.126-1.6-.28zm5.76-.31813c0-.15297.54-.36739 1.2-.47648 1.75559-.29018 2-.25662 2 .27461 0 .36266-.3911.48-1.6.48-.88 0-1.6-.12516-1.6-.27813zm6.08-.36187c0-.176.19802-.32.44-.32.24202 0 .89002-.09 1.44-.2.79181-.15836 1-.0917 1 .32 0 .40296-.32409.52-1.44.52-.792 0-1.44-.144-1.44-.32zm5.76-.27813c0-.15297.54-.36739 1.2-.47648 1.75559-.29018 2-.25662 2 .27461 0 .36266-.3911.48-1.6.48-.88 0-1.6-.12516-1.6-.27813zm6.08-.32187c0-.26515 1.48858-.68 2.44-.68.24202 0 .44.216.44.48 0 .35555-.37334.48-1.44.48-.792 0-1.44-.126-1.44-.28zm5.76-.36c0-.176.49223-.32 1.09383-.32s1.3216-.0874 1.6-.19424c.33216-.12746.50617-.0174.50617.32 0 .40375-.34377.51424-1.6.51424-.88 0-1.6-.144-1.6-.32zm6.08-.32c0-.176.648-.32 1.44-.32s1.44.144 1.44.32-.648.32-1.44.32-1.44-.144-1.44-.32zm5.76-.32c0-.176.72-.32 1.6-.32s1.6.144 1.6.32-.72.32-1.6.32-1.6-.144-1.6-.32zm6.88-.32c1.41543-.36017 2.08-.36017 2.08 0 0 .176-.684.30296-1.52.28214-1.35677-.0338-1.41693-.0641-.56-.28214zm5.68-.2292c.484-.0733 1.276-.0733 1.76 0s.088.13331-.88.13331-1.364-.06-.88-.13331zm6.08439-.32043c.48643-.0736 1.20643-.0716 1.6.004.3936.0759-.004.13613-.88439.13373-.88-.003-1.20201-.0645-.71561-.1381zm6.71561-.31096c.308-.0805.812-.0805 1.12 0s.056.14635-.56.14635-.868-.0659-.56-.14635zm-108.95315 195.56284c3.96096-11.98061 7.19124-22.81162 7.34548-24.62887.21401-2.52163-.34468-5.09517-1.68404-7.75741-2.06364-4.10179-3.5719-5.54265-16.29379-15.56547-25.69078-20.24026-44.53414-34.66307-49.76739-38.09219-5.18073-3.39472-11.19011-5.61888-15.1783-5.61776-1.92026 0-2.14566.10409-15.3888 7.06931-7.392 3.88781-13.64361 7.26432-13.89251 7.50339-.38358.36842-.38579.51501-.0147.96231.24086.2902 13.18851 10.64134 28.77251 23.00249 15.58403 12.36115 34.02259 26.99079 40.97459 32.51031 28.92986 22.96873 32.72931 25.93561 33.07629 25.82845.20003-.0618 1.12278-2.40832 2.05056-5.21456z" fill="#174898"/><path d="m295.19999 614.08786c-4.64937-.12544-5.74352-.22029-4-.34669l2.4-.17398-2.88-.0649c-13.43169-.30259-34.16659-2.95584-50.56-6.46966-74.01046-15.86365-139.61573-59.64167-183.911362-122.72298-16.746742-23.849-30.444745-51.05264-39.723239-78.88864-6.9874164-20.96263-11.8354635-43.25815-14.1210801-64.941-.6484835-6.15194-1.42963007-16.7305-1.50047944-20.32l-.056845-2.88-.18413337 2.24c-.3020784 3.67482-.58461042-11.30079-.3719652-19.71601.13112507-5.18914.2450288-6.74807.37146345-5.08399l.1823494 2.4.0608151-2.88c.08555654-4.05167.59293906-11.05081 1.35705186-18.72 4.9496829-49.67858 21.9989853-97.37827 49.7542673-139.20001 47.133184-71.020417 121.272257-118.921826 204.289647-131.9919682 10.85229-1.7085684 21.99048-2.8590574 31.85351-3.2902213 4.6837-.20474874 5.10633-.26316171 3.04-.42015986-1.32-.10029219 4.152-.18234941 12.15999-.18234941 8.008 0 13.48.0820572 12.16.18234941-2.02711.15401825-1.48022.22481672 3.52.45568426 48.74 2.2503948 97.4696 17.2902641 140.12048 43.2466661 21.24067 12.926602 39.524 27.412549 57.63951 45.66796 15.44256 15.561809 26.581 29.188479 38.14963 46.671899 30.66468 46.34277 48.33664 100.64336 50.81539 156.14015.16186 3.62371.21568 3.95896.33396 2.08.23267-3.69601.4918 13.90898.3038 20.64-.12012 4.30126-.2222 5.49434-.32854 3.84-.12109-1.88411-.21347-1.09309-.42976 3.68-1.46541 32.3393-8.74512 66.39491-20.72611 96.96-6.68595 17.05671-15.91248 35.41924-25.59574 50.94029-17.95207 28.77498-41.86919 55.69546-68.08563 76.6354-24.1656 19.30189-50.26806 34.42118-78.84688 45.6704-7.12787 2.8057-20.48493 7.31738-27.27011 9.21117-21.31696 5.94976-43.69852 9.69097-64.32 10.75149-7.81501.40192-7.9235.41363-5.28.56963 1.33829.079-1.20981.23891-5.76.36153-4.488.12096-8.15999.19757-8.15999.17028 0-.0272-2.88-.1274-6.4-.22234zm82.71999-95.70381c5.15549-.46759 12.70237-2.31747 24.32-5.96135 18.05811-5.66393 34.81817-12.98409 48.4-21.13929 2.69357-1.61735 3.43721-2.21504 3.4272-2.75447-.01-.52329-4.14519-3.93292-17.2-14.18124-9.45296-7.4208-31.9295-25.09681-49.94787-39.28001-18.01837-14.18323-32.86864-25.78768-33.00064-25.78768s-1.8777.77879-3.87933 1.73066c-7.08438 3.3689-12.6974 4.75203-19.31936 4.76051-10.99008.0141-18.74723-4.29638-25.81141-14.34272-2.30573-3.2791-6.33239-9.66416-6.69342-10.61376-.26046-.68506-.19851-.73469.91726-.73469 4.80142 0 29.62415-1.41209 39.58757-2.25203 2.112-.17805 6.432-.53776 9.6-.79939 5.94567-.49101 8.25223-.72973 15.36-1.58983 10.45965-1.26566 32.24074-4.7568 34.88-5.59065.528-.16682 2.77536-.59763 4.99418-.95741 4.06492-.65907 15.8399-3.07318 19.35184-3.96749 1.04169-.26528 3.69398-.85539 5.89398-1.31139 5.44547-1.12867 24.15321-6.07949 33.76-8.93427 10.04428-2.9848 12.23203-3.68256 23.68-7.55242 16.36851-5.53318 21.13366-7.31216 36.47999-13.61894 19.68983-8.09184 37.28592-16.32071 56.8-26.5627 6.6632-3.49719 7.3575-3.93522 7.71091-4.86478.34794-.91518-.10083-17.48525-.67817-25.0387-3.24128-42.40782-15.35571-83.89946-35.1769-120.48-20.7182-38.23595-48.71782-70.597303-83.30921-96.286891-38.05565-28.262388-83.37232-46.529246-129.82662-52.332308-50.37422-6.292737-101.17004 1.169221-146.65196 21.543328-26.60559 11.918256-49.27233 26.525326-72.22803 46.545736-6.28992 5.485642-19.664571 18.868665-25.314286 25.330125-31.596561 36.13633-53.348618 77.34589-65.198815 123.52001-8.303137 32.35305-11.200977 68.23399-8.192158 101.43494.289673 3.19642.63314 5.41473.871654 5.62961 1.216382 1.09593 33.283449 11.92323 49.673611 16.77206 4.224 1.24963 8.832 2.61696 10.24 3.03853 5.61623 1.6815 28.348304 7.61443 34.399994 8.97817 1.848.41642 5.304 1.20432 7.68 1.75085 5.2683 1.21184 12.13137 2.67763 16.64 3.55392 1.848.35917 5.448 1.06765 8 1.57443 9.76764 1.93965 26.55518 4.70624 35.68 5.88007 17.05332 2.19376 20.79736 2.77766 21.31389 3.32393.28264.29892 1.63798 2.19949 3.01185 4.22349 36.29882 53.47559 71.04958 90.01933 104.73374 110.13751 4.46968 2.66957 14.38311 7.65283 18.62051 9.36013 16.10464 6.4887 31.90682 9.16089 46.4 7.8464zm89.71638-42.14403c3.00118-9.17981 6.25722-19.76756 6.80422-22.12564.9224-3.97635-.68729-9.15885-4.20652-13.54297-1.44944-1.80567-12.68074-10.8304-36.19709-29.08573-17.4607-13.5544-25.45197-19.4992-29.22422-21.74026-4.5657-2.71245-10.93059-4.69968-14.06989-4.3929-1.13459.11088-4.51504 1.75492-15.06288 7.32573-12.0136 6.34493-13.60777 7.27488-13.66656 7.97229-.0573.67939 1.21437 1.79757 9.12 8.0192 5.05261 3.97632 28.10202 22.22832 51.22093 40.56 23.11888 18.33165 42.30016 33.33028 42.62505 33.33028.48461 0 .96189-1.1353 2.65696-6.32z" fill="#0e3583"/></g></svg>