<?xml version="1.0" standalone="no"?>
<!DOCTYPE svg PUBLIC "-//W3C//DTD SVG 20010904//EN"
 "http://www.w3.org/TR/2001/REC-SVG-20010904/DTD/svg10.dtd">
<svg version="1.0" xmlns="http://www.w3.org/2000/svg"
 width="1920.000000pt" height="1920.000000pt" viewBox="0 0 1920.000000 1920.000000"
 preserveAspectRatio="xMidYMid meet">
<metadata>
Created by potrace 1.11, written by Peter Selinger 2001-2013
</metadata>
<g transform="translate(0.000000,1920.000000) scale(0.100000,-0.100000)"
fill="#000000" stroke="none">
<path d="M12989 19196 c-2 -2 -29 -6 -59 -9 -30 -4 -80 -11 -110 -17 -30 -6
-66 -13 -80 -16 -14 -3 -59 -14 -100 -26 -337 -92 -640 -256 -970 -522 -84
-68 -349 -329 -426 -421 -576 -684 -966 -1611 -1089 -2585 -2 -14 -6 -59 -10
-100 -4 -41 -9 -82 -10 -91 -9 -45 -19 -294 -19 -454 0 -195 9 -384 25 -510 5
-44 11 -96 14 -116 5 -43 32 -213 40 -249 3 -14 8 -38 11 -55 29 -160 128
-501 179 -620 7 -16 25 -61 40 -100 25 -63 157 -330 188 -380 154 -247 274
-401 433 -555 228 -220 458 -364 739 -463 136 -48 265 -76 425 -93 53 -6 311
-6 345 0 17 2 57 7 90 11 180 18 520 129 715 232 356 189 685 461 965 798 28
33 52 62 55 65 18 18 137 182 197 270 312 462 568 1057 706 1640 14 58 28 119
30 135 3 17 12 62 20 100 19 86 57 345 72 490 20 191 27 638 12 845 -9 116
-10 125 -21 215 -4 28 -9 68 -12 90 -2 22 -7 52 -10 67 -3 15 -7 41 -9 59 -9
65 -47 247 -80 374 -158 609 -460 1141 -840 1482 -95 85 -221 183 -235 183 -5
0 -10 5 -10 10 0 6 -5 10 -11 10 -6 0 -29 13 -52 28 -57 39 -170 99 -242 129
-33 13 -74 31 -91 38 -17 8 -57 22 -90 31 -113 31 -195 52 -199 52 -15 2 -103
15 -120 19 -23 6 -401 13 -406 9z"/>
<path d="M6537 18804 c-1 -1 -31 -4 -67 -8 -36 -3 -76 -8 -90 -11 -14 -3 -38
-8 -55 -11 -287 -52 -609 -212 -850 -424 -293 -256 -541 -609 -717 -1019 -43
-101 -152 -405 -163 -457 -2 -11 -19 -82 -39 -159 -30 -121 -46 -198 -71 -340
-3 -16 -7 -50 -11 -75 -3 -25 -7 -56 -10 -70 -2 -14 -6 -52 -9 -85 -3 -33 -8
-69 -10 -80 -24 -116 -25 -814 0 -966 2 -13 6 -55 10 -92 3 -37 8 -76 9 -85 2
-9 7 -39 10 -67 15 -105 17 -121 22 -145 2 -14 6 -36 9 -50 7 -39 46 -233 50
-252 2 -9 16 -61 30 -115 15 -54 33 -121 40 -149 85 -316 278 -772 451 -1064
64 -109 209 -329 224 -340 4 -3 11 -12 16 -21 18 -33 170 -214 254 -303 130
-139 337 -311 505 -421 61 -40 295 -163 350 -183 17 -6 55 -21 85 -32 67 -25
215 -66 290 -80 179 -34 437 -34 610 0 30 6 67 13 82 15 56 10 242 76 325 115
313 146 544 342 826 700 67 84 201 311 276 463 114 236 240 595 286 817 2 8
13 62 25 120 96 468 119 993 65 1520 -4 41 -9 82 -10 91 -2 9 -6 40 -10 70 -3
30 -11 81 -17 114 -6 33 -12 69 -14 80 -1 11 -12 67 -24 125 -12 58 -24 116
-26 130 -3 14 -14 59 -25 100 -12 41 -23 85 -25 98 -3 13 -11 42 -18 65 -8 23
-24 76 -36 117 -11 41 -25 84 -29 95 -5 11 -21 56 -37 100 -70 202 -223 538
-335 735 -75 131 -305 464 -364 526 -5 6 -39 44 -75 85 -185 208 -391 384
-607 518 -276 171 -541 264 -843 297 -56 6 -258 12 -263 8z"/>
<path d="M1830 14063 c-774 -66 -1357 -666 -1587 -1633 -14 -58 -26 -114 -28
-125 -1 -11 -10 -60 -18 -110 -9 -49 -19 -112 -22 -140 -3 -27 -8 -64 -10 -82
-26 -184 -26 -740 -1 -908 3 -16 7 -55 10 -85 10 -104 49 -352 71 -450 3 -14
8 -36 11 -50 3 -14 17 -74 31 -135 15 -60 28 -112 28 -115 13 -54 74 -259 85
-285 5 -11 22 -60 38 -110 98 -294 242 -609 431 -939 96 -168 291 -449 407
-586 264 -312 489 -518 772 -706 256 -171 607 -318 832 -348 25 -3 56 -9 70
-12 43 -10 342 -13 410 -4 496 66 910 353 1198 827 152 251 289 617 341 908 6
33 13 71 16 85 3 14 7 36 9 50 7 36 23 150 31 225 25 222 25 658 0 885 -3 25
-7 65 -10 90 -15 142 -35 270 -71 450 -22 110 -43 194 -97 400 -17 64 -113
354 -151 454 -147 391 -369 806 -614 1151 -48 67 -207 269 -256 325 -101 114
-363 363 -467 443 -63 49 -121 94 -129 100 -114 90 -431 260 -595 319 -102 37
-277 83 -350 93 -22 3 -56 7 -75 10 -41 7 -259 12 -310 8z"/>
<path d="M17198 13125 c-2 -2 -30 -6 -63 -9 -87 -10 -105 -13 -160 -26 -27 -6
-61 -14 -75 -16 -61 -12 -275 -91 -380 -141 -331 -159 -602 -363 -895 -675
-143 -153 -338 -402 -435 -558 -19 -30 -37 -57 -40 -60 -4 -3 -10 -12 -13 -20
-4 -8 -16 -28 -27 -45 -11 -16 -24 -39 -30 -50 -6 -11 -16 -29 -23 -40 -70
-114 -223 -423 -289 -585 -192 -467 -318 -960 -363 -1420 -35 -352 -22 -844
30 -1111 3 -13 8 -40 11 -59 14 -83 75 -314 110 -415 38 -113 118 -303 135
-320 5 -5 9 -15 9 -22 0 -17 102 -185 180 -295 73 -102 243 -280 337 -351 146
-111 290 -187 456 -242 117 -38 129 -41 262 -60 87 -13 351 -13 405 -1 14 3
41 8 61 10 123 17 345 86 494 154 206 94 474 266 635 408 468 413 821 899
1097 1514 117 259 250 644 299 861 2 10 6 27 8 37 16 65 36 152 41 177 23 123
45 256 49 285 2 19 7 62 11 95 4 33 8 70 10 82 26 166 26 769 0 913 -2 14 -6
48 -10 75 -24 215 -117 582 -192 755 -188 436 -421 730 -738 932 -176 112
-347 174 -590 214 -38 6 -312 14 -317 9z"/>
<path d="M9408 9025 c-2 -2 -61 -6 -133 -9 -71 -4 -146 -9 -165 -11 -19 -2
-66 -6 -105 -9 -69 -6 -136 -14 -185 -21 -14 -2 -45 -7 -70 -10 -25 -3 -56 -8
-70 -10 -14 -2 -43 -6 -65 -10 -23 -3 -52 -7 -65 -10 -13 -3 -40 -7 -60 -10
-20 -3 -45 -7 -55 -9 -247 -50 -511 -114 -665 -161 -47 -15 -92 -28 -100 -30
-67 -15 -257 -87 -355 -135 -105 -51 -294 -167 -364 -225 -204 -168 -270 -231
-691 -661 -276 -282 -382 -376 -595 -531 -87 -63 -384 -263 -491 -330 -131
-82 -443 -272 -494 -301 -25 -14 -56 -33 -70 -42 -14 -9 -29 -19 -35 -21 -8
-3 -233 -137 -330 -196 -11 -7 -27 -16 -35 -20 -13 -6 -239 -143 -430 -260
-112 -68 -368 -237 -480 -316 -265 -187 -383 -278 -484 -375 -235 -224 -403
-673 -453 -1212 -15 -151 -7 -582 12 -678 2 -12 6 -45 9 -74 4 -29 8 -62 10
-73 3 -11 14 -66 25 -123 24 -123 70 -288 112 -403 119 -327 280 -578 564
-878 538 -569 1292 -996 2265 -1285 88 -26 342 -95 369 -101 9 -2 68 -15 131
-30 63 -15 124 -29 135 -31 11 -2 43 -8 71 -14 28 -6 61 -13 75 -15 13 -3 35
-7 49 -10 35 -8 179 -35 215 -41 17 -3 66 -11 110 -19 73 -13 217 -36 320 -50
22 -3 54 -7 70 -10 17 -3 46 -7 65 -9 91 -12 133 -18 148 -21 10 -1 53 -6 97
-11 44 -4 82 -8 85 -9 3 -1 39 -5 80 -9 41 -4 89 -9 105 -11 17 -2 59 -7 95
-10 36 -3 83 -8 105 -10 22 -2 72 -7 110 -10 39 -3 95 -8 125 -10 30 -3 82 -7
115 -10 33 -3 96 -8 140 -11 44 -3 105 -7 135 -9 30 -2 100 -7 155 -10 55 -3
132 -7 170 -10 72 -4 231 -13 370 -20 85 -4 261 -13 385 -20 188 -10 382 -18
675 -30 83 -3 184 -8 225 -10 483 -26 1667 -26 2036 0 33 2 102 7 154 10 52 3
118 7 145 10 102 9 191 17 220 20 17 2 55 6 85 9 30 3 66 8 80 10 14 2 54 7
90 11 36 4 72 8 81 10 8 1 42 6 75 10 32 3 95 13 139 20 44 7 96 16 115 19 19
3 60 10 90 16 30 6 64 13 75 15 33 5 75 13 170 34 537 118 964 265 1365 470
213 109 309 167 499 299 309 215 669 568 809 795 67 107 147 302 167 409 2 11
6 27 9 36 3 9 7 33 10 52 3 19 8 46 11 60 24 118 25 504 1 640 -3 14 -7 43
-10 65 -8 60 -25 155 -30 173 -3 10 -7 34 -11 56 -3 21 -7 41 -10 45 -2 4 -6
18 -9 32 -15 80 -117 412 -145 474 -5 11 -28 65 -51 120 -118 283 -302 547
-570 815 -208 207 -400 368 -767 641 -98 73 -257 191 -353 263 -149 111 -414
318 -430 335 -3 4 -34 31 -70 61 -135 113 -280 256 -407 403 -114 130 -132
153 -276 347 -115 155 -115 155 -165 227 -205 295 -462 654 -482 673 -3 3 -23
28 -45 55 -282 357 -578 612 -885 766 -111 55 -305 139 -323 139 -7 0 -17 4
-23 8 -5 5 -54 23 -109 41 -55 18 -109 37 -120 42 -54 23 -478 134 -560 146
-16 2 -37 6 -45 9 -15 5 -136 27 -215 38 -22 4 -53 9 -70 12 -16 3 -46 7 -65
8 -53 6 -150 17 -190 22 -158 19 -318 27 -602 29 -147 1 -269 1 -270 0z"/>
</g>
</svg>
